<?xml version="1.0" encoding="utf-8"?>
<!-- Generator: Adobe Illustrator 21.1.0, SVG Export Plug-In . SVG Version: 6.00 Build 0)  -->
<svg version="1.1" id="Layer_1" xmlns="http://www.w3.org/2000/svg" xmlns:xlink="http://www.w3.org/1999/xlink" x="0px" y="0px"
	 viewBox="0 0 200 155" style="enable-background:new 0 0 200 155;" xml:space="preserve">
<g>
	<g>
		<path d="M40.2,76.5c40.1,0,79.8,0,119.8,0c0,6.1,0,12,0,18.1c3.4,0,6.5,0,10,0c0-4.4-0.1-8.8,0.1-13.2c0.1-1.3,1-2.5,1.5-3.8
			c1.3,0.6,3,0.8,3.9,1.7c7.7,7.8,15.3,15.9,23,23.7c2.1,2.1,2.1,3.7,0,5.8c-7.8,7.9-15.4,16-23.2,24c-0.9,0.9-2.8,1.7-3.6,1.3
			c-0.9-0.4-1.5-2.3-1.6-3.6c-0.2-4.3-0.1-8.6-0.1-13.4c-1.6,0-3,0-4.4,0c-37,0-74,0-111.1,0c-9.6,0-14.3-4.6-14.3-14.2
			C40.2,94.3,40.2,85.6,40.2,76.5z M77.8,84.5c-6.3,0-12.6,0-18.9,0c-3.8,0-4.8,1.1-4.8,4.9c0,2,0,4,0,6c0,2.7,1.4,4.1,4.1,4.1
			c13.1,0,26.2,0,39.3,0c2.9,0,4.2-1.5,4.3-4.3c0.1-2,0.1-4,0-6c-0.1-3.5-1.3-4.7-4.8-4.7C90.6,84.4,84.2,84.5,77.8,84.5z
			 M129.5,84.5c-4.6,0-9.2-0.1-13.8,0.1c-1,0-1.9,1.1-2.8,1.7c1,0.6,1.9,1.7,2.9,1.7c9.2,0.1,18.4,0.1,27.6,0c0.9,0,1.8-1.1,2.7-1.8
			c-0.9-0.6-1.8-1.6-2.8-1.6C138.7,84.4,134.1,84.5,129.5,84.5z M120.1,99.4C120.1,99.4,120.1,99.4,120.1,99.4
			c1.9,0,3.8,0.1,5.6-0.1c0.6-0.1,1.4-1.1,1.6-1.8c0.1-0.4-1-1.5-1.6-1.5c-3.7-0.2-7.3-0.2-11,0c-0.7,0-1.3,1.1-1.9,1.7
			c0.6,0.6,1.2,1.6,1.9,1.7C116.5,99.6,118.3,99.4,120.1,99.4z"/>
		<path d="M30.2,37.5c1.7,0,3,0,4.4,0c37.3,0,74.6,0,112,0.1c8.6,0,13.5,4.9,13.5,13.4c0,2.9,0,5.8,0,9c-43.4,0-86.4,0-129.9,0
			c0,4.5,0.2,8.8-0.1,13c-0.1,1.4-1.1,2.8-1.7,4.3c-1.3-0.7-2.9-1-3.9-2C17,67.5,9.5,59.7,2,51.9c-2.7-2.8-2.7-3.4,0-6.2
			C9.5,37.9,16.9,30,24.5,22.3c1-1,2.6-1.3,3.9-2c0.6,1.4,1.6,2.8,1.7,4.3C30.4,28.8,30.2,33,30.2,37.5z"/>
		<path d="M40.4,72.9c0-3.1,0-6,0-9.1c39.8,0,79.6,0,119.5,0c0,3,0,6,0,9.1C120.1,72.9,80.4,72.9,40.4,72.9z"/>
		<path d="M98.1,88.3c0,2.5,0,4.8,0,7.4c-13.5,0-26.8,0-40.4,0c0-2.4,0-4.8,0-7.4C71.1,88.3,84.5,88.3,98.1,88.3z"/>
	</g>
	<g>
		<path d="M68.9,21.3c0,1-0.2,2-0.7,3.1c-0.5,1.1-1.2,2.2-2.2,3.3c-1,1.1-2.3,1.9-3.9,2.6c-1.6,0.7-3.4,1-5.5,1
			c-1.6,0-3-0.1-4.3-0.4c-1.3-0.3-2.5-0.8-3.5-1.4c-1.1-0.6-2-1.5-2.9-2.5c-0.8-0.9-1.5-2-2-3.2c-0.6-1.2-1-2.4-1.3-3.7
			s-0.4-2.7-0.4-4.2c0-2.4,0.4-4.6,1.1-6.5c0.7-1.9,1.7-3.5,3-4.9c1.3-1.4,2.8-2.4,4.6-3.1c1.8-0.7,3.6-1.1,5.6-1.1
			c2.4,0,4.6,0.5,6.5,1.4c1.9,1,3.3,2.2,4.3,3.6c1,1.4,1.5,2.8,1.5,4c0,0.7-0.2,1.3-0.7,1.8C67.6,11.7,67,12,66.3,12
			c-0.8,0-1.4-0.2-1.7-0.6s-0.8-1-1.3-1.9c-0.8-1.5-1.7-2.6-2.8-3.3c-1.1-0.7-2.4-1.1-3.9-1.1c-2.5,0-4.5,0.9-5.9,2.8
			s-2.2,4.6-2.2,8.1c0,2.3,0.3,4.3,1,5.8c0.7,1.5,1.6,2.7,2.8,3.5c1.2,0.8,2.6,1.1,4.2,1.1c1.7,0,3.2-0.4,4.4-1.3s2.1-2.1,2.7-3.8
			c0.3-0.8,0.6-1.4,1-1.9c0.4-0.5,1-0.7,1.8-0.7c0.7,0,1.3,0.3,1.9,0.8C68.6,19.9,68.9,20.5,68.9,21.3z"/>
		<path d="M93.5,27.3L92,23.6H79.9l-1.4,3.8c-0.6,1.5-1,2.5-1.4,3s-1,0.8-1.9,0.8c-0.8,0-1.4-0.3-2-0.8c-0.6-0.6-0.9-1.2-0.9-1.9
			c0-0.4,0.1-0.8,0.2-1.3c0.1-0.4,0.4-1,0.7-1.8L80.7,6c0.2-0.6,0.5-1.2,0.8-2c0.3-0.8,0.6-1.4,1-1.9s0.8-0.9,1.4-1.3
			c0.6-0.3,1.3-0.5,2.1-0.5c0.8,0,1.5,0.2,2.1,0.5c0.6,0.3,1,0.7,1.4,1.2s0.6,1,0.9,1.6S90.8,5,91.2,6L99,25.3
			c0.6,1.5,0.9,2.5,0.9,3.2c0,0.7-0.3,1.3-0.9,1.9c-0.6,0.6-1.3,0.9-2.1,0.9c-0.5,0-0.9-0.1-1.2-0.3c-0.3-0.2-0.6-0.4-0.9-0.7
			c-0.2-0.3-0.5-0.7-0.7-1.3C93.9,28.3,93.7,27.8,93.5,27.3z M81.5,19h8.9L85.9,6.7L81.5,19z"/>
		<path d="M127.1,21.7c0,1.8-0.5,3.4-1.4,4.9s-2.3,2.6-4.1,3.4c-1.8,0.8-3.9,1.2-6.4,1.2c-3,0-5.4-0.6-7.3-1.7
			c-1.4-0.8-2.5-1.9-3.3-3.2c-0.9-1.3-1.3-2.6-1.3-3.9c0-0.7,0.3-1.4,0.8-1.9s1.2-0.8,1.9-0.8c0.6,0,1.2,0.2,1.6,0.6s0.8,1,1.1,1.8
			c0.4,1,0.8,1.7,1.2,2.4c0.4,0.6,1.1,1.2,1.9,1.6c0.8,0.4,1.9,0.6,3.2,0.6c1.8,0,3.3-0.4,4.4-1.3s1.7-1.9,1.7-3.1
			c0-1-0.3-1.8-0.9-2.4c-0.6-0.6-1.4-1.1-2.3-1.4c-1-0.3-2.2-0.7-3.8-1c-2.1-0.5-3.9-1.1-5.4-1.8c-1.4-0.7-2.6-1.6-3.4-2.8
			c-0.9-1.2-1.3-2.6-1.3-4.3c0-1.6,0.4-3.1,1.3-4.4c0.9-1.3,2.2-2.3,3.9-2.9c1.7-0.7,3.7-1,6-1c1.8,0,3.4,0.2,4.8,0.7
			c1.3,0.5,2.5,1.1,3.3,1.8s1.5,1.5,1.9,2.4s0.6,1.6,0.6,2.4c0,0.7-0.3,1.4-0.8,1.9c-0.5,0.6-1.1,0.9-1.9,0.9
			c-0.7,0-1.2-0.2-1.6-0.5c-0.4-0.3-0.8-0.9-1.2-1.7c-0.5-1.1-1.2-2-2-2.6s-2-0.9-3.7-0.9c-1.6,0-2.8,0.3-3.8,1
			c-1,0.7-1.4,1.5-1.4,2.5c0,0.6,0.2,1.1,0.5,1.6c0.3,0.4,0.8,0.8,1.3,1.1c0.6,0.3,1.1,0.6,1.7,0.7s1.6,0.4,2.9,0.8
			c1.7,0.4,3.2,0.8,4.6,1.3c1.4,0.5,2.5,1.1,3.5,1.7c1,0.7,1.7,1.5,2.2,2.6C126.9,19,127.1,20.2,127.1,21.7z"/>
		<path d="M138.4,4v8.6h13.1V4c0-1.2,0.3-2.1,0.8-2.8c0.6-0.6,1.3-0.9,2.2-0.9c0.9,0,1.6,0.3,2.2,0.9s0.8,1.5,0.8,2.8v23.6
			c0,1.2-0.3,2.2-0.9,2.8c-0.6,0.6-1.3,0.9-2.2,0.9c-0.9,0-1.6-0.3-2.2-0.9s-0.8-1.5-0.8-2.8V17.5h-13.1v10.1c0,1.2-0.3,2.2-0.9,2.8
			c-0.6,0.6-1.3,0.9-2.2,0.9c-0.9,0-1.6-0.3-2.2-0.9s-0.8-1.5-0.8-2.8V4c0-1.2,0.3-2.1,0.8-2.8s1.3-0.9,2.2-0.9
			c0.9,0,1.6,0.3,2.2,0.9C138.1,1.8,138.4,2.7,138.4,4z"/>
	</g>
	<g>
		<path d="M55.8,153.6h-9.3c-1.3,0-2.3-0.3-2.9-0.9c-0.6-0.6-0.9-1.6-0.9-2.9v-22.8c0-1.3,0.3-2.3,0.9-2.9c0.6-0.6,1.5-0.9,2.9-0.9
			h9.8c1.5,0,2.7,0.1,3.8,0.3c1.1,0.2,2,0.5,2.9,1c0.7,0.4,1.4,1,1.9,1.6c0.6,0.7,1,1.4,1.3,2.2s0.4,1.6,0.4,2.5
			c0,3-1.5,5.3-4.6,6.7c4,1.3,6,3.7,6,7.4c0,1.7-0.4,3.2-1.3,4.6c-0.9,1.4-2,2.4-3.5,3c-0.9,0.4-2,0.7-3.2,0.8
			S57.4,153.6,55.8,153.6z M49,127.8v7.9h5.6c1.5,0,2.7-0.1,3.6-0.4s1.5-0.8,1.9-1.7c0.3-0.6,0.5-1.2,0.5-1.9c0-1.5-0.5-2.6-1.6-3.1
			s-2.8-0.8-5-0.8H49z M55.4,140.1H49v8.9h6.6c4.2,0,6.2-1.5,6.2-4.5c0-1.5-0.5-2.6-1.6-3.3C59.1,140.4,57.5,140.1,55.4,140.1z"/>
		<path d="M91.2,150.1l-1.5-3.8H77.4l-1.5,3.9c-0.6,1.5-1.1,2.5-1.5,3.1c-0.4,0.5-1.1,0.8-2,0.8c-0.8,0-1.5-0.3-2.1-0.8
			s-0.9-1.2-0.9-1.9c0-0.4,0.1-0.8,0.2-1.3c0.1-0.4,0.4-1.1,0.7-1.8l7.8-19.7c0.2-0.6,0.5-1.2,0.8-2c0.3-0.8,0.6-1.5,1-2
			c0.4-0.5,0.8-1,1.4-1.3s1.3-0.5,2.1-0.5c0.9,0,1.6,0.2,2.1,0.5c0.6,0.3,1,0.7,1.4,1.3c0.4,0.5,0.6,1.1,0.9,1.6
			c0.2,0.6,0.5,1.4,0.9,2.4l7.9,19.6c0.6,1.5,0.9,2.6,0.9,3.3c0,0.7-0.3,1.4-0.9,1.9s-1.3,0.9-2.1,0.9c-0.5,0-0.9-0.1-1.2-0.3
			c-0.3-0.2-0.6-0.4-0.9-0.7s-0.5-0.8-0.8-1.4S91.4,150.6,91.2,150.1z M79,141.7h9.1l-4.6-12.5L79,141.7z"/>
		<path d="M127.2,144c0,1-0.2,2-0.7,3.1s-1.2,2.2-2.2,3.3c-1,1.1-2.3,2-3.9,2.6c-1.6,0.7-3.4,1-5.6,1c-1.6,0-3.1-0.2-4.4-0.5
			c-1.3-0.3-2.5-0.8-3.6-1.4c-1.1-0.6-2.1-1.5-3-2.5c-0.8-1-1.5-2-2.1-3.2c-0.6-1.2-1-2.4-1.3-3.8c-0.3-1.3-0.4-2.8-0.4-4.3
			c0-2.4,0.4-4.6,1.1-6.6c0.7-1.9,1.7-3.6,3.1-5c1.3-1.4,2.9-2.4,4.7-3.1c1.8-0.7,3.7-1.1,5.7-1.1c2.5,0,4.7,0.5,6.6,1.5
			c1.9,1,3.4,2.2,4.4,3.6c1,1.4,1.5,2.8,1.5,4.1c0,0.7-0.2,1.3-0.7,1.9s-1.1,0.8-1.8,0.8c-0.8,0-1.4-0.2-1.8-0.6s-0.8-1-1.3-1.9
			c-0.8-1.5-1.7-2.6-2.8-3.4s-2.4-1.1-4-1.1c-2.5,0-4.5,1-6,2.9c-1.5,1.9-2.2,4.7-2.2,8.2c0,2.4,0.3,4.3,1,5.9
			c0.7,1.6,1.6,2.7,2.8,3.5c1.2,0.8,2.6,1.2,4.3,1.2c1.8,0,3.3-0.4,4.5-1.3s2.1-2.2,2.8-3.9c0.3-0.8,0.6-1.5,1-2
			c0.4-0.5,1-0.8,1.9-0.8c0.7,0,1.4,0.3,1.9,0.8C126.9,142.6,127.2,143.2,127.2,144z"/>
		<path d="M138.9,126.4V137l12.1-12.6c0.6-0.6,1.1-1.1,1.5-1.3s1-0.4,1.6-0.4c0.9,0,1.6,0.3,2.1,0.8s0.8,1.2,0.8,1.9
			c0,0.9-0.5,1.8-1.4,2.7l-7.5,7.1l8.6,12.4c0.6,0.9,1.1,1.6,1.4,2.2c0.3,0.6,0.5,1.3,0.5,1.9c0,0.7-0.3,1.3-0.8,1.8
			c-0.5,0.5-1.3,0.7-2.2,0.7c-0.9,0-1.6-0.2-2.1-0.5s-1-0.9-1.4-1.5c-0.4-0.6-0.7-1.2-1-1.7l-7.3-11.2l-5,4.8v6.3
			c0,1.3-0.3,2.2-0.9,2.8s-1.3,0.9-2.2,0.9c-0.5,0-1-0.1-1.5-0.4c-0.5-0.3-0.9-0.6-1.1-1.1c-0.2-0.4-0.3-0.8-0.4-1.3
			s-0.1-1.3-0.1-2.2v-22.6c0-1.2,0.3-2.2,0.8-2.8s1.3-0.9,2.2-0.9c0.9,0,1.7,0.3,2.2,0.9C138.6,124.2,138.9,125.1,138.9,126.4z"/>
	</g>
</g>
</svg>
