<?xml version="1.0" encoding="utf-8"?>
<!-- Generator: Adobe Illustrator 21.1.0, SVG Export Plug-In . SVG Version: 6.00 Build 0)  -->
<svg version="1.1" id="Layer_1" xmlns="http://www.w3.org/2000/svg" xmlns:xlink="http://www.w3.org/1999/xlink" x="0px" y="0px"
	 viewBox="0 0 200 155" style="enable-background:new 0 0 200 155;" xml:space="preserve">
<style type="text/css">
	.st0{fill:#010101;}
</style>
<g>
	<path class="st0" d="M165.8,99.6l-31.6,10.9c0.1-0.8,0.2-1.6,0.2-2.4c0-7.4-6-13.4-13.4-13.4H99.3c-0.6,0-1.1-0.1-1.6-0.4l-17.7-10
		c-3.5-2-7.5-3-11.5-3H44.6c-1.4-3.9-5.1-6.7-9.5-6.7H15c-1.9,0-3.4,1.5-3.4,3.4v60.3c0,1.9,1.5,3.4,3.4,3.4h20.1
		c4.3,0,7.9-2.7,9.4-6.5c3.8,0.5,8.2,1.6,10.9,3.2L73,148.9c6.6,4,14.2,6.1,22,6.1c6.1,0,12.1-1.3,17.7-3.8l62.6-27.6
		c6.9-2.8,10.4-11.1,6.4-18.5C178.7,99.8,171.9,97.4,165.8,99.6z M38.5,131.5c0,1.8-1.5,3.3-3.4,3.3H18.4V81.3h16.8
		c1.8,0,3.4,1.5,3.4,3.4V131.5z M172.7,117.4c0,0-0.1,0-0.1,0c0,0-62.7,27.6-62.7,27.6c-4.7,2.1-9.7,3.2-14.9,3.2
		c-6.5,0-12.9-1.8-18.5-5.1l-17.5-10.5c-3.8-2.3-9.1-3.6-13.7-4.2V88h23.2c2.9,0,5.7,0.7,8.2,2.2l17.7,10c1.5,0.8,3.2,1.3,4.9,1.3
		H121c3.7,0,6.7,3,6.7,6.7c0,3.7-3,6.7-6.7,6.7H86.9c-1.9,0-3.4,1.5-3.4,3.4c0,1.9,1.5,3.4,3.4,3.4H121c2.2,0,4.4-0.5,6.3-1.6
		c0,0,40.7-14,40.8-14c3-1.1,6.4,0,7.7,2.5C177.7,112,176.1,116.1,172.7,117.4z"/>
	<path class="st0" d="M109.3,81.4c0.6,0.5,1.4,0.8,2.2,0.8c0.8,0,1.6-0.3,2.2-0.8C141.1,57.7,158,45.7,158,27.1
		c0-14.7-10.4-27-25.1-27c-9.6,0-17,5.6-21.8,13.9C106.4,5.7,99,0.1,89.4,0.1c-11.2,0-20.6,7.3-23.9,18.5c-0.5,1.8,0.5,3.6,2.3,4.2
		c1.8,0.5,3.6-0.5,4.2-2.3c2.4-8.3,9.3-13.7,17.5-13.7c9.6,0,16.3,8.5,18.5,16.4c0.4,1.5,1.7,2.5,3.2,2.5c1.5,0,2.8-1,3.2-2.5
		c0-0.2,4.7-16.4,18.5-16.4c10.5,0,18.4,8.7,18.4,20.3c0,14.9-14.6,25.7-39.8,47.4C96.2,61.3,84,52,77,42.9
		c-1.1-1.5-3.2-1.8-4.7-0.6s-1.8,3.2-0.6,4.7C79.5,57.2,92.7,67,109.3,81.4z"/>
</g>
</svg>
