<?xml version="1.0" encoding="utf-8"?>
<!-- Generator: Adobe Illustrator 21.1.0, SVG Export Plug-In . SVG Version: 6.00 Build 0)  -->
<svg version="1.1" id="Layer_1" xmlns="http://www.w3.org/2000/svg" xmlns:xlink="http://www.w3.org/1999/xlink" x="0px" y="0px"
	 viewBox="0 0 500 76" style="enable-background:new 0 0 500 76;" xml:space="preserve">
<style type="text/css">
	.st0{fill:#DC1F26;}
</style>
<g>
	<g>
		<path d="M56,5.4l-2.3,13H26l-2.6,14.9h21.5l-2.2,12.5H21.3l-4.9,27.4H0L11.9,5.4H56z"/>
		<path d="M132.1,21.9c2.8,1.9,4.6,4.4,5.3,7.5l1.7-9.7h16.4L146,73.2h-16.4l1.8-9.7c-1.9,3.2-4.5,5.7-7.8,7.6
			c-3.3,1.9-7,2.8-11.2,2.8c-5.8,0-10.4-1.9-13.8-5.6c-3.4-3.7-5.1-8.9-5.1-15.6c0-2.6,0.2-5.2,0.7-7.7c1-5.3,2.8-9.9,5.4-13.8
			c2.6-3.9,5.9-6.9,9.7-9c3.8-2.1,7.8-3.1,12.1-3.1C125.8,19.1,129.3,20,132.1,21.9z M115.9,36.9c-2.6,2.3-4.2,5.5-4.9,9.6
			c-0.2,1.1-0.3,2.2-0.3,3.2c0,3.1,0.9,5.6,2.6,7.3c1.8,1.7,4.1,2.6,7,2.6c3.4,0,6.5-1.2,9.1-3.5c2.6-2.4,4.3-5.5,5-9.5
			c0.2-1.1,0.3-2.1,0.3-3.1c0-3.1-0.9-5.6-2.6-7.3c-1.8-1.8-4.1-2.6-7-2.6C121.5,33.4,118.5,34.6,115.9,36.9z"/>
		<path d="M200.8,24.1c4,3.4,6.2,7.8,6.6,13.5h-16.1c-0.1-2.2-0.9-4-2.5-5.2c-1.6-1.2-3.8-1.8-6.5-1.8c-2,0-3.6,0.4-4.8,1.1
			c-1.2,0.8-1.9,1.9-1.9,3.4c0,1.5,0.9,2.6,2.6,3.4c1.7,0.8,4.3,1.7,7.9,2.6c3.9,1.1,7.1,2.1,9.5,3.1c2.5,1,4.6,2.5,6.4,4.5
			c1.8,2,2.7,4.6,2.7,7.9c0,1.3-0.1,2.6-0.4,3.6c-0.8,4-3.1,7.3-6.9,9.8c-3.9,2.5-9.1,3.8-15.6,3.8c-7.2,0-13-1.6-17.4-4.8
			c-4.4-3.2-6.7-7.8-6.9-13.7h16.1c-0.2,2.3,0.6,4.1,2.4,5.3c1.8,1.2,4.2,1.8,7.2,1.8c2.2,0,3.8-0.4,4.9-1.3c1.1-0.9,1.6-2,1.6-3.4
			c0-1.6-0.8-2.8-2.5-3.6c-1.7-0.8-4.3-1.7-8-2.7c-3.7-1-6.8-1.9-9.2-2.9c-2.4-1-4.5-2.5-6.3-4.4c-1.8-1.9-2.6-4.5-2.6-7.7
			c0-0.7,0.1-1.9,0.4-3.5c0.6-4,2.9-7.3,6.8-9.9c3.9-2.6,9.1-3.9,15.6-3.9C191.2,19.1,196.8,20.7,200.8,24.1z"/>
		<path d="M265.6,23.6c2.9,3,4.4,7.1,4.4,12.5c0,1.9-0.2,3.9-0.6,6l-5.5,31h-16.3l5.1-29.1c0.2-1.1,0.3-2,0.3-2.9
			c0-2.7-0.8-4.9-2.3-6.3c-1.5-1.5-3.7-2.2-6.4-2.2c-3,0-5.6,0.9-7.8,2.6c-2.2,1.8-3.8,4.3-4.7,7.6l-5.3,30.3H210l12.5-70.9h16.5
			l-4.8,27c2.1-3.1,4.8-5.6,8.2-7.4c3.4-1.8,7.1-2.7,11.2-2.7C258.7,19.1,262.7,20.6,265.6,23.6z"/>
		<path d="M340.3,65.2c-2.2,2.6-5.1,4.7-8.8,6.3c-3.6,1.6-7.8,2.3-12.6,2.3c-7.8,0-13.9-1.9-18.2-5.7c-4.3-3.8-6.5-8.9-6.6-15.4
			h17.4c-0.2,2.6,0.4,4.6,1.7,6c1.3,1.5,3.3,2.2,5.8,2.2c2.3,0,4.2-0.7,5.6-2.1c1.4-1.4,2.2-3.2,2.2-5.5c0-1.6-0.5-3-1.4-4.1
			s-2.2-2.1-3.6-2.8s-3.5-1.7-6.2-2.8c-3.6-1.5-6.6-2.9-8.9-4.2c-2.3-1.3-4.2-3.1-5.8-5.5c-1.6-2.4-2.4-5.3-2.4-8.9
			c0-1.6,0.1-3.1,0.4-4.6c0.9-5,3.7-8.9,8.3-11.8c4.7-2.9,10.3-4.4,16.8-4.4c8,0,14,1.8,18,5.4c4,3.6,6.1,8.5,6.3,14.7h-17.6
			c0.1-2.2-0.4-4-1.6-5.3c-1.2-1.3-2.9-2-5.2-2c-2.1,0-3.8,0.6-5.2,1.8c-1.4,1.2-2.1,2.9-2.1,5c0,1.5,0.5,2.7,1.4,3.8
			c0.9,1.1,2.1,1.9,3.5,2.6c1.4,0.7,3.4,1.6,6,2.7c3.6,1.5,6.6,2.9,8.9,4.2c2.3,1.3,4.2,3.1,5.9,5.5c1.7,2.4,2.5,5.4,2.5,9
			c0,1.6-0.1,3.2-0.4,4.7C343.9,59.7,342.5,62.6,340.3,65.2z"/>
		<path d="M391.3,21.9c2.8,1.9,4.6,4.4,5.3,7.5l1.7-9.7h16.4l-9.5,53.5h-16.4l1.8-9.7c-1.9,3.2-4.5,5.7-7.8,7.6
			c-3.3,1.9-7,2.8-11.2,2.8c-5.8,0-10.4-1.9-13.8-5.6c-3.4-3.7-5.1-8.9-5.1-15.6c0-2.6,0.2-5.2,0.7-7.7c1-5.3,2.8-9.9,5.4-13.8
			c2.6-3.9,5.9-6.9,9.7-9c3.8-2.1,7.8-3.1,12.1-3.1C385,19.1,388.5,20,391.3,21.9z M375.1,36.9c-2.6,2.3-4.2,5.5-4.9,9.6
			c-0.2,1.1-0.3,2.2-0.3,3.2c0,3.1,0.9,5.6,2.6,7.3c1.8,1.7,4.1,2.6,7,2.6c3.4,0,6.5-1.2,9.1-3.5c2.6-2.4,4.3-5.5,5-9.5
			c0.2-1.1,0.3-2.1,0.3-3.1c0-3.1-0.9-5.6-2.6-7.3c-1.8-1.8-4.1-2.6-7-2.6C380.8,33.4,377.7,34.6,375.1,36.9z"/>
		<path d="M445.5,2.3L433,73.2h-16.5L429,2.3H445.5z"/>
		<path d="M494,24.7c4,3.7,6,8.7,6,15c0,1.5-0.2,3.3-0.5,5.4c-0.3,1.5-0.7,3-1.2,4.4h-37.1c-0.1,1.3-0.2,2.1-0.2,2.6
			c0,5.8,2.8,8.7,8.3,8.7c2.4,0,4.5-0.6,6.3-1.8c1.9-1.2,3.2-2.8,4-4.7H497c-2.1,5.8-5.8,10.5-11,14.2c-5.2,3.6-11.3,5.5-18.2,5.5
			c-6.9,0-12.4-1.9-16.4-5.7c-4.1-3.8-6.1-9.1-6.1-15.9c0-2,0.2-4.2,0.6-6.5c1-5.4,2.9-10.2,5.9-14.2s6.7-7.1,11.2-9.2
			c4.4-2.1,9.3-3.2,14.5-3.2C484.5,19.1,490,20.9,494,24.7z M483.6,39.6c0-2.6-0.8-4.5-2.4-5.7c-1.6-1.3-3.6-1.9-6-1.9
			c-3,0-5.7,0.9-8,2.7c-2.3,1.8-3.9,4.4-4.8,7.9h20.9C483.5,41.4,483.6,40.5,483.6,39.6z"/>
	</g>
	<polygon class="st0" points="78.3,0.7 51.7,45.5 68.1,45.5 64.5,75.4 91.4,31 74.3,31 	"/>
</g>
</svg>
