<?xml version="1.0" encoding="utf-8"?>
<!-- Generator: Adobe Illustrator 21.1.0, SVG Export Plug-In . SVG Version: 6.00 Build 0)  -->
<svg version="1.1" id="Layer_1" xmlns="http://www.w3.org/2000/svg" xmlns:xlink="http://www.w3.org/1999/xlink" x="0px" y="0px"
	 viewBox="0 0 100 100" style="enable-background:new 0 0 100 100;" xml:space="preserve">
<g>
	<path d="M77.1,11.2H22.9c-6.4,0-11.6,5.2-11.6,11.6v54.3c0,6.4,5.2,11.6,11.6,11.6h54.3c6.4,0,11.6-5.2,11.6-11.6V22.9
		C88.8,16.5,83.5,11.2,77.1,11.2z M83.9,76.2c0,4.3-3.5,7.8-7.8,7.8H23.8c-4.3,0-7.8-3.5-7.8-7.8V23.8c0-4.3,3.5-7.8,7.8-7.8h52.3
		c4.3,0,7.8,3.5,7.8,7.8V76.2z"/>
	<path d="M41.8,3.4L3.4,41.8c-4.5,4.5-4.5,11.9,0,16.4l38.4,38.4c4.5,4.5,11.9,4.5,16.4,0l38.4-38.4c4.5-4.5,4.5-11.9,0-16.4
		L58.2,3.4C53.7-1.1,46.3-1.1,41.8,3.4z M92.5,44.5c3,3,3,8,0,11l-37,37c-3,3-8,3-11,0l-37-37c-3-3-3-8,0-11l37-37c3-3,8-3,11,0
		L92.5,44.5z"/>
</g>
<g>
	<path d="M42.9,37.5c2,1.3,3.5,3.1,4.7,5.4c1.1,2.3,1.7,4.9,1.7,7.9c0,2.9-0.6,5.6-1.7,7.9c-1.2,2.3-2.7,4.2-4.7,5.5
		c-2,1.3-4.2,2-6.6,2c-2.4,0-4.6-0.7-6.6-2c-2-1.3-3.5-3.1-4.7-5.5c-1.2-2.3-1.7-5-1.7-7.9c0-2.9,0.6-5.6,1.7-7.9
		c1.2-2.3,2.7-4.1,4.7-5.4c2-1.3,4.2-2,6.6-2C38.7,35.5,40.9,36.2,42.9,37.5z M31.4,44.5c-1.2,1.5-1.8,3.6-1.8,6.3
		c0,2.6,0.6,4.7,1.8,6.2c1.2,1.5,2.8,2.3,4.9,2.3c2,0,3.6-0.8,4.8-2.3c1.2-1.5,1.8-3.6,1.8-6.2c0-2.6-0.6-4.7-1.8-6.2
		c-1.2-1.5-2.8-2.3-4.9-2.3C34.2,42.2,32.6,43,31.4,44.5z"/>
	<path d="M75.7,65.8h-6.2L59,47.5v18.3h-6.2V36H59l10.4,18.5V36h6.2V65.8z"/>
</g>
</svg>
