<?xml version="1.0" encoding="utf-8"?>
<!-- Generator: Adobe Illustrator 21.1.0, SVG Export Plug-In . SVG Version: 6.00 Build 0)  -->
<svg version="1.1" id="Layer_1" xmlns="http://www.w3.org/2000/svg" xmlns:xlink="http://www.w3.org/1999/xlink" x="0px" y="0px"
	 viewBox="0 0 150 150" style="enable-background:new 0 0 150 150;" xml:space="preserve">
<style type="text/css">
	.st0{fill:#821427;}
	.st1{fill:#DC1F26;}
	.st2{fill:#821528;}
	.st3{fill:url(#SVGID_1_);}
	.st4{fill:url(#SVGID_2_);}
	.st5{fill:url(#SVGID_3_);}
	.st6{fill:url(#SVGID_4_);}
	.st7{fill:url(#SVGID_5_);}
	.st8{opacity:0.8;fill:#C8C8C8;}
	.st9{fill:#593933;}
	.st10{opacity:0.5;fill:#593933;}
	.st11{fill:#FAFAF7;}
	.st12{fill:#EE9225;}
	.st13{fill:#F9B93B;}
	.st14{opacity:0.8;}
	.st15{fill:#E5EDF3;}
	.st16{opacity:0.5;fill:#DDEDEC;}
</style>
<g>
	<g>
		<g>
			<path class="st0" d="M98,49.9c0,0-0.6,1.9,1,2.9c1.6,1.1,1.8,1,1,3.7c-0.9,2.6-2.6,5.8,7.7,8.1c0,0-1.4,1.6,0.1,3.7
				c1.6,2.1,3.9,3.7,5.2,5.5c2,2.7,3.6,4.7,5.4,3.3c0,0,2,8,0.7,9.5c-1.2,1.4-16.6-2.9-16.6-2.9S94.8,74,94.8,71
				c0-3-1.2-10.5-1.2-11.7C93.6,58,92.4,49.6,98,49.9z"/>
			<path class="st1" d="M126,94.8c-2-5.9-4.6-12.1-7.6-17.9c-3.8,5.1-9.7-6.2-12.1-8.2c-2.4-2,1.3-4.2,1.3-4.2s-6.4-0.5-8.1-2.2
				c-1.7-1.7-1-1.7,0-4.7c1-3,0.6-2.4-1.4-3.8c-2-1.4-0.2-4-0.2-4l0,0c-4-1-8.2-0.3-11.1,6.1c-3.4,7.5-4.7,7.2-5.6,2
				c-0.9-5.2-0.5-26.4,0.5-30.3c0.9-3.8,5.4-11.1,3.8-14c-1.6-2.9-6.3-4.3-6.3-2.7c0,1.6,0.7,3.4-1.8,3.6c-2.5-0.2-1.8-2-1.8-3.6
				c0-1.6-4.7-0.2-6.3,2.7c-1.6,2.9,2.9,10.2,3.8,14c0.9,3.8,1.4,25.1,0.5,30.3c-0.9,5.2-2.3,5.4-5.6-2c-3.4-7.5-8.6-7.2-13.1-5.4
				c-4.5,1.8-19.4,24.4-26,44.3c-6.5,19.9-5.6,36.6-5.2,44.7c0.5,8.1,8.8,3.2,12,1.6c3.2-1.6,20.8-0.9,28.5-3.8
				c7.7-2.9,5.4-14,7.7-21c2.3-7,1.4-26.4,1.8-32.7c0.5-6.3-2.3-14.2-2.3-14.2s1.6-2.7,3.8-4.1c2.3-1.4,2.3-0.7,2.3-0.7
				s0-0.7,2.3,0.7c2.3,1.4,3.8,4.1,3.8,4.1s-2.7,7.9-2.3,14.2c0.5,6.3-0.5,25.7,1.8,32.7c2.3,7,0,18.1,7.7,21
				c7.7,2.9,25.3,2.3,28.5,3.8c3.2,1.6,11.5,6.5,12-1.6C131.7,131.4,132.6,114.7,126,94.8z"/>
			<path class="st2" d="M80.6,21c-2,5.8-4.1,19.6-3.7,25.1c0.3,5.4-0.3,13.9,1.7,15.2c2,1.4,5.4,4.7,7.8,1.7c0,0,4.1-7.1,6.1-5.8
				c2,1.4,2,1.4,2,1.4s-0.3,4.1,3,5.8c3.4,1.7,5.8,0.7,5.4,2c-0.3,1.4,1.4,6.4,4.1,10.2c2.7,3.7,6.1,5.4,8.1,5.8
				c2,0.3,20,20.7,7.5,47.1c-3.3,6.9-21,6.4-26.1,1.7c-5.1-4.7-9.5-24-11.2-34.9c-1.7-10.8-2.2-24-1.8-26.9c0,0-2.7,7.9-2.3,14.2
				c0.5,6.3-0.5,25.7,1.8,32.7c2.3,7,0,18.1,7.7,21c7.7,2.9,25.3,2.3,28.5,3.8c3.2,1.6,11.5,6.5,12-1.6c0.5-8.1,1.4-24.8-5.2-44.7
				c-2-5.9-4.6-12.1-7.6-17.9c-3.8,5.1-9.7-6.2-12.1-8.2c-2.4-2,1.3-4.2,1.3-4.2s-6.4-0.5-8.1-2.2c-1.7-1.7-1-1.7,0-4.7
				c1-3,0.6-2.4-1.4-3.8c-2-1.4-0.2-4-0.2-4c-4-1-8.2-0.3-11.1,6.1c-3.4,7.5-4.7,7.2-5.6,2c-0.9-5.2-0.5-26.4,0.5-30.3
				c0.9-3.8,5.4-11.1,3.8-14c-1.6-2.9-6.3-4.3-6.3-2.7c0,1.6,0.7,3.4-1.8,3.6C77.5,14.6,82.6,15.2,80.6,21z"/>
			<path class="st2" d="M75.2,65.2c0,0-5.4,0.8-5.8,4.9c-0.3,4.1,1,25.4,0,39.3c-1,13.9,0.7,23-9.5,25.4c-10.2,2.4-16.6,2-21.3,3
				c-4.7,1-10.2-0.7-10.2-12.9c0-12.2,4.7-33.8,10.5-48.1c3.2-8,6.5-14.9,9.5-19.7c-6.3,8.5-15,23.7-19.6,37.6
				c-6.5,19.9-5.6,36.6-5.2,44.7c0.5,8.1,8.8,3.2,12,1.6c3.2-1.6,20.8-0.9,28.5-3.8c7.7-2.9,5.4-14,7.7-21c2.3-7,1.4-26.4,1.8-32.7
				c0.5-6.3-2.3-14.2-2.3-14.2S73,66.6,75.2,65.2z"/>
		</g>
		<g>
			
				<linearGradient id="SVGID_1_" gradientUnits="userSpaceOnUse" x1="105.1656" y1="81.473" x2="133.372" y2="34.8993" gradientTransform="matrix(0.9991 4.700000e-03 4.700000e-03 0.9756 2.6328 -13.5556)">
				<stop  offset="0" style="stop-color:#EDE3D3"/>
				<stop  offset="0.5005" style="stop-color:#EBE2D1"/>
				<stop  offset="0.7187" style="stop-color:#E7DCCA"/>
				<stop  offset="0.8815" style="stop-color:#DFD4BF"/>
				<stop  offset="1" style="stop-color:#D6CAB1"/>
			</linearGradient>
			<path class="st3" d="M114.7,69.8c0,0-0.3-4.5,3.3-5.1c6.5-1,9.3-3.1,8.9-6.1c-0.4-3-7.4-4.7-14.7-8.1c-7.3-3.4-10.9-4-3.4-5.2
				c9-1.5,28.4,8.2,33.9,2.2c4.7-5.3,9-12.3,6.9-13.8c-2.1-1.5-5.7,0.2-5.1-3.3c0.7-3.5,8.1-4.4,0.6-8.9c0,0,3.4,2.6,1,4.2
				c-2.3,1.5-10,7.5-6.5,9.5c3.5,1.9,2.5,2.9,0.4,6.3c-3.3,5.5-5.8,7.1-12.1,5c-7.8-2.7-30.2-6.7-29.3-2.4c1.4,6.2,14.5,9,19.7,10.7
				c5.2,1.7,6.3,6.1,2.9,7.5C115.9,64.4,113.3,62.8,114.7,69.8z"/>
			<linearGradient id="SVGID_2_" gradientUnits="userSpaceOnUse" x1="109.8835" y1="71.0225" x2="116.8364" y2="44.6011">
				<stop  offset="0" style="stop-color:#EDE3D3"/>
				<stop  offset="0.5005" style="stop-color:#EBE2D1"/>
				<stop  offset="0.7187" style="stop-color:#E7DCCA"/>
				<stop  offset="0.8815" style="stop-color:#DFD4BF"/>
				<stop  offset="1" style="stop-color:#D6CAB1"/>
			</linearGradient>
			<path class="st4" d="M113.3,71.1c0,0-1.9-4.4,0-6.7c1.9-2.2,6.4-5,3.8-6.1c-2.6-1.1-8.7-0.3-8.7-0.3c2.3,0.8,8.9,1.7,6,3.6
				C111.4,63.5,109.9,66.4,113.3,71.1z"/>
			
				<linearGradient id="SVGID_3_" gradientUnits="userSpaceOnUse" x1="120.3686" y1="61.8148" x2="123.6291" y2="9.6481" gradientTransform="matrix(0.9967 1.600000e-03 1.600000e-03 0.9885 1.5739 -6.5574)">
				<stop  offset="0" style="stop-color:#EDE3D3"/>
				<stop  offset="0.6614" style="stop-color:#DED3BD"/>
				<stop  offset="1" style="stop-color:#D6CAB1"/>
			</linearGradient>
			<path class="st5" d="M105.7,39.4c0,0,20,4.4,25.3,1.3c5.3-3.1,6.7-5.3,4.7-7.1c-2-1.8-8.6-4.5-15.4-6.6
				c-6.9-2.1-7.1-12.4,1.5-13.1c13.7-1.1,16.8,0.9,13.2,4.4c-3.6,3.4-9.3,3-9.3,3s10.9,1.6,13.9-2.5c3.1-4.1,1.5-7.4-5.3-10.5
				c-6.9-3.2-22.5-4.3-25.6,4.3c-2.4,6.7-0.6,11.1,5.5,15.1c8.1,5.3,20.8,6.6,17.8,10.2C128.9,41.4,112.3,40.8,105.7,39.4z"/>
			
				<linearGradient id="SVGID_4_" gradientUnits="userSpaceOnUse" x1="141.1293" y1="58.7625" x2="142.4413" y2="24.6528" gradientTransform="matrix(0.9985 5.500000e-02 -5.500000e-02 0.9985 -25.6777 -9.7078)">
				<stop  offset="0" style="stop-color:#EDE3D3"/>
				<stop  offset="0.5005" style="stop-color:#EBE2D1"/>
				<stop  offset="0.7187" style="stop-color:#E7DCCA"/>
				<stop  offset="0.8815" style="stop-color:#DFD4BF"/>
				<stop  offset="1" style="stop-color:#D6CAB1"/>
			</linearGradient>
			<path class="st6" d="M105.3,26.6c0,0,0.2,4.8,8.6,5.5c7.1,0.6,10.7,2.5,9.5,3.6c-2.4,2.2-6.8,2-6.8,2s7.5-0.9,3-2.8
				C115,32.9,103.6,32.5,105.3,26.6z"/>
			
				<linearGradient id="SVGID_5_" gradientUnits="userSpaceOnUse" x1="104.4777" y1="135.3419" x2="121.9299" y2="106.0221" gradientTransform="matrix(1.1675 6.190000e-02 6.190000e-02 0.8584 -4.9855 -81.2448)">
				<stop  offset="0" style="stop-color:#EDE3D3"/>
				<stop  offset="0.5005" style="stop-color:#EBE2D1"/>
				<stop  offset="0.7187" style="stop-color:#E7DCCA"/>
				<stop  offset="0.8815" style="stop-color:#DFD4BF"/>
				<stop  offset="1" style="stop-color:#D6CAB1"/>
			</linearGradient>
			<path class="st7" d="M133.4,29.8c0,0-3.7-2.4,1.2-3.9c5.3-1.6,8.8-4.2,8.5-8.7c0,0,3,8-4.2,9C132.3,27.1,133.4,29.8,133.4,29.8z"
				/>
		</g>
		<g>
			<path class="st8" d="M105.6,74.7l-96,61c-7.1-4.7-8.4-12.5-8.4-12.5l95.6-60.8c0,0,1.1-0.8,1.6-0.6c0,0-0.8,1.2-0.7,1.7
				c0.1,0.5,1.2-0.1,1.2-0.1s1,0.7,0.6,2c-0.4,1.3,0.2,2.6,0.5,2.5c0.2,0,0.5-0.1,0.8-0.1c0.3,0,0.5-0.1,0.5-0.1s-0.7,0.8-0.5,1.1
				c0.2,0.3,0.2,0.3,0.2,0.3s0.9-0.5,0.8,0.6c-0.2,1-0.3,1.8-0.3,1.8s2.8-1.3,2.4,0.1c-0.5,1.4-0.3,2.1,0.1,1.9c0.4-0.1,1.1,0,1.1,0
				S104.6,74.9,105.6,74.7z"/>
			<g>
				<path class="st9" d="M102.3,66.3l1.4,0.2l-0.2,0.7c0.6,0.5,1.1,0.2,0.8,0.8c-0.4,0.6,0.2,0.9,0.2,0.9s-0.3,0.3,0.5,0.8
					c0.8,0.6,0.7,1.7,0.7,1.7l0.6,1.1l0.9,0.5l-1.8,1.2l-2,1.2c0,0-4-4.2-4.7-5.5c-0.7-1.3-2.3-4.9-2.3-4.9l-0.5-2.7l2.6-1.2
					c0,0,0.1-0.5,0.9-0.4c0.9,0.1,0.7,0.2,0.7,0.2s-0.3,0.6,0,0.9c0.3,0.3,0.7,0.5,0.7,0.5s0.2,0.1-0.1,0.6c-0.3,0.4,0.2,0,0.4,0.5
					c0.2,0.4,0.2,0.6,0.1,0.8c-0.1,0.3,0.3,0.1,0.6,0.5c0.3,0.4,1.2,0.3,0.9,1C102.3,66.3,102.3,66.3,102.3,66.3z"/>
				<path class="st10" d="M105.2,74.2l0.4-0.3c-0.7,0.1-0.5-0.6-0.5-0.6l-0.8,0c0,0-0.4-0.9-0.4-1.7c-0.1-0.8-1-0.7-1.5-1
					c-0.5-0.3-0.4-1.4-0.4-1.8c0-0.4-0.4-0.5-0.6-0.6c-0.3-0.1,0.1-0.5,0.1-0.5l-1.1-0.4c0,0-0.5-2.5-0.3-3.5c0.1-1-0.7-1.3-0.7-1.3
					s-0.5-0.2-0.8-0.4c-0.3-0.2,0.2-1.2,0.3-1.3c-0.3,0.1-0.3,0.3-0.3,0.3l-2.6,1.2l0.5,2.7c0,0,1.5,3.5,2.3,4.9
					c0.7,1.3,4.7,5.5,4.7,5.5L105.2,74.2z"/>
				<g>
					<g>
						<path class="st11" d="M105.2,74.2L8.1,133.3c-7-4.8-8.1-12.7-8.1-12.7l96.8-58.9c0,0,1.1-0.8,1.6-0.6c0,0-0.8,1.1-0.7,1.6
							c0,0.5,1.2,0,1.2,0s1,0.7,0.6,2c-0.4,1.3,0.1,2.6,0.5,2.5c0.2,0,0.5-0.1,0.8-0.1c0.3,0,0.5,0,0.5,0s-0.7,0.8-0.5,1.1
							c0.2,0.3,0.2,0.3,0.2,0.3s0.9-0.4,0.8,0.6c-0.2,1-0.4,1.8-0.4,1.8s2.9-1.2,2.4,0.2c-0.5,1.4-0.3,2.1,0.1,1.9
							c0.4-0.1,1.1,0,1.1,0S104.3,74.3,105.2,74.2z"/>
						<path class="st12" d="M37.2,98.1L0,120.6c0,0,1.2,7.9,8.1,12.7L45,110.9C39.4,106.1,37.2,98.1,37.2,98.1z"/>
						<g>
							<polygon class="st13" points="8.6,131 9.7,129.5 9.7,127.1 8.8,128.3 7.9,128.6 							"/>
							<polygon class="st13" points="10.9,122.8 11.6,121 10.9,118.7 10.4,120.1 9.6,120.6 							"/>
							<polygon class="st13" points="22.8,121 21.6,119.5 19.3,118.8 20.2,120 20.3,120.9 							"/>
							<polygon class="st13" points="20.1,114.1 21.1,112.5 21,110.1 20.2,111.4 19.3,111.7 							"/>
							<polygon class="st13" points="27.2,110.6 28.8,111.7 31.2,111.7 30,110.9 29.7,110 							"/>
							<polygon class="st13" points="39.8,112.9 40.5,111.1 40,108.8 39.4,110.2 38.6,110.6 							"/>
							<polygon class="st13" points="3.6,121.8 4.6,122.8 6.3,123.2 5.5,122.3 5.5,121.7 							"/>
							<polygon class="st13" points="10.4,126.3 11.4,127.3 13.2,127.5 12.4,126.7 12.2,126.1 							"/>
							<polygon class="st13" points="13,116.3 11.7,115.7 9.9,116 10.9,116.5 11.2,117.1 							"/>
							<polygon class="st13" points="36.6,112.5 35.4,111.9 33.6,112.2 34.6,112.6 34.9,113.2 							"/>
							<polygon class="st13" points="25.9,108.4 24.6,107.8 22.9,108.1 23.9,108.6 24.2,109.2 							"/>
							<polygon class="st13" points="25.8,116.8 24.5,116.2 22.8,116.5 23.8,117 24.1,117.6 							"/>
							<polygon class="st13" points="3.6,125.7 4.2,126.3 5.3,126.5 4.8,126 4.8,125.6 							"/>
							<polygon class="st13" points="16.5,123.3 16.4,124.2 17,125.1 17.1,124.5 17.3,124.1 							"/>
							<polygon class="st13" points="15.6,114.9 16.4,115.2 17.5,114.9 16.9,114.6 16.6,114.3 							"/>
							<polygon class="st13" points="14.3,120.8 15.1,121.1 16.2,120.8 15.5,120.5 15.3,120.2 							"/>
							<polygon class="st13" points="5.7,118.1 6.1,118.9 7.2,119.3 6.8,118.7 6.8,118.3 							"/>
							<polygon class="st13" points="33,106.6 33.5,107.4 34.6,107.8 34.2,107.2 34.2,106.8 							"/>
							<polygon class="st13" points="24.6,111.1 25.1,111.8 26.1,112.2 25.7,111.6 25.8,111.2 							"/>
							<polygon class="st13" points="33,115.1 33.5,115.8 34.6,116.2 34.2,115.6 34.2,115.2 							"/>
							<polygon class="st13" points="34,101.5 33.4,102.1 33.2,103.2 33.7,102.7 34.1,102.7 							"/>
							<polygon class="st13" points="28.8,118.7 29.3,117.9 29.3,116.8 28.9,117.4 28.5,117.5 							"/>
							<polygon class="st13" points="28.5,106.1 29,105.4 29,104.3 28.6,104.9 28.2,105 							"/>
							<polygon class="st13" points="35.7,103.9 36.3,104.6 37.3,104.8 36.9,104.3 36.9,103.9 							"/>
						</g>
						<g class="st14">
							<path class="st15" d="M71.2,91.5c-8.7,5.3-49.8,29.6-54.8,32.7c-5,3.1-11.1,8.3-16.4-3.6c0,0,1.2,7.9,8.1,12.7l97.1-59.1
								c-0.9,0.2-0.4-1.1-0.4-1.1s-0.6-0.2-1.1,0c-0.4,0.1-0.6-0.6-0.1-1.9c0.5-1.4-2.4-0.2-2.4-0.2S100.2,73.9,71.2,91.5z"/>
						</g>
						<path class="st16" d="M105.2,74.2c-0.9,0.2-0.4-1.1-0.4-1.1s-0.6-0.2-1.1,0c-0.4,0.1-0.6-0.6-0.1-1.9c0.5-1.4-2.4-0.2-2.4-0.2
							s0.2-0.8,0.4-1.8c0.2-1-0.8-0.6-0.8-0.6s0,0-0.2-0.3c-0.2-0.3,0.5-1.1,0.5-1.1s-2.6,3-5.4,4.9c-2.8,1.9-14.6,9.4-17.7,10.9
							c-3.1,1.5-13.3,8.6-16.3,10.2c-3.1,1.7-19.5,11.5-20.6,12.2c-1.2,0.7-17.3,9.6-21.2,12.5c-3.9,2.9-10,7.1-12.6,7.6
							c-2.6,0.5-4.2,1.1-7.5-4.9c0,0,1.2,7.9,8.1,12.7L105.2,74.2z"/>
					</g>
					<path class="st16" d="M94.9,63.8c0,0-26.5,16.3-28.5,17.6c-2.1,1.3-9.4,6.6-9.4,6.6s19.9-12.1,23-13.6
						C83,72.7,94.9,63.8,94.9,63.8z"/>
				</g>
			</g>
		</g>
	</g>
</g>
</svg>
