<?xml version="1.0" encoding="utf-8"?>
<!-- Generator: Adobe Illustrator 21.1.0, SVG Export Plug-In . SVG Version: 6.00 Build 0)  -->
<svg version="1.1" id="Layer_1" xmlns="http://www.w3.org/2000/svg" xmlns:xlink="http://www.w3.org/1999/xlink" x="0px" y="0px"
	 viewBox="0 0 150 150" style="enable-background:new 0 0 150 150;" xml:space="preserve">
<style type="text/css">
	.st0{fill:#FAB678;}
	.st1{fill:#FCC188;}
	.st2{fill:#DC1F26;}
	.st3{fill:#732E15;}
	.st4{fill:#FFFFFF;}
	.st5{fill:#D8D8D8;}
	.st6{fill:#3C291C;}
	.st7{fill:#E79F5B;}
	.st8{fill:#F15856;}
	.st9{fill:#E42226;}
</style>
<g>
	<g>
		<g>
			<path class="st0" d="M8.6,138.2c1.7-11,3.1-13.7,18.3-15.4c5.8-0.7,21.4-2.3,27.3-5.6c5.8-3.3,4.9-20,4.9-20H75h15.9
				c0,0-0.9,16.7,4.9,20c5.8,3.3,21.5,4.9,27.3,5.6c15.2,1.8,16.6,4.5,18.3,15.4c1.3,8.8,1.4,11.8,1.4,11.8H75H7.2
				C7.2,150,7.3,147,8.6,138.2z"/>
		</g>
		<g>
			<path class="st1" d="M39.1,55.6h0.7c-0.3-2.4-0.6-4.8-0.9-7.1C37.4,36.7,34,2.3,75,2.3c41,0,37.6,34.4,36.1,46.1
				c-0.3,2.3-0.6,4.7-0.9,7.1h0.7c6.2-4.6,6.8,7.4,4.2,11.6c-2.2,3.4-2.2,3.8-3.5,7.5c-1,2.8-2.6,3.1-3.9,2.8
				c-0.2,1.6-0.3,3.1-0.4,4.2c-0.6,6.3-15.8,19-19.3,23c-3.2,3.7-8.6,2.3-10.4,2.2c-1.8-0.1-2.6-0.1-2.6-0.1s-0.8,0-2.6,0.1
				c-1.7,0.1-7.1,1.5-10.4-2.2c-3.5-4-18.7-16.7-19.3-23c-0.1-1.1-0.2-2.6-0.4-4.2c-1.3,0.3-2.9-0.1-3.9-2.8
				c-1.3-3.8-1.3-4.1-3.5-7.5C32.4,63,32.9,51,39.1,55.6z"/>
		</g>
		<g>
			<path d="M106.9,70.2c0,0,0.6-17.8-1.1-20.6c-1.7-2.8-16.1-13.6-17.5-19.7c-0.9-3.9,6.1-24,6.1-24s19.1,0,19.1,30.4
				c0,5.4-3.4,19.3-3.4,19.3S107.8,64.1,106.9,70.2z"/>
		</g>
		<g>
			<path d="M43.1,70.2c0,0-0.6-17.8,1.1-20.6c1.7-2.8,42.8-13.6,44.2-19.7c0.9-3.9,6.1-24,6.1-24s-3.2-4.2-12.2-5.4
				C62.5-2,37.9,3.8,36.5,36.3c-0.2,5.4,3.4,19.3,3.4,19.3S42.2,64.1,43.1,70.2z"/>
		</g>
		<g>
			<g>
				<path class="st2" d="M142.8,150c0,0-0.1-3-1.4-11.8c-1.7-11-3.1-13.7-18.3-15.4c-4-0.5-12.6-1.4-19.5-3c0,0-14.8,8.8-28.6,8.9
					V150H142.8z"/>
			</g>
			<g>
				<path class="st2" d="M26.9,122.8c-15.2,1.8-16.6,4.5-18.3,15.4C7.3,147,7.2,150,7.2,150H75l0-21.3c-13.8-0.1-28.6-8.9-28.6-8.9
					C39.5,121.4,30.8,122.3,26.9,122.8z"/>
			</g>
		</g>
	</g>
	<g>
		<path class="st3" d="M67.6,48.5l0.3,2.7c0,0-15-1.4-19.5,4.4C48.4,55.6,51.3,47.3,67.6,48.5z"/>
	</g>
	<g>
		<path class="st3" d="M82.4,48.5l-0.3,2.7c0,0,15-1.4,19.5,4.4C101.6,55.6,98.7,47.3,82.4,48.5z"/>
	</g>
	<g>
		<g>
			<path class="st4" d="M50.2,61.4c0,0,3.7,4.3,10.4,4.2c6.7-0.1,7.8-5.4,7.8-5.4L50.2,61.4z"/>
		</g>
		<g>
			<circle class="st5" cx="60.1" cy="62.4" r="3.1"/>
		</g>
		<g>
			<circle class="st6" cx="60.1" cy="62.4" r="1.7"/>
		</g>
		<g>
			<circle class="st4" cx="59.3" cy="61.6" r="0.9"/>
		</g>
		<g>
			<path class="st6" d="M68.4,60.2c0,0-2.3-3-7.7-3.1c-3.8-0.1-10.5,4.3-10.5,4.3L68.4,60.2z"/>
		</g>
	</g>
	<g>
		<g>
			<path class="st4" d="M99.8,61.4c0,0-3.7,4.3-10.4,4.2c-6.7-0.1-7.8-5.4-7.8-5.4L99.8,61.4z"/>
		</g>
		<g>
			<circle class="st5" cx="89.9" cy="62.4" r="3.1"/>
		</g>
		<g>
			<circle class="st6" cx="89.9" cy="62.4" r="1.7"/>
		</g>
		<g>
			<circle class="st4" cx="89.4" cy="61.6" r="0.9"/>
		</g>
		<g>
			<path class="st6" d="M81.6,60.2c0,0,2.3-3,7.7-3.1c3.8-0.1,10.5,4.3,10.5,4.3L81.6,60.2z"/>
		</g>
	</g>
	<g>
		<path class="st7" d="M76.7,61.4c0,0,1.6,10,5.9,14.9c4,4.6-8.2,6.3-8.2,6.3s6.8-2.8,6.2-4.8C80,75.8,77.4,70.6,76.7,61.4z"/>
	</g>
	<g>
		<path class="st7" d="M72,93.4c0,0,4.7-2.5,8-0.2c2.7,1.9,2.9,2.2,3.9,1.4c0.9-0.8-2-3.7-7.2-3.7c-3.4,0-7.1,3.1-7.1,3.5
			C69.6,94.9,72,93.4,72,93.4z"/>
	</g>
	<g>
		<g>
			<path class="st8" d="M95.7,80.3c-0.1,1.4-0.3,2.3-1.3,2.6c-0.1,0.1-0.2,0.1-0.4,0.2c-0.4,0.1-0.8,0.2-1.2,0.2
				c-1,0-1.9-0.4-2.5-1.1c-0.1-0.1-0.1-0.2-0.2-0.3c-0.1-1.9-0.1-1.9,0.4-3.4c0.1-0.1,0.2-0.2,0.3-0.2c0.5-0.4,1.2-0.6,1.9-0.6
				c1,0,1.9,0.4,2.5,1.1c0.1,0.1,0.2,0.2,0.5,1.3C95.8,80.1,95.8,80.2,95.7,80.3z"/>
		</g>
		<g>
			<path class="st9" d="M92.9,82c-0.5,0-1-0.2-1.4-0.5c0-1.2,0-1.4,0.3-2.2c0.3-0.2,0.7-0.3,1.1-0.3c0.6,0,1.1,0.2,1.5,0.6
				c0,0,0,0.1,0.1,0.4L94.4,80l0,0.3l0,0.2c0,0.3,0,0.6,0,1l-0.1,0l-0.5,0.3c-0.1,0-0.1,0.1-0.2,0.1C93.4,82,93.1,82,92.9,82z"/>
		</g>
	</g>
	<g>
		<g>
			<path class="st8" d="M53.1,88.7c-1,0.1-1.5,0-1.8-0.7c0-0.1-0.1-0.1-0.1-0.2C51.1,87.6,51,87.3,51,87c-0.1-0.7,0.1-1.3,0.6-1.7
				c0.1,0,0.1-0.1,0.2-0.1C53,85,53,85,54,85.2c0.1,0.1,0.1,0.1,0.2,0.2c0.3,0.3,0.5,0.7,0.5,1.2c0.1,0.7-0.1,1.3-0.5,1.7
				c-0.1,0.1-0.1,0.1-0.8,0.4C53.3,88.7,53.2,88.7,53.1,88.7z"/>
		</g>
		<g>
			<path class="st9" d="M51.8,86.9c0-0.3,0.1-0.7,0.2-0.9c0.8-0.1,0.9-0.1,1.5,0c0.2,0.2,0.3,0.4,0.3,0.7c0,0.4-0.1,0.8-0.3,1
				c0,0-0.1,0-0.2,0.1l-0.1,0l-0.2,0l-0.1,0c-0.2,0-0.4,0-0.7,0l0-0.1l-0.3-0.3c0,0-0.1-0.1-0.1-0.1C51.9,87.3,51.9,87.1,51.8,86.9z
				"/>
		</g>
	</g>
	<g>
		<g>
			<path class="st8" d="M103.8,79.7c0,0.1,0,0.3-0.1,0.4c-0.1,0.4-0.3,0.7-0.5,1c-0.1,0.1-0.2,0.2-0.3,0.3c-1.1,1-3.8-0.3-3.7-2
				c0-0.1,0-0.2,0.1-0.3c0.1-0.4,0.3-0.8,0.7-1.1c0.1-0.1,0.2-0.2,0.4-0.3c2.1,0,2.1,0,2.9,0.9C103.4,78.7,103.5,78.8,103.8,79.7z"
				/>
		</g>
		<g>
			<path class="st9" d="M102,80.4c-0.4,0-0.9-0.2-1.2-0.5c-0.1-0.1-0.2-0.3-0.2-0.5c0.1-0.2,0.1-0.4,0.2-0.5c0.5,0,1,0,1.1,0.1
				c0.1,0,0.3,0.2,0.4,0.4c0,0.1,0.1,0.2,0.2,0.4c-0.1,0.2-0.1,0.3-0.2,0.4l-0.2,0.2L102,80.4z"/>
		</g>
	</g>
	<g>
		<g>
			<path class="st8" d="M58.2,90.7c-0.1-0.1-0.2-0.2-0.3-0.2c-0.2-0.2-0.3-0.5-0.4-0.8c0-0.1,0-0.2,0-0.3c-0.1-1.2,1.9-2.3,3-1.5
				c0.1,0.1,0.1,0.1,0.2,0.2c0.2,0.3,0.4,0.6,0.4,1c0,0.1,0,0.2,0,0.4c-1,1.3-1,1.3-2,1.5C59.1,90.9,58.9,91,58.2,90.7z"/>
		</g>
		<g>
			<path class="st9" d="M58.6,89.2c0.2-0.2,0.6-0.5,0.9-0.5c0.1,0,0.3,0,0.4,0.1c0.1,0.1,0.2,0.3,0.2,0.4c-0.3,0.3-0.5,0.6-0.6,0.7
				c-0.1,0-0.3,0.1-0.5,0.1c-0.1,0-0.2,0-0.3-0.1c-0.1-0.1-0.1-0.2-0.2-0.3l0-0.2L58.6,89.2z"/>
		</g>
	</g>
	<g>
		<g>
			<path class="st8" d="M51.8,79.7c0,0.2,0,0.3-0.1,0.5c-0.1,0.4-0.3,0.8-0.6,1.1c-0.1,0.1-0.2,0.2-0.3,0.3
				c-1.3,1.1-4.4-0.3-4.3-2.3c0-0.1,0-0.3,0.1-0.4c0.1-0.5,0.4-0.9,0.8-1.3c0.1-0.1,0.3-0.2,0.4-0.3c2.4,0.1,2.4,0.1,3.4,1.1
				C51.3,78.5,51.4,78.7,51.8,79.7z"/>
		</g>
		<g>
			<path class="st9" d="M49.7,80.5c-0.4,0-1-0.3-1.3-0.6c-0.1-0.1-0.3-0.3-0.3-0.5c0.1-0.2,0.1-0.4,0.3-0.6c0.6,0,1.1,0,1.3,0.1
				c0.1,0,0.3,0.3,0.5,0.5c0,0.1,0.1,0.2,0.2,0.4c-0.1,0.2-0.1,0.4-0.2,0.5l-0.2,0.2L49.7,80.5z"/>
		</g>
	</g>
	<g>
		<g>
			<path class="st8" d="M95.7,75.6c-0.1-0.1-0.3-0.2-0.4-0.3c-0.3-0.3-0.5-0.6-0.6-1c0-0.1-0.1-0.3-0.1-0.4
				c-0.3-1.6,2.4-3.3,3.9-2.2c0.1,0.1,0.2,0.2,0.3,0.2c0.3,0.3,0.6,0.8,0.6,1.2c0,0.2,0,0.3,0,0.5c-1.2,1.9-1.2,1.9-2.5,2.1
				C96.9,75.8,96.8,75.9,95.7,75.6z"/>
		</g>
		<g>
			<path class="st9" d="M96.9,74.5c-0.1,0-0.3,0-0.5-0.1l0,0c-0.1-0.1-0.2-0.3-0.3-0.5L96,73.7c0,0,0-0.2,0.2-0.4
				c0.3-0.4,0.9-0.7,1.3-0.7c0.1,0,0.3,0,0.4,0.1c0.2,0.2,0.3,0.4,0.4,0.6C97.6,74.4,97.5,74.4,96.9,74.5L96.9,74.5z"/>
		</g>
	</g>
	<g>
		<g>
			<path class="st8" d="M101.3,87.2c-0.1,0.1-0.1,0.1-0.2,0.2c-0.6,0.4-1.4,0.5-2,0.1c-0.1,0-0.1-0.1-0.2-0.1
				c-2.1-1.3-1.2-2.1-0.3-3.1c0.1-0.1,0.1-0.1,0.2-0.2c0.5-0.4,1.2-0.4,1.7-0.3c0.1,0,0.2,0.1,0.2,0.1c1.1,0.7,1.1,2.4,0.6,3.2
				C101.3,87.1,101.3,87.1,101.3,87.2z"/>
		</g>
		<g>
			<path class="st9" d="M99.9,86.4c-0.1,0-0.2,0-0.3-0.1c-0.4-0.3-0.6-0.4-0.7-0.5c0.1-0.2,0.4-0.4,0.5-0.6c0.2-0.2,0.4-0.2,0.5-0.2
				c0.1,0,0.1,0,0.2,0c0.3,0.2,0.3,0.9,0.2,1.3C100.1,86.4,100,86.4,99.9,86.4z"/>
		</g>
	</g>
	<g>
		<g>
			<path class="st8" d="M60.7,84.8c-0.1-0.1-0.1-0.2-0.2-0.2c-0.4-0.6-0.4-1.4,0-2c0-0.1,0.1-0.1,0.1-0.2c1.5-2,2.2-1.1,3.2,0
				c0.1,0.1,0.1,0.1,0.2,0.2c0.3,0.5,0.4,1.2,0.1,1.7c0,0.1-0.1,0.2-0.1,0.2c-0.8,1.1-2.5,0.9-3.2,0.4
				C60.8,84.9,60.7,84.9,60.7,84.8z"/>
		</g>
		<g>
			<path class="st9" d="M61.5,83.5c0-0.1,0-0.2,0.1-0.3c0.3-0.4,0.5-0.6,0.6-0.7c0.2,0.1,0.4,0.4,0.6,0.6c0.2,0.2,0.2,0.4,0.2,0.5
				c0,0.1,0,0.1,0,0.2c-0.2,0.3-0.9,0.2-1.3,0.1C61.5,83.8,61.5,83.7,61.5,83.5z"/>
		</g>
	</g>
	<g>
		<g>
			<path class="st8" d="M59.7,82.5c-0.1,0.1-0.2,0.2-0.3,0.2c-0.8,0.5-1.8,0.6-2.7,0.2c-0.1,0-0.2-0.1-0.3-0.2
				c-2.8-1.7-1.6-2.8-0.3-4.1c0.1-0.1,0.2-0.2,0.3-0.2c0.7-0.5,1.5-0.6,2.3-0.3c0.1,0,0.2,0.1,0.3,0.1c1.5,0.9,1.4,3.1,0.8,4.2
				C59.8,82.4,59.7,82.4,59.7,82.5z"/>
		</g>
		<g>
			<path class="st9" d="M58.1,81.9c-0.2,0-0.4,0-0.6-0.1c-0.8-0.5-1.4-0.8-1.4-1c0-0.4,0.7-0.8,1-1.1c0.4-0.3,0.7-0.4,1-0.4
				c0.1,0,0.3,0,0.4,0.1c0.6,0.4,0.6,1.7,0.3,2.4C58.6,81.8,58.3,81.9,58.1,81.9z"/>
		</g>
	</g>
	<g>
		<g>
			<path class="st8" d="M95.3,87.6c0,0.1,0,0.1,0,0.2c-0.1,0.5-0.4,1-0.9,1.2c-0.1,0-0.1,0-0.2,0.1c-1.7,0.5-1.7-0.4-1.8-1.4
				c0-0.1,0-0.1,0-0.2c0.1-0.5,0.3-0.8,0.7-1.1c0.1,0,0.1-0.1,0.2-0.1c0.9-0.3,1.8,0.6,2,1.2C95.3,87.5,95.3,87.6,95.3,87.6z"/>
		</g>
		<g>
			<path class="st9" d="M94.6,87.6c0,0,0,0.1,0,0.1c0,0.3-0.2,0.5-0.5,0.6c0,0-0.1,0-0.1,0c-0.9,0.3-0.9-0.2-1-0.8c0,0,0-0.1,0-0.1
				c0-0.2,0.2-0.4,0.4-0.6c0,0,0.1,0,0.1,0C94,86.8,94.5,87.3,94.6,87.6C94.6,87.6,94.6,87.6,94.6,87.6z"/>
		</g>
	</g>
	<g>
		<g>
			<path class="st8" d="M91.4,73.5c0,0.1,0,0.1,0,0.2c-0.1,0.4-0.3,0.8-0.7,0.9c0,0-0.1,0-0.1,0c-1.4,0.4-1.4-0.3-1.4-1.1
				c0-0.1,0-0.1,0-0.2c0-0.4,0.3-0.7,0.6-0.8c0,0,0.1,0,0.1-0.1C90.5,72.3,91.2,73,91.4,73.5C91.4,73.5,91.4,73.5,91.4,73.5z"/>
		</g>
		<g>
			<path class="st9" d="M90.7,73.6C90.7,73.6,90.7,73.6,90.7,73.6c0,0.2-0.1,0.4-0.3,0.4c0,0,0,0-0.1,0c-0.6,0.2-0.6-0.1-0.6-0.5
				c0,0,0,0,0-0.1c0-0.1,0.1-0.3,0.2-0.3c0,0,0,0,0.1,0C90.3,73.1,90.6,73.3,90.7,73.6C90.7,73.5,90.7,73.6,90.7,73.6z"/>
		</g>
	</g>
	<g>
		<g>
			<path class="st8" d="M55.9,75c0,0.1,0,0.2,0,0.2c-0.1,0.6-0.5,1.1-1,1.3c-0.1,0-0.1,0-0.2,0.1c-2,0.5-2-0.4-2.1-1.6
				c0-0.1,0-0.2,0-0.2c0.1-0.5,0.4-1,0.8-1.2c0.1,0,0.1-0.1,0.2-0.1c1.1-0.3,2.1,0.7,2.3,1.4C55.9,75,55.9,75,55.9,75z"/>
		</g>
		<g>
			<path class="st9" d="M54.9,75.1C54.9,75.1,54.9,75.2,54.9,75.1c0,0.3-0.2,0.5-0.4,0.6c0,0,0,0-0.1,0c-0.8,0.2-0.8-0.2-0.8-0.7
				c0,0,0-0.1,0-0.1c0-0.2,0.1-0.4,0.3-0.5c0,0,0,0,0.1,0C54.4,74.4,54.8,74.8,54.9,75.1C54.9,75.1,54.9,75.1,54.9,75.1z"/>
		</g>
	</g>
</g>
</svg>
