<?xml version="1.0" encoding="utf-8"?>
<!-- Generator: Adobe Illustrator 18.1.1, SVG Export Plug-In . SVG Version: 6.00 Build 0)  -->
<svg version="1.1" id="Layer_1" xmlns="http://www.w3.org/2000/svg" xmlns:xlink="http://www.w3.org/1999/xlink" x="0px" y="0px"
	 viewBox="0 0 96 32" enable-background="new 0 0 96 32" xml:space="preserve">
<g>
	<g>
		<path fill="#25292B" d="M95,28.8c0,1.2-1,2.2-2.2,2.2H3.2C2,31,1,30,1,28.8V3.2C1,2,2,1,3.2,1h89.6C94,1,95,2,95,3.2V28.8z"/>
		<g>
			<path fill="#FFFFFF" d="M27.8,20.4c-0.4,1-0.7,1.4-1.2,2.3c-0.8,1.2-1.9,2.7-3.3,2.7c-1.2,0-1.6-0.8-3.3-0.8
				c-1.7,0-2,0.8-3.3,0.8c-1.4,0-2.5-1.4-3.3-2.6c-2.2-3.4-2.5-7.4-1.1-9.5c1-1.5,2.5-2.4,4-2.4c1.5,0,2.4,0.8,3.6,0.8
				c1.2,0,1.9-0.8,3.6-0.8c1.3,0,2.7,0.7,3.6,1.9C24.1,14.6,24.6,19.2,27.8,20.4z"/>
			<g>
				<path fill="#FFFFFF" d="M22.3,9.6c0.6-0.8,1.1-1.9,0.9-3.1c-1,0.1-2.2,0.7-2.9,1.6c-0.6,0.8-1.2,1.9-0.9,3
					C20.5,11.1,21.7,10.5,22.3,9.6z"/>
			</g>
		</g>
		<g>
			<g>
				<path fill="#FFFFFF" d="M34.7,13.3l-3.2,9.4h1.5l1-2.9H37l1,2.9h1.5l-3.2-9.4H34.7z M35.4,14.9c0.1,0.4,0.2,0.9,0.4,1.3l0.9,2.5
					h-2.5l0.9-2.5C35.2,15.8,35.3,15.3,35.4,14.9z"/>
				<path fill="#FFFFFF" d="M43.6,15.7c-1,0-1.8,0.4-2.3,1.1l-0.1-0.9H40l0,0.1c0,0.6,0.1,1.2,0.1,2.2v7.3h1.4V22
					c0.4,0.5,1.2,0.8,2,0.8c0.8,0,1.6-0.3,2.2-0.9c0.6-0.7,1-1.6,1-2.7c0-1-0.3-1.9-0.8-2.5C45.2,16.1,44.5,15.7,43.6,15.7z
					 M43.3,16.9c1.3,0,1.8,1.2,1.8,2.3c0,1.5-0.7,2.4-1.9,2.4c-0.8,0-1.5-0.5-1.7-1.3c0-0.1-0.1-0.3-0.1-0.5v-1.1c0-0.1,0-0.2,0-0.4
					c0,0,0-0.1,0-0.1C41.8,17.5,42.5,16.9,43.3,16.9z"/>
				<path fill="#FFFFFF" d="M51,15.7c-1,0-1.8,0.4-2.3,1.1l-0.1-0.9h-1.3l0,0.1c0,0.6,0.1,1.2,0.1,2.2v7.3h1.4V22
					c0.4,0.5,1.2,0.8,2,0.8c0.8,0,1.6-0.3,2.2-0.9c0.6-0.7,1-1.6,1-2.7c0-1-0.3-1.9-0.8-2.5C52.6,16.1,51.8,15.7,51,15.7z
					 M50.6,16.9c1.3,0,1.8,1.2,1.8,2.3c0,1.5-0.7,2.4-1.9,2.4c-0.8,0-1.5-0.5-1.7-1.3c0-0.1-0.1-0.3-0.1-0.5v-1.1c0-0.1,0-0.2,0-0.4
					c0,0,0-0.1,0-0.1C49.1,17.5,49.8,16.9,50.6,16.9z"/>
				<path fill="#FFFFFF" d="M60.2,17.3c-1.3-0.5-1.8-0.9-1.8-1.7c0-0.6,0.5-1.3,1.6-1.3c0.9,0,1.5,0.3,1.7,0.4l0.1,0.1l0.4-1.2
					l-0.1,0c-0.2-0.1-0.9-0.5-2.1-0.5c-1.8,0-3.1,1.1-3.1,2.6c0,1.2,0.8,2.1,2.5,2.7c1.2,0.5,1.7,0.9,1.7,1.7c0,0.9-0.7,1.5-1.8,1.5
					c-0.7,0-1.5-0.2-2.1-0.6L57.2,21l-0.4,1.2l0.1,0c0.5,0.4,1.6,0.6,2.4,0.6c2.5,0,3.3-1.5,3.3-2.8C62.6,18.8,61.9,18,60.2,17.3z"
					/>
				<path fill="#FFFFFF" d="M65.2,14.3l-1.4,0.4v1.2h-1V17h1v3.5c0,0.8,0.2,1.4,0.5,1.8c0.3,0.3,0.8,0.5,1.4,0.5
					c0.5,0,0.9-0.1,1.1-0.2l0.1,0l-0.1-1.1l-0.1,0c-0.2,0.1-0.4,0.1-0.7,0.1c-0.6,0-0.8-0.3-0.8-1.2V17h1.7v-1.1h-1.7V14.3z"/>
				<path fill="#FFFFFF" d="M70.5,15.7c-2,0-3.4,1.5-3.4,3.6c0,2.1,1.4,3.5,3.3,3.5h0c1.6,0,3.4-1.1,3.4-3.6c0-1-0.3-1.9-0.9-2.5
					C72.3,16.1,71.4,15.7,70.5,15.7z M70.4,16.9c1.3,0,1.9,1.3,1.9,2.4c0,1.4-0.8,2.5-1.9,2.5h0c-1.1,0-1.9-1-1.9-2.4
					C68.5,18.1,69.1,16.9,70.4,16.9z"/>
				<path fill="#FFFFFF" d="M78.2,15.8L78.2,15.8c-0.2-0.1-0.3-0.1-0.4-0.1c-0.7,0-1.4,0.4-1.8,1.1l0-1h-1.3l0,0.1
					c0,0.6,0.1,1.2,0.1,2.1l0,4.7h1.4v-3.6c0-0.2,0-0.4,0-0.6c0.2-0.9,0.8-1.4,1.5-1.4c0.1,0,0.3,0,0.4,0l0.2,0V15.8z"/>
				<path fill="#FFFFFF" d="M81.4,15.7c-1.9,0-3.2,1.5-3.2,3.7c0,2.1,1.3,3.4,3.4,3.4c1.1,0,1.8-0.2,2.3-0.4l0.1,0l-0.3-1.1l-0.1,0
					c-0.4,0.2-0.9,0.3-1.8,0.3c-0.6,0-2.1-0.2-2.1-2.1l4.6,0l0-0.1c0-0.1,0-0.3,0-0.6C84.2,17.5,83.5,15.7,81.4,15.7z M81.3,16.8
					c0.4,0,0.8,0.1,1,0.4c0.4,0.4,0.5,1,0.5,1.3h-3.3C79.7,17.7,80.2,16.8,81.3,16.8z"/>
			</g>
			<g>
				<path fill="#FFFFFF" d="M31.4,6.9c0.4-0.1,0.9-0.1,1.4-0.1c0.9,0,1.6,0.2,2,0.5c0.4,0.4,0.7,0.9,0.7,1.6c0,0.7-0.3,1.3-0.7,1.7
					c-0.5,0.4-1.2,0.6-2.2,0.6c-0.5,0-0.8,0-1.2-0.1V6.9z M32.1,10.8c0.2,0,0.4,0,0.6,0c1.4,0,2.1-0.7,2.1-1.9c0-1.1-0.7-1.7-2-1.7
					c-0.3,0-0.6,0-0.8,0.1V10.8z"/>
				<path fill="#FFFFFF" d="M37.8,11.3c-1,0-1.7-0.6-1.7-1.6c0-1.1,0.8-1.7,1.8-1.7c1,0,1.7,0.7,1.7,1.6
					C39.6,10.8,38.7,11.3,37.8,11.3L37.8,11.3z M37.9,10.9c0.6,0,1.1-0.5,1.1-1.3c0-0.5-0.3-1.2-1.1-1.2c-0.8,0-1.1,0.6-1.1,1.2
					C36.8,10.4,37.2,10.9,37.9,10.9L37.9,10.9z"/>
				<path fill="#FFFFFF" d="M40.6,8.1l0.5,1.6c0.1,0.4,0.2,0.7,0.3,1h0c0.1-0.3,0.2-0.7,0.3-1l0.6-1.6h0.5l0.6,1.6
					c0.1,0.4,0.2,0.7,0.3,1h0c0.1-0.3,0.2-0.7,0.3-1l0.5-1.6h0.6L44,11.3h-0.6l-0.5-1.5c-0.1-0.4-0.2-0.7-0.3-1.1h0
					c-0.1,0.4-0.2,0.7-0.3,1.1l-0.6,1.5h-0.6L40,8.1H40.6z"/>
				<path fill="#FFFFFF" d="M45.8,8.9c0-0.3,0-0.6,0-0.9h0.6l0,0.5h0C46.6,8.3,47,8,47.6,8c0.5,0,1.3,0.3,1.3,1.4v1.9h-0.6V9.4
					c0-0.5-0.2-1-0.8-1c-0.4,0-0.8,0.3-0.9,0.6c0,0.1,0,0.2,0,0.3v1.9h-0.6V8.9z"/>
				<path fill="#FFFFFF" d="M49.9,6.6h0.6v4.7h-0.6V6.6z"/>
				<path fill="#FFFFFF" d="M53.1,11.3c-1,0-1.7-0.6-1.7-1.6c0-1.1,0.8-1.7,1.8-1.7c1,0,1.7,0.7,1.7,1.6
					C54.9,10.8,53.9,11.3,53.1,11.3L53.1,11.3z M53.1,10.9c0.6,0,1.1-0.5,1.1-1.3c0-0.5-0.3-1.2-1.1-1.2c-0.8,0-1.1,0.6-1.1,1.2
					C52,10.4,52.5,10.9,53.1,10.9L53.1,10.9z"/>
				<path fill="#FFFFFF" d="M58.2,10.5c0,0.3,0,0.5,0.1,0.8h-0.6l-0.1-0.4h0c-0.2,0.3-0.6,0.5-1.1,0.5c-0.7,0-1.1-0.5-1.1-0.9
					c0-0.8,0.8-1.2,2.1-1.2V9.2c0-0.3-0.1-0.7-0.8-0.7c-0.3,0-0.7,0.1-0.9,0.2l-0.1-0.4C55.9,8.1,56.4,8,56.8,8
					c1.1,0,1.4,0.7,1.4,1.3V10.5z M57.6,9.6c-0.7,0-1.5,0.1-1.5,0.7c0,0.4,0.3,0.6,0.6,0.6c0.5,0,0.8-0.3,0.9-0.5c0-0.1,0-0.1,0-0.2
					V9.6z"/>
				<path fill="#FFFFFF" d="M62.3,6.6v3.9c0,0.3,0,0.6,0,0.8h-0.6l0-0.6h0c-0.2,0.4-0.6,0.6-1.2,0.6c-0.9,0-1.5-0.7-1.5-1.6
					C59,8.6,59.7,8,60.6,8c0.6,0,0.9,0.2,1.1,0.5h0V6.6H62.3z M61.7,9.4c0-0.1,0-0.2,0-0.3c-0.1-0.4-0.4-0.7-0.9-0.7
					c-0.7,0-1.1,0.5-1.1,1.2c0,0.7,0.4,1.2,1.1,1.2c0.4,0,0.8-0.3,1-0.7c0-0.1,0-0.2,0-0.3V9.4z"/>
				<path fill="#FFFFFF" d="M66.4,11.3c-1,0-1.7-0.6-1.7-1.6c0-1.1,0.8-1.7,1.8-1.7c1,0,1.7,0.7,1.7,1.6
					C68.2,10.8,67.3,11.3,66.4,11.3L66.4,11.3z M66.4,10.9c0.6,0,1.1-0.5,1.1-1.3c0-0.5-0.3-1.2-1.1-1.2c-0.8,0-1.1,0.6-1.1,1.2
					C65.4,10.4,65.8,10.9,66.4,10.9L66.4,10.9z"/>
				<path fill="#FFFFFF" d="M69,8.9c0-0.3,0-0.6,0-0.9h0.6l0,0.5h0C69.8,8.3,70.2,8,70.8,8C71.3,8,72,8.3,72,9.3v1.9h-0.6V9.4
					c0-0.5-0.2-1-0.8-1c-0.4,0-0.8,0.3-0.9,0.6c0,0.1,0,0.2,0,0.3v1.9H69V8.9z"/>
				<path fill="#FFFFFF" d="M75.4,7.3v0.8h0.9v0.4h-0.9v1.7c0,0.4,0.1,0.6,0.5,0.6c0.2,0,0.3,0,0.4,0l0,0.4c-0.1,0-0.3,0.1-0.6,0.1
					c-0.3,0-0.5-0.1-0.7-0.2c-0.2-0.2-0.3-0.5-0.3-0.8V8.5h-0.6V8.1h0.6V7.5L75.4,7.3z"/>
				<path fill="#FFFFFF" d="M77.1,6.6h0.6v2h0c0.1-0.2,0.3-0.3,0.5-0.4C78.4,8,78.6,8,78.9,8c0.5,0,1.2,0.3,1.2,1.4v1.9h-0.6V9.4
					c0-0.5-0.2-1-0.8-1c-0.4,0-0.7,0.3-0.9,0.6c0,0.1,0,0.2,0,0.3v1.9h-0.6V6.6z"/>
				<path fill="#FFFFFF" d="M81.6,9.8c0,0.8,0.6,1.1,1.2,1.1c0.5,0,0.8-0.1,1-0.2l0.1,0.4c-0.2,0.1-0.6,0.2-1.2,0.2
					c-1.1,0-1.8-0.7-1.8-1.6c0-1,0.6-1.7,1.7-1.7c1.2,0,1.5,0.9,1.5,1.5c0,0.1,0,0.2,0,0.3L81.6,9.8z M83.5,9.3
					c0-0.4-0.2-0.9-0.9-0.9c-0.7,0-0.9,0.5-1,0.9H83.5z"/>
			</g>
		</g>
	</g>
	<rect x="0" y="0" fill="none" width="96" height="32"/>
</g>
</svg>
