<?xml version="1.0" encoding="utf-8"?>
<!-- Generator: Adobe Illustrator 21.1.0, SVG Export Plug-In . SVG Version: 6.00 Build 0)  -->
<svg version="1.1" id="Layer_1" xmlns="http://www.w3.org/2000/svg" xmlns:xlink="http://www.w3.org/1999/xlink" x="0px" y="0px"
	 viewBox="0 0 150 150" style="enable-background:new 0 0 150 150;" xml:space="preserve">
<style type="text/css">
	.st0{fill:#F1BB98;}
	.st1{fill:#CC9F80;}
	.st2{fill:#C89B7E;}
	.st3{fill:#CFA082;}
	.st4{fill:#BC9277;}
	.st5{fill:#DD121F;}
	.st6{fill:#3E3E3E;}
	.st7{fill:#FFFFFF;}
	.st8{fill:#303030;}
	.st9{fill:#1C1C1C;}
	.st10{fill:#1A1A1A;}
	.st11{fill:#919191;}
	.st12{fill:#5D5D5D;}
	.st13{fill:#FCC19A;}
	.st14{fill:#121212;}
	.st15{fill:#C49576;}
	.st16{fill:#DC1F26;}
	.st17{opacity:0.2;enable-background:new    ;}
	.st18{fill:#3C3C3B;}
	.st19{fill:#DAA482;}
	.st20{fill:#C79777;}
	.st21{fill:#584334;}
	.st22{fill:#6B6C6C;}
	.st23{fill:#464646;}
	.st24{fill:#414141;}
	.st25{fill:#CCCCCC;}
</style>
<g>
	<g>
		<path class="st0" d="M126.8,28.5c0,0-1.9-14-5.1-17.2c-1.3-0.9-7.6-1.1-8.4-0.5c-0.8,0.6-3.3,5.3-3,6.2c0.3,0.9,3.5,3.8,3.5,3.8
			l2.6-1.3l1.4,2c0,0-0.9,3.1-0.5,4.7c0.3,1.6,3.9,2.5,3.9,2.5c1.3,9.5-3.5,20.2-4.9,22.9c-1.4,2.7,1.3,7.3,1.3,7.3l-3.9-0.7
			c0,0-4.2-6.2-9.5-6.3c-4.6-0.3-9.1,1.5-9.1,1.5s-3.3-4.6-6.2-5.6c-3.1-1-8.7,0.3-8.7,0.3l-9.3-6.5l-0.8-5.4l-6-0.5l-6,0.5
			l-0.6,5.4L48.2,48c0,0-5.6-1.3-8.7-0.3c-3.1,1-6.2,5.6-6.2,5.6s-4.5-1.8-9.1-1.5c-5.3,0.1-9.5,6.3-9.5,6.3l-3.9,0.7
			c0,0,2.6-4.5,1.3-7.3c-1.4-2.7-6.2-13.4-5-22.9c0,0,3.4-0.9,3.9-2.5c0.3-1.6-0.5-4.7-0.5-4.7l1.4-2l2.6,1.3c0,0,3.3-2.8,3.5-3.8
			s-2.2-5.6-3-6.2c-0.8-0.6-7.1-0.3-8.4,0.5c-3.2,3.2-5.1,17.2-5.1,17.2s-2.7,30-0.7,37.4C1.2,67,2,69.3,3.8,70.4
			C4.3,70.6,6,69.9,6,69.9s5-0.1,6.5-0.2c6.2,1,12.8-0.3,12.8-0.3s4.4-0.7,9.9-2.8C38,78.4,44,82.2,44,82.2s-1.3,4.2,3.7,10.6
			c0.5,0.3-0.1,4.1,0.7,8.9c-1.1,1.5-1.9,5.1-1.9,5.1s2.9,2.1,17.6,2.3c14.8-0.3,17.6-2.3,17.6-2.3s-0.8-3.6-1.9-5.1
			c0.8-4.8,0.2-8.7,0.7-8.9c5-6.4,3.7-10.6,3.7-10.6s6-3.9,8.8-15.6c5.6,2.1,9.9,2.8,9.9,2.8s6.6,1.4,12.8,0.3
			c1.5,0,6.5,0.2,6.5,0.2s1.7,0.7,2.2,0.4c1.8-1,2.6-3.3,3.1-4.5C129.4,58.4,126.8,28.5,126.8,28.5z"/>
		<path class="st1" d="M70.4,38.9c0,0-3.7,2.7-6.6,2.7c-2.6,0-6.2-2.1-6.2-2.1l0.6-4.7l11.8,1.2L70.4,38.9z"/>
		<path class="st0" d="M73,12.2l-10.3-2l-9.2,2L50,20.5c0,0,1,18,13.2,19.5c12.2-1.5,13.2-19.5,13.2-19.5L73,12.2z"/>
		<path d="M54.5,12.8c0,0,3.9,6.9,8.6,7.5c-2.6-5.3-0.9-8.7-0.9-8.7s3.8,4.1,4.9,3.5c-0.5-2,0.8-3,0.8-3s1.8,4.3,6.2,5.8
			c0.7,2-1.6,10.2-1.6,10.2s1.5-3.3,2.3-5.7c0.3-0.9,1.2-1.5,2.1-1.5c0.2,0,0.3,0,0.3-0.1c0.4-0.5,1.4-1.5,1.5-4.6
			c0.4-5.6-3.7-11.6-9.6-12c-0.9-0.3-0.3-3.5-0.3-3.5l-3.3,3.6L60,0c0,0,0.6,3.3,0,3.8C46.4,6.9,47.5,16.2,47.5,16.2s0.9-3,2-2.7
			c-2.5,2.7-0.9,8.1-0.9,8.1l0.5-0.2c0.8-0.3,1.7,0.1,2.1,0.9l2.4,5c0,0-1.1-7.6-0.3-6.8C51.2,15.8,54.5,12.8,54.5,12.8z"/>
		<path class="st0" d="M78.9,24.2c-0.3,1.5-1.9,2.6-3.5,2.2c-1.5-0.3-0.3-6,1.2-5.6C78.3,21.1,79.2,22.7,78.9,24.2z"/>
		<path class="st0" d="M47.6,24.2c0.3,1.5,1.9,2.6,3.5,2.2c1.5-0.3,0.3-6-1.2-5.6C48.2,21.1,47.2,22.7,47.6,24.2z"/>
		<polygon class="st2" points="45.8,48.5 43.5,51.1 48.1,48 		"/>
		<polygon class="st2" points="57.4,41.5 57.4,45.7 56.4,43 		"/>
		<polygon class="st2" points="30.8,62.6 40.3,69.4 39.7,67.6 		"/>
		<polygon class="st2" points="10.7,58.8 8.1,62.4 12.4,58.5 		"/>
		<polygon class="st2" points="11.3,19.9 8.6,17.8 12.5,19.8 		"/>
		<path class="st3" d="M14.7,20.9v2.1c0,0.3-0.3,0.7-0.7,0.7h-2.7c-0.3,0-0.6-0.2-0.6-0.5l-0.5-1.7c-0.1-0.3,0-0.5,0.2-0.7l1-0.9
			c0.2-0.2,0.4-0.3,0.7-0.2l2.1,0.7C14.5,20.4,14.7,20.6,14.7,20.9z"/>
		<path class="st2" d="M46.9,76.9c-6-4.5-10.3-14.6-10.3-14.6c0,0,4.9,9,10.8,13.5L46.9,76.9z"/>
		<path class="st2" d="M56,87c-0.3-4.5,2.6-6.6,2.6-6.6s-2,2.2-1.7,6.5L56,87z"/>
		<path class="st2" d="M57.9,89c0.1,0,2.4-0.9,4.5-0.3l-0.3,0.9C60.2,89,57.9,89,57.9,89z"/>
		<path class="st2" d="M56.4,96.6c0-0.2-1.1-4.5-0.3-6l0.9,0.3C56.3,92,56.4,96.6,56.4,96.6z"/>
		<path class="st2" d="M54.7,90.6c-2.4-0.2-5.1-2.8-5.1-2.9c0,0,3,1.9,5.2,2L54.7,90.6z"/>
		<path class="st2" d="M54.7,100.1c-2.6-0.2-4.6-2.2-4.7-2.3c0,0,2.3,1.3,4.7,1.5V100.1z"/>
		<polygon class="st2" points="58.4,98.1 62.4,97.3 62.4,98.3 		"/>
		<path class="st2" d="M57.7,104.3c-0.1-0.1-0.9-1.5-0.9-4.5l1.7,4.1L57.7,104.3z"/>
		<polygon class="st2" points="51.1,77.6 64.1,77.3 64.1,78.4 		"/>
		<circle class="st4" cx="50.3" cy="74.5" r="1.8"/>
		<polygon class="st2" points="82.3,48.5 84.6,51.1 80.1,48 		"/>
		<polygon class="st2" points="70.7,41.5 70.7,45.7 71.7,43.1 		"/>
		<polygon class="st2" points="97.4,62.6 87.9,69.4 88.5,67.6 		"/>
		<polygon class="st2" points="117.4,58.8 120,62.4 115.8,58.5 		"/>
		<polygon class="st2" points="116.9,19.9 119.5,17.8 115.7,19.8 		"/>
		<path class="st3" d="M113.5,20.9v2.1c0,0.3,0.3,0.7,0.7,0.7h2.7c0.3,0,0.6-0.2,0.6-0.5l0.5-1.8c0.1-0.3,0-0.5-0.2-0.7l-1-0.9
			c-0.2-0.2-0.4-0.3-0.7-0.2l-2.1,0.7C113.6,20.4,113.5,20.6,113.5,20.9z"/>
		<path class="st2" d="M81.3,76.9c6-4.5,10.3-14.6,10.3-14.6c0,0-4.9,9-10.8,13.5L81.3,76.9z"/>
		<path class="st2" d="M72.1,87c0.3-4.5-2.6-6.6-2.6-6.6s2,2.2,1.7,6.5L72.1,87z"/>
		<path class="st2" d="M70.2,89c-0.1,0-2.4-0.9-4.5-0.3l0.3,0.9C67.9,89,70.2,89,70.2,89z"/>
		<path class="st2" d="M71.8,96.6c0-0.2,1.1-4.5,0.3-6l-0.9,0.3C71.9,92,71.8,96.6,71.8,96.6z"/>
		<path class="st2" d="M73.4,90.6c2.4-0.2,5.1-2.8,5.1-2.9c0,0-3,1.9-5.2,2L73.4,90.6z"/>
		<path class="st2" d="M73.4,100.1c2.6-0.2,4.6-2.2,4.7-2.3c0,0-2.3,1.3-4.7,1.5V100.1z"/>
		<polygon class="st2" points="69.7,98.1 65.7,97.3 65.7,98.3 		"/>
		<path class="st2" d="M70.4,104.3c0.1-0.1,0.9-1.5,0.9-4.5l-1.7,4.1L70.4,104.3z"/>
		<polygon class="st2" points="77.1,77.6 64.1,77.3 64.1,78.4 		"/>
		<circle class="st4" cx="77.9" cy="74.5" r="1.8"/>
		<path class="st2" d="M64.1,80.4c0.6,0,0.3,6.8,0,6.6C63.8,86.7,63.5,80.4,64.1,80.4z"/>
		<path class="st2" d="M64.1,90c0.6,0,0.3,6.8,0,6.6C63.8,96.3,63.5,90,64.1,90z"/>
		<path class="st2" d="M64.1,99.9c0.6,0,0.3,5.8,0,5.6C63.8,105.2,63.5,99.9,64.1,99.9z"/>
		<path class="st1" d="M64,74.5c1.4,0,0-21.7,0-21.7S62.6,74.5,64,74.5z"/>
		<path class="st1" d="M67.1,52c0.3,1.4,10.7-2.3,10.7-2.3S66.8,50.8,67.1,52z"/>
		<path class="st1" d="M61.1,52c-0.3,1.4-10.7-2.2-10.7-2.2S61.3,50.8,61.1,52z"/>
		<path class="st5" d="M64.4,128.4c15-0.1,23-2.7,23-2.7c0,0-0.6-5.2-1.6-7.1c-1.1-1.9-3.1-1.7-3.1-1.7l-18.7,0.6l-18.6-0.6
			c0,0-2.1-0.2-3.1,1.7c-1.1,1.9-1.6,7.1-1.6,7.1c0,0.2,8,2.7,23,2.7l0,0c0.1,0,0.3,0,0.3,0C64.2,128.4,64.3,128.4,64.4,128.4
			L64.4,128.4z"/>
		<path class="st6" d="M83,116.8c0,0-6.9,1.5-18.9,1.5s-18.9-1.5-18.9-1.5l1.4-9.9c0,0,8,2.4,17.6,2.4s17.6-2.4,17.6-2.4L83,116.8z"
			/>
		<g>
			<path class="st5" d="M128.2,38.3H120c0,0,1-4.8,0.7-9.4c0.8,0,6.7,0,6.7,0L128.2,38.3z"/>
			<rect x="123.4" y="29.9" class="st7" width="1.5" height="7.6"/>
		</g>
	</g>
	<g>
		<g>
			<circle class="st8" cx="59.7" cy="85" r="8.4"/>
			<circle class="st9" cx="59.7" cy="85" r="4.2"/>
			<circle class="st8" cx="59.7" cy="84.9" r="3.7"/>
			<circle class="st10" cx="59.7" cy="84.9" r="2.4"/>
			<circle class="st11" cx="59.7" cy="85" r="1.7"/>
			<circle class="st12" cx="59.7" cy="85" r="1.4"/>
		</g>
		<path class="st13" d="M61,88.2L59.2,89c-0.5,0.2-1.2,0-1.4-0.5l0,0c-0.2-0.5,0-1.2,0.5-1.4l1.8-0.8c0.5-0.2,1.2,0,1.4,0.5l0,0
			C61.7,87.4,61.5,88,61,88.2z"/>
		<path class="st14" d="M79.3,52c-2.5,4.6,5.5,18.9,0,24.9c3.8,0,15.2,6.7,33.1-0.8c-6.4-4.4,2.1-20.7-1.3-24
			c-4.1-2.8-14.6-6.4-14.6-6.4S82.4,49.3,79.3,52z"/>
		<polygon class="st13" points="91.4,71.2 91.4,77.2 84.1,81.6 87.7,90.9 95.7,92.2 105.3,89.6 107.1,81.7 99.9,77.1 99.6,70.7 		
			"/>
		<polygon class="st15" points="91.4,71.2 91.4,75.1 99.8,75.1 99.6,70.7 		"/>
		<path class="st13" d="M82.7,122.4c0,0,0.1,6.2-0.3,7.6c0.1,0.5,14.6,3.7,14.6,3.7s12.4-3.9,12.7-4.4c-0.3-2.5-0.2-6.9-0.2-6.9
			S82.7,122.4,82.7,122.4z"/>
		<path class="st13" d="M81.2,82.7c0,0-7.4-1.9-9.6,3.5c-1,2.5-1.2,10.8-1.2,10.8s-5.4,10.6-6,17.3c0.2,0.5,4.1,9.8,4.1,9.8
			s7.9-11.7,8.8-18.3c0.4,0.2,4.2-10.2,4.2-10.2l1.7-11.6L81.2,82.7z"/>
		<path class="st13" d="M126.5,114.9c4.2,0.6,4.9,3.4,6.5,3.8c1.6,0.4,3.2,4.7,3.2,4.7s-5.8,4.4-7.7,3.9c-1.8-0.5-5.7,0.5-7.4-0.8
			c-0.8-0.6-1.5-4.1-1.5-4.1s-5.4-7.3-5.8-15.6c0.5-0.8-4.3-12.4-4.3-12.4l-2.1-6.8l2.6-5.4c0,0,6.6-0.8,8.7,2.8
			c1.9,2.8,1,9.8,1.6,10.4C123.8,100.7,125.7,114.8,126.5,114.9z"/>
		<path class="st16" d="M110.7,94.6c0,0-2.3-6.8-0.7-12.4l-3.4-1.5c0,0-2.2,8.9-11.1,8.9v0.1c-8.7-0.1-11.2-8.9-11.2-8.9l-3.3,1.5
			c1.8,5.5-0.4,12.4-0.4,12.4s-4.5,4.4-3.1,11.7c0.8,3.4,3.5,5.2,3.5,5.2l1.2,10.9c0,0,5.1,2.1,13.7,2.1s13.7-2.1,13.7-2.1l1-10.9
			c0,0,2.8-1.9,3.5-5.3C115.4,98.9,110.7,94.6,110.7,94.6z"/>
		<polygon class="st17" points="83.4,111.5 83.6,113.4 108.3,111.4 		"/>
		<path class="st17" d="M89.6,94.4c0,0,4.1,1,6.1,2.1c1.9-1.4,6.4-2.5,6.4-2.5L89.6,94.4z"/>
		<path class="st18" d="M74.5,147.5c1-6.3,6.1-17.2,7.7-17.7c0.6-0.6,6.2,1.8,14.2,1.8s13-3.2,13.3-2.5c1.8,0.7,7.6,13.9,7.9,18.6
			C98.4,152.5,74.9,148.5,74.5,147.5z"/>
		<path class="st13" d="M84.7,63.1c-1.5,0.3-2.9-0.8-3.2-2.4c-0.3-1.6,0.6-3.1,2.1-3.5C85,56.9,86.2,62.8,84.7,63.1z"/>
		<path class="st13" d="M106.7,63.1c1.5,0.3,2.9-0.8,3.2-2.4c0.3-1.6-0.6-3.1-2.1-3.5C106.4,56.9,105.2,62.8,106.7,63.1z"/>
		<path class="st13" d="M107.2,50.3c0.3-2.1-11.4-5.6-11.4-5.6s-11.7,3.5-11.4,5.6C81.4,70.5,95.8,74,95.8,74S110.1,70.5,107.2,50.3
			z"/>
		<path class="st14" d="M84.7,51.6c0,0,2.8,3.8,6.7,3.5c-1.4-2.8-1-5-1-5s6.7,6.8,11.2,6.1c-2.2-4.3-2.3-7-2.3-7s2.4,3.6,6.7,4.1
			c-1.5-2.8,1.6-3.1,1.6-3.1s2.5,1.8,4.2,6.2c1.5-4.7,0.5-8,0.5-8s-2.8-9.8-12.2-9.4c-0.9-1.1,2.1-2.5,2.1-2.5s-5.1,2.5-5.2,1.4
			c-0.2-1.1-0.6-3.1-0.6-3.1s-0.7,3-2.4,3.5c-0.7-1.6-4.4-2.1-4.4-2.1s1.1,1.5,0.6,2c-8.7,0.5-11.1,10.9-11.1,10.9s-0.7,3.8-0.2,5.3
			c1.6-1.8,4.8-3.4,4.8-3.4L84.7,51.6z"/>
		<ellipse class="st19" cx="96.4" cy="129.9" rx="0.5" ry="1"/>
		<path class="st13" d="M59.2,81.1c-0.4-0.4-1.6-0.4-3.5-0.2c-1.3,0.2-3,0.1-3.6,0.9c-0.8,1.5-1.8,2.8-1.4,4.1
			c0.2,1.2,0.6,4.2,1.4,5.3c0.8,0.7,1.8,2.9,1.9,3.2c0.8,2,1.4,22.6,2.8,26.4c2.1,5.9,5,8.1,6.6,8.1c2.9,0,5.5-4.6,5.6-5.3
			c-0.8-9.1-6.6-9.9-9.5-31.1c0,0,1.2-1.4,1.2-4.5c-0.4-1.2-0.8,1.8-1.4-1.6c0-0.2,1.8,0.5,2.1-1.1C61.6,83.5,59.3,81.2,59.2,81.1z"
			/>
		<path class="st20" d="M129.2,121.1c0,0-0.6-1.6,0-2.1c0.6-0.5,5.3-1.1,6.1-1c0.8,0.1,2.7,2.7,2.7,2.7l-2.1,2.1l-2.8-2L129.2,121.1
			z"/>
		<g>
			
				<rect x="120.1" y="122.7" transform="matrix(0.895 -0.4461 0.4461 0.895 -41.6544 71.8194)" class="st12" width="23.2" height="3.5"/>
			
				<rect x="123.2" y="122.3" transform="matrix(0.895 -0.4461 0.4461 0.895 -41.6073 71.8676)" class="st21" width="17.2" height="4.1"/>
			
				<rect x="141.7" y="108.3" transform="matrix(0.8974 -0.4413 0.4413 0.8974 -37.3343 75.5368)" class="st8" width="4" height="19.4"/>
			
				<rect x="141.8" y="108.9" transform="matrix(0.8974 -0.4413 0.4413 0.8974 -37.6726 75.1646)" class="st9" width="1.8" height="19.4"/>
			
				<rect x="145.4" y="112.5" transform="matrix(0.8974 -0.4413 0.4413 0.8974 -36.4465 76.7812)" class="st8" width="2.8" height="8.5"/>
			
				<rect x="145.5" y="112.8" transform="matrix(0.8973 -0.4414 0.4414 0.8973 -36.676 76.5639)" class="st9" width="1.4" height="8.5"/>
			
				<rect x="115.3" y="128.2" transform="matrix(0.8973 -0.4413 0.4413 0.8973 -46.4837 65.0907)" class="st8" width="2.8" height="8.5"/>
			
				<rect x="116.7" y="127.9" transform="matrix(0.8974 -0.4413 0.4413 0.8974 -46.2592 65.3758)" class="st9" width="1.4" height="8.5"/>
			
				<rect x="117.6" y="120.8" transform="matrix(0.8974 -0.4413 0.4413 0.8974 -45.3375 66.1614)" class="st8" width="4" height="19.4"/>
			
				<rect x="119.5" y="120.4" transform="matrix(0.8973 -0.4414 0.4414 0.8973 -45.0418 66.5357)" class="st9" width="2" height="19.4"/>
		</g>
		<path class="st13" d="M125.9,124.2c-0.5,1.3,1.2,6,2.1,6.7s7.9-1.6,9-2.8c1.2-1.3,2-3,2.1-3.8c0.1-0.9-2.8-4.8-4.2-5.1
			c-1.4-0.3-3.3,0.2-3.8,0.3C130.2,119.7,126.3,122.9,125.9,124.2z"/>
		<path class="st20" d="M121.6,118.7c2.5-3.1,4.9-3.8,4.9-3.8S122.9,114.3,121.6,118.7z"/>
		<path class="st16" d="M95.6,69.9c2.1,0,3.6-1.4,3.6-1.7c0-0.3-2.1-1.3-2.5-1.3s-0.8,0.5-1.1,0.5s-0.5-0.5-1.1-0.5
			c-0.5,0-2.5,1-2.5,1.3C92,68.6,93.6,69.9,95.6,69.9z"/>
		<g>
			<circle class="st8" cx="50.7" cy="87.7" r="9.4"/>
			<circle class="st9" cx="50.7" cy="87.7" r="4.8"/>
			<circle class="st8" cx="50.7" cy="87.7" r="4.1"/>
			<circle class="st10" cx="50.7" cy="87.7" r="2.7"/>
			<circle class="st22" cx="50.7" cy="87.7" r="1.8"/>
			<circle class="st23" cx="50.7" cy="87.7" r="1.5"/>
		</g>
		<path class="st19" d="M65,112.5c3.8,1.8,3.4,7.9,3.4,7.9S67.3,115.7,65,112.5z"/>
		<path class="st7" d="M76.6,148.1L76,148c1.5-7.4,7.1-18.4,7.1-18.5l0.5,0.3C83.6,130,78,140.9,76.6,148.1z"/>
		<path class="st7" d="M115.7,148.1c-1.5-7.4-7.3-18.8-7.4-18.9l0.5-0.3c0.1,0.2,6,11.7,7.4,19.1L115.7,148.1z"/>
		<g>
			<path class="st24" d="M95.6,88.2l-5.2-10.5c0-0.1,0-0.2,0.1-0.2c0.1,0,0.2,0,0.2,0.1l5,10l5.6-9.7c0.1-0.1,0.2-0.1,0.2-0.1
				c0.1,0.1,0.1,0.2,0.1,0.2L95.6,88.2z"/>
			<g>
				<path class="st9" d="M96.4,93.1h-1.6c-0.5,0-0.8-0.4-0.8-0.8v-3.5c0-0.5,0.4-0.8,0.8-0.8h1.6c0.5,0,0.8,0.4,0.8,0.8v3.5
					C97.2,92.7,96.9,93.1,96.4,93.1z"/>
				<path class="st25" d="M96.2,92.6h-1.3c-0.4,0-0.7-0.3-0.7-0.7v-2.8c0-0.4,0.3-0.7,0.7-0.7h1.3c0.4,0,0.7,0.3,0.7,0.7v2.8
					C96.9,92.3,96.6,92.6,96.2,92.6z"/>
				<rect x="95" y="88.9" class="st24" width="0.3" height="3"/>
				<rect x="95.9" y="88.9" class="st24" width="0.3" height="1.5"/>
			</g>
		</g>
	</g>
</g>
</svg>
