<?xml version="1.0" encoding="utf-8"?>
<!-- Generator: Adobe Illustrator 21.1.0, SVG Export Plug-In . SVG Version: 6.00 Build 0)  -->
<svg version="1.1" id="Layer_1" xmlns="http://www.w3.org/2000/svg" xmlns:xlink="http://www.w3.org/1999/xlink" x="0px" y="0px"
	 viewBox="0 0 150 150" style="enable-background:new 0 0 150 150;" xml:space="preserve">
<style type="text/css">
	.st0{fill:#F1BB98;}
	.st1{fill:#CC9F80;}
	.st2{fill:#C89B7E;}
	.st3{fill:#CFA082;}
	.st4{fill:#BC9277;}
	.st5{fill:#DD121F;}
	.st6{fill:#3E3E3E;}
	.st7{fill:#FFFFFF;}
</style>
<g>
	<path class="st0" d="M148.3,33.3c0,0-2.2-16.4-5.9-20.1c-1.5-1-8.9-1.3-9.8-0.6s-3.8,6.2-3.5,7.3c0.3,1.1,4.1,4.4,4.1,4.4l3-1.5
		l1.6,2.3c0,0-1.1,3.6-0.6,5.5c0.4,1.9,4.5,2.9,4.5,2.9c1.5,11.1-4.1,23.6-5.7,26.7c-1.6,3.2,1.5,8.5,1.5,8.5l-4.5-0.8
		c0,0-4.9-7.3-11.1-7.4c-5.4-0.3-10.6,1.8-10.6,1.8s-3.8-5.4-7.3-6.6c-3.6-1.2-10.2,0.4-10.2,0.4l-10.9-7.6L82,42.2l-7-0.6l-7,0.6
		l-0.7,6.3l-10.9,7.6c0,0-6.6-1.5-10.2-0.4c-3.6,1.2-7.3,6.6-7.3,6.6s-5.2-2.1-10.6-1.8c-6.2,0.1-11.1,7.4-11.1,7.4l-4.5,0.8
		c0,0,3-5.3,1.5-8.5C12.6,57,7,44.6,8.4,33.5c0,0,4-1,4.5-2.9c0.4-1.9-0.6-5.5-0.6-5.5l1.6-2.3l3,1.5c0,0,3.8-3.3,4.1-4.4
		c0.3-1.1-2.6-6.6-3.5-7.3s-8.3-0.4-9.8,0.6C4,16.9,1.8,33.3,1.8,33.3S-1.3,68.3,1,77c0.6,1.3,1.5,4,3.6,5.2
		c0.6,0.3,2.6-0.5,2.6-0.5s5.8-0.1,7.6-0.2c7.2,1.2,14.9-0.4,14.9-0.4s5.1-0.8,11.6-3.3C44.5,91.6,51.6,96,51.6,96
		s-1.5,4.9,4.3,12.4c0.6,0.3-0.1,4.8,0.8,10.4c-1.3,1.8-2.2,6-2.2,6s3.4,2.4,20.6,2.7c17.3-0.3,20.6-2.7,20.6-2.7s-0.9-4.2-2.2-6
		c0.9-5.6,0.2-10.2,0.8-10.4c5.8-7.5,4.3-12.4,4.3-12.4s7-4.5,10.3-18.2c6.5,2.5,11.6,3.3,11.6,3.3s7.7,1.6,14.9,0.4
		c1.8,0,7.6,0.2,7.6,0.2s2,0.8,2.6,0.5c2.1-1.2,3-3.8,3.6-5.2C151.3,68.2,148.3,33.3,148.3,33.3z"/>
	<path class="st1" d="M82.4,45.5c0,0-4.3,3.2-7.7,3.2c-3,0-7.2-2.4-7.2-2.4l0.7-5.5L82,42.2L82.4,45.5z"/>
	<path class="st0" d="M85.4,14.2l-12-2.3l-10.8,2.3l-4,9.8c0,0,1.2,21,15.4,22.8C88.2,45,89.4,24,89.4,24L85.4,14.2z"/>
	<path d="M63.8,15c0,0,4.5,8.1,10,8.8c-3-6.2-1-10.2-1-10.2s4.4,4.8,5.7,4.1c-0.6-2.3,0.9-3.5,0.9-3.5s2.1,5,7.2,6.8
		c0.8,2.3-1.9,11.9-1.9,11.9s1.7-3.8,2.7-6.7c0.4-1,1.4-1.7,2.5-1.8c0.2,0,0.3,0,0.3-0.1c0.5-0.6,1.6-1.8,1.8-5.4
		c0.5-6.6-4.3-13.5-11.2-14c-1-0.3-0.4-4.1-0.4-4.1L76.5,5l-6.3-5c0,0,0.7,3.9,0,4.4C54.3,8.1,55.6,18.9,55.6,18.9s1.1-3.5,2.3-3.2
		c-2.9,3.2-1.1,9.5-1.1,9.5l0.6-0.2c0.9-0.4,2,0.1,2.4,1l2.8,5.8c0,0-1.3-8.9-0.4-8C60,18.5,63.8,15,63.8,15z"/>
	<path class="st0" d="M92.3,28.3c-0.4,1.8-2.2,3-4.1,2.6c-1.8-0.4-0.4-7,1.4-6.6C91.6,24.7,92.7,26.5,92.3,28.3z"/>
	<path class="st0" d="M55.7,28.3c0.4,1.8,2.2,3,4.1,2.6c1.8-0.4,0.4-7-1.4-6.6C56.5,24.7,55.3,26.5,55.7,28.3z"/>
	<polygon class="st2" points="53.7,56.7 51,59.7 56.3,56.1 	"/>
	<polygon class="st2" points="67.2,48.5 67.2,53.4 66,50.2 	"/>
	<polygon class="st2" points="36.1,73.1 47.2,81.1 46.5,79 	"/>
	<polygon class="st2" points="12.7,68.7 9.6,72.9 14.6,68.4 	"/>
	<polygon class="st2" points="13.3,23.3 10.2,20.8 14.7,23.1 	"/>
	<path class="st3" d="M17.3,24.4v2.4c0,0.4-0.3,0.8-0.8,0.8h-3.1c-0.3,0-0.7-0.2-0.7-0.6l-0.6-2c-0.1-0.3,0-0.6,0.2-0.8l1.2-1.1
		c0.2-0.2,0.5-0.3,0.8-0.2l2.5,0.8C17.1,23.8,17.3,24.1,17.3,24.4z"/>
	<path class="st2" d="M54.9,89.9c-7-5.3-12-17-12-17.1c0,0,5.7,10.5,12.6,15.8L54.9,89.9z"/>
	<path class="st2" d="M65.6,101.6c-0.3-5.3,3-7.7,3-7.7s-2.3,2.6-2,7.6L65.6,101.6z"/>
	<path class="st2" d="M67.8,104c0.1,0,2.8-1,5.3-0.4l-0.3,1C70.5,104,67.8,104,67.8,104z"/>
	<path class="st2" d="M66,112.8c0-0.2-1.3-5.2-0.4-7l1,0.3C65.9,107.5,66,112.8,66,112.8z"/>
	<path class="st2" d="M64.1,105.9c-2.8-0.2-5.9-3.3-6-3.4c0,0,3.5,2.2,6.1,2.3L64.1,105.9z"/>
	<path class="st2" d="M64.1,117c-3-0.2-5.4-2.6-5.5-2.7c0,0,2.7,1.5,5.5,1.7V117z"/>
	<polygon class="st2" points="68.4,114.6 73.1,113.7 73.1,114.8 	"/>
	<path class="st2" d="M67.6,121.9c-0.1-0.1-1.1-1.8-1-5.3l2,4.8L67.6,121.9z"/>
	<polygon class="st2" points="59.8,90.7 75,90.3 75,91.6 	"/>
	<circle class="st4" cx="58.9" cy="87" r="2.1"/>
	<polygon class="st2" points="96.3,56.7 99,59.7 93.7,56.1 	"/>
	<polygon class="st2" points="82.8,48.5 82.8,53.4 83.9,50.4 	"/>
	<polygon class="st2" points="113.9,73.1 102.8,81.1 103.5,79 	"/>
	<polygon class="st2" points="137.3,68.7 140.4,72.9 135.4,68.4 	"/>
	<polygon class="st2" points="136.7,23.3 139.8,20.8 135.3,23.1 	"/>
	<path class="st3" d="M132.7,24.4v2.4c0,0.4,0.3,0.8,0.8,0.8h3.1c0.3,0,0.7-0.2,0.7-0.6l0.6-2.1c0.1-0.3,0-0.6-0.2-0.8l-1.2-1.1
		c-0.2-0.2-0.5-0.3-0.8-0.2l-2.5,0.8C132.9,23.8,132.7,24.1,132.7,24.4z"/>
	<path class="st2" d="M95.1,89.9c7-5.3,12-17,12-17.1c0,0-5.7,10.5-12.6,15.8L95.1,89.9z"/>
	<path class="st2" d="M84.4,101.6c0.3-5.3-3-7.7-3-7.7s2.3,2.6,2,7.6L84.4,101.6z"/>
	<path class="st2" d="M82.2,104c-0.1,0-2.8-1-5.3-0.4l0.3,1C79.5,104,82.2,104,82.2,104z"/>
	<path class="st2" d="M84,112.8c0-0.2,1.3-5.2,0.4-7l-1,0.3C84.1,107.5,84,112.8,84,112.8z"/>
	<path class="st2" d="M85.9,105.9c2.8-0.2,5.9-3.3,6-3.4c0,0-3.5,2.2-6.1,2.3L85.9,105.9z"/>
	<path class="st2" d="M85.9,117c3-0.2,5.4-2.6,5.5-2.7c0,0-2.7,1.5-5.5,1.7V117z"/>
	<polygon class="st2" points="81.6,114.6 76.9,113.7 76.9,114.8 	"/>
	<path class="st2" d="M82.4,121.9c0.1-0.1,1.1-1.8,1-5.3l-2,4.8L82.4,121.9z"/>
	<polygon class="st2" points="90.2,90.7 75,90.3 75,91.6 	"/>
	<circle class="st4" cx="91.1" cy="87" r="2.1"/>
	<path class="st2" d="M75,93.9c0.7,0,0.3,8,0,7.7C74.7,101.3,74.3,93.9,75,93.9z"/>
	<path class="st2" d="M75,105.2c0.7,0,0.3,8,0,7.7C74.7,112.5,74.3,105.2,75,105.2z"/>
	<path class="st2" d="M75,116.7c0.7,0,0.3,6.8,0,6.5C74.7,122.9,74.3,116.7,75,116.7z"/>
	<path class="st1" d="M74.9,87c1.6,0,0-25.4,0-25.4S73.3,87,74.9,87z"/>
	<path class="st1" d="M78.5,60.8c0.3,1.6,12.5-2.7,12.5-2.7S78.2,59.3,78.5,60.8z"/>
	<path class="st1" d="M71.5,60.8C71.2,62.4,59,58.2,59,58.2S71.8,59.3,71.5,60.8z"/>
	<path class="st5" d="M75.4,150c17.5-0.1,26.9-3.1,26.9-3.2c0,0-0.7-6.1-1.9-8.3c-1.3-2.2-3.6-2-3.6-2L75,137.2l-21.7-0.7
		c0,0-2.4-0.2-3.6,2c-1.3,2.2-1.9,8.3-1.9,8.3c0,0.2,9.3,3.1,26.9,3.2l0,0c0.1,0,0.3,0,0.4,0C75.1,150,75.3,150,75.4,150L75.4,150z"
		/>
	<path class="st6" d="M97.1,136.4c0,0-8.1,1.8-22.1,1.8s-22.1-1.8-22.1-1.8l1.6-11.6c0,0,9.3,2.8,20.6,2.8s20.6-2.8,20.6-2.8
		L97.1,136.4z"/>
	<g>
		<path class="st5" d="M149.9,44.8h-9.6c0,0,1.2-5.6,0.8-11c0.9,0,7.8,0,7.8,0L149.9,44.8z"/>
		<rect x="144.3" y="34.9" class="st7" width="1.7" height="8.9"/>
	</g>
</g>
</svg>
