<svg xmlns="http://www.w3.org/2000/svg" width="26" height="31.972" viewBox="0 0 26 31.972">
  <path id="Path_146" data-name="Path 146" d="M39.607,15.167c0-2.387-3.111-2.174-5.5-2.174H32.02c-2.344,0-5.626-.17-5.626,2.174v1.662H39.607ZM46,25.482a7.349,7.349,0,0,0-7.374-7.374H27.374A7.349,7.349,0,0,0,20,25.482V37.629a7.34,7.34,0,0,0,7.374,7.331h11.3A7.34,7.34,0,0,0,46,37.587v-12.1ZM43.016,37.2a4.444,4.444,0,0,1-4.3,4.348h-11.3A4.558,4.558,0,0,1,22.984,37.2v.085H43.016ZM29.931,28.764l.682-.682.682.682.852-.852a.49.49,0,0,1,.725,0c.17.17.256.426.128.554l.341-.341a.53.53,0,0,1,.725-.043.492.492,0,0,1-.043.725L30.7,32.131a.53.53,0,0,1-.725.043.492.492,0,0,1,.043-.725l.384-.384c-.128.128-.384.043-.554-.128a.49.49,0,0,1,0-.725l.767-.767Zm6.99,3.111a.49.49,0,0,1,0,.725l-2.3,2.3a.49.49,0,0,1-.725,0c-.17-.17-.256-.426-.128-.554l-.384.384a.644.644,0,0,1-.81-.043.6.6,0,0,1-.043-.81L33.81,32.6,32.4,31.193l.682-.682,1.407,1.407,1.364-1.364a.644.644,0,0,1,.81.043.6.6,0,0,1,.043.81l-.341.341C36.5,31.62,36.793,31.7,36.921,31.875Zm-.17,2.3-.682.682-.511-.511.682-.682Zm6.266-7.97H22.984v-.98a4.374,4.374,0,0,1,4.433-4.134h11.3a4.259,4.259,0,0,1,4.3,4.134Z" transform="translate(-20 -12.989)" fill="#dd121f"/>
</svg>
