<svg xmlns="http://www.w3.org/2000/svg" width="26" height="23.102" viewBox="0 0 26 23.102">
  <g id="coin-stack" transform="translate(0 -22.379)">
    <g id="Group_379" data-name="Group 379" transform="translate(0 22.379)">
      <path id="Path_136" data-name="Path 136" d="M7.685,119.735a16.472,16.472,0,0,0,2.141-.137v-7.452a16.485,16.485,0,0,0-2.141-.137c-4.244,0-7.684,1.56-7.684,3.485v.756C0,118.175,3.441,119.735,7.685,119.735Z" transform="translate(-0.001 -106.255)" fill="#dd121f"/>
      <path id="Path_137" data-name="Path 137" d="M7.685,218.129a16.494,16.494,0,0,0,2.141-.137v-2.184a16.48,16.48,0,0,1-2.141.138c-3.7,0-6.8-1.189-7.523-2.771a1.7,1.7,0,0,0-.162.714v.756C0,216.568,3.441,218.129,7.685,218.129Z" transform="translate(-0.001 -200.879)" fill="#dd121f"/>
      <path id="Path_138" data-name="Path 138" d="M9.826,275.061v-.17a16.482,16.482,0,0,1-2.141.138c-3.7,0-6.8-1.189-7.523-2.771a1.7,1.7,0,0,0-.162.714v.756c0,1.925,3.44,3.485,7.684,3.485a16.319,16.319,0,0,0,2.428-.178,2.749,2.749,0,0,1-.287-1.218Z" transform="translate(0 -256.2)" fill="#dd121f"/>
      <path id="Path_139" data-name="Path 139" d="M175.923,22.379c-4.244,0-7.684,1.56-7.684,3.485v.756c0,1.925,3.44,3.485,7.684,3.485s7.684-1.56,7.684-3.485v-.756C183.607,23.939,180.167,22.379,175.923,22.379Z" transform="translate(-157.607 -22.379)" fill="#dd121f"/>
      <path id="Path_140" data-name="Path 140" d="M175.923,126.315c-3.7,0-6.8-1.189-7.522-2.771a1.7,1.7,0,0,0-.162.714v.756c0,1.925,3.44,3.485,7.684,3.485s7.684-1.56,7.684-3.485v-.756a1.7,1.7,0,0,0-.162-.714C182.719,125.126,179.628,126.315,175.923,126.315Z" transform="translate(-157.607 -117.025)" fill="#dd121f"/>
      <path id="Path_141" data-name="Path 141" d="M175.923,185.4c-3.7,0-6.8-1.189-7.522-2.771a1.7,1.7,0,0,0-.162.714v.756c0,1.925,3.44,3.485,7.684,3.485s7.684-1.56,7.684-3.485v-.756a1.7,1.7,0,0,0-.162-.714C182.719,184.21,179.628,185.4,175.923,185.4Z" transform="translate(-157.607 -172.301)" fill="#dd121f"/>
      <path id="Path_142" data-name="Path 142" d="M175.923,247.672c-3.7,0-6.8-1.189-7.522-2.771a1.7,1.7,0,0,0-.162.714v.756c0,1.925,3.44,3.485,7.684,3.485s7.684-1.56,7.684-3.485v-.756a1.7,1.7,0,0,0-.162-.714C182.719,246.483,179.628,247.672,175.923,247.672Z" transform="translate(-157.607 -230.561)" fill="#dd121f"/>
      <path id="Path_143" data-name="Path 143" d="M175.923,306.755c-3.7,0-6.8-1.189-7.522-2.771a1.7,1.7,0,0,0-.162.714v.756c0,1.925,3.44,3.485,7.684,3.485s7.684-1.56,7.684-3.485V304.7a1.7,1.7,0,0,0-.162-.714C182.719,305.566,179.628,306.755,175.923,306.755Z" transform="translate(-157.607 -285.837)" fill="#dd121f"/>
    </g>
  </g>
</svg>
