<svg xmlns="http://www.w3.org/2000/svg" width="26" height="18.273" viewBox="0 0 26 18.273">
  <g id="delivery-truck_1_" data-name="delivery-truck (1)" transform="translate(0 -90.939)">
    <path id="Path_145" data-name="Path 145" d="M.912,103.114V92.052a1.113,1.113,0,0,1,1.113-1.113H13.082a1.113,1.113,0,0,1,1.113,1.113v11.062a.371.371,0,0,1-.371.371H1.283A.371.371,0,0,1,.912,103.114Zm8.928,3.79A2.308,2.308,0,1,1,7.532,104.6,2.308,2.308,0,0,1,9.841,106.9Zm-1.154,0a1.154,1.154,0,1,0-1.154,1.154A1.154,1.154,0,0,0,8.686,106.9ZM5.544,104.6H.371a.371.371,0,0,0-.371.371v1.126a.371.371,0,0,0,.371.371H4.517A3.045,3.045,0,0,1,5.544,104.6ZM21.919,106.9A2.308,2.308,0,1,1,19.61,104.6,2.308,2.308,0,0,1,21.919,106.9Zm-1.154,0a1.154,1.154,0,1,0-1.154,1.154A1.154,1.154,0,0,0,20.765,106.9ZM26,104.966v1.126a.371.371,0,0,1-.371.371h-3a3.046,3.046,0,0,0-6.03,0H10.547A3.045,3.045,0,0,0,9.52,104.6h5.735V93.983A.742.742,0,0,1,16,93.241h3.5a2.968,2.968,0,0,1,2.46,1.307l2.258,3.344a2.968,2.968,0,0,1,.508,1.661V104.6h.9A.371.371,0,0,1,26,104.966Zm-3.764-6.988-1.806-2.566a.371.371,0,0,0-.3-.157H17.311a.371.371,0,0,0-.371.371v2.566a.371.371,0,0,0,.371.371h4.622A.371.371,0,0,0,22.236,97.978Z" transform="translate(0 0)" fill="#dd121f"/>
  </g>
</svg>
