<?xml version="1.0" encoding="utf-8"?>
<!-- Generator: Adobe Illustrator 21.1.0, SVG Export Plug-In . SVG Version: 6.00 Build 0)  -->
<svg version="1.1" id="Layer_1" xmlns="http://www.w3.org/2000/svg" xmlns:xlink="http://www.w3.org/1999/xlink" x="0px" y="0px"
	 viewBox="0 0 150 150" style="enable-background:new 0 0 150 150;" xml:space="preserve">
<style type="text/css">
	.st0{fill:#DC1F26;}
	.st1{fill:#464D5D;}
	.st2{fill:#DD121F;}
	.st3{fill:#2E3545;}
	.st4{fill:#E3E2E2;}
	.st5{fill:#FFD9A6;}
	.st6{opacity:0.6;fill:#F8CE9B;enable-background:new    ;}
	.st7{fill:#D3D3D3;}
	.st8{opacity:0.5;fill:#FFD9A6;enable-background:new    ;}
	.st9{opacity:0.8;fill:#DDC09F;enable-background:new    ;}
	.st10{fill:#449E46;}
	.st11{fill:#79BC43;}
	.st12{opacity:0.8;fill:#A1BB3A;enable-background:new    ;}
	.st13{opacity:0.8;fill:#F8CE9B;enable-background:new    ;}
	.st14{fill:#F8991D;}
	.st15{opacity:0.7;fill:#F8991D;enable-background:new    ;}
	.st16{fill:#FFC430;}
	.st17{fill:#4BAA47;}
	.st18{opacity:0.7;fill:#4BAA47;enable-background:new    ;}
	.st19{fill:#C02026;}
</style>
<g>
	<g>
		<path class="st0" d="M75,121.9l-30.4-1.6l0.7,2.5c0.5,0.6,1,1,1.7,1.3c3.5,1,13.3,5.4,28.1,5.1c14.7,0.4,24.6-4,28.1-5.1
			c0.6-0.3,1.2-0.7,1.7-1.3l0.7-2.5L75,121.9z"/>
		<g>
			<g>
				<path class="st1" d="M149.4,55.3l-1.1,0.8l-60.9,7.1l-25.1-0.1L1.5,56l-1.1-0.8c0,0,5.7,59.1,59.6,70.4c4.6,1,9.7,1.6,15.2,1.6
					c5.9,0,11.4-0.7,16.3-1.9C144,113.4,149.4,55.3,149.4,55.3z"/>
				<ellipse class="st2" cx="75" cy="51.6" rx="75" ry="29.3"/>
				<ellipse class="st3" cx="75" cy="50.1" rx="75" ry="29.3"/>
				<path class="st0" d="M75,21.8c40.7,0,74.3,13,74.3,29.3c0,3.2-1.8,6.5-4.1,9.4c3.2-3.2,4.9-6.7,4.9-10.4
					c0-16.2-33.6-29.3-75-29.3s-75,13.1-75,29.3c0,3.5,1.6,6.8,4.4,9.9c-2.1-2.8-3.6-6-3.6-9C0.8,34.7,34.2,21.8,75,21.8z"/>
				<g>
					<path class="st4" d="M46.5,77.2c8.8,1.4,18.4,2.2,28.5,2.2s19.7-0.8,28.5-2.2c-7.1-3-17.2-4.9-28.5-4.9S53.6,74.2,46.5,77.2z"
						/>
				</g>
				<g>
					<path class="st5" d="M75,33.6c-38.4,0-69.6,12.2-69.6,27.2c0,0.1,0,0.2,0,0.2C16.5,71.8,43.5,79.4,75,79.4s58.5-7.6,69.6-18.3
						c0-0.1,0-0.2,0-0.2C144.6,45.8,113.4,33.6,75,33.6z"/>
				</g>
				<path class="st6" d="M75,33.6c-38.4,0-69.6,12.2-69.6,27.2c0,0.1,0,0.2,0,0.2C16.5,71.8,43.5,79.4,75,79.4s58.5-7.6,69.6-18.3
					c0-0.1,0-0.2,0-0.2C144.6,45.8,113.4,33.6,75,33.6z M75,72.3c-32.9,0-59.6-8.3-59.6-18.5S42.1,35.3,75,35.3s59.6,8.3,59.6,18.5
					S107.9,72.3,75,72.3z"/>
				<g>
					<path class="st6" d="M32.7,39.2C44.1,36,58.9,34.1,75,34.1s30.9,1.9,42.3,5.1c-11.7-3.5-26.4-5.6-42.3-5.6S44.5,35.7,32.7,39.2
						z"/>
				</g>
			</g>
			<g>
				<path class="st7" d="M137.4,73.3c-16.6,8-38.8,12.4-62.4,12.4s-45.7-4.4-62.4-12.4C8.8,71.4,6,69.9,3,67.8L3.7,70
					C19.9,80.5,46.2,87.9,75,87.9c28.7,0,55-7.4,71.3-17.8l0.6-2.3C143.9,69.9,141.1,71.5,137.4,73.3z"/>
			</g>
		</g>
		<path class="st8" d="M24.3,55.6c0-9.2,24.2-16.6,54.1-16.6c13.6,0,25.9,1.5,35.4,4.1c-9.9-3.5-24.5-5.7-40.8-5.7
			c-29.9,0-54.1,7.4-54.1,16.6c0,5,7.2,9.5,18.6,12.5C29.3,63.6,24.3,59.8,24.3,55.6z"/>
	</g>
	<g>
		<path class="st9" d="M98.8,53.1c0,0-4.1-2.4-8.1-1.4c0,0,2.1-1.2,2.4-2.7c0,0-2.8-0.3-5.8,2.2c0,0,1.6-2,1.3-4.2
			c0,0-2.4,1.1-4.3,2.8c0,0,1.3-2.1,0.7-3.5c0,0-1.8,0.8-2.5,2.2l0,0c0.1-0.5,0.2-1.5-0.3-2.4c0.1-0.2,0.3-0.5,0.4-0.7
			c0,0-1.9-0.3-3.4,0.7c-0.1,0.1-0.1,0,0,0c0.6-0.4,2.3-1.8,3.1-4.6c0,0-0.9-0.1-1.6,0.4c0,0,1.9-4,0.2-8.2c0,0-4,2.1-5.1,6
			c0,0,0-2.4-1.2-3.4c0,0-1.6,2.2-0.9,6c0,0-1-2.4-2.9-3.3c0,0-0.3,2.5,0.3,5.1c0,0-1.1-2.1-2.6-2.4c0,0-0.3,2.2,0.9,3.5
			c-0.2-0.2-1.1-1.3-2.5-1.3c0,0-0.8,5.3,5.9,7.9h-0.1c0,0-0.5,2.1-1.7,3.4c-1.2,1.2-3.2,2.2-3.2,2.2s0.5-4.4-0.6-6.4l0,0
			c1-4.8-4.1-6.8-4.1-6.8s0,1,0.4,2.5c0,0-0.8-1.4-3.4-2.1c0,0-0.1,1.6,0.9,2.7c0.1,0.1,0,0,0,0c-0.4-0.4-1.9-1.6-4.5-1.8
			c0,0,0,0.7,0.5,1.3c0,0-3.9-0.9-7.6,1.1c0,0,2.3,2.9,6,3.2c0,0-2.2,0.4-3.1,1.5c0,0,2.2,0.9,5.6-0.2c0,0-2.1,1.1-2.8,2.9
			c0,0,2.4-0.2,4.7-1c0,0-1.9,1.2-2,2.5c0,0,2.1-0.1,3.2-1.3c-0.2,0.2-1.1,1.1-1,2.2c0,0,4.6-0.2,6.5-5.2l0,0c0,0,0.5,2.8-0.2,5.4
			c-0.1,0.4-3.6,2.1-3.6,2.1c0.2,1.1,0.8,1.4,0.8,1.4c9.5-6,13.7-6.4,14.8-6.4c1.5,5.9,8.3,7.2,8.3,7.2S86,61,84.7,59.5
			c0,0,1.6,1.3,4.7,1.1c0,0-0.8-1.8-2.5-2.6c-0.1-0.1-0.1,0,0,0c0.6,0.3,2.8,1.1,5.7,0.3c0,0-0.4-0.8-1.2-1.2
			C91.4,57.1,96,56.7,98.8,53.1z M71.5,55.5c1.4-1.1,1.9-3.4,1.9-3.5c1.7,0.5,3.3,0.3,4.6-0.1c-0.1,0.6,0,1.2,0,1.9
			C75.2,53.7,71.5,55.5,71.5,55.5z M82.3,48.8c0,0,0-0.1,0.1-0.2l0,0C82.3,48.7,82.3,48.8,82.3,48.8z"/>
		<g>
			<path class="st10" d="M65.6,57c0.7-2.6,0.2-5.4,0.2-5.4l0.5-1.6c1,2,0.6,6.4,0.6,6.4s2-0.9,3.2-2.2c1.2-1.2,1.7-3.4,1.7-3.4
				l1,0.3c0,0-0.5,2.4-1.9,3.5c0,0,3.7-1.8,6.5-1.7l0.5,1.2c0,0-3.7-0.7-15.2,6.2c0,0-0.7-0.3-0.8-1.4C61.9,59.1,65.5,57.4,65.6,57z
				"/>
			<g>
				<g>
					<path class="st11" d="M90,51c0,0,2.1-1.2,2.4-2.7c0,0-2.8-0.3-5.8,2.2c0,0,1.6-2,1.3-4.2c0,0-2.4,1.1-4.3,2.8
						c0,0,1.3-2.1,0.7-3.5c0,0-2.1,0.9-2.6,2.6l0,0l0,0c0.1-0.2,0.5-1.6-0.2-2.8c0,0-5.3,2.4-3.9,8.6c11.7-3.5,20.6-1.5,20.6-1.5
						S94,50,90,51z"/>
					<path class="st10" d="M88.7,59.9c0,0-0.8-1.8-2.5-2.6c-0.1-0.1-0.1,0,0,0c0.6,0.3,2.8,1.1,5.7,0.3c0,0-0.4-0.8-1.2-1.2
						c0,0,4.6-0.4,7.4-4c0,0-8.9-2-20.6,1.5c1.3,6.3,8.3,7.6,8.3,7.6s-0.5-1.2-1.9-2.7C84,58.8,85.6,60.1,88.7,59.9z"/>
				</g>
				<path class="st12" d="M84.2,45.7c0,0-2.9,1.3-2.9,3.9c0,0,0.8-2.6,3-3.2L84.2,45.7z"/>
				<path class="st12" d="M87.8,46.4c0,0-2.9,1.2-4.4,3.4c0,0,2.4-1.9,4.5-2.8L87.8,46.4z"/>
				<path class="st12" d="M81.5,46.2c0,0,0-0.3-0.3-0.7c0,0-3,1.7-3.7,5.2C77.6,50.7,78.2,48.6,81.5,46.2z"/>
			</g>
			<g>
				<g>
					<path class="st11" d="M54.6,50.2c0,0-2.2,0.4-3.1,1.5c0,0,2.2,0.9,5.6-0.2c0,0-2.1,1.1-2.8,2.9c0,0,2.4-0.2,4.7-1
						c0,0-1.9,1.2-2,2.5c0,0,2.1-0.1,3.2-1.3l0,0l0,0c-0.2,0.2-1.1,1.1-1,2.2c0,0,5.2-0.2,6.9-6.3C56.6,47.9,48.5,47,48.5,47
						S50.9,49.9,54.6,50.2z"/>
					<path class="st10" d="M59.2,43.8c0,0-0.1,1.6,0.9,2.7c0.1,0.1,0,0,0,0c-0.4-0.4-1.9-1.6-4.5-1.8c0,0,0,0.7,0.5,1.3
						c0,0-3.9-0.9-7.6,1.1c0,0,8.1,0.9,17.6,3.5c1.4-5.1-4-7.3-4-7.3s0,1,0.4,2.5C62.6,45.8,61.8,44.4,59.2,43.8z"/>
				</g>
				<path class="st12" d="M57.1,55.7c0,0,2.9-0.2,3.9-2.2c0,0-1.6,1.8-3.7,1.7L57.1,55.7z"/>
				<path class="st12" d="M54.5,54.3c0,0,2.9-0.2,5-1.5c0,0-2.7,0.8-4.8,1L54.5,54.3z"/>
				<path class="st12" d="M59.5,56.1c0,0-0.1,0.2,0,0.6c0,0,3-0.6,5-3C64.4,53.7,63.2,55.2,59.5,56.1z"/>
			</g>
			<g>
				<g>
					<path class="st11" d="M74.9,38.9c0,0,0-2.4-1.2-3.4c0,0-1.6,2.2-0.9,6c0,0-1-2.4-2.9-3.3c0,0-0.3,2.5,0.3,5.1
						c0,0-1.1-2.1-2.6-2.4c0,0-0.3,2.2,0.9,3.5l0,0l0,0c-0.2-0.2-1.1-1.3-2.5-1.3c0,0-0.8,5.5,6.2,8C74.9,39.6,80,32.9,80,32.9
						S76,35,74.9,38.9z"/>
					<path class="st10" d="M81.8,44.6c0,0-1.9-0.3-3.4,0.7c-0.1,0.1-0.1,0,0,0c0.6-0.4,2.3-1.8,3.1-4.6c0,0-0.9-0.1-1.6,0.4
						c0,0,1.9-4,0.2-8.2c0,0-5.1,6.7-7.9,18.2c6,2.1,9.7-3.3,9.7-3.3s-1.2-0.2-3.2,0.2C78.6,47.9,80.5,47.2,81.8,44.6z"/>
				</g>
				<path class="st12" d="M67.6,40.9c0,0-0.3,3.1,1.9,4.4c0,0-1.8-2-1.3-4.1L67.6,40.9z"/>
				<path class="st12" d="M69.9,38.4c0,0-0.4,3,0.8,5.5c0,0-0.5-3-0.2-5.2L69.9,38.4z"/>
				<path class="st12" d="M66.7,43.4c0,0-0.2-0.2-0.7-0.1c0,0,0,3.3,2.6,5.7C68.6,49,67.1,47.5,66.7,43.4z"/>
			</g>
		</g>
	</g>
	<g>
		<g>
			<path class="st13" d="M52,40.7c-1.1,0.9-0.2,2.4,1.3,1.6C54.9,41.4,53.3,39.6,52,40.7z"/>
			<path class="st13" d="M65.4,38c-1.6,0.3-1.2,1.6,0.3,1.5C67.2,39.4,66.9,37.7,65.4,38z"/>
			<path class="st13" d="M107.1,40c-2.1-0.2-1.9,2,0,1.9C109,41.7,108.2,40.1,107.1,40z"/>
			<path class="st13" d="M97.2,45.7c-1.5-0.3-1.8,1.9,0,1.7C98.9,47.3,98.6,46,97.2,45.7z"/>
			<path class="st13" d="M116,49.6c-2.4,0.2-1.3,1.7-0.1,1.6C117,51.2,117.7,49.4,116,49.6z"/>
			<path class="st13" d="M106.2,57.7c-1.2,0.3-1.1,1.8,0.5,1.5C108.4,59,107.6,57.4,106.2,57.7z"/>
			<path class="st13" d="M46.4,66.3c-1.2,0.3-1.1,1.8,0.5,1.5C48.5,67.6,47.7,66,46.4,66.3z"/>
			<path class="st13" d="M78.2,63.4c-1.2,0.1-1.7,1.7,0,1.6C79.9,64.8,80.2,63.3,78.2,63.4z"/>
			<path class="st13" d="M66.5,70.4c-1.7-0.3-1.6,1.9,0,1.6C68,71.7,68,70.6,66.5,70.4z"/>
			<path class="st13" d="M54.3,56.7c-1-0.4-2.2,1.3-0.6,1.5C55.3,58.4,56,57.3,54.3,56.7z"/>
			<path class="st13" d="M96.3,66.4c-1-0.4-2.2,1.3-0.6,1.5C97.4,68.1,98,67,96.3,66.4z"/>
			<path class="st13" d="M87.3,39.8c-1-0.4-2.2,1.3-0.6,1.5C88.3,41.6,89,40.5,87.3,39.8z"/>
			<path class="st13" d="M34.5,51.9c-1.6-0.3-2.1,1.7-0.6,1.9C35.4,54,36.2,52.1,34.5,51.9z"/>
			<path class="st13" d="M41.5,46.5c-1.7-0.1-1.8,2,0,1.7C43.2,48,43.1,46.6,41.5,46.5z"/>
		</g>
		<g>
			<g>
				<path class="st14" d="M51.6,40.3c-1.1,0.9-0.2,2.4,1.3,1.6C54.4,41.1,52.9,39.2,51.6,40.3z"/>
				<path class="st15" d="M51.6,40.3c-1.1,0.9-0.2,2.4,1.3,1.6C54.4,41.1,52.9,39.2,51.6,40.3z M52.5,41.5c-1,0.6-1.6-0.5-0.9-1.1
					C52.5,39.7,53.5,41,52.5,41.5z"/>
			</g>
			<g>
				<path class="st16" d="M64.9,37.7c-1.6,0.3-1.2,1.6,0.3,1.5C66.8,39.1,66.5,37.4,64.9,37.7z"/>
				<path class="st16" d="M64.9,37.7c-1.6,0.3-1.2,1.6,0.3,1.5C66.8,39.1,66.5,37.4,64.9,37.7z M65,38.8c-1.1,0-1.3-0.9-0.2-1
					C65.9,37.6,66.1,38.8,65,38.8z"/>
			</g>
			<g>
				<path class="st16" d="M106.7,39.6c-2.1-0.2-1.9,2,0,1.9C108.5,41.4,107.8,39.7,106.7,39.6z"/>
				<path class="st16" d="M106.7,39.6c-2.1-0.2-1.9,2,0,1.9C108.5,41.4,107.8,39.7,106.7,39.6z M106.6,41.1c-1.4,0.1-1.6-1.5,0-1.4
					C107.4,39.8,108,41,106.6,41.1z"/>
			</g>
			<g>
				<path class="st17" d="M96.7,45.4c-1.5-0.3-1.8,1.9,0,1.7C98.5,47,98.1,45.6,96.7,45.4z"/>
				<path class="st18" d="M96.7,45.4c-1.5-0.3-1.8,1.9,0,1.7C98.5,47,98.1,45.6,96.7,45.4z M96.5,46.7c-1.2,0.1-1-1.4,0-1.2
					S97.7,46.6,96.5,46.7z"/>
			</g>
			<g>
				<path class="st19" d="M115.5,49.2c-2.4,0.2-1.3,1.7-0.1,1.6C116.6,50.8,117.2,49.1,115.5,49.2z"/>
				<path class="st19" d="M115.5,49.2c-2.4,0.2-1.3,1.7-0.1,1.6C116.6,50.8,117.2,49.1,115.5,49.2z M115.2,50.5
					c-0.8,0-1.5-1,0.1-1.1C116.5,49.2,116.1,50.4,115.2,50.5z"/>
			</g>
			<g>
				<path class="st14" d="M105.8,57.4c-1.2,0.3-1.1,1.8,0.5,1.5C108,58.6,107.1,57.1,105.8,57.4z"/>
				<path class="st15" d="M105.8,57.4c-1.2,0.3-1.1,1.8,0.5,1.5C108,58.6,107.1,57.1,105.8,57.4z M106.1,58.6c-1,0.2-1.1-0.8-0.3-1
					C106.6,57.4,107.1,58.4,106.1,58.6z"/>
			</g>
			<g>
				<path class="st19" d="M45.9,66c-1.2,0.3-1.1,1.8,0.5,1.5C48.1,67.3,47.3,65.7,45.9,66z"/>
				<path class="st19" d="M45.9,66c-1.2,0.3-1.1,1.8,0.5,1.5C48.1,67.3,47.3,65.7,45.9,66z M46.3,67.2c-1.2,0.2-1.3-0.9-0.4-1.1
					C46.8,65.8,47.4,67,46.3,67.2z"/>
			</g>
			<g>
				<path class="st19" d="M77.8,63.1c-1.2,0.1-1.7,1.7,0,1.6C79.5,64.5,79.8,63,77.8,63.1z"/>
				<path class="st19" d="M77.8,63.1c-1.2,0.1-1.7,1.7,0,1.6C79.5,64.5,79.8,63,77.8,63.1z M77.7,64.3c-1.1,0.1-0.7-0.9,0-1
					C78.9,63.2,78.8,64.2,77.7,64.3z"/>
			</g>
			<g>
				<path class="st17" d="M66,70.1c-1.7-0.3-1.6,1.9,0,1.6C67.6,71.4,67.5,70.3,66,70.1z"/>
				<path class="st18" d="M66,70.1c-1.7-0.3-1.6,1.9,0,1.6C67.6,71.4,67.5,70.3,66,70.1z M65.8,71.2c-1,0.2-1-1.2,0-1
					C66.7,70.4,66.8,71,65.8,71.2z"/>
			</g>
			<g>
				<path class="st14" d="M53.8,56.3c-1-0.4-2.2,1.3-0.6,1.5C54.9,58.1,55.6,57,53.8,56.3z"/>
				<path class="st15" d="M53.8,56.3c-1-0.4-2.2,1.3-0.6,1.5C54.9,58.1,55.6,57,53.8,56.3z M53.2,57.4c-1.1-0.1-0.3-1.3,0.4-1
					C54.8,56.8,54.3,57.6,53.2,57.4z"/>
			</g>
			<g>
				<path class="st16" d="M95.9,66c-1-0.4-2.2,1.3-0.6,1.5C96.9,67.8,97.6,66.6,95.9,66z"/>
				<path class="st16" d="M95.9,66c-1-0.4-2.2,1.3-0.6,1.5C96.9,67.8,97.6,66.6,95.9,66z M95.2,67.2c-1.2-0.2-0.3-1.4,0.4-1.1
					C96.9,66.6,96.4,67.4,95.2,67.2z"/>
			</g>
			<g>
				<path class="st14" d="M86.8,39.5c-1-0.4-2.2,1.3-0.6,1.5S88.5,40.1,86.8,39.5z"/>
				<path class="st15" d="M86.8,39.5c-1-0.4-2.2,1.3-0.6,1.5S88.5,40.1,86.8,39.5z M86.3,40.6c-1.2-0.2-0.3-1.3,0.4-1.1
					C88,40,87.5,40.8,86.3,40.6z"/>
			</g>
			<g>
				<path class="st17" d="M34.1,51.5c-1.6-0.3-2.1,1.7-0.6,1.9C35,53.6,35.7,51.8,34.1,51.5z"/>
				<path class="st18" d="M34.1,51.5c-1.6-0.3-2.1,1.7-0.6,1.9C35,53.6,35.7,51.8,34.1,51.5z M33.3,52.9c-1-0.2-0.7-1.5,0.4-1.3
					C34.9,51.8,34.4,53.1,33.3,52.9z"/>
			</g>
			<g>
				<path class="st16" d="M41,46.2c-1.7-0.1-1.8,2,0,1.7C42.8,47.7,42.7,46.3,41,46.2z"/>
				<path class="st16" d="M41,46.2c-1.7-0.1-1.8,2,0,1.7C42.8,47.7,42.7,46.3,41,46.2z M40.7,47.5c-1.3,0.2-1.2-1.3,0-1.2
					C41.9,46.3,42,47.4,40.7,47.5z"/>
			</g>
		</g>
	</g>
</g>
</svg>
