<?xml version="1.0" encoding="utf-8"?>
<!-- Generator: Adobe Illustrator 21.1.0, SVG Export Plug-In . SVG Version: 6.00 Build 0)  -->
<svg version="1.1" id="Layer_1" xmlns="http://www.w3.org/2000/svg" xmlns:xlink="http://www.w3.org/1999/xlink" x="0px" y="0px"
	 viewBox="0 0 150 150" style="enable-background:new 0 0 150 150;" xml:space="preserve">
<style type="text/css">
	.st0{fill-rule:evenodd;clip-rule:evenodd;fill:#2E3545;}
	.st1{fill-rule:evenodd;clip-rule:evenodd;fill:#DC1F26;}
</style>
<g id="XMLID_108_">
	<path id="XMLID_226_" class="st0" d="M73.7,97c-15.5,0-28.2-12.6-28.2-28.2c0-15.5,12.6-28.2,28.2-28.2c15.5,0,28.2,12.6,28.2,28.2
		C101.9,84.4,89.3,97,73.7,97L73.7,97z M105,68.9c0-17.3-14-31.3-31.3-31.3c-17.3,0-31.3,14-31.3,31.3c0,17.3,14,31.3,31.3,31.3
		C91,100.2,105,86.2,105,68.9z"/>
	<path id="XMLID_221_" class="st0" d="M73.7,119c-2.5,0-5-0.2-7.4-0.5c-1.1,0.7-2.2,1.4-3.4,2c3.5,0.7,7.1,1.1,10.7,1.1
		c2.5,0,5-0.2,7.5-0.5c-1.2-0.7-2.4-1.5-3.7-2.2C76.2,119,75,119,73.7,119L73.7,119z M51.7,113.9c-6.7-3.3-12.6-8-17.2-13.8
		c-1.6-0.7-3.2-1.4-4.7-2.1c4.8,7.2,11.2,13.1,18.8,17.2l2.4-1L51.7,113.9L51.7,113.9z M24.2,77.2c-0.4-2.7-0.7-5.5-0.7-8.3
		c0-27.7,22.5-50.1,50.1-50.1c27.7,0,50.1,22.5,50.1,50.1c0,1,0,1.9-0.1,2.9l2.6-1.1c0-0.6,0-1.2,0-1.8c0-29.1-23.6-52.7-52.7-52.7
		C44.6,16.2,21,39.8,21,68.9c0,2.3,0.1,4.5,0.4,6.8l0.6,0.3C22.7,76.3,23.5,76.8,24.2,77.2L24.2,77.2z M116.9,94.3
		c-5.3,9-13.4,16.3-23.1,20.5c1,0.5,2,1,3,1.5c9.3-4.5,17.1-11.7,22.3-20.6c-0.1-0.1-0.1-0.1-0.2-0.2
		C118.4,95,117.7,94.6,116.9,94.3z"/>
	<path id="XMLID_175_" class="st1" d="M52.5,64.7c1.3,5,4.5,18,4.5,18l15.9-0.1l15.9,0.1c0,0,3.3-13,4.5-18c0,0,0.1,0,0.1,0
		c1.2,0,2.2-1,2.2-2.2s-1-2.2-2.2-2.2c-1.2,0-2.2,1-2.2,2.2c0,0.6,0.3,1.2,0.7,1.6c-1.6,2.6-4.4,7.3-5.9,9.1
		c-5.6,6.7-10.2-6.9-12.4-14c0.9-0.3,1.6-1.1,1.6-2.1c0-1.2-1-2.2-2.2-2.2s-2.2,1-2.2,2.2c0,1,0.7,1.8,1.6,2.1
		c-2.2,7.1-6.9,20.7-12.4,14c-1.5-1.8-4.3-6.5-5.9-9.1c0.4-0.4,0.7-1,0.7-1.6c0-1.2-1-2.2-2.2-2.2s-2.2,1-2.2,2.2
		S51.2,64.7,52.5,64.7C52.4,64.7,52.4,64.7,52.5,64.7z"/>
	<path id="XMLID_174_" class="st0" d="M41.6,132.1c11.3-7.2,63.7-39.3,69.3-39.7c5.4-0.5,7.9,1.1,9,2.2c0.3,0.3,1.2,0.9,2,0.3
		c3.2-1.9,21.2-12.8,28.1-17l-0.6-1.2l-23.2,10.5c0,0-0.3,0.2-0.6-0.1L147.9,74l-0.7-1.2l-23.1,10.4c0,0-0.3,0.1-0.5,0l22.1-13
		l-0.7-1.2l-23,10.3c0,0-0.3,0.2-0.5-0.1l22-12.8l-0.7-1.2c-8.2,3.5-26.2,11.3-29.4,12.7c-0.8,0.4-1,1.5-1,1.9
		c0.2,1,0.2,3.2-1.1,5.8c-0.5,0.8-1,1.7-1.8,2.5c-3.6,4.4-60.1,28.6-72.5,33.6c-2.2,0.9-4.7,2.9-6.2,6c-0.8,1.3-1.4,3-1.6,4.8
		C34,134.9,38.8,133.9,41.6,132.1z"/>
	<path id="XMLID_166_" class="st0" d="M1.6,75.5c6,9.6,31.7,26,48.7,27.4c0.4,0.1,0.5,0.1,0.9,0.2c7.3,2.2,39.8,22.1,49.8,28.9
		c2.6,1.8,7.1,2.8,11.6,0.5c0,0,0,0,0,0c0.3-0.1,0.6-0.3,0.9-0.4c-0.4-5-3.8-8.2-6.6-9.5c-6-2.6-29.9-14.1-51.7-25.8
		C34.1,83,9.1,71.1,5.4,68.7C0.7,65.7-1.8,70,1.6,75.5z"/>
	<polygon id="XMLID_219_" class="st1" points="32.5,63.5 34,66.5 37.4,67 35,69.4 35.5,72.8 32.5,71.2 29.5,72.8 30.1,69.4 27.6,67 
		31,66.5 	"/>
	<polygon id="XMLID_222_" class="st1" points="113.6,61.8 115.2,64.9 118.5,65.4 116.1,67.8 116.7,71.1 113.6,69.5 110.6,71.1 
		111.2,67.8 108.8,65.4 112.1,64.9 	"/>
</g>
</svg>
