<?xml version="1.0" encoding="utf-8"?>
<!-- Generator: Adobe Illustrator 21.1.0, SVG Export Plug-In . SVG Version: 6.00 Build 0)  -->
<svg version="1.1" id="Layer_1" xmlns="http://www.w3.org/2000/svg" xmlns:xlink="http://www.w3.org/1999/xlink" x="0px" y="0px"
	 viewBox="0 0 150 150" style="enable-background:new 0 0 150 150;" xml:space="preserve">
<style type="text/css">
	.st0{fill:#303030;}
	.st1{fill:#1C1C1C;}
	.st2{fill:#1A1A1A;}
	.st3{fill:#919191;}
	.st4{fill:#5D5D5D;}
	.st5{fill:#FCC19A;}
	.st6{fill:#121212;}
	.st7{fill:#C49576;}
	.st8{fill:#DC1F26;}
	.st9{opacity:0.2;}
	.st10{fill:#3C3C3B;}
	.st11{fill:#DAA482;}
	.st12{fill:#C79777;}
	.st13{fill:#584334;}
	.st14{fill:#6B6C6C;}
	.st15{fill:#464646;}
	.st16{fill:#FFFFFF;}
	.st17{fill:#414141;}
	.st18{fill:#CCCCCC;}
</style>
<g>
	<g>
		<circle class="st0" cx="28.1" cy="65.3" r="11"/>
		<circle class="st1" cx="28.1" cy="65.3" r="5.5"/>
		<circle class="st0" cx="28.1" cy="65.2" r="4.8"/>
		<circle class="st2" cx="28.1" cy="65.2" r="3.1"/>
		<circle class="st3" cx="28.1" cy="65.3" r="2.2"/>
		<circle class="st4" cx="28.1" cy="65.3" r="1.8"/>
	</g>
	<path class="st5" d="M29.8,69.5l-2.3,1c-0.7,0.3-1.5,0-1.8-0.7l0,0c-0.3-0.7,0-1.5,0.7-1.8l2.3-1c0.7-0.3,1.5,0,1.8,0.7l0,0
		C30.8,68.4,30.5,69.2,29.8,69.5z"/>
	<path class="st6" d="M53.7,22.3c-3.2,6,7.2,24.7,0,32.4c4.9,0,19.8,8.7,43.1-1c-8.4-5.8,2.7-27-1.7-31.3c-5.4-3.7-19-8.3-19-8.3
		S57.8,18.8,53.7,22.3z"/>
	<polygon class="st5" points="69.5,47.3 69.5,55.1 60,60.8 64.7,73 75.1,74.7 87.6,71.3 89.9,61 80.5,55 80.2,46.7 	"/>
	<polygon class="st7" points="69.5,47.3 69.5,52.4 80.4,52.4 80.2,46.7 	"/>
	<path class="st5" d="M58.1,114.1c0,0,0.1,8.1-0.4,9.9c0.1,0.6,19,4.8,19,4.8s16.1-5.1,16.5-5.7c-0.4-3.3-0.3-9-0.3-9H58.1z"/>
	<path class="st5" d="M56.2,62.3c0,0-9.6-2.5-12.5,4.6C42.4,70.2,42.2,81,42.2,81s-7.1,13.8-7.8,22.6c0.3,0.6,5.4,12.8,5.4,12.8
		s10.3-15.2,11.5-23.8c0.5,0.2,5.5-13.3,5.5-13.3l2.2-15.1L56.2,62.3z"/>
	<path class="st5" d="M115.2,104.3c5.5,0.8,6.4,4.4,8.5,4.9c2.1,0.5,4.2,6.1,4.2,6.1s-7.6,5.8-10,5.1c-2.4-0.7-7.4,0.6-9.7-1
		c-1-0.8-2-5.4-2-5.4s-7.1-9.5-7.5-20.3c0.6-1-5.6-16.2-5.6-16.2l-2.7-8.9l3.4-7c0,0,8.6-1,11.4,3.6c2.5,3.6,1.3,12.8,2.1,13.5
		C111.7,85.8,114.2,104.2,115.2,104.3z"/>
	<path class="st8" d="M94.7,77.8c0,0-3-8.9-0.9-16.1l-4.4-2c0,0-2.9,11.6-14.5,11.6l0,0.1c-11.4-0.1-14.6-11.6-14.6-11.6l-4.3,2
		c2.3,7.2-0.5,16.1-0.5,16.1s-5.9,5.7-4.1,15.2c1,4.4,4.6,6.8,4.6,6.8l1.6,14.2c0,0,6.7,2.8,17.9,2.8c11.2,0,17.8-2.8,17.8-2.8
		l1.3-14.2c0,0,3.6-2.5,4.5-6.9C100.8,83.4,94.7,77.8,94.7,77.8z"/>
	<polygon class="st9" points="59.1,99.8 59.3,102.3 91.5,99.7 	"/>
	<path class="st9" d="M67.1,77.6c0,0,5.4,1.3,8,2.7c2.5-1.8,8.4-3.3,8.4-3.3L67.1,77.6z"/>
	<path class="st10" d="M47.4,146.7c1.3-8.2,8-22.4,10-23.1c0.8-0.8,8.1,2.4,18.5,2.4c10.4,0,17-4.2,17.4-3.3
		c2.3,0.9,9.9,18.1,10.3,24.2C78.6,153.3,48,148.1,47.4,146.7z"/>
	<path class="st5" d="M60.8,36.7c-1.9,0.4-3.8-1-4.2-3.1c-0.4-2.1,0.8-4.1,2.7-4.5C61.1,28.7,62.7,36.3,60.8,36.7z"/>
	<path class="st5" d="M89.4,36.7c1.9,0.4,3.8-1,4.2-3.1c0.4-2.1-0.8-4.1-2.7-4.5C89,28.7,87.5,36.3,89.4,36.7z"/>
	<path class="st5" d="M90.1,20.1c0.4-2.8-14.9-7.3-14.9-7.3s-15.3,4.5-14.9,7.3c-3.8,26.3,14.9,30.8,14.9,30.8S93.9,46.4,90.1,20.1z
		"/>
	<path class="st6" d="M60.7,21.7c0,0,3.7,5,8.7,4.5c-1.8-3.7-1.3-6.5-1.3-6.5s8.7,8.9,14.6,8c-2.9-5.6-3-9.1-3-9.1s3.1,4.7,8.7,5.4
		c-2-3.6,2.1-4,2.1-4s3.2,2.4,5.5,8.1c1.9-6.1,0.7-10.4,0.7-10.4S93,4.9,80.8,5.5c-1.2-1.4,2.7-3.2,2.7-3.2s-6.6,3.2-6.8,1.8
		C76.4,2.7,75.9,0,75.9,0S75,3.9,72.8,4.6c-0.9-2.1-5.7-2.8-5.7-2.8s1.4,2,0.8,2.6C56.6,5,53.4,18.6,53.4,18.6s-0.9,4.9-0.3,6.9
		c2.1-2.4,6.2-4.4,6.2-4.4L60.7,21.7z"/>
	<ellipse class="st11" cx="76" cy="123.8" rx="0.7" ry="1.3"/>
	<path class="st5" d="M27.5,60.2c-0.5-0.5-2.1-0.5-4.5-0.3c-1.7,0.3-3.9,0.1-4.7,1.2c-1.1,1.9-2.3,3.7-1.8,5.3
		c0.3,1.5,0.8,5.5,1.8,6.9c1,0.9,2.3,3.8,2.5,4.2c1.1,2.6,1.8,29.4,3.6,34.4c2.8,7.7,6.5,10.5,8.6,10.5c3.8,0,7.2-6,7.3-6.9
		c-1.1-11.9-8.6-12.9-12.4-40.6c0,0,1.6-1.8,1.5-5.9c-0.5-1.6-1.1,2.3-1.8-2.1c0-0.3,2.3,0.6,2.8-1.4C30.7,63.3,27.7,60.4,27.5,60.2
		z"/>
	<path class="st12" d="M118.8,112.4c0,0-0.8-2.1,0-2.7c0.8-0.6,6.9-1.4,7.9-1.3c1,0.1,3.5,3.5,3.5,3.5l-2.8,2.7l-3.7-2.6
		L118.8,112.4z"/>
	<g>
		
			<rect x="106.9" y="114.4" transform="matrix(0.895 -0.4461 0.4461 0.895 -39.2429 66.6741)" class="st4" width="30.3" height="4.5"/>
		
			<rect x="111" y="113.9" transform="matrix(0.895 -0.4461 0.4461 0.895 -39.1684 66.7316)" class="st13" width="22.4" height="5.3"/>
		
			<rect x="135.1" y="95.7" transform="matrix(0.8974 -0.4413 0.4413 0.8974 -33.7055 71.8832)" class="st0" width="5.2" height="25.3"/>
		
			<rect x="135.2" y="96.4" transform="matrix(0.8974 -0.4413 0.4413 0.8974 -34.1111 71.3868)" class="st1" width="2.4" height="25.3"/>
		
			<rect x="139.9" y="101.1" transform="matrix(0.8974 -0.4413 0.4413 0.8974 -32.5239 73.5194)" class="st0" width="3.7" height="11.1"/>
		
			<rect x="140" y="101.6" transform="matrix(0.8973 -0.4414 0.4414 0.8973 -32.8019 73.1906)" class="st1" width="1.8" height="11.1"/>
		
			<rect x="100.6" y="121.6" transform="matrix(0.8973 -0.4413 0.4413 0.8973 -45.6119 58.2868)" class="st0" width="3.7" height="11.1"/>
		
			<rect x="102.5" y="121.2" transform="matrix(0.8974 -0.4413 0.4413 0.8974 -45.3345 58.6219)" class="st1" width="1.8" height="11.1"/>
		
			<rect x="103.6" y="112" transform="matrix(0.8974 -0.4413 0.4413 0.8974 -44.1185 59.6713)" class="st0" width="5.2" height="25.3"/>
		
			<rect x="106.1" y="111.4" transform="matrix(0.8973 -0.4414 0.4414 0.8973 -43.7473 60.1394)" class="st1" width="2.6" height="25.3"/>
	</g>
	<path class="st5" d="M114.4,116.4c-0.6,1.7,1.6,7.8,2.7,8.7c1.1,0.9,10.3-2.1,11.7-3.7c1.5-1.7,2.6-3.9,2.7-5
		c0.1-1.2-3.7-6.3-5.5-6.7c-1.8-0.4-4.3,0.2-5,0.4C120.1,110.5,115,114.7,114.4,116.4z"/>
	<path class="st12" d="M108.9,109.2c3.2-4,6.4-4.9,6.4-4.9S110.5,103.5,108.9,109.2z"/>
	<path class="st8" d="M75,45.6c2.7,0,4.7-1.8,4.7-2.2c0-0.4-2.7-1.7-3.3-1.7c-0.6,0-1.1,0.7-1.4,0.7c-0.3,0-0.7-0.7-1.4-0.7
		c-0.6,0-3.3,1.3-3.3,1.7C70.3,43.9,72.3,45.6,75,45.6z"/>
	<g>
		<circle class="st0" cx="16.4" cy="68.8" r="12.3"/>
		<circle class="st1" cx="16.4" cy="68.8" r="6.2"/>
		<circle class="st0" cx="16.4" cy="68.8" r="5.4"/>
		<circle class="st2" cx="16.4" cy="68.8" r="3.5"/>
		<circle class="st14" cx="16.4" cy="68.8" r="2.4"/>
		<circle class="st15" cx="16.4" cy="68.8" r="2"/>
	</g>
	<path class="st11" d="M35.1,101.2c5,2.4,4.4,10.3,4.4,10.3S38.1,105.3,35.1,101.2z"/>
	<path class="st16" d="M50.2,147.6l-0.8-0.2c1.9-9.7,9.2-24,9.3-24.1l0.7,0.4C59.3,123.9,52,138.1,50.2,147.6z"/>
	<path class="st16" d="M101.1,147.6c-1.9-9.6-9.5-24.5-9.6-24.6l0.7-0.4c0.1,0.2,7.8,15.2,9.7,24.9L101.1,147.6z"/>
	<g>
		<path class="st17" d="M74.9,69.5l-6.8-13.7c0-0.1,0-0.2,0.1-0.3c0.1,0,0.2,0,0.3,0.1l6.5,13l7.3-12.6c0.1-0.1,0.2-0.1,0.3-0.1
			c0.1,0.1,0.1,0.2,0.1,0.3L74.9,69.5z"/>
		<g>
			<path class="st1" d="M76,75.8h-2.1c-0.6,0-1.1-0.5-1.1-1.1v-4.5c0-0.6,0.5-1.1,1.1-1.1H76c0.6,0,1.1,0.5,1.1,1.1v4.5
				C77.1,75.3,76.6,75.8,76,75.8z"/>
			<path class="st18" d="M75.8,75.2h-1.7c-0.5,0-0.9-0.4-0.9-0.9v-3.7c0-0.5,0.4-0.9,0.9-0.9h1.7c0.5,0,0.9,0.4,0.9,0.9v3.7
				C76.7,74.8,76.3,75.2,75.8,75.2z"/>
			<rect x="74.2" y="70.4" class="st17" width="0.4" height="3.9"/>
			<rect x="75.4" y="70.4" class="st17" width="0.4" height="2"/>
		</g>
	</g>
</g>
</svg>
