<svg xmlns="http://www.w3.org/2000/svg" width="133.5" height="231.583" viewBox="0 0 133.5 231.583">
  <g id="golden-leaf" transform="translate(-630 13751)">
    <g id="Group_3513" data-name="Group 3513" transform="translate(493 -13756.6)">
      <path id="Path_36093" data-name="Path 36093" d="M255.8,213.7c6.1,4.8,7.7,12.8,7.7,12.8s-8.3.2-14.4-4.6-7.7-12.8-7.7-12.8S249.7,208.9,255.8,213.7Z" fill="#fba930"/>
      <path id="Path_36094" data-name="Path 36094" d="M248.5,226.2c7.4-2.6,15.1.3,15.1.3s-4.2,7-11.6,9.6-15.1-.3-15.1-.3S241.1,228.8,248.5,226.2Z" fill="#fba930"/>
    </g>
    <g id="Group_3514" data-name="Group 3514" transform="translate(493 -13756.6)">
      <path id="Path_36095" data-name="Path 36095" d="M232,207.3c5.4,5.6,5.9,13.7,5.9,13.7s-8.2-.9-13.6-6.5-5.9-13.7-5.9-13.7S226.6,201.7,232,207.3Z" fill="#fba930"/>
      <path id="Path_36096" data-name="Path 36096" d="M223,218.6c7.7-1.5,14.9,2.3,14.9,2.3s-5.1,6.4-12.8,7.9-14.9-2.3-14.9-2.3S215.3,220.2,223,218.6Z" fill="#fba930"/>
      <path id="Path_36097" data-name="Path 36097" d="M213.3,198c4.4,6.4,3.6,14.5,3.6,14.5s-8-2.2-12.4-8.5c-4.4-6.4-3.6-14.5-3.6-14.5S208.8,191.6,213.3,198Z" fill="#fba930"/>
      <path id="Path_36098" data-name="Path 36098" d="M202.5,207.8c7.8-.3,14.4,4.6,14.4,4.6s-6.1,5.5-13.9,5.8-14.4-4.6-14.4-4.6S194.7,208.1,202.5,207.8Z" fill="#fba930"/>
      <path id="Path_36099" data-name="Path 36099" d="M195.7,183.8c2.7,7.2-.1,14.9-.1,14.9s-7.2-4-9.9-11.3c-2.7-7.2.1-14.9.1-14.9S193,176.6,195.7,183.8Z" fill="#fba930"/>
      <path id="Path_36100" data-name="Path 36100" d="M182.9,190.8c7.7,1.6,12.8,7.9,12.8,7.9s-7.3,3.9-14.9,2.3c-7.7-1.6-12.8-7.9-12.8-7.9S175.2,189.2,182.9,190.8Z" fill="#fba930"/>
      <path id="Path_36101" data-name="Path 36101" d="M182.5,167.5c.9,7.6-3.6,14.4-3.6,14.4s-6-5.6-6.9-13.2,3.6-14.4,3.6-14.4S181.6,159.8,182.5,167.5Z" fill="#fba930"/>
      <path id="Path_36102" data-name="Path 36102" d="M168.3,171.2c7.1,3.3,10.5,10.7,10.5,10.7s-8,2.1-15.1-1.2S153.2,170,153.2,170,161.2,168,168.3,171.2Z" fill="#fba930"/>
    </g>
    <g id="Group_3515" data-name="Group 3515" transform="translate(493 -13756.6)">
      <path id="Path_36103" data-name="Path 36103" d="M171.2,146.9c-.7,7.7-6.5,13.4-6.5,13.4s-4.8-6.7-4.1-14.3c.7-7.7,6.5-13.4,6.5-13.4S171.8,139.2,171.2,146.9Z" fill="#fba930"/>
      <path id="Path_36104" data-name="Path 36104" d="M156.5,147.8c6.3,4.6,8.2,12.5,8.2,12.5s-8.3.5-14.5-4.1c-6.3-4.6-8.2-12.5-8.2-12.5S150.3,143.2,156.5,147.8Z" fill="#fba930"/>
      <path id="Path_36105" data-name="Path 36105" d="M165.3,127.2c-1.9,7.5-8.6,12.3-8.6,12.3s-3.6-7.3-1.8-14.8c1.9-7.5,8.6-12.3,8.6-12.3S167.2,119.7,165.3,127.2Z" fill="#fba930"/>
      <path id="Path_36106" data-name="Path 36106" d="M150.7,125.8c5.5,5.5,6.1,13.6,6.1,13.6s-8.2-.8-13.7-6.3-6.1-13.6-6.1-13.6S145.3,120.3,150.7,125.8Z" fill="#fba930"/>
      <path id="Path_36107" data-name="Path 36107" d="M164.7,105.3c-3.7,6.8-11.3,9.9-11.3,9.9s-1.7-8,1.9-14.8c3.7-6.8,11.3-9.9,11.3-9.9S168.4,98.5,164.7,105.3Z" fill="#fba930"/>
      <path id="Path_36108" data-name="Path 36108" d="M150.9,100.5c3.9,6.7,2.5,14.7,2.5,14.7s-7.8-2.8-11.7-9.4c-3.9-6.7-2.5-14.7-2.5-14.7S146.9,93.8,150.9,100.5Z" fill="#fba930"/>
      <path id="Path_36109" data-name="Path 36109" d="M168.6,83.2c-5.2,5.8-13.4,7-13.4,7s.2-8.1,5.4-13.9,13.4-7,13.4-7S173.8,77.4,168.6,83.2Z" fill="#fba930"/>
      <path id="Path_36110" data-name="Path 36110" d="M156.3,75.3c2.2,7.4-1.1,14.8-1.1,14.8s-6.9-4.5-9.1-11.9,1.1-14.8,1.1-14.8S154.1,67.9,156.3,75.3Z" fill="#fba930"/>
    </g>
    <path id="Path_36111" data-name="Path 36111" d="M176.6,65c-6.4,4.4-14.6,3.8-14.6,3.8s2.1-7.9,8.5-12.3,14.6-3.8,14.6-3.8S183,60.6,176.6,65Z" transform="translate(493 -13756.6)" fill="#fba930"/>
    <path id="Path_36112" data-name="Path 36112" d="M166.5,54.6c.5,7.7-4.5,14.2-4.5,14.2s-5.7-5.9-6.1-13.6c-.5-7.7,4.5-14.2,4.5-14.2S166,46.9,166.5,54.6Z" transform="translate(493 -13756.6)" fill="#fba930"/>
    <path id="Path_36113" data-name="Path 36113" d="M186.6,48.6c-7,3.4-15,1.5-15,1.5s3.3-7.4,10.4-10.8c7-3.4,15-1.5,15-1.5S193.6,45.2,186.6,48.6Z" transform="translate(493 -13756.6)" fill="#fba930"/>
    <path id="Path_36114" data-name="Path 36114" d="M178.3,36.7c-.8,7.7-6.7,13.3-6.7,13.3s-4.7-6.7-3.9-14.4,6.7-13.3,6.7-13.3S179.1,29,178.3,36.7Z" transform="translate(493 -13756.6)" fill="#fba930"/>
    <path id="Path_36138" data-name="Path 36138" d="M202.9,34c-7.6,1.6-15-2.2-15-2.2s5.1-6.4,12.7-8,15,2.2,15,2.2S210.5,32.4,202.9,34Z" transform="translate(493 -13756.6)" fill="#fba930"/>
    <path id="Path_36139" data-name="Path 36139" d="M197.7,20.5c-2.6,7.2-9.8,11.3-9.8,11.3s-2.9-7.6-.2-14.9c2.6-7.2,9.8-11.3,9.8-11.3S200.3,13.3,197.7,20.5Z" transform="translate(493 -13756.6)" fill="#fba930"/>
    <path id="Path_36140" data-name="Path 36140" d="M118.3,198.329A127.268,127.268,0,0,1,72.134,188.12a125,125,0,0,1-20.1-10.889,122.341,122.341,0,0,1-17.49-14.157A118.439,118.439,0,0,1,20.13,146.091,113.939,113.939,0,0,1,9.257,126.723,109.267,109.267,0,0,1,0,82.6,110,110,0,0,1,9.838,37.062,113.775,113.775,0,0,1,21.389,17.223,117.847,117.847,0,0,1,36.7,0a6.758,6.758,0,0,0,1.679.727l.007,0L38.6.8C14.934,22.477,1.9,51.527,1.9,82.6c0,61.711,51.129,111.755,116.4,113.928v1.8Z" transform="translate(645.2 -13727.6)" fill="#f8991e"/>
  </g>
</svg>
