<?xml version="1.0" encoding="utf-8"?>
<!-- Generator: Adobe Illustrator 18.1.1, SVG Export Plug-In . SVG Version: 6.00 Build 0)  -->
<svg version="1.1" id="Layer_1" xmlns="http://www.w3.org/2000/svg" xmlns:xlink="http://www.w3.org/1999/xlink" x="0px" y="0px"
	 viewBox="0 0 112 32" enable-background="new 0 0 112 32" xml:space="preserve">
<g>
	<g>
		<g>
			<path fill="#25292B" d="M108.8,31H3.2C2,31,1,30,1,28.8V3.2C1,2,2,1,3.2,1h105.6c1.2,0,2.2,1,2.2,2.2v25.6
				C111,30,110,31,108.8,31z"/>
		</g>
		<g>
			<path fill="#FFFFFF" d="M40.2,8.7c0,0.6-0.2,1.1-0.6,1.5c-0.4,0.4-1,0.7-1.7,0.7c-0.7,0-1.2-0.2-1.7-0.7c-0.5-0.5-0.7-1-0.7-1.7
				c0-0.7,0.2-1.2,0.7-1.7c0.5-0.5,1-0.7,1.7-0.7c0.3,0,0.6,0.1,0.9,0.2c0.3,0.1,0.5,0.3,0.7,0.5l-0.4,0.4c-0.3-0.4-0.7-0.5-1.2-0.5
				c-0.5,0-0.9,0.2-1.2,0.5c-0.3,0.3-0.5,0.8-0.5,1.3s0.2,1,0.5,1.3c0.3,0.3,0.8,0.5,1.2,0.5c0.5,0,0.9-0.2,1.3-0.5
				c0.2-0.2,0.3-0.5,0.4-0.9H38V8.3h2.2C40.2,8.5,40.2,8.6,40.2,8.7z"/>
			<path fill="#FFFFFF" d="M43.6,6.8h-2.1v1.4h1.9v0.5h-1.9v1.4h2.1v0.6H41V6.2h2.6V6.8z"/>
			<path fill="#FFFFFF" d="M46.1,10.8h-0.6V6.8h-1.3V6.2h3.1v0.6h-1.3V10.8z"/>
			<path fill="#FFFFFF" d="M49.6,10.8V6.2h0.6v4.5H49.6z"/>
			<path fill="#FFFFFF" d="M52.7,10.8h-0.6V6.8h-1.3V6.2H54v0.6h-1.3V10.8z"/>
			<path fill="#FFFFFF" d="M59.9,10.2c-0.4,0.5-1,0.7-1.7,0.7c-0.7,0-1.2-0.2-1.7-0.7c-0.4-0.5-0.7-1-0.7-1.7s0.2-1.2,0.7-1.7
				c0.4-0.5,1-0.7,1.7-0.7c0.7,0,1.2,0.2,1.7,0.7c0.4,0.5,0.7,1,0.7,1.7C60.5,9.2,60.3,9.7,59.9,10.2z M57,9.8
				c0.3,0.3,0.7,0.5,1.2,0.5s0.9-0.2,1.2-0.5c0.3-0.3,0.5-0.8,0.5-1.3c0-0.5-0.2-1-0.5-1.3c-0.3-0.3-0.7-0.5-1.2-0.5
				S57.3,6.9,57,7.2c-0.3,0.3-0.5,0.8-0.5,1.3C56.5,9,56.6,9.5,57,9.8z"/>
			<path fill="#FFFFFF" d="M61.3,10.8V6.2H62l2.2,3.5h0l0-0.9V6.2h0.6v4.5h-0.6l-2.3-3.7h0l0,0.9v2.8H61.3z"/>
		</g>
		<path fill="#FFFFFF" d="M55.7,17.3c-1.8,0-3.2,1.3-3.2,3.2c0,1.8,1.4,3.2,3.2,3.2c1.8,0,3.2-1.4,3.2-3.2
			C59,18.7,57.5,17.3,55.7,17.3z M55.7,22.4c-1,0-1.8-0.8-1.8-1.9c0-1.1,0.8-1.9,1.8-1.9s1.8,0.8,1.8,1.9
			C57.5,21.6,56.7,22.4,55.7,22.4z M48.7,17.3c-1.8,0-3.2,1.3-3.2,3.2c0,1.8,1.4,3.2,3.2,3.2c1.8,0,3.2-1.4,3.2-3.2
			C52,18.7,50.5,17.3,48.7,17.3z M48.7,22.4c-1,0-1.8-0.8-1.8-1.9c0-1.1,0.8-1.9,1.8-1.9c1,0,1.8,0.8,1.8,1.9
			C50.6,21.6,49.7,22.4,48.7,22.4z M40.4,18.3v1.4h3.2c-0.1,0.8-0.4,1.3-0.7,1.7c-0.5,0.5-1.2,1-2.5,1c-2,0-3.6-1.6-3.6-3.6
			s1.6-3.6,3.6-3.6c1.1,0,1.9,0.4,2.4,1l1-1c-0.8-0.8-1.9-1.4-3.4-1.4c-2.7,0-5,2.2-5,5c0,2.7,2.3,5,5,5c1.5,0,2.6-0.5,3.5-1.4
			c0.9-0.9,1.2-2.2,1.2-3.2c0-0.3,0-0.6-0.1-0.8H40.4z M74.5,19.3c-0.3-0.7-1.1-2-2.7-2c-1.6,0-3,1.3-3,3.2c0,1.8,1.4,3.2,3.2,3.2
			c1.5,0,2.3-0.9,2.7-1.4l-1.1-0.7c-0.4,0.5-0.9,0.9-1.6,0.9c-0.7,0-1.2-0.3-1.5-1l4.3-1.8L74.5,19.3z M70.1,20.4
			c0-1.2,1-1.9,1.7-1.9c0.6,0,1,0.3,1.2,0.7L70.1,20.4z M66.6,23.5H68v-9.4h-1.4V23.5z M64.3,18L64.3,18c-0.4-0.4-1-0.7-1.7-0.7
			c-1.6,0-3.1,1.4-3.1,3.2c0,1.8,1.5,3.2,3.1,3.2c0.8,0,1.4-0.3,1.7-0.7h0v0.5c0,1.2-0.7,1.9-1.7,1.9c-0.9,0-1.4-0.6-1.6-1.1
			l-1.2,0.5c0.4,0.8,1.3,1.9,2.8,1.9c1.6,0,3-1,3-3.3v-5.7h-1.3V18z M62.7,22.4c-1,0-1.8-0.8-1.8-1.9c0-1.1,0.8-1.9,1.8-1.9
			c1,0,1.7,0.8,1.7,1.9C64.4,21.6,63.7,22.4,62.7,22.4z M81,14.1h-3.4v9.4h1.4v-3.6h2c1.6,0,3.1-1.1,3.1-2.9S82.6,14.1,81,14.1z
			 M81.1,18.6h-2v-3.2h2c1,0,1.6,0.9,1.6,1.6C82.7,17.8,82.1,18.6,81.1,18.6z M89.8,17.3c-1,0-2.1,0.4-2.5,1.4l1.2,0.5
			c0.3-0.5,0.8-0.7,1.3-0.7c0.7,0,1.5,0.4,1.5,1.2v0.1c-0.3-0.1-0.8-0.4-1.5-0.4c-1.3,0-2.7,0.7-2.7,2.1c0,1.3,1.1,2.1,2.3,2.1
			c0.9,0,1.5-0.4,1.8-0.9h0v0.7h1.4v-3.6C92.6,18.2,91.4,17.3,89.8,17.3z M89.6,22.4c-0.5,0-1.1-0.2-1.1-0.8c0-0.7,0.8-1,1.5-1
			c0.6,0,0.9,0.1,1.3,0.3C91.1,21.8,90.4,22.4,89.6,22.4z M97.5,17.5l-1.6,4.1h0l-1.7-4.1h-1.5l2.5,5.7l-1.4,3.2h1.5l3.9-8.8H97.5z
			 M84.9,23.5h1.4v-9.4h-1.4V23.5z"/>
		<g>

				<linearGradient id="SVGID_1_" gradientUnits="userSpaceOnUse" x1="20.9255" y1="-1608.7545" x2="8.3265" y2="-1621.3536" gradientTransform="matrix(1 0 0 -1 0 -1601.2303)">
				<stop  offset="0" style="stop-color:#00A0FF"/>
				<stop  offset="6.574450e-03" style="stop-color:#00A1FF"/>
				<stop  offset="0.2601" style="stop-color:#00BEFF"/>
				<stop  offset="0.5122" style="stop-color:#00D2FF"/>
				<stop  offset="0.7604" style="stop-color:#00DFFF"/>
				<stop  offset="1" style="stop-color:#00E3FF"/>
			</linearGradient>
			<path fill="url(#SVGID_1_)" d="M12.4,6.7C12.2,6.9,12,7.2,12,7.7v16.6c0,0.5,0.1,0.8,0.3,1.1l0.1,0.1l9.3-9.3V16v-0.1L12.4,6.7
				L12.4,6.7z"/>

				<linearGradient id="SVGID_2_" gradientUnits="userSpaceOnUse" x1="29.9689" y1="-1617.2314" x2="11.7853" y2="-1617.2314" gradientTransform="matrix(1 0 0 -1 0 -1601.2303)">
				<stop  offset="0" style="stop-color:#FFE000"/>
				<stop  offset="0.4087" style="stop-color:#FFBD00"/>
				<stop  offset="0.7754" style="stop-color:#FFA500"/>
				<stop  offset="1" style="stop-color:#FF9C00"/>
			</linearGradient>
			<path fill="url(#SVGID_2_)" d="M24.9,19.2l-3.1-3.1V16v-0.1l3.1-3.1l0.1,0l3.7,2.1c1.1,0.6,1.1,1.6,0,2.2L24.9,19.2L24.9,19.2z"
				/>

				<linearGradient id="SVGID_3_" gradientUnits="userSpaceOnUse" x1="23.1969" y1="-1618.9467" x2="6.1057" y2="-1636.0378" gradientTransform="matrix(1 0 0 -1 0 -1601.2303)">
				<stop  offset="0" style="stop-color:#FF3A44"/>
				<stop  offset="1" style="stop-color:#C31162"/>
			</linearGradient>
			<path fill="url(#SVGID_3_)" d="M24.9,19.2L21.8,16l-9.4,9.3c0.3,0.4,0.9,0.4,1.6,0L24.9,19.2"/>

				<linearGradient id="SVGID_5_" gradientUnits="userSpaceOnUse" x1="10.0324" y1="-1602.3511" x2="17.6643" y2="-1609.983" gradientTransform="matrix(1 0 0 -1 0 -1601.2303)">
				<stop  offset="0" style="stop-color:#32A071"/>
				<stop  offset="6.850000e-02" style="stop-color:#2DA771"/>
				<stop  offset="0.4762" style="stop-color:#15CF74"/>
				<stop  offset="0.8009" style="stop-color:#06E775"/>
				<stop  offset="1" style="stop-color:#00F076"/>
			</linearGradient>
			<path fill="url(#SVGID_5_)" d="M24.9,12.8l-11-6.2c-0.6-0.4-1.2-0.3-1.6,0l9.4,9.3L24.9,12.8z"/>
			<g>
				<path opacity="0.2" enable-background="new    " d="M24.9,19.1l-10.9,6.2c-0.6,0.3-1.2,0.3-1.5,0l0,0l-0.1,0.1l0,0l0.1,0.1l0,0
					c0.3,0.3,0.9,0.3,1.5,0L24.9,19.1L24.9,19.1z"/>
				<path opacity="0.12" enable-background="new    " d="M12.4,25.2C12.2,25,12,24.6,12,24.2v0.1c0,0.5,0.1,0.8,0.3,1.1V25.2
					L12.4,25.2z"/>
			</g>
			<path opacity="0.12" enable-background="new    " d="M28.6,17l-3.7,2.1l0.1,0.1l3.7-2.1c0.5-0.3,0.8-0.7,0.8-1.1l0,0
				C29.3,16.4,29.1,16.7,28.6,17z"/>
			<path opacity="0.25" fill="#FFFFFF" enable-background="new    " d="M13.9,6.7L28.6,15c0.5,0.3,0.7,0.6,0.8,1l0,0
				c0-0.4-0.3-0.8-0.8-1.1L13.9,6.6C12.9,6,12,6.5,12,7.7v0.1C12,6.6,12.9,6.1,13.9,6.7z"/>
		</g>
	</g>
	<rect x="0" y="0" fill="none" width="112" height="32"/>
</g>
</svg>
