<?xml version="1.0" encoding="utf-8"?>
<!-- Generator: Adobe Illustrator 21.1.0, SVG Export Plug-In . SVG Version: 6.00 Build 0)  -->
<svg version="1.1" id="Layer_1" xmlns="http://www.w3.org/2000/svg" xmlns:xlink="http://www.w3.org/1999/xlink" x="0px" y="0px"
	 viewBox="0 0 200 200" style="enable-background:new 0 0 200 200;" xml:space="preserve">
<style type="text/css">
	.st0{fill:#DD121F;}
</style>
<g>
	<path class="st0" d="M96.2,21C96.2,21,96.2,21,96.2,21C96.2,21,96.2,21,96.2,21z"/>
	<path class="st0" d="M199.9,84.6c-0.2-0.6-0.4-1.3-0.5-1.9c-0.8-3-1.5-6-2.5-8.9c-1.6-4.5-3.6-8.7-6.2-12.7c-3-4.8-6.7-9-10.6-13
		c-1.8-1.8-3.6-3.5-5.4-5.1c-1.3-1.1-2.6-2.3-3.9-3.4c-1.2-1-2.5-2-3.6-3.1c-1.5-1.5-3.1-2.8-4.9-3.9c-2.2-1.4-4.5-2.4-7.1-2.6
		c-0.2,0-0.4,0-0.5,0c-1,0.1-1.9,0.2-2.8,0.6c-0.2,0.1-0.4,0.1-0.7,0c-0.8-0.3-1.7-0.6-2.5-0.2c-1.1,0.5-2,0.2-3-0.2
		c-0.4,0-0.7,0-1.1,0c-0.5,0.1-1.1,0.2-1.5,0.6c-0.6,0.5-1.2,0.4-1.8,0.1c-0.4,0-0.8,0-1.2,0c0,0,0,0,0,0c0,0,0,0,0,0
		c-1.2,0.2-2.2,0.8-2.9,1.8c-0.3,0.4-0.5,0.7-0.8,1.1c-1.6,2.2-3.1,4.4-3.7,7.2c-0.2,1.1-0.1,2.3,0.6,3.2c0.9,1.3,2,2.4,3.1,3.5
		c0.2,0.2,0.4,0.3,0.2,0.6c-0.2,0.4-0.1,0.7-0.2,1.1c0,0.3,0,0.5,0,0.8c0,1.1,0.6,2,1.5,2.6c0.6,0.4,1.3,0.4,2,0.4
		c0.2-0.1,0.4-0.1,0.6-0.1c1.1-0.3,2-0.7,2.9-1.4c0.7-0.6,1.3-1.4,1.9-2c0.2-0.2,0.4-0.4,0.7-0.3c0.5,0,1.1,0,1.6,0
		c0.7,0,1.3-0.3,1.9-0.3c0.6-0.2,1.2,0,1.8-0.1c0.7,0,1.3-0.2,2-0.4c1-0.3,2.1-0.4,2.9-1.2c0.3-0.3,0.6-0.3,1-0.1
		c1.4,0.9,2.3,2.1,3,3.5c1.1,2.2,1.9,4.5,2.6,6.9c0.8,2.4,1.5,4.9,2.3,7.3c0.6,1.6,1.1,3.2,1.8,4.8c0.7,1.7,1.5,3.3,2.4,4.9
		c0.2,0.4,0.6,0.7,0.7,1.3c-1-0.2-2-0.3-2.9-0.5c-0.3,0-0.6,0-0.9-0.1c0,0,0,0,0,0c-0.5,0-1,0-1.5,0c-0.3,0.1-0.6,0.1-0.9,0.1
		c-1.7,0.2-3.3,0.6-4.8,1.3c-2.4,1.1-4.2,2.9-5.6,5.1c-1,1.6-1.8,3.2-2.4,5c-0.1,0.3-0.2,0.5-0.6,0.4c-1.6-0.5-3.2-0.8-4.9-1
		c-0.2,0-0.5,0-0.7-0.1c0,0,0,0,0,0c-1,0-2,0-3,0c-0.2,0.1-0.5,0.1-0.7,0.1c-0.3,0-0.6,0.1-0.9,0.1c-2.7,0.3-5.3,1.1-7.7,2.2
		c-3,1.4-5.7,3.3-8,5.7c-0.3,0.3-0.5,0.4-0.9,0.3c-1.1-0.4-2.2-0.7-3.3-1c-3-1-4.5-3.4-4.6-6.4c-0.1-0.2-0.1-0.4-0.1-0.6
		c0,0,0,0,0,0c0-0.2,0-0.3,0-0.5c0,0,0,0,0,0c-0.1-0.3-0.1-0.6-0.1-0.9c0-0.4,0-0.8,0-1.3c-0.1-1.2-0.1-2.4,0-3.5c0,0,0,0,0,0
		c0-0.5,0-0.9,0-1.4c0-0.3,0-0.6,0.1-0.9c0,0,0,0,0-0.1c0.4-1.1,0.7-2.3,0.8-3.5c0-0.3,0-0.5,0.1-0.8c0,0,0,0,0,0c0-0.4,0-0.8,0-1.2
		c0-0.4,0-0.8,0.1-1.1c0,0,0,0,0,0c0-0.3,0-0.6,0-0.8c0-0.2,0-0.5,0.1-0.7c0,0,0,0,0,0c0-0.2,0-0.3,0-0.5c0-0.2,0-0.4,0.1-0.6
		c0,0,0,0,0,0c0-0.5-0.1-1.2,0.3-1.5c0.8-0.5,1.2-1.2,1.6-1.9c1-1.6,2.1-3.2,2.4-5.1c0-0.2,0-0.4,0.1-0.6c0,0,0,0,0,0
		c0-0.3,0-0.7,0-1c-0.1-0.2-0.1-0.4-0.1-0.7c-0.1-0.5-0.3-1.1-0.2-1.6c-0.1-0.2-0.1-0.5,0-0.7c0,0,0,0,0,0c0-0.2,0-0.4,0-0.6
		c0-0.3,0-0.5,0.1-0.8c0,0,0,0,0,0c-0.1-0.8,0-1.6-0.8-2.2c-0.2-0.2-0.1-0.4,0-0.6c0,0,0,0,0,0c0-0.8,0.2-1.6,0.4-2.4
		c0-0.2,0-0.4,0-0.5c-0.1-0.6-0.4-1.2-0.4-1.8c-0.1-0.2-0.1-0.4,0-0.6c0,0,0,0,0,0c0-0.3,0-0.5,0.1-0.8c0.3-1.3,0.5-2.6,0.7-3.8
		c0,0,0,0,0,0c0,0,0,0,0,0c0-0.6,0-1.2,0-1.7c-0.2-1.1-0.5-2.3-0.8-3.4c-0.3-1-0.7-1.9-0.9-2.9c-0.1-0.3-0.2-0.6-0.4-0.9
		c0.3,0.2,0.4,0.4,0.5,0.7c0.6,0.9,0.9,1.8,1.2,2.8c0,0,0.1,0,0.1,0c0-0.2,0-0.5,0-0.7c-0.1-0.2-0.1-0.4-0.1-0.6c0-0.1,0-0.3,0-0.4
		c0,0,0,0,0,0c0,0,0,0,0,0c-0.1-0.2-0.1-0.4-0.1-0.6c-0.1-0.5-0.2-1-0.2-1.5c-0.3-1.6-1-3-2.3-4c-0.6-0.4-1.2-0.8-1.8-1.2
		c0.4-0.3,0.9-0.4,1.3-0.6c-0.1-0.1-0.2-0.1-0.3-0.1c-0.2,0-0.5,0-0.7,0c-0.3,0.1-0.6,0.1-0.9,0.1c-0.1,0-0.2,0-0.3,0
		c-0.1,0-0.2,0-0.3,0c-0.1,0-0.2,0-0.2,0c0-0.1,0.1-0.1,0.2-0.2c0.3-0.3,0.5-0.6,0.7-1c0,0,0,0,0,0c0-0.2,0-0.4,0-0.6
		c-0.1-0.3-0.2-0.6-0.2-1c-0.1,0-0.1,0.1-0.2,0.1c0,0,0,0,0,0c-0.2,0.6-0.6,0.8-1.1,1c-0.2,0.1-0.4,0.1-0.5,0.1c0,0-0.1,0-0.1,0
		c-0.2,0-0.5,0-0.7-0.1c0,0,0,0,0,0c-1.2-0.1-2.2-0.5-3.3-1c-2.4-1-4.7-2.2-7.2-3c-1.8-0.6-3.5-1.4-5-2.4c-0.2,0-0.1,0.1-0.1,0.2
		c0.2,0.4,0.5,0.7,0.7,1.2c-1.4-0.2-2.5-0.8-3.2-2.2c-0.2,0.9-0.1,1.6,0.4,2.2c0.3,0.4,0.7,0.7,1.1,1.1c0.1,0.3-0.2,0.1-0.3,0.2
		c-0.7,0.1-1.4,0.3-2.1,0.2c-0.6,0.1-1.3,0.1-1.9,0c0,0,0,0,0,0c-1.7,0-3.2-0.6-4.5-1.7c0.1,0.9,0.4,1.7,0.8,2.4
		c0.4,0.6,0.4,0.6-0.2,0.8c-0.1,0-0.2,0.1-0.3,0.1c-1.8,0.7-3.6,1.4-4.8,3c-0.6,0.7-1,1.6-1.5,2.4c0.3-0.1,0.6-0.3,0.9-0.4
		c0.6-0.3,1.1-0.5,1.8-0.5c0.1,0,0.2,0,0.3,0.1c0.1,0.1-0.1,0.2-0.1,0.3c-1.3,1.8-3,3.1-4.6,4.6c-1.1,1-2.1,2.1-2.8,3.4
		c0,0,0.1,0.1,0.1,0.1c0.6-0.6,1.3-1.1,2.2-1.3c-0.5,1-1,1.9-1.5,2.8c0.4,0.1,0.6-0.1,0.9-0.3c0.3-0.1,0.6-0.4,0.8-0.3
		c0.2,0.1,0.1,0.5,0,0.8c0,0.2,0,0.4-0.1,0.6c0,0,0,0,0,0c0,0.2,0,0.4,0,0.6c0,0.2,0,0.5-0.1,0.7c0,0,0,0,0,0c0,0.3,0,0.6,0,0.8
		c0,0.3,0,0.7-0.1,1c0,0,0,0,0,0c0,0.4,0,0.8,0,1.2c0,0.6,0,1.2-0.1,1.8c0,0,0,0,0,0c0,1.6,0,3.1,0,4.7c0,0.1,0,0.1,0,0.2
		c0.1,0.4,0.1,0.8,0,1.2c0,0.2,0,0.5,0,0.7c0.1,0.2,0.1,0.4,0.1,0.6c0,0.2,0.1,0.4-0.1,0.5c-0.3,0.3-0.5,0.6-0.6,1
		c-0.2,0.4,0,0.8-0.1,1.3c0.1,0.3,0.1,0.5,0.1,0.8c0,0,0,0,0,0v0c0,0.2,0,0.4,0,0.6c0,0,0,0,0,0c0,0,0,0,0,0c0.1,0.2,0.1,0.5,0,0.7
		c0,0,0,0,0,0c-0.1,0.5-0.2,1.1-0.2,1.6c0,0.2,0,0.4-0.1,0.6c0,0,0,0,0,0c0,0.4,0,0.7,0,1.1c0.1,0.2,0.1,0.4,0.1,0.7
		c0.1,0.6,0.2,1.3,0.5,1.9c0.5,1.2,1.2,2.2,1.9,3.3c0.4,0.7,0.8,1.5,1.6,1.8c0.1,0,0.1,0.1,0.1,0.2c0.1,0.8,0.2,1.6,0.3,2.3
		c0,0,0,0,0,0c0,0,0,0,0,0c0.1,0.2,0.1,0.5,0.1,0.7c0,0.3,0,0.6,0,0.8c0.1,0.4,0.1,0.7,0.1,1.1c0,0.4,0,0.8,0,1.2
		c0.1,0.3,0.1,0.5,0.1,0.8c0.1,1.2,0.2,2.4,0.8,3.5c0.3,0.6,0.4,1.2,0.4,1.8c0,1.4,0.1,2.8-0.1,4.2c0,0,0,0,0,0c0,0.3,0,0.6,0,0.9
		c0,0.2,0,0.5-0.1,0.7c0,0,0,0,0,0c-0.1,0.7-0.2,1.3-0.3,2c-0.4,1.7-1.2,3.2-2.6,4.4c-1.6,1.3-3.5,2-5.4,2.6c-0.3,0.1-0.5,0-0.7-0.2
		c-1.3-1.3-2.7-2.5-4.2-3.5c-3.7-2.6-7.9-4.2-12.4-4.7c-0.2,0-0.5,0-0.7-0.1c0,0,0,0,0,0c-1,0-2,0-3,0c-0.2,0.1-0.4,0.1-0.7,0.1
		c-1.7,0.2-3.3,0.5-5,1c-0.4,0.1-0.5,0-0.6-0.3c-0.3-0.7-0.6-1.4-0.9-2.1c-1.3-2.8-3-5.3-5.6-7.1c-1.9-1.3-4.1-2-6.4-2.2
		c-0.3,0-0.6,0-0.9-0.1c0,0,0,0,0,0c-0.5,0-1,0-1.5,0c-0.3,0.1-0.6,0.1-0.9,0.1c-0.8,0.1-1.7,0.2-2.5,0.3c-0.1,0-0.3,0.2-0.4,0
		c-0.1-0.2,0.1-0.3,0.2-0.4c0.6-0.9,1.1-1.8,1.6-2.8c2.2-4.5,3.6-9.2,5.1-14c0.9-2.7,1.7-5.5,3-8c0.7-1.3,1.6-2.5,2.9-3.4
		c0.4-0.3,0.7-0.3,1.1,0.1c0.3,0.3,0.6,0.5,1,0.6c1.3,0.3,2.6,0.9,3.9,0.9c0.6,0,1.2-0.1,1.9,0.1c0,0,0,0,0,0
		c0.6,0.2,1.3,0.3,1.9,0.3c0.5,0,1.1,0,1.6,0c0.1,0,0.3,0,0.4,0.1c0.4,0.4,0.8,0.7,1.1,1.2c1.3,1.6,2.8,2.7,5,2.5
		c0.9-0.1,1.6-0.3,2.2-1c1-1.1,1.1-2.5,0.8-3.8c-0.1-0.3,0-0.5,0.2-0.7c0.8-0.8,1.6-1.7,2.4-2.5c0.5-0.5,0.9-1.1,1.2-1.7
		c0.5-1.3,0.2-2.6-0.2-3.9c-0.8-2.1-2-3.9-3.3-5.7c-0.9-1.4-1.9-2.7-3.7-3c-0.4,0-0.8,0-1.2,0c0,0,0,0,0,0c0,0,0,0,0,0
		c-0.2,0-0.4,0.1-0.6,0.1c-0.3,0.1-0.6,0.2-0.9,0c-0.6-0.4-1.2-0.6-1.8-0.8c-0.4,0-0.7,0-1.1,0c0,0,0,0,0,0c0,0,0,0,0,0
		c-0.5,0.1-1,0.2-1.4,0.4c-0.2,0.1-0.4,0.1-0.6,0c-1.2-0.6-2.4-0.5-3.6-0.1c-0.2,0.1-0.3,0.1-0.5,0c-0.9-0.4-1.8-0.5-2.8-0.6
		c-0.2,0-0.4,0-0.5,0c-0.7,0.1-1.4,0.1-2.1,0.3c-3.4,0.9-6.2,2.8-8.8,5c-1,0.9-2.1,1.9-3.1,2.8c-1.6,1.3-3.1,2.7-4.7,4
		c-1.6,1.4-3.2,2.8-4.7,4.4c-1.7,1.7-3.4,3.3-5,5.1c-1.3,1.5-2.5,2.9-3.7,4.5c-2.5,3.1-4.6,6.5-6.4,10c-1,1.8-1.8,3.8-2.5,5.7
		c-0.7,1.9-1.3,3.8-1.9,5.7c-0.5,1.6-0.8,3.3-1.3,4.9C0.5,83.3,0.2,84.1,0,85c-0.2,1.7,0.4,3.1,1.4,4.3c1.1,1.4,2.2,2.8,3.3,4.2
		c1.4,1.9,2.6,3.8,4,5.6c2,2.8,4.2,5.6,6.5,8.2c1.2,1.3,2.3,2.7,3.5,4c0.9,1,1.9,2,2.9,2.9c1.9,1.9,4,3.6,6.2,5.3
		c1.6,1.2,3.3,2.4,5.1,3.3c1.8,0.9,3.6,1.8,5.5,2.4c0.2,0,0.4,0,0.4,0.4c0,0.7,0,1.4,0,2.1c0.1,0.5,0.1,1,0.1,1.4c0,0.3,0,0.7,0,1
		c0.1,0.3,0.1,0.5,0.1,0.8c0,0.2,0,0.4,0,0.6c0.1,0.2,0.1,0.4,0.1,0.7c0,0,0,0,0,0c0,0,0,0,0,0c0,0.2,0,0.3,0,0.5
		c0.1,0.2,0.1,0.4,0.1,0.6c0.1,0.4,0.1,0.8,0.1,1.2c0.2,1.5,0.5,2.9,0.8,4.4c0.7,3.3,2,6.4,3.8,9.3c1.9,3.1,4.3,5.9,6.6,8.7
		c1.2,1.5,2.4,3,3.6,4.5c1.5,1.9,2.8,3.8,4.1,5.8c0.5,0.7,0.9,1.4,1,2.4c0.1,0.6,0.2,1.2,0.3,1.9c0.2,1.1,0.4,2.2,0.6,3.3
		c0.1,1,0.3,2.1,0.5,3.1c0.2,1.3,0.3,2.5,0.5,3.8c0.1,0.2,0.1,0.4,0.1,0.6c0,0.1,0,0.3,0,0.4c0.1,0.2,0.1,0.4,0.1,0.6
		c0,0.2,0,0.3,0,0.5c0.1,0.2,0.1,0.4,0.1,0.6c0,0.2,0,0.3,0,0.5c0.1,0.2,0.1,0.4,0.1,0.6c0,0.2,0,0.4,0,0.6c0.1,0.2,0.1,0.5,0.1,0.7
		c0,0.2,0,0.4,0,0.6c0.1,0.2,0.1,0.4,0.1,0.7c0,0.3,0,0.6,0,0.8c0.1,0.2,0.1,0.5,0.1,0.7c0,0,0,0,0,0c0,0.3,0,0.6,0,0.8c0,0,0,0,0,0
		c0.1,0.3,0.1,0.6,0.1,0.9c0,0.3,0,0.6,0,0.9c0.1,0.3,0.1,0.7,0.1,1c0,0.4,0,0.8,0,1.2c0.1,0.4,0.1,0.7,0.1,1.1c0,0,0,0,0,0
		c0,0,0,0,0,0c0,0.5,0,1,0,1.5c0.1,0.5,0.1,1,0.1,1.4c0,0.5,0.1,0.9,0,1.4c-0.1,0.6,0.1,0.6,0.6,0.6c24.9,0,49.8,0,74.6,0
		c0-0.1,0-0.2,0.1-0.3c0-0.1,0-0.2,0-0.3c0-0.5,0-0.9,0-1.4c0,0,0,0,0,0c0,0,0,0,0,0c0-0.5,0-1,0.1-1.4c0,0,0,0,0,0c0-0.5,0-1,0-1.5
		c0-0.4,0-0.8,0.1-1.1c0,0,0,0,0,0c0-0.4,0-0.8,0-1.2c0,0,0,0,0,0s0,0,0,0c0-0.3,0-0.7,0.1-1c0,0,0,0,0,0c0-0.3,0-0.6,0-0.9
		c0-0.3,0-0.6,0.1-0.9c0,0,0,0,0,0c0-0.3,0-0.6,0-0.8c0-0.3,0-0.5,0.1-0.8c0,0,0,0,0,0c0-0.2,0-0.5,0-0.7c0-0.2,0-0.5,0.1-0.7
		c0,0,0,0,0,0c0-0.2,0-0.4,0-0.6c0-0.2,0-0.5,0.1-0.7c0,0,0,0,0,0c0-0.2,0-0.4,0-0.6c0-0.2,0-0.4,0.1-0.6c0,0,0,0,0,0
		c0-0.2,0-0.3,0-0.5c0-0.2,0-0.4,0.1-0.6c0,0,0,0,0,0c0-0.2,0-0.3,0-0.5c0-0.2,0-0.4,0.1-0.6c0,0,0,0,0,0c0-0.1,0-0.3,0-0.4
		c0-0.2,0-0.4,0.1-0.6c0,0,0,0,0,0c0-1.1,0.2-2.2,0.4-3.3c0.4-2.6,0.8-5.2,1.3-7.7c0.2-1.3,0.4-2.6,1.3-3.6c0.3-0.4,0.6-0.8,0.8-1.2
		c2.1-3.1,4.4-6,6.7-8.9c1.9-2.3,3.8-4.6,5.5-7c1.9-2.8,3.4-5.8,4.4-9.1c0.7-2.4,1.1-5,1.5-7.5c0-0.2,0-0.4,0.1-0.6c0,0,0,0,0,0
		c0-0.2,0-0.3,0-0.5c0-0.2,0-0.5,0.1-0.7c0,0,0,0,0,0c0-0.2,0-0.4,0-0.6c0,0,0,0,0,0c0-0.3,0-0.6,0.1-0.9c0,0,0,0,0,0
		c0-0.4,0-0.7,0-1.1c0-0.5,0-1,0.1-1.4c0,0,0,0,0,0c0-0.6,0-1.2,0-1.8c0-0.3,0.1-0.4,0.4-0.5c3.3-1.1,6.4-2.8,9.3-4.8
		c3-2.1,5.7-4.4,8.2-7c1.8-1.8,3.6-3.7,5.3-5.7c1.7-2,3.3-4,4.9-6.1c3.2-4.2,6-8.6,9.3-12.7C199.7,87.9,200.3,86.4,199.9,84.6z
		 M152.4,89.1c0.7-1.7,1.3-3.5,2.2-5.1c1.5-2.7,3.5-4.9,6.5-6.1c2.3-0.9,4.7-1,7.1-0.7c1.8,0.2,3.6,0.7,5.3,1.2
		c0.2,0.1,0.4,0.2,0.6,0.3c0.8,0.7,1.6,1.4,2.5,2c0.4,0.3,0.4,0.4,0.1,0.8c-5.2,7-12,11.5-20.4,13.6c-2.8,0.7-5.6,1.2-8.5,1.6
		c0.3-0.4,0.6-0.7,0.9-1C150.4,93.9,151.4,91.5,152.4,89.1z M84.1,66.8c0-0.2-0.1-0.4-0.1-0.5c-0.1-0.4-0.2-0.7-0.7-0.6
		c-0.3,0-0.5-0.1-0.6-0.4c-0.5-0.8-1-1.6-1.5-2.4c-1.1-1.7-1.5-3.5-1-5.5c0.2-0.9,0.2-1.8,0.1-2.8c0-0.4-0.1-0.7,0-1.2
		c0.2,0.1,0.2,0.3,0.3,0.5c0.5,1.6,0.7,3.2,1,4.8c0.3,1.5,0.7,2.9,1.4,4.3c0.1,0.2,0.2,0.3,0.4,0.5c-0.1-1.2-0.1-2.4-0.3-3.5
		c-0.1-1.3-0.3-2.5-0.4-3.8c0-0.5,0.2-1,0.2-1.5c0.1-1.2,0.2-2.5,0.3-3.8c0.3,0.2,0.5,0.4,0.9,0.6c-0.2-2.8,0.2-5.5,1-8.4
		c0.4,0.5,0.8,0.9,1.2,1.5c0.1-0.5-0.1-0.9-0.1-1.2c-0.1-0.7-0.1-1.3,0-2c0.3-1.8,1.4-2.7,3.2-2.8c1.9-0.1,3.8,0.2,5.7,0.5
		c0.2,0,0.5,0,0.7-0.1c2.1-0.9,4.3-1,6.5-0.6c1.3,0.2,2.6,0.4,3.9,0.6c0.9,0.1,1.8-0.2,2.7-0.4c0.7-0.2,1.5-0.3,2.2-0.4
		c1-0.1,1.9,0.2,2.7,0.9c0.8,0.8,1.3,1.7,1.7,2.7c0.8,2.2,1.1,4.4,1.3,6.7c0.2,2.8,0.2,5.6,0.2,8.3c0,2.1,0.1,4.1,0.1,6.2
		c0,0.7-0.1,1.4-0.1,2.1c0.7-1.7,1.2-3.4,1.5-5.1c0.4-2,0.6-4,0.9-6.1c0-0.2,0-0.5,0.2-0.5c0.3,0,0.2,0.3,0.3,0.5c0,0,0,0.1,0,0.2
		c-0.3,1.6,0.1,3.2,0.2,4.9c0.1,1.3-0.2,2.5-0.9,3.6c-0.6,1-1.2,1.9-1.8,2.9c-0.2,0.3-0.4,0.4-0.7,0.3c-0.4,0-0.5,0.1-0.6,0.5
		c-0.4,1.6-0.6,3.3-0.7,4.9c-0.1,1.5-0.1,2.9-0.3,4.4c-0.2,1.2-0.7,2.3-1.7,3.1c-0.6,0.5-1.1,0.9-1.7,1.4c-1.5,1.1-2.9,2.4-4.1,3.9
		c-1.3,1.8-3,2.6-5.1,2.6c-2.1,0-4.2,0.2-6.3-0.2c-1.2-0.2-2.2-0.7-3-1.6c-1.7-2.1-3.6-4-5.8-5.5c-2-1.4-2.6-3.4-2.6-5.7
		C84.7,71.3,84.6,69.1,84.1,66.8z M33.5,77.1c4.8-0.2,8.6,1.7,11.4,5.6c1.5,2,2.5,4.2,3.2,6.5c0.8,2.7,2.1,5.1,4,7.2
		c0.1,0.1,0.2,0.3,0.5,0.5c-1.3-0.2-2.5-0.4-3.7-0.6c-4.1-0.7-8.1-1.8-11.9-3.5c-5.6-2.6-10.1-6.4-13.7-11.3
		c-0.2-0.3-0.2-0.4,0.1-0.6c0.9-0.7,1.8-1.4,2.7-2.2c0.1-0.1,0.2-0.2,0.3-0.2C28.7,77.8,31,77.2,33.5,77.1z M40,116.9
		c-5.3-1.9-10.6-4-15.4-7.1c-4.9-3.2-8.9-7.2-12.5-11.7c-1.5-1.8-2.9-3.7-4.3-5.8c4.3,0.4,8.4-0.1,12.5-1.4c0-0.1,0-0.1,0-0.2
		c-0.8,0-1.7,0-2.5,0c-3.3-0.1-6.5-0.3-9.7-1.1c-1.8-0.5-3.5-1.1-5-2.3C1.5,86.1,1.5,86,2,84.2c0.9-3,1.5-6.1,2.5-9
		c2.7-8.1,7-15.1,12.6-21.5c4.5-5,9.4-9.5,14.6-13.9c1.2-1,2.3-2,3.5-3c2.4-2.2,5.1-4,8.3-4.8c1.7-0.4,3.3-0.3,4.9,0.5
		c0.2,0.1,0.4,0.1,0.6,0c1.1-0.7,2.3-0.6,3.4,0.1c0.3,0.2,0.5,0.2,0.8,0c1.3-1,2.6-0.8,3.8,0.2c0.4,0.4,0.8,0.5,1.3,0.1
		c1-0.6,2.2-0.5,2.9,0.5c1.7,2.1,3.3,4.4,4.3,7c0.5,1.4,0.3,2.6-0.7,3.6c-1.1,1.1-2.1,2.2-3.1,3.3c-0.5,0.5-1,0.7-1.7,0.5
		c-0.6-0.2-0.8-0.6-0.6-1.2c0.3-0.8,0.7-1.5,1-2.3c0.1-0.3,0.2-0.6,0.4-0.9c0.5-1.2,0.5-2.3-0.2-3.4c-0.4-0.7-0.8-1.3-1.2-2
		c0.3,1.2,0.7,2.3,0.9,3.5c0.1,0.5,0.1,0.9-0.1,1.4c-0.5,1-0.9,2.1-1.5,3.1c-0.2,0.3-0.4,0.6-0.6,0.9c-0.6,0.8-1.3,0.9-2.4,0.6
		c-0.4-0.1-0.6-0.4-0.5-0.8c0.2-1,0.3-2,0.5-3c0.2-1.1,0-2.2-0.5-3.2c-0.5-1-1-2-1.5-2.9l0,0c0,0-0.1,0.1-0.1,0.1
		c0.3,2.3,0.7,4.5,0.7,6.8c0,0.6,0,1.2-0.1,1.8c-0.2,0.7-0.6,1.1-1.3,1.2c-1.3,0.1-2.3-0.3-2.6-1.9c-0.2-1.2-0.3-2.5-0.4-3.8
		c-0.1-1.2-0.3-2.5-0.7-3.7l0,0c0,0-0.1,0.1-0.1,0.1c0.2,1.7,0.3,3.3,0.2,5c0,0.8-0.2,1.6-0.5,2.3c-0.4,0.8-1,1.1-1.8,1
		c-0.7-0.1-1.2-0.6-1.3-1.5c-0.1-0.7,0-1.4-0.1-2.2c0-0.9-0.1-1.9-0.5-2.9c-0.1,0.5-0.3,1-0.4,1.4c-0.2,0.7-0.4,1.3-0.8,1.9
		c-0.3,0.4-0.6,0.8-1.1,0.8c-1,0.1-1.8,0.7-2.5,1.3c-1.4,1.3-2.4,2.9-3.3,4.6c-1.5,2.9-2.8,5.8-4.1,8.8c-2.4,5.4-5.1,10.6-8.6,15.3
		c-3.6,4.9-7.9,9-13,12.4c-0.1,0.1-0.2,0.2-0.4,0.3c0,0,0,0.1,0,0.1c1.4-0.2,2.8-0.6,4.1-1.1c1.8-0.7,3.5-1.5,5.2-2.5
		c0.3-0.2,0.4-0.2,0.7,0.1c6,8.6,14.3,13.8,24.5,15.9c3.3,0.7,6.7,0.9,10.1,0.4c0.4-0.1,0.3,0.1,0.3,0.3c0.2,3.6,0.6,7.2,1.3,10.7
		c0.3,1.5,0.6,2.9,0.9,4.3c0.1,0.3,0,0.4-0.3,0.5c-3.2,0.9-6.4,1.9-9.7,2.3C45.2,118.1,42.6,117.8,40,116.9z M77.4,198.8
		c-2.9,0-5.8,0-8.7,0c-0.3,0-0.4-0.1-0.4-0.4c-0.4-5.8-1.1-11.5-1.3-17.2c0-0.9,0-1.8,0-2.7c0-4.1,0.3-8.3,0.9-12.4
		c0.1-0.4-0.1-0.6-0.4-0.8c-3.3-2.8-6.4-5.7-9.4-8.9c-3.5-3.7-6.7-7.6-9.1-12.1c-1.4-2.7-2.5-5.4-2.7-8.4c-0.3-2.9,0.2-5.6,1.5-8.1
		c0.7-1.3,1.8-2.2,2.9-3.1c1.8-1.3,3.8-2.3,5.8-3.4c0.7-0.4,1.4-0.8,2.1-1.3c0.4-0.3,0.5-0.1,0.6,0.2c0.8,2.5,1.8,5,3.1,7.3
		c2.5,4.2,5.9,7.4,10.1,9.9c0.4,0.2,0.5,0.4,0.3,0.9c-1.3,3.6-2.5,7.2-3.1,11c-1.3,7.5,0.3,14.2,5.4,20c0.4,0.4,0.5,0.8,0.4,1.3
		c-0.6,2.9-0.8,5.8-0.6,8.7c0.2,2.8,0.8,5.5,2.2,7.9c0.1,0.3,0.2,0.5,0.2,0.8c0,2.4,0,4.7,0.1,7.1c0.1,1.1,0.2,2.2,0.4,3.3
		C77.8,198.7,77.8,198.8,77.4,198.8z M121.1,180.5c-1,3.4-3.4,5.5-6.8,6.4c-2.4,0.7-4.8,1-7.3,1.4c-0.6,0.1-1.2,0.2-1.7,0.4
		c2.9,0.5,5.8,1.1,8.7,1c1.8,0,3.6-0.3,5.3-0.8c0.3-0.1,0.4,0,0.4,0.3c-0.3,3.1-0.6,6.1-1.3,9.2c-0.1,0.3-0.2,0.4-0.4,0.3
		c-0.1,0-0.2,0-0.3,0c-11.8,0-23.6,0-35.4,0c-0.5,0-0.7-0.2-0.8-0.6c-0.5-2.6-0.8-5.1-1.1-7.7c0-0.4-0.1-0.8-0.1-1.1
		c-0.1-0.4,0-0.5,0.4-0.3c2.3,0.6,4.6,0.9,7,0.8c2.4-0.1,4.7-0.6,7-1.1c-1.4-0.3-2.9-0.5-4.3-0.8c-1.7-0.3-3.4-0.6-5-1.1
		c-3.7-1.1-5.9-3.5-6.7-7.2c-0.7-2.8-0.7-5.6-0.7-8.5c0-0.4,0.2-0.4,0.5-0.3c6,0.4,12,0.5,17.9,0.5c0,0,0.1,0,0.2-0.1
		c-1.5-0.5-2.9-0.9-4.4-1.3c-3.2-1-6.5-2-9.6-3.4c-2.6-1.2-5.1-2.7-6.9-4.9c-1.8-2.1-2.7-4.6-3.1-7.3c-0.5-4.3,0.3-8.4,1.5-12.5
		c0.3-0.9,0.6-1.9,0.9-2.8c0.1-0.4,0.2-0.4,0.6-0.3c4.7,2,9.6,2.8,14.7,2.7c2.4,0,4.8-0.3,7.1-0.7c0.1,0,0.2-0.1,0.4-0.1
		c-1.3-0.2-2.5-0.4-3.6-0.6c-5.1-0.9-10.1-2.3-14.8-4.8c-6.1-3.3-10.4-8.2-13.3-14.4c-2.1-4.4-3.3-9.1-4.2-13.9
		c-0.6-3.1-1-6.3-1.3-9.5c0-0.3-0.2-0.4-0.4-0.6c-1.2-0.7-2.6-1.3-3.9-1.8c-0.8-0.3-1.6-0.7-2.3-1.1c-1.8-1-3.1-2.5-4-4.4
		c-0.2-0.4-0.1-0.5,0.3-0.7c5.4-1.7,10.6-1.1,15.7,1.2c3.3,1.5,6.1,3.6,8.6,6.2c0.3,0.3,0.5,0.4,0.9,0.3c1.7-0.5,3.3-1,4.9-1.7
		c3-1.4,4.6-3.8,5.1-7c0.4-2.1,0.4-4.3,0.5-6.5c0-0.3,0-0.6,0-0.8c0.2-0.1,0.3,0.1,0.4,0.2c1.9,1.4,3.8,3,5.2,4.9
		c1.3,1.7,3.1,2.5,5.1,2.6c2.4,0.2,4.8,0.2,7.1-0.1c1.7-0.2,3.2-0.9,4.3-2.3c1.7-2.2,3.7-3.9,5.9-5.5c0.1,0,0.1-0.1,0.2-0.1
		c0,1.1,0,2.1,0,3.1c0,2,0.1,4,0.6,5.9c0.7,2.8,2.3,4.8,5.1,5.8c1.6,0.6,3.3,1,5,1.5c0.3,0.1,0.4-0.1,0.6-0.3
		c1.7-1.8,3.6-3.4,5.7-4.7c4.3-2.7,8.9-4,13.9-3.7c1.6,0.1,3.3,0.4,4.8,0.8c0.3,0.1,0.3,0.2,0.2,0.4c-1.3,2.4-3.1,4.3-5.6,5.5
		c-1.5,0.7-3.1,1.4-4.5,2.2c-0.3,0.2-0.5,0.4-0.5,0.8c-0.8,7.3-1.9,14.6-4.8,21.5c-2.2,5.3-5.3,9.9-9.9,13.4
		c-3.7,2.8-7.9,4.7-12.4,6c-3.3,1-6.7,1.6-10,2.1c0.7,0.3,1.5,0.3,2.2,0.4c3.3,0.5,6.7,0.6,10.1,0.2c3.4-0.4,6.6-1.1,9.7-2.5
		c0.4-0.2,0.6-0.1,0.7,0.3c1,3.1,1.9,6.2,2.2,9.5c0.3,2.6,0.3,5.2-0.3,7.7c-0.9,3.6-3.1,6.3-6.2,8.3c-2.9,1.8-6,3-9.2,4
		c-2.5,0.8-5.1,1.6-7.6,2.4c-0.2,0.1-0.3,0.1-0.5,0.2c3.9,0.1,7.7,0,11.6-0.1c2.2-0.1,4.4-0.2,6.6-0.3c0.2,0,0.4,0,0.4,0.3
		C122,174.3,122,177.4,121.1,180.5z M151.9,142.5c-1.8,4-4.4,7.5-7.2,10.8c-3.7,4.3-7.7,8.1-12,11.8c-0.5,0.4-0.6,0.8-0.5,1.4
		c0.7,4.5,0.9,9.1,0.8,13.6c-0.1,3.7-0.4,7.3-0.7,11c-0.2,2.4-0.4,4.8-0.6,7.1c0,0.4-0.1,0.6-0.6,0.6c-1.4,0-2.9,0-4.3,0
		c-1.4,0-2.9,0-4.3,0c-0.3,0-0.4,0-0.3-0.4c0.5-2.5,0.5-5.1,0.5-7.6c0-0.1,0-0.1,0-0.2c-0.1-1.8,0.2-3.5,1-5.3
		c1.4-3.1,1.6-6.4,1.5-9.7c-0.1-1.8-0.3-3.7-0.7-5.5c-0.1-0.4,0.1-0.6,0.3-0.8c1.8-2.1,3.3-4.4,4.4-6.9c1.4-3.4,1.8-7,1.5-10.7
		c-0.4-4.7-1.8-9.2-3.5-13.5c-0.2-0.5-0.1-0.6,0.3-0.9c6.3-3.6,10.5-8.8,12.8-15.7c0.2-0.5,0.4-1.1,0.5-1.6c0.1-0.3,0.2-0.3,0.4-0.1
		c2.3,1.5,4.8,2.8,7.1,4.2c0.8,0.5,1.5,1,2.2,1.7c1.8,1.6,2.5,3.7,3,5.9C154.3,135.5,153.4,139.1,151.9,142.5z M197.6,86.8
		c-1.4,1.3-3.1,2.1-4.9,2.6c-2.4,0.7-4.9,1-7.5,1.2c-1.9,0.1-3.7,0.2-5.6,0.2c2,0.7,4,1.2,6.1,1.4c2.1,0.3,4.2,0.3,6.3,0.1
		c0,0.1,0,0.1,0,0.2c-3.1,4.4-6.5,8.6-10.4,12.3c-4.2,3.9-8.9,6.9-14.2,9.1c-2.7,1.1-5.5,2.4-8.3,3.2c-3.5,1-7,0.9-10.5,0
		c-2-0.5-4-1.1-6-1.7c-0.3-0.1-0.4-0.2-0.4-0.6c1.2-4.9,1.9-9.9,2.2-14.9c0-0.4,0.1-0.4,0.5-0.4c6.2,0.8,12.1-0.4,17.8-2.8
		c6.8-2.9,12.5-7.3,16.7-13.5c0.2-0.3,0.4-0.2,0.6-0.1c2.6,1.5,5.4,2.8,8.4,3.5c0.3,0.1,0.6,0.1,1,0.1c-0.7-0.5-1.5-1-2.2-1.6
		c-6.5-4.8-11.6-10.9-15.6-17.9c-2.4-4.2-4.3-8.7-6.3-13.1c-1-2.2-2-4.4-3.4-6.5c-0.8-1.1-1.6-2.1-2.7-2.9c-0.4-0.3-0.9-0.6-1.4-0.6
		c-0.8-0.1-1.3-0.6-1.7-1.3c-0.4-0.9-0.7-1.9-0.9-2.9c-0.4,0.9-0.5,1.7-0.5,2.6c0,0.9,0.1,1.7-0.1,2.6c-0.1,0.8-0.5,1.2-1.2,1.3
		c-0.8,0.1-1.4-0.1-1.8-0.8c-0.5-0.8-0.6-1.6-0.7-2.5c-0.1-1.7,0-3.4,0.2-5.1c0,0,0,0,0,0c0,0,0,0,0,0c0,0-0.1-0.1-0.1-0.1v0l0,0
		c-0.6,1.9-0.7,3.9-0.9,5.8c-0.1,0.7-0.1,1.4-0.3,2c-0.4,1.2-1.9,1.9-3.1,1.3c-0.4-0.2-0.7-0.6-0.7-1c-0.2-1.2-0.1-2.4,0-3.7
		c0.1-1.7,0.4-3.3,0.6-5c0,0,0,0,0,0c0,0,0,0,0,0c0,0-0.1-0.1-0.1-0.1l0,0c-0.3,0.7-0.6,1.4-1,2c-1.1,1.7-1.2,3.6-0.8,5.5
		c0.1,0.5,0.2,1.1,0.3,1.7c0.1,0.5-0.2,0.7-0.6,0.8c-0.9,0.2-1.7,0.2-2.4-0.7c-0.7-1-1.2-2.1-1.7-3.1c-0.6-1.1-0.6-2.2-0.2-3.3
		c0.3-0.8,0.5-1.6,0.6-2.4c-0.7,1.1-1.4,2.1-1.7,3.4c-0.1,0.5,0,0.9,0.1,1.4c0.4,1,0.8,2,1.3,3c0.1,0.1,0.1,0.2,0.2,0.3
		c0.3,0.8,0.3,1.2-0.2,1.5c-0.6,0.4-1.4,0.3-1.9-0.2c-1-1.1-2.1-2.2-3.1-3.3c-1.1-1.1-1.3-2.3-0.8-3.8c0.8-2.1,2-3.9,3.3-5.7
		c0.3-0.4,0.5-0.7,0.8-1.1c0.9-1.1,2.1-1.3,3.3-0.5c0.4,0.2,0.6,0.2,0.9-0.1c0.1-0.1,0.3-0.2,0.4-0.3c1.1-0.9,2.3-1,3.5-0.2
		c0.3,0.2,0.6,0.2,0.9,0c1.1-0.7,2.2-0.7,3.3-0.1c0.2,0.1,0.3,0.2,0.5,0.1c2.3-1.2,4.7-0.9,6.9,0.1c2.5,1.1,4.7,2.6,6.7,4.5
		c2,1.9,4.1,3.6,6.2,5.4c5.5,4.8,10.7,9.8,15.1,15.6c5.2,6.9,8.7,14.6,10.7,23c0.3,1.2,0.6,2.5,1,3.7
		C198.4,85.6,198.2,86.2,197.6,86.8z"/>
	<path class="st0" d="M84.3,80.8c0-0.3,0-0.7,0-1c-0.1,0.1-0.1,0.2-0.1,0.4c0,1.3,0,2.5,0,3.8c0,0,0,0,0,0
		C84.3,82.9,84.2,81.9,84.3,80.8z"/>
	<path class="st0" d="M116,83.9c0-1.2,0-2.4,0-3.5c0,0,0,0,0,0C115.9,81.5,115.9,82.7,116,83.9z"/>
	<path class="st0" d="M94,21.2c-0.6,0-1.3,0-1.9,0c0,0,0,0,0,0C92.7,21.3,93.4,21.3,94,21.2z"/>
	<path class="st0" d="M48.4,48.9c0.6,0.2,1.2,0,1.9,0.1c0,0,0,0,0,0C49.7,48.9,49,49,48.4,48.9z"/>
	<path class="st0" d="M149.7,49c0.6,0,1.2,0.1,1.8-0.1C151,49,150.4,48.9,149.7,49z"/>
	<path class="st0" d="M121.6,41.5c0.1-0.6,0.1-1.2,0-1.7C121.6,40.4,121.6,40.9,121.6,41.5z"/>
	<path class="st0" d="M79.2,42.4c-0.2,0.6-0.1,1.2-0.1,1.8c0,0,0,0,0,0C79.2,43.6,79.1,43,79.2,42.4z"/>
	<path class="st0" d="M146.2,49.3c0.5,0.1,1.1,0.1,1.6,0C147.3,49.4,146.7,49.4,146.2,49.3z"/>
	<path class="st0" d="M52.2,49.3c0.5,0.1,1.1,0.1,1.6,0C53.3,49.4,52.7,49.4,52.2,49.3z"/>
	<path class="st0" d="M119.6,32.8C119.6,32.8,119.6,32.8,119.6,32.8C119.6,32.9,119.7,32.9,119.6,32.8
		C119.6,32.9,119.6,32.9,119.6,32.8C119.6,32.8,119.5,32.9,119.6,32.8z"/>
	<path class="st0" d="M119.8,33.5c0-0.1,0-0.2,0.1-0.2c-0.1-0.1-0.2-0.2-0.2-0.3C119.8,33.2,119.8,33.3,119.8,33.5z"/>
	<path class="st0" d="M161.2,129.1c0.2-0.5,0.1-1,0.1-1.4c0,0,0,0,0,0C161.1,128.1,161.3,128.6,161.2,129.1z"/>
	<path class="st0" d="M38.8,127.7c0,0.5-0.1,1,0.1,1.4C38.7,128.7,38.9,128.2,38.8,127.7z"/>
	<path class="st0" d="M137.7,198.5c0.2-0.5,0.1-1,0.1-1.4c0,0,0,0,0,0C137.7,197.6,137.8,198,137.7,198.5z"/>
	<path class="st0" d="M62.2,197.1c0,0.5-0.1,1,0.1,1.4C62.2,198,62.3,197.6,62.2,197.1z"/>
	<path class="st0" d="M79.2,49c0-0.1,0-0.1,0-0.2c0,0.4-0.1,0.9,0.1,1.3v0l0,0C79.1,49.8,79.2,49.4,79.2,49z"/>
	<path class="st0" d="M59.9,30.9c-0.4-0.1-0.8-0.1-1.2,0C59.1,30.8,59.5,30.8,59.9,30.9z"/>
	<path class="st0" d="M141.3,30.9c-0.4-0.1-0.8-0.1-1.2,0C140.5,30.8,140.9,30.8,141.3,30.9z"/>
	<path class="st0" d="M145.6,30.2c-0.4-0.1-0.7-0.1-1.1,0C144.9,30.2,145.3,30.2,145.6,30.2z"/>
	<path class="st0" d="M62.1,194.5c0,0.4-0.1,0.8,0.1,1.1C62.1,195.2,62.2,194.8,62.1,194.5z"/>
	<path class="st0" d="M82.9,71.4c0,0.4-0.1,0.8,0.1,1.1C82.9,72.2,83,71.8,82.9,71.4z"/>
	<path class="st0" d="M117,72.5c0.2-0.4,0.1-0.7,0.1-1.1c0,0,0,0,0,0C117,71.8,117.1,72.2,117,72.5z"/>
	<path class="st0" d="M55.5,30.2c-0.4-0.2-0.7-0.1-1.1,0C54.7,30.2,55.1,30.2,55.5,30.2z"/>
	<path class="st0" d="M137.8,195.6c0.2-0.4,0.1-0.7,0.1-1.1c0,0,0,0,0,0C137.8,194.8,137.9,195.2,137.8,195.6z"/>
	<path class="st0" d="M137.9,193.3c0.2-0.3,0.1-0.7,0.1-1c0,0,0,0,0,0C137.9,192.6,138,193,137.9,193.3z"/>
	<path class="st0" d="M79.3,40.2c-0.2,0.3-0.1,0.7-0.1,1c0,0,0,0,0,0C79.3,40.9,79.2,40.5,79.3,40.2z"/>
	<path class="st0" d="M121.1,36.1c0,0.2,0.1,0.4,0.1,0.6h0c0,0,0.1-0.1,0.1-0.1c0,0,0,0,0,0c0,0,0,0,0,0c0-0.2,0.1-0.4-0.1-0.5
		C121.2,36.1,121.1,36.1,121.1,36.1z"/>
	<path class="st0" d="M116,78.9c0.2-0.3,0.1-0.7,0.1-1c0,0,0,0,0,0.1C116,78.3,116.1,78.6,116,78.9z"/>
	<path class="st0" d="M62,192.3c0,0.3-0.1,0.7,0.1,1C62,193,62.1,192.6,62,192.3z"/>
	<path class="st0" d="M115.7,26.4c-0.1-0.1-0.3-0.1-0.3-0.2C115.3,26.5,115.6,26.3,115.7,26.4z"/>
	<path class="st0" d="M116.9,26.3c-0.3,0-0.6-0.1-0.9,0.1C116.3,26.3,116.6,26.4,116.9,26.3z"/>
	<path class="st0" d="M138.1,191.4c0.2-0.3,0.1-0.6,0.1-0.9c0,0,0,0,0,0C138,190.8,138.1,191.1,138.1,191.4z"/>
	<path class="st0" d="M61.9,190.5C61.9,190.5,61.9,190.5,61.9,190.5c0,0.3-0.1,0.6,0.1,0.9C61.9,191.1,62,190.8,61.9,190.5z"/>
	<path class="st0" d="M165.1,75.4c-0.3,0-0.6-0.1-0.9,0.1C164.5,75.4,164.8,75.5,165.1,75.4z"/>
	<path class="st0" d="M167.4,75.5c-0.3-0.2-0.6-0.1-0.9-0.1c0,0,0,0,0,0C166.8,75.5,167.1,75.4,167.4,75.5z"/>
	<path class="st0" d="M161.1,131C161.1,131,161.1,131,161.1,131c0.2-0.3,0.1-0.6,0.1-0.9c0,0,0,0,0,0
		C161,130.4,161.2,130.7,161.1,131z"/>
	<path class="st0" d="M33.5,75.4c-0.3,0-0.6-0.1-0.9,0.1h0l0,0C32.9,75.4,33.2,75.5,33.5,75.4z"/>
	<path class="st0" d="M116.1,86C116.1,86,116.1,86,116.1,86c0-0.3,0.1-0.6-0.1-0.9C116.1,85.4,116,85.7,116.1,86z"/>
	<path class="st0" d="M35.8,75.5c-0.3-0.2-0.6-0.1-0.9-0.1c0,0,0,0,0,0C35.2,75.5,35.5,75.4,35.8,75.5z"/>
	<path class="st0" d="M117.9,26.4c0.1,0,0.2,0,0.3-0.2c-0.2,0-0.4,0-0.6,0.1C117.8,26.3,117.9,26.2,117.9,26.4z"/>
	<path class="st0" d="M83,73.7c0,0.3-0.1,0.5,0.1,0.8C83,74.2,83.1,74,83,73.7z"/>
	<path class="st0" d="M116.9,74.5c0.2-0.2,0.1-0.5,0.1-0.8c0,0,0,0,0,0C116.9,74,117,74.2,116.9,74.5z"/>
	<path class="st0" d="M78.5,54.3c0,0.3-0.1,0.5,0.1,0.8C78.5,54.8,78.6,54.5,78.5,54.3z"/>
	<path class="st0" d="M136.5,49.3c-0.1,0.3-0.1,0.5,0,0.8C136.4,49.8,136.4,49.6,136.5,49.3z"/>
	<path class="st0" d="M121.5,55.1c0.2-0.3,0.1-0.5,0.1-0.8c0,0,0,0,0,0C121.4,54.5,121.5,54.8,121.5,55.1z"/>
	<path class="st0" d="M38.9,130.2c0,0.3-0.1,0.5,0.1,0.8C38.9,130.8,39,130.5,38.9,130.2z"/>
	<path class="st0" d="M138.2,189.6c0.2-0.2,0.1-0.5,0.1-0.8c0,0,0,0,0,0C138.1,189.1,138.3,189.4,138.2,189.6z"/>
	<path class="st0" d="M77,35.7c-0.1,0.1-0.2,0.2-0.1,0.4c0.2-0.1,0.2-0.2,0.3-0.3C77.1,35.8,77,35.8,77,35.7z"/>
	<path class="st0" d="M121.2,36.7L121.2,36.7c0,0.1,0.1,0.2,0.2,0.4c0.1-0.2,0.1-0.4,0-0.5C121.3,36.7,121.3,36.8,121.2,36.7z"/>
	<path class="st0" d="M79.4,38.7c-0.2,0.2-0.1,0.5-0.1,0.7c0,0,0,0,0,0C79.4,39.2,79.3,38.9,79.4,38.7z"/>
	<path class="st0" d="M117.1,70.6c0.2-0.2,0.1-0.5,0.1-0.7c0,0,0,0,0,0C117.1,70.1,117.2,70.4,117.1,70.6z"/>
	<path class="st0" d="M78.3,59.7c0,0.2-0.1,0.5,0.1,0.7C78.2,60.2,78.4,59.9,78.3,59.7z"/>
	<path class="st0" d="M82.8,69.9c0,0.2-0.1,0.5,0.1,0.7C82.8,70.4,82.9,70.1,82.8,69.9z"/>
	<path class="st0" d="M121.8,58.7c0-0.2,0.1-0.5-0.1-0.7C121.8,58.2,121.6,58.5,121.8,58.7z"/>
	<path class="st0" d="M84.2,84.9c-0.2,0.2-0.1,0.4-0.1,0.7c0,0,0,0,0,0C84.2,85.4,84.1,85.1,84.2,84.9z"/>
	<path class="st0" d="M54.8,86.1c-0.2,0-0.5-0.1-0.7,0.1C54.4,86.1,54.6,86.2,54.8,86.1z"/>
	<path class="st0" d="M58.5,86.2c-0.2-0.2-0.5-0.1-0.7-0.1c0,0,0,0,0,0C58,86.2,58.3,86.1,58.5,86.2z"/>
	<path class="st0" d="M142.2,86.1c-0.2,0-0.5-0.1-0.7,0.1C141.7,86.1,142,86.2,142.2,86.1z"/>
	<path class="st0" d="M145.8,86.2c-0.2-0.2-0.5-0.1-0.7-0.1c0,0,0,0,0,0C145.4,86.2,145.6,86.1,145.8,86.2z"/>
	<path class="st0" d="M121.4,56.4c0-0.2,0-0.5,0-0.7c0,0,0,0,0,0C121.4,55.9,121.4,56.2,121.4,56.4z"/>
	<path class="st0" d="M78.6,55.7c0,0.2,0,0.5,0,0.7c0,0,0,0,0,0C78.7,56.2,78.7,55.9,78.6,55.7z"/>
	<path class="st0" d="M39,131.7c0,0.2-0.1,0.5,0.1,0.7C39,132.1,39.1,131.9,39,131.7z"/>
	<path class="st0" d="M161,132.3c0.2-0.2,0.1-0.4,0.1-0.7c0,0,0,0,0,0C160.9,131.9,161,132.1,161,132.3z"/>
	<path class="st0" d="M138.3,188.1c0.2-0.2,0.1-0.5,0.1-0.7c0,0,0,0,0,0C138.2,187.6,138.4,187.9,138.3,188.1z"/>
	<path class="st0" d="M61.5,186.1c0,0.2-0.1,0.5,0.1,0.7C61.5,186.6,61.7,186.3,61.5,186.1z"/>
	<path class="st0" d="M138.4,186.8c0.2-0.2,0.1-0.5,0.1-0.7c0,0,0,0,0,0C138.4,186.3,138.5,186.6,138.4,186.8z"/>
	<path class="st0" d="M61.7,187.4c0,0.2-0.1,0.5,0.1,0.7C61.7,187.9,61.8,187.6,61.7,187.4z"/>
	<path class="st0" d="M61.8,188.9c0,0.2-0.1,0.5,0.1,0.7c0,0,0,0,0,0C61.8,189.4,61.9,189.2,61.8,188.9z"/>
	<path class="st0" d="M116,25.2C116,25.2,116,25.2,116,25.2c0.1-0.2,0.1-0.4,0-0.6C116.1,24.8,116.1,25,116,25.2z"/>
	<path class="st0" d="M113.8,24.8c-0.2-0.2-0.5-0.1-0.7-0.1c0,0,0,0,0,0C113.4,24.8,113.6,24.7,113.8,24.8z"/>
	<path class="st0" d="M97.7,18.3c-0.1-0.1-0.2-0.2-0.2-0.1c-0.1,0.1,0,0.2,0.1,0.3v0l0,0C97.5,18.4,97.5,18.3,97.7,18.3z"/>
	<path class="st0" d="M79.5,37.5c-0.2,0.2-0.1,0.4-0.1,0.6c0,0,0,0,0,0C79.5,37.9,79.5,37.7,79.5,37.5z"/>
	<path class="st0" d="M121.2,35.4c0-0.2,0.1-0.4-0.1-0.6v0l0,0C121.2,35,121.1,35.2,121.2,35.4z"/>
	<path class="st0" d="M78.3,58c-0.2,0.2-0.1,0.4-0.1,0.6c0,0,0,0,0,0C78.4,58.4,78.3,58.2,78.3,58z"/>
	<path class="st0" d="M39.1,132.9c0,0.2-0.1,0.4,0.1,0.6C39.1,133.2,39.2,133,39.1,132.9z"/>
	<path class="st0" d="M117.2,69.4c0.2-0.2,0.1-0.4,0.1-0.6c0,0,0,0,0,0C117.2,69,117.3,69.2,117.2,69.4z"/>
	<path class="st0" d="M61.1,181.8c0,0.2-0.1,0.4,0.1,0.6C61.1,182.2,61.2,182,61.1,181.8z"/>
	<path class="st0" d="M138.8,182.4c0.2-0.2,0.1-0.4,0.1-0.6c0,0,0,0,0,0C138.8,182,138.9,182.2,138.8,182.4z"/>
	<path class="st0" d="M61.2,182.8c0,0.2-0.1,0.4,0.1,0.6C61.2,183.2,61.3,182.9,61.2,182.8z"/>
	<path class="st0" d="M138.7,183.3c0.2-0.2,0.1-0.4,0.1-0.6c0,0,0,0,0,0C138.7,182.9,138.8,183.2,138.7,183.3z"/>
	<path class="st0" d="M61.3,183.8c0,0.2-0.1,0.4,0.1,0.6C61.3,184.2,61.4,184,61.3,183.8z"/>
	<path class="st0" d="M138.6,184.4c0.2-0.2,0.1-0.4,0.1-0.6c0,0,0,0,0,0C138.6,184,138.7,184.2,138.6,184.4z"/>
	<path class="st0" d="M61.4,184.9c0,0.2-0.1,0.4,0.1,0.6C61.4,185.3,61.5,185.1,61.4,184.9z"/>
	<path class="st0" d="M138.5,185.5c0.2-0.2,0.1-0.4,0.1-0.6c0,0,0,0,0,0C138.5,185.1,138.6,185.3,138.5,185.5z"/>
	<path class="st0" d="M116.2,87.1c0-0.2,0.1-0.4-0.1-0.6c0,0,0,0,0,0C116.2,86.7,116.1,86.9,116.2,87.1z"/>
	<path class="st0" d="M120.8,52.1c0-0.2,0-0.4,0-0.6c0,0,0,0,0,0C120.7,51.7,120.7,51.9,120.8,52.1z"/>
	<path class="st0" d="M160.8,133.4c0.2-0.2,0.1-0.4,0.1-0.6c0,0,0,0,0,0C160.8,133,160.9,133.2,160.8,133.4z"/>
	<path class="st0" d="M140.1,53.1c0.2,0,0.4,0.1,0.6-0.1C140.5,53.1,140.2,53,140.1,53.1z"/>
	<path class="st0" d="M121.1,34.4c0-0.2,0.1-0.4-0.1-0.6v0l0,0C121.1,34,121,34.2,121.1,34.4z"/>
	<path class="st0" d="M121.7,60.3c0.2-0.2,0.1-0.4,0.1-0.6c0,0,0,0,0,0C121.7,59.9,121.7,60.1,121.7,60.3z"/>
	<path class="st0" d="M155.1,30c-0.2-0.1-0.4-0.1-0.5,0C154.7,29.9,154.9,29.9,155.1,30z"/>
	<path class="st0" d="M45.5,30c-0.2-0.1-0.4-0.1-0.5,0C45.1,29.9,45.3,29.9,45.5,30z"/>
	<path class="st0" d="M114.5,24.7c-0.2,0-0.4-0.1-0.5,0.1C114.1,24.7,114.3,24.8,114.5,24.7z"/>
	<path class="st0" d="M115.8,23.6c0-0.1,0-0.2-0.1-0.2c-0.1,0-0.1,0.2-0.1,0.3c0,0,0,0,0,0C115.6,23.7,115.7,23.5,115.8,23.6z"/>
	<path class="st0" d="M96.5,20.8c-0.1,0-0.2,0.1-0.2,0.1C96.3,20.9,96.5,21,96.5,20.8z"/>
	<path class="st0" d="M79.2,50.9c0,0.2-0.1,0.4,0.1,0.6C79.2,51.3,79.3,51.1,79.2,50.9z"/>
	<path class="st0" d="M121.1,49.1c0.1-0.2,0.1-0.4,0-0.5C121.2,48.8,121.2,48.9,121.1,49.1z"/>
	<path class="st0" d="M120.8,46.8c0-0.2,0-0.4,0-0.6c0,0,0,0,0,0C120.7,46.4,120.7,46.6,120.8,46.8z"/>
	<path class="st0" d="M137.6,200.5c0.2-0.2,0.1-0.4,0.1-0.6c0,0.1,0,0.2,0,0.3C137.7,200.3,137.7,200.4,137.6,200.5z"/>
	<path class="st0" d="M48.8,37.6c-0.1,0.3-0.1,0.4,0.1,0.6c0-0.1,0-0.2,0-0.3c0,0.1,0.1,0.2,0.1,0.2h0
		C48.9,37.9,48.9,37.8,48.8,37.6z"/>
	<path class="st0" d="M151.2,37.6c-0.1,0.2-0.1,0.3-0.1,0.4c0.1,0,0.1-0.1,0.1-0.2c0,0.1,0,0.2,0,0.3
		C151.3,38,151.3,37.9,151.2,37.6z"/>
	<path class="st0" d="M146.6,37.1c0,0.1-0.1,0.2-0.1,0.3h0c0,0,0.1-0.1,0.1-0.1c0.1,0.1,0,0.1,0,0.2
		C146.7,37.4,146.8,37.3,146.6,37.1z"/>
	<path class="st0" d="M53.3,37.1c-0.1,0.2,0,0.3,0.1,0.4c0-0.1,0-0.1,0-0.2c0,0,0.1,0.1,0.1,0.1h0C53.5,37.3,53.4,37.2,53.3,37.1z"
		/>
	<path class="st0" d="M86.5,102.6c-1.8,1-3.6,1.1-5.5,0.4c-1.4-0.5-2.7-1.1-4-1.6c-2.8-1.1-5.6-1.7-8.7-1.6c0.2,0.1,0.3,0.1,0.4,0.2
		c2.3,0.6,4.5,1.5,6.7,2.5c1.9,0.9,3.9,1.9,5.9,2.5c2.1,0.7,4.1,0.5,5.9-0.9c1.9-1.6,3.3-3.6,4.8-5.5c-0.2,0.1-0.3,0.1-0.4,0.2
		C89.9,100.3,88.3,101.6,86.5,102.6z"/>
	<path class="st0" d="M112.7,104.2c1.3,1.1,2.7,1.5,4.4,1.4c1-0.1,1.9-0.4,2.9-0.8c3.9-1.6,7.6-3.7,11.8-4.8c-1.8-0.1-3.5,0-5.3,0.4
		c-2.1,0.5-4,1.4-5.9,2.1c-1.1,0.4-2.1,0.8-3.3,0.9c-1.8,0.1-3.4-0.5-4.8-1.5c-1.4-0.9-2.6-1.9-3.9-3c-0.1-0.1-0.2-0.2-0.4-0.1
		c0.2,0.3,0.4,0.5,0.6,0.8C110,101.2,111.2,102.9,112.7,104.2z"/>
	<path class="st0" d="M109.5,66c-0.3-0.1-0.8-0.5-0.9,0.3c0,0-0.2,0.1-0.2,0.1c-0.7,0.1-1.4,0.3-2.1,0.4c-2.7,0.3-5.5,0.6-8.3,0.7
		c-1.6,0.1-3.2,0.2-4.9,0c-1.3-0.2-2.5-0.3-3.8-0.5c0.1,0.3,0.3,0.4,0.5,0.6c0.4,0.4,0.8,0.9,1.1,1.4c0.5,1,1,1.9,1.4,2.9
		c0.8,1.6,2,3,3.6,4c3.4,1.9,6.7,1.5,9.9-0.4c0.9-0.5,1.5-1.2,2-2.2c0.7-1.5,1.6-2.8,2-4.4c0-0.1,0.1-0.3,0.2-0.4
		c0.2-0.4,0.5-0.5,0.9-0.3c0.1,0.1,0.3,0.2,0.4,0.1c0.1-0.1,0-0.3,0-0.4C111.2,66.7,110.4,66.3,109.5,66z"/>
	<path class="st0" d="M85.7,51.6c1.7-1.5,3.7-1.5,5.8-0.9c1.1,0.3,2.1,0.7,3.1,1.2c0.4,0.2,0.8,0.3,1.2-0.1c0.5-0.5,0.4-1.7-0.1-2.1
		c-1.6-1.2-3.4-1.7-5-1.9c-2.6,0-4.4,1.1-5.2,3.2c-0.1,0.1-0.1,0.3-0.1,0.4c0,0.1,0,0.2,0.1,0.3C85.6,51.8,85.7,51.6,85.7,51.6z"/>
	<path class="st0" d="M105.4,51.4c0.9-0.4,1.8-0.7,2.8-1c2.1-0.6,4.2-0.7,6.1,0.7c0.1,0.1,0.2,0.2,0.3,0c0.1-0.1,0.1-0.3,0-0.5
		c-0.5-1.1-1.2-1.9-2.3-2.4c-2.7-1.1-5.2-0.5-7.7,0.7c-0.5,0.3-0.9,0.6-0.7,1.2C103.9,51.9,104.1,52,105.4,51.4z"/>
	<path class="st0" d="M90.2,54.9c-0.3,0-0.6,0-1,0c0.1,0.1,0.2,0.2,0.2,0.2c0.1,0,0.3,0,0.4,0.1c1.4,0.1,2.8,0.3,4,1.2
		c0.4,0.3,0.9,0.2,1.4-0.3c-0.7-0.1-0.7-0.6-0.8-1.1c-0.1-0.5-0.2-1-0.6-1.4c-0.1-0.1-0.3-0.3-0.3-0.1c-0.2,0.6-0.5,0.2-0.7,0.1
		c-0.8-0.4-1.5-0.7-2.4-0.7c-1.6,0-3,0.7-4.3,1.5c-0.1,0.1-0.2,0.2-0.3,0.3c-0.1,0.1-0.2,0.2-0.1,0.3c0.1,0.1,0.2,0.1,0.3,0
		c0.1,0,0.2-0.1,0.3-0.1c1.8-0.6,3.6-0.7,5.4,0c0.1,0,0.2,0.1,0.3,0.1c-0.4,0.1-0.6,0.1-0.9,0c0,0,0,0,0,0
		C90.8,54.9,90.5,54.9,90.2,54.9z"/>
	<path class="st0" d="M113.6,54.3C113.6,54.3,113.5,54.3,113.6,54.3c-2.2-1.1-4.3-2-6.7-0.5c-0.1,0.1-0.3,0.2-0.3,0.1
		c-0.4-0.6-0.5,0-0.7,0.2c-0.2,0.3-0.3,0.7-0.4,1c-0.1,0.4-0.3,0.8-0.8,1c0.6,0.5,1,0.5,1.5,0.2c0.9-0.6,2-0.9,3.1-1
		c0.4,0,0.8-0.1,1.2-0.1c0,0,0-0.1,0-0.1c-0.8,0-1.6,0-2.4,0c0,0,0-0.1,0-0.1c0.2-0.1,0.5-0.2,0.7-0.2c1.5-0.4,3.1-0.3,4.6,0.2
		c0.2,0.1,0.5,0.3,0.6,0.1C114.1,54.6,113.7,54.5,113.6,54.3z"/>
	<path class="st0" d="M97.9,63.4c0.5,0.1,0.7,0.5,1,0.8c0.4,0.5,0.8,1.1,1.4,1.4c0.9,0.4,1.6,0.3,2.2-0.3c0.6-0.7,0.9-1.5,1.3-2.3
		c-0.4,0.1-0.6,0.1-0.9,0.2c-1.4,0.3-2.8,0.6-4.2,0.2c-0.4-0.1-0.5-0.2-0.5-0.6c0.1-0.5,0.1-1,0.1-1.5l0,0h0c0-0.2,0-0.4,0-0.5
		c0,0,0,0,0,0l0,0c0.2-0.5,0-1,0.2-1.4v0c0,0,0,0,0,0l0,0c0-0.4-0.1-0.7,0.1-1.1h0c0-0.3-0.1-0.5,0.1-0.8c0,0,0,0,0,0c0,0,0,0,0,0
		c0,0,0,0,0,0c-0.1-0.5,0.1-1.1,0.1-1.6c0,0,0,0,0,0c0,0,0,0,0,0c0-0.1-0.1-0.1-0.1-0.2c0,0.2-0.1,0.4-0.1,0.6
		c-0.4,2.2-0.7,4.4-1.1,6.6C97.5,63.2,97.6,63.4,97.9,63.4z"/>
	<path class="st0" d="M99,56.4c0,0.1,0,0.2,0,0.3c0,0.3-0.1,0.5-0.1,0.8c0,0,0,0,0,0c0,0,0,0,0,0c0,0,0,0,0,0c0,0.1,0,0.3,0,0.4
		c0,0.1,0,0.2,0,0.4c-0.1,0.3-0.1,0.7-0.1,1c0,0.1,0,0.1,0,0.2c-0.1,0.5-0.1,0.9-0.1,1.4c0,0.1,0,0.3-0.1,0.4c0,0,0,0.1,0,0.1h0v0
		c0,0.5,0,1,0.1,1.5c0.1,0.5,0.5,0.4,0.9,0.4c0.4,0,0.3-0.3,0.3-0.6c-0.1-2-0.3-4-0.3-6c0-0.5,0-1.1,0-1.6c-0.1,0-0.1,0-0.2,0
		c0,0.3-0.1,0.5-0.1,0.8l0,0h0C99,56,99,56.2,99,56.4z"/>
	<path class="st0" d="M97.1,77.6c-0.1,0-0.1,0-0.2,0c0,0,0,0,0,0c0.9,1.1,2,1.6,3.4,1.5c1.1-0.1,2-0.5,2.6-1.5
		C101,78.7,99.1,78.5,97.1,77.6z"/>
	<path class="st0" d="M99.7,77.9c0.4,0,0.7,0,1.1-0.2c0.1,0,0.3-0.1,0.3-0.3c0-0.1-0.2-0.1-0.3-0.1c-1-0.2-2-0.3-3-0.5
		c-0.1,0-0.3-0.1-0.3,0c-0.1,0.1,0.1,0.2,0.2,0.3C98.2,77.7,98.9,77.9,99.7,77.9z"/>
	<path class="st0" d="M92.8,66.9c-0.3,0.1-0.6-0.1-0.9,0.1c0,0,0,0,0,0c2.5,0.5,5.1,0.2,7.6-0.1C97.3,66.7,95.1,66.9,92.8,66.9z"/>
	<path class="st0" d="M98.9,55.9c0,0.1,0,0.2,0.1,0.2c0-0.1,0.1-0.2,0.1-0.3C99,55.8,99,55.8,98.9,55.9
		C98.9,55.8,98.9,55.8,98.9,55.9C98.9,55.9,98.9,55.9,98.9,55.9z"/>
	<path class="st0" d="M98.9,56.7c0-0.1,0-0.2,0-0.3c0-0.1,0-0.2,0-0.3c-0.1,0.4-0.2,0.9-0.2,1.3c0,0,0,0,0,0c0,0,0,0,0,0
		C98.8,57.2,98.9,56.9,98.9,56.7z"/>
	<path class="st0" d="M92.8,66.9c-0.6-0.2-1.2,0-1.8-0.2c0.3,0.2,0.6,0.2,0.9,0.3c0,0,0,0,0,0C92.2,66.7,92.5,66.9,92.8,66.9z"/>
	<path class="st0" d="M91.7,54.9c0.1,0,0.1-0.1,0-0.1c-0.2,0.2-0.4,0-0.5,0.1c0,0,0,0,0,0C91.3,55,91.5,54.9,91.7,54.9z"/>
	<path class="st0" d="M98.9,55.8C98.9,55.8,98.9,55.8,98.9,55.8c0-0.2,0.1-0.3,0-0.6c-0.1,0.2-0.1,0.3-0.1,0.4c0,0,0,0,0,0v0
		C98.9,55.6,98.9,55.7,98.9,55.8z"/>
	<path class="st0" d="M98.9,55.8C98.9,55.8,98.9,55.8,98.9,55.8C98.9,55.8,98.9,55.8,98.9,55.8C98.9,55.8,98.9,55.8,98.9,55.8z"/>
	<path class="st0" d="M97.1,77.6c-0.1-0.1-0.2-0.2-0.4-0.2c0,0.1,0.1,0.2,0.2,0.2h0C97,77.6,97.1,77.6,97.1,77.6z"/>
	<path class="st0" d="M98.3,61.3C98.3,61.3,98.4,61.3,98.3,61.3C98.4,61.3,98.4,61.3,98.3,61.3C98.4,61.3,98.4,61.2,98.3,61.3
		C98.4,61.2,98.4,61.3,98.3,61.3z"/>
	<path class="st0" d="M98.4,60.7c0,0.2,0,0.3,0,0.5c0,0,0,0,0-0.1C98.4,61,98.4,60.9,98.4,60.7L98.4,60.7z"/>
	<path class="st0" d="M98.4,60.7C98.4,60.7,98.4,60.7,98.4,60.7c0.2-0.4,0.1-0.9,0.2-1.4C98.4,59.8,98.6,60.2,98.4,60.7z"/>
	<path class="st0" d="M98.4,60.7C98.4,60.7,98.4,60.7,98.4,60.7C98.4,60.7,98.4,60.7,98.4,60.7C98.4,60.7,98.4,60.7,98.4,60.7
		C98.3,60.7,98.4,60.7,98.4,60.7L98.4,60.7z"/>
	<path class="st0" d="M98.7,58.2L98.7,58.2C98.7,58.2,98.7,58.2,98.7,58.2c-0.2,0.3-0.1,0.7-0.2,1.1l0,0c0,0,0,0,0,0
		C98.8,59,98.6,58.6,98.7,58.2z"/>
	<path class="st0" d="M98.7,58.2C98.7,58.2,98.7,58.2,98.7,58.2c0.1-0.1,0.1-0.2,0.1-0.3c0-0.1,0-0.3,0-0.4c0,0,0,0,0,0c0,0,0,0,0,0
		C98.7,57.7,98.7,57.9,98.7,58.2z"/>
	<path class="st0" d="M98.7,58.2C98.7,58.2,98.7,58.2,98.7,58.2C98.7,58.2,98.7,58.2,98.7,58.2C98.7,58.2,98.7,58.2,98.7,58.2
		C98.7,58.2,98.7,58.2,98.7,58.2C98.7,58.2,98.7,58.2,98.7,58.2z"/>
</g>
</svg>
