<?xml version="1.0" encoding="utf-8"?>
<!-- Generator: Adobe Illustrator 21.1.0, SVG Export Plug-In . SVG Version: 6.00 Build 0)  -->
<svg version="1.1" id="Layer_1" xmlns="http://www.w3.org/2000/svg" xmlns:xlink="http://www.w3.org/1999/xlink" x="0px" y="0px"
	 viewBox="0 0 150 150" style="enable-background:new 0 0 150 150;" xml:space="preserve">
<style type="text/css">
	.st0{display:none;}
	.st1{display:inline;fill:#DC1F26;}
	.st2{display:inline;fill:#FFFFFF;}
	.st3{display:inline;fill:#2E3545;}
	.st4{fill:#2E3545;}
	.st5{fill:#DC1F26;}
	.st6{fill:#FFFFFF;}
	.st7{fill:#464D5D;}
	.st8{fill:#121314;}
</style>
<g>
	<g class="st0">
		<polygon class="st1" points="57.1,39.5 18.6,25.4 27.1,17.7 55.6,28.2 		"/>
		<polygon class="st2" points="53.4,35.9 24.5,25.2 26.3,22.8 52.9,32.6 		"/>
		<ellipse transform="matrix(0.3454 -0.9384 0.9384 0.3454 0.1338 43.2508)" class="st3" cx="31.1" cy="21.5" rx="1" ry="1"/>
		<ellipse transform="matrix(0.3455 -0.9384 0.9384 0.3455 1.1405 47.0339)" class="st3" cx="34.3" cy="22.7" rx="1" ry="1"/>
	</g>
	<polygon class="st4" points="102.3,109.9 97.1,108.6 118.2,48.4 123.4,49.7 	"/>
	<g>
		<path class="st4" d="M47.6,112.6L25.7,76.5c-2.9-4.9-3-10.9-0.3-15.9L50.8,15L28.3,6.3L30,1.9l24.4,9.5c1.6,0.6,2.3,2.6,1.5,4.1
			L29.6,62.9c-1.9,3.5-1.9,7.7,0.2,11.1l21.8,36.1L47.6,112.6z"/>
		<path class="st5" d="M48.6,16.1L26.8,7.3c-1.9-0.8-2.8-3-2.1-4.9V2.3c0.8-1.9,3-2.8,4.9-2.1L51.4,9L48.6,16.1z"/>
	</g>
	<path class="st4" d="M37.8,123.7l4.7-8.5c1.4-2.5,3.6-4.2,6.1-4.8l42.4-9.9c2.7-0.6,5.6,0.1,7.8,1.9l12.8,10.7
		c2.5,2.1,3.9,5.4,3.7,8.9l-0.5,9.3c-0.3,5.5-4.5,9.8-9.5,9.8H46.8c-3.3,0-6.4-1.9-8.1-4.9l-0.9-1.6C36,131.2,36,127,37.8,123.7z"/>
	<path class="st6" d="M41.7,123.9l4.2-7.7c1.2-2.2,3.2-3.8,5.5-4.3l38.1-8.9c2.4-0.6,5,0.1,7,1.7l11.5,9.6c2.3,1.9,3.5,4.9,3.3,8
		l-0.5,8.3c-0.3,4.9-4,8.8-8.5,8.8H49.8c-3,0-5.7-1.7-7.3-4.4l-0.8-1.4C40.1,130.6,40.1,126.9,41.7,123.9z"/>
	<g>
		<circle class="st4" cx="86.3" cy="115.9" r="9.4"/>
		<circle class="st7" cx="86.3" cy="115.9" r="4.5"/>
		<path class="st8" d="M93.4,94.7l-2.1-0.6l-6.2,21.4c-0.2,0.3-0.2,0.7,0,1c0.3,0.6,0.9,0.8,1.5,0.5c0.4-0.2,0.6-0.5,0.6-0.9l0,0
			L93.4,94.7z"/>
		<path class="st4" d="M98,96l-11.4-0.1c-1.6,0-2.9-0.9-2.9-2l0,0c0-1.1,1.3-2,2.9-1.9h11.5c1.6,0,2.9,0.9,2.9,2l0,0
			C101,95.1,99.7,96,98,96z"/>
	</g>
	<g>
		<polygon class="st4" points="129.1,146 17.7,146 19.2,139.7 125.6,139.7 		"/>
		
			<rect x="10" y="139.6" transform="matrix(0.7071 -0.7071 0.7071 0.7071 -96.0698 53.8137)" class="st5" width="13.8" height="6.5"/>
		
			<rect x="125.9" y="134.4" transform="matrix(0.7071 -0.7071 0.7071 0.7071 -62.7228 132.9648)" class="st5" width="6.5" height="15.6"/>
	</g>
	<path class="st5" d="M133.8,50.7h-33.2v-0.1c0-3.3,2.3-6.2,5.6-6.9l27.7-6c3.5,0,6.4,2.9,6.4,6.4v0.1
		C140.2,47.8,137.4,50.7,133.8,50.7z"/>
	<polygon class="st5" points="54.1,127.6 46.4,134.6 104.9,134.6 104,132 51.2,132 57.1,126.7 	"/>
	<polygon class="st5" points="58.6,127.9 55,131.2 68.1,131.2 68.1,127.9 	"/>
</g>
</svg>
