<?xml version="1.0" encoding="utf-8"?>
<!-- Generator: Adobe Illustrator 21.1.0, SVG Export Plug-In . SVG Version: 6.00 Build 0)  -->
<svg version="1.1" id="Layer_1" xmlns="http://www.w3.org/2000/svg" xmlns:xlink="http://www.w3.org/1999/xlink" x="0px" y="0px"
	 viewBox="0 0 540 180" style="enable-background:new 0 0 540 180;" xml:space="preserve">
<style type="text/css">
	.st0{fill:#DD121F;}
</style>
<g>
	<path class="st0" d="M444.3,8c1.6,0.2,3.2,0.4,4.8,0.7c4.3,0.9,8.3,2.4,11.7,5.3c3.7,3.2,5.8,7.4,6.7,12.1
		c0.7,3.8,0.3,7.5-0.3,11.2c-1.8,11.6-3.7,23.2-5.7,34.8c-1.3,7.4-2.6,14.8-4.4,22c-3.5,13.9-12.7,21.9-26.6,24.8
		c-7.1,1.5-14.2,1.3-21.1-1.1c-7.7-2.6-12.3-7.9-14-15.8c-0.6-2.7-0.5-5.4-0.2-8.2c1.3-12.5,3.7-24.7,5.9-37.1
		c1.4-7.6,2.7-15.3,4.5-22.8c3.3-13.9,12.4-22,26.1-25.1c1.7-0.4,3.5-0.5,5.3-0.8c0.2,0,0.5-0.1,0.7-0.2C439.9,8,442.1,8,444.3,8z
		 M441.3,29.9c-0.1,0-0.1,0-0.2,0c0-0.4,0-0.8-0.1-1.2c-0.2-1.7-1.2-2.5-2.8-2.5c-2,0-3.5,0.8-4.3,2.6c-0.7,1.7-1.2,3.4-1.6,5.2
		c-1.5,8.4-3,16.9-4.5,25.3c-2,11.5-3.9,23-5.8,34.5c-0.3,1.8-0.3,3.7-0.3,5.5c0,1.2,0.8,1.9,2,2.2c2.2,0.5,4.2-0.4,5.1-2.5
		c0.6-1.5,1.1-3,1.4-4.6c1.8-9.6,3.5-19.2,5.2-28.9c1.5-8.4,2.9-16.7,4.3-25.1C440.3,37,440.8,33.5,441.3,29.9z"/>
	<path class="st0" d="M540,10.3c-0.4,2.2-0.8,4.4-1.1,6.6c-1.6,9.1-3.1,18.3-4.7,27.4c-1.4,8.4-2.9,16.7-4.3,25.1
		c-1.8,10.5-3.6,21-5.4,31.5c-0.9,5.4-1.9,10.9-2.8,16.3c-0.2,1,0.2,2.2,0.4,3.3c2,10.6,4,21.2,5.9,31.7c1.2,6.3,2.3,12.6,3.5,18.9
		c0,0.2,0,0.4,0,0.8c-0.3-0.4-0.4-0.6-0.6-0.9c-10.9-17.6-21.8-35.3-32.7-52.9c-0.4-0.6-0.6-1.4-0.7-2.2c-1-8.2-2-16.4-3-24.6
		c-0.9-7.2-1.7-14.5-2.5-21.7c0-0.1,0-0.2-0.2-0.3c-0.1,0.4-0.2,0.8-0.3,1.3c-1.9,11-3.8,22.1-5.7,33.1c-0.8,4.4-1.5,8.7-2.3,13.1
		c-0.1,0.5-0.2,0.7-0.7,0.7c-7.3,0-14.6,0-21.9,0c-0.1,0-0.1,0-0.3-0.1c6.1-35.7,12.3-71.4,18.5-107.1c7.6,0,15.2,0,22.8,0
		c2.3,15.8,4.6,31.7,6.9,47.5c0.1,0,0.2,0,0.2,0c2.7-15.8,5.5-31.6,8.2-47.5C524.8,10.3,532.3,10.3,540,10.3z"/>
	<path class="st0" d="M79.4,10.4c-0.4,2.1-0.7,4.2-1.1,6.2c-1.3,7.7-2.6,15.4-4,23.1c-1.2,6.9-2.4,13.9-3.6,20.8
		c-1.4,8-2.7,15.9-4.1,23.9c-1.5,8.7-3,17.5-4.5,26.2c-0.4,2.3-0.9,4.6-1.2,6.9c-0.1,1,0.2,2,0.4,3c1.9,9.9,3.7,19.9,5.6,29.8
		c1.3,7,2.6,14,3.9,20.9c0,0.2,0,0.3,0,0.7c-0.2-0.3-0.4-0.5-0.5-0.7c-11-17.8-22.1-35.7-33.1-53.5c-0.3-0.5-0.3-1.2-0.4-1.8
		c-0.7-5.9-1.4-11.7-2.1-17.6c-0.7-6.2-1.4-12.4-2.2-18.6c-0.4-3.3-0.8-6.7-1.2-10c0-0.1-0.1-0.2-0.2-0.3c-0.2,1.2-0.4,2.4-0.6,3.7
		c-1.3,7.4-2.6,14.8-3.8,22.2c-1.2,7.1-2.5,14.3-3.7,21.4c-0.1,0.5-0.2,0.8-0.8,0.8c-7.2,0-14.3,0-21.5,0c-0.1,0-0.3,0-0.6-0.1
		C6.2,81.8,12.3,46.1,18.5,10.3c7.6,0,15.2,0,22.8,0c2.3,15.9,4.6,31.7,6.9,47.6c0.1,0,0.2,0,0.2,0c2.7-15.8,5.5-31.7,8.2-47.6
		C64.1,10.4,71.7,10.4,79.4,10.4z"/>
	<path class="st0" d="M86.6,10.3c9.1,0,18.1,0,27.2,0c-0.6,3.5-1.2,6.9-1.8,10.3c-1.3,7.3-2.5,14.6-3.8,22
		c-1.4,8.4-2.9,16.7-4.3,25.1c-1.5,8.7-3,17.4-4.4,26c-0.2,1.5-0.3,3-0.4,4.5c-0.1,1.9,0.5,2.8,1.6,3.2c1.5,0.5,3.5,0,4.4-1.3
		c0.5-0.7,0.9-1.5,1.1-2.3c0.8-3.5,1.6-7.1,2.3-10.7c1.8-10,3.5-20.1,5.2-30.1c2.1-12.1,4.1-24.1,6.2-36.2c0.6-3.5,1.2-7,1.8-10.6
		c9.1,0,18.2,0,27.3,0c-1,5.8-2,11.7-3,17.5c-1.7,9.9-3.4,19.7-5.1,29.6c-2,11.5-4.1,23-6.1,34.4c-0.3,1.9-0.8,3.9-1.4,5.7
		c-2.9,9.2-9,15.5-17.8,19.3c-5.9,2.6-12.2,3.2-18.7,2.8c-4.5-0.3-8.8-1.1-12.9-3c-3-1.4-5.8-3.2-7.9-5.9c-2.9-3.8-4.4-8.1-3.9-12.9
		c0.5-5.8,1.4-11.5,2.3-17.2c1.3-8.1,2.7-16.2,4.1-24.3c1.4-8,2.8-15.9,4.1-23.9c1.2-7.1,2.4-14.2,3.7-21.3
		C86.5,11,86.5,10.7,86.6,10.3z"/>
	<path class="st0" d="M214,10.3c0.3,0,0.5,0,0.6,0c8.8,0,17.6-0.1,26.5,0.1c5.3,0.1,10.6,0.5,15.9,1.1c7.7,0.8,12.8,6.2,13.6,13.9
		c0.5,4.4,0.1,8.8-0.6,13.2s-1.7,8.7-3.3,13c-2,5.5-6.1,8.3-11.6,9.4c-1.2,0.2-2.5,0.4-3.9,0.7c0.5,0.2,0.8,0.3,1,0.4
		c1.6,0.6,3.3,1.2,4.8,1.9c4.4,2,6.8,7.7,6.2,11.9c-1.3,8.2-2.6,16.5-3.9,24.7c-0.9,5.3-1.8,10.7-2.7,16c-0.1,0.3-0.1,0.7-0.2,1.1
		c-8.4,0-16.8,0-25.2,0c0.3-1.7,0.6-3.4,0.9-5.1c1.4-8.4,2.9-16.8,4.3-25.3c0.6-3.8,1.2-7.7,1.7-11.5c0.1-1.1,0-2.2,0-3.3
		c-0.1-1.2-0.8-2-1.9-2.5c-1.3-0.5-3.4-0.8-5-0.6c-2.8,16-5.5,32.1-8.3,48.2c-9.1,0-18.1,0-27.2,0C201.7,81.7,207.8,46.1,214,10.3z
		 M234,52.5c0.7,0,1.2,0,1.8,0c4.8-0.3,6.4-1.5,7.4-6.2c0.7-3.1,1.2-6.2,1.8-9.3c0.2-1.2,0.3-2.5,0.3-3.8c0-2.4-1-3.6-3.3-4.1
		c-1-0.2-2.1-0.3-3.1-0.4c-0.7-0.1-0.9,0.2-1,0.9c-1,5.8-2,11.5-3,17.3C234.6,48.6,234.3,50.5,234,52.5z"/>
	<path class="st0" d="M164,31.8c-5.4,0-10.7,0-16.1,0c1.2-7.2,2.5-14.3,3.7-21.4c19.8,0,39.7,0,59.6,0c-0.3,1.7-0.5,3.3-0.8,5
		c-0.9,5.1-1.8,10.1-2.6,15.2c-0.2,0.9-0.4,1.2-1.4,1.2c-4.7-0.1-9.4,0-14.1,0c-0.7,0-0.9,0.1-1.1,0.9c-2.1,12.6-4.3,25.2-6.5,37.8
		c-2.1,12.1-4.2,24.1-6.3,36.2c-0.6,3.6-1.2,7.2-1.8,10.8c-9.1,0-18.1,0-27.3,0C154.1,88.9,159.1,60.4,164,31.8z"/>
	<path class="st0" d="M310.2,117.5c4.9-28.6,9.8-57.1,14.8-85.7c-5.4,0-10.7,0-16.1,0c1.2-7.2,2.5-14.3,3.7-21.4
		c19.9,0,39.7,0,59.6,0c-1.2,7.1-2.4,14.2-3.7,21.4c-0.4,0-0.7,0-1.1,0c-4.7,0-9.4,0-14.1,0c-0.8,0-1.1,0.2-1.2,1
		c-1.6,9.4-3.2,18.8-4.9,28.2c-2.2,13-4.5,26-6.7,39c-1,5.6-1.9,11.2-2.9,16.8c-0.1,0.5-0.2,0.8-0.8,0.8c-8.7,0-17.3,0-26,0
		C310.6,117.5,310.5,117.5,310.2,117.5z"/>
	<path class="st0" d="M356.5,117.5c0.3-1.6,0.5-3.1,0.8-4.6c1.4-8,2.8-16,4.2-24c1.5-8.7,3-17.5,4.5-26.2s3-17.5,4.5-26.2
		c1.5-8.5,2.9-17.1,4.4-25.6c0.1-0.7,0.6-0.6,1-0.6c5.9,0,11.8,0,17.7,0c2.8,0,5.7,0,8.7,0c-0.3,1.7-0.5,3.2-0.8,4.8
		c-1.4,8.1-2.8,16.1-4.2,24.2c-1.3,7.3-2.5,14.5-3.8,21.8c-1.4,8-2.8,16-4.1,24c-1.4,8.3-2.9,16.7-4.3,25c-0.4,2.2-0.8,4.4-1.1,6.7
		c-0.1,0.7-0.5,0.7-1,0.7c-6.7,0-13.5,0-20.2,0C360.6,117.5,358.6,117.5,356.5,117.5z"/>
	<path class="st0" d="M309.5,10.4c-6.2,35.7-12.3,71.4-18.5,107.1c-9.1,0-18.1,0-27.2,0c0.1-0.6,0.2-1.2,0.3-1.8
		c2.5-14.4,5-28.8,7.5-43.1c2.3-13.5,4.6-27,7-40.5c1.2-7,2.4-13.9,3.6-20.9c0.1-0.6,0.3-0.8,0.9-0.8c8.6,0,17.2,0,25.8,0
		C309.1,10.3,309.3,10.3,309.5,10.4z"/>
	<path class="st0" d="M347.3,162.9c1.3,0,2.5,0,3.8,0c0,1.5,0,3,0,4.5c-4.2,0-8.4,0-12.7,0c0-1.5,0-3,0-4.5c1.4,0,2.8,0,4.2,0
		c0-9.1,0-18.1,0-27.2c-1.4,0-2.8,0-4.2,0c0-1.6,0-3,0-4.5c4.1,0,8.2,0,12.4,0c3.1,8.2,6.3,16.4,9.5,24.9c0.2-0.5,0.3-0.7,0.4-1
		c3-7.7,6-15.4,8.9-23.1c0.2-0.6,0.5-0.8,1.2-0.8c3.6,0,7.2,0,10.8,0c0.3,0,0.6,0,0.9,0c0,1.5,0,3,0,4.5c-1.4,0-2.8,0-4.3,0
		c0,9.1,0,18.1,0,27.2c1.4,0,2.8,0,4.3,0c0,1.6,0,3,0,4.5c-4.5,0-9,0-13.6,0c0-1.5,0-2.9,0-4.5c1.4,0,2.8,0,4.3,0c0-9,0-17.9,0-27
		c-0.2,0.5-0.4,0.8-0.5,1.1c-3.9,10-7.8,20-11.7,30c-0.1,0.3-0.4,0.7-0.6,0.8c-0.6,0.2-0.8-0.2-1-0.7c-1.6-4.3-3.3-8.5-4.9-12.8
		c-2.2-5.8-4.5-11.5-6.7-17.3c-0.1-0.2-0.2-0.5-0.4-0.7C347.3,145.1,347.3,154,347.3,162.9z"/>
	<path class="st0" d="M291.6,167.4c0-1.5,0-3,0-4.5c1.6,0,3.1,0,4.6,0c0-9.1,0-18.1,0-27.1c-1.5,0-3,0-4.6,0c0-1.6,0-3,0-4.6
		c10,0,20,0,30,0c0,3.6,0,7.2,0,10.8c-1.4,0-2.8,0-4.3,0c0-2.1,0-4.1,0-6.2c-5.2,0-10.3,0-15.5,0c0,3.5,0,7.1,0,10.7
		c4.5,0,8.9,0,13.4,0c0,1.5,0,3,0,4.5c-4.4,0-8.9,0-13.4,0c0,4,0,7.9,0,11.8c5.1,0,10.2,0,15.4,0c0-2.1,0-4.2,0-6.4
		c1.5,0,2.9,0,4.4,0c0,3.6,0,7.3,0,11C311.7,167.4,301.7,167.4,291.6,167.4z"/>
	<path class="st0" d="M135.1,133.3c0-0.8,0-1.5,0-2.4c1.5,0,2.9,0,4.4,0c0,3.7,0,7.4,0,11.1c-1.4,0-2.8,0-4.4,0c0-0.3,0-0.6,0-0.9
		c0.2-1.4-0.4-2.4-1.4-3.2c-2.7-2.5-5.8-3.1-9.2-2.1c-2,0.6-3.2,2.3-3.3,4.1c0,2,1.1,3.6,3.2,4.3c2.8,0.9,5.7,1.7,8.5,2.5
		c3,0.9,5.5,2.3,7,5.2c3.5,6.7,0.1,14.8-8,16c-3.8,0.6-7.2-0.4-10.2-2.8c-0.2-0.1-0.4-0.3-0.7-0.5c0,1,0,1.9,0,2.9c-1.5,0-3,0-4.5,0
		c0-4.3,0-8.7,0-13.1c1.4,0,2.8,0,4.4,0c0,0.7-0.1,1.5,0,2.3c0.1,0.5,0.2,1.1,0.4,1.6c1.4,2.3,3.2,4.2,5.9,5c3,0.8,6,0,7.5-2.3
		c1.3-1.8,1.4-3.8,0.6-5.8c-0.4-1-1.1-1.6-2.1-1.9c-1.6-0.6-3.3-1.2-5-1.7c-2.1-0.7-4.2-1.2-6.2-2.1c-4.3-1.8-6.2-5.3-5.8-10
		c0.4-4.1,3.4-7.4,7.6-8.4c3.7-0.8,7-0.2,10.2,1.8c0.2,0.2,0.5,0.3,0.7,0.5C134.9,133.3,134.9,133.3,135.1,133.3z"/>
	<path class="st0" d="M210.7,164.5c0,1.1,0,2,0,3c-1.5,0-2.9,0-4.4,0c0-4.4,0-8.7,0-13.1c1.4,0,2.9,0,4.4,0c0,0.8,0,1.6,0,2.4
		c0,0.4,0.1,0.9,0.4,1.3c1.4,2.4,3.2,4.3,6,5.1c3,0.8,6-0.1,7.5-2.3c1.3-1.8,1.5-3.8,0.5-5.8c-0.4-0.8-1.2-1.5-2-1.9
		c-1.6-0.7-3.3-1.2-5-1.8c-2.1-0.7-4.2-1.2-6.2-2.1c-4.3-1.8-6.2-5.3-5.8-10c0.4-4,3.4-7.4,7.5-8.3c3.7-0.9,7.1-0.2,10.3,1.8
		c0.2,0.2,0.5,0.3,0.7,0.5c0,0,0.1,0,0.2,0c0-0.8,0-1.5,0-2.4c1.5,0,2.9,0,4.4,0c0,3.7,0,7.4,0,11.1c-1.4,0-2.8,0-4.4,0
		c0-0.4-0.1-0.8,0-1.2c0.2-1-0.3-1.8-0.9-2.5c-2.3-2.6-6.3-3.7-9.7-2.5c-2,0.7-3.2,2.3-3.2,4.2c0,2,1.1,3.6,3.2,4.3
		c2.8,0.9,5.7,1.7,8.5,2.5s5.3,2.2,6.8,4.9c3.7,6.6,0.5,15-7.9,16.3c-3.8,0.6-7.1-0.4-10.1-2.8C211.3,164.9,211.1,164.8,210.7,164.5
		z"/>
	<path class="st0" d="M417.7,133.2c0-0.8,0-1.5,0-2.4c1.5,0,2.9,0,4.4,0c0,3.7,0,7.4,0,11.1c-1.4,0-2.8,0-4.4,0c0-0.4,0-0.8,0-1.3
		c0.1-1-0.3-1.7-0.9-2.4c-2.3-2.7-6.4-3.8-9.7-2.6c-2,0.7-3.2,2.3-3.2,4.2c0,2,1.1,3.6,3.2,4.3c2.8,0.9,5.7,1.7,8.5,2.5
		s5.3,2.2,6.8,4.8c3.7,6.5,0.7,15.1-7.8,16.3c-3.8,0.6-7.2-0.4-10.2-2.8c-0.2-0.1-0.4-0.3-0.7-0.5c0,1,0,2,0,2.9c-1.5,0-3,0-4.4,0
		c0-4.4,0-8.7,0-13.1c1.4,0,2.8,0,4.4,0c0,0.8,0,1.6,0,2.4c0,0.4,0.1,0.9,0.4,1.3c1.4,2.4,3.2,4.3,6,5.1c3,0.8,6-0.1,7.5-2.3
		c1.3-1.8,1.5-3.8,0.5-5.8c-0.4-0.8-1.2-1.5-2-1.9c-1.6-0.7-3.3-1.2-5-1.8c-2.1-0.7-4.2-1.2-6.2-2.1c-4.3-1.8-6.2-5.3-5.8-10
		c0.4-4,3.4-7.4,7.5-8.3c3.7-0.9,7.1-0.2,10.3,1.8c0.2,0.2,0.5,0.3,0.7,0.5C417.5,133.3,417.6,133.3,417.7,133.2z"/>
	<path class="st0" d="M258.8,135.8c-2.5,0-4.9,0-7.4,0c0,3,0,6,0,9.1c-1.5,0-2.9,0-4.4,0c0-4.5,0-9,0-13.6c9.7,0,19.4,0,29.2,0
		c0,4.5,0,9,0,13.6c-1.4,0-2.8,0-4.3,0c0-3,0-6,0-9.1c-2.5,0-5,0-7.5,0c0,9,0,18,0,27.1c1.5,0,3,0,4.6,0c0,1.6,0,3,0,4.5
		c-4.9,0-9.8,0-14.7,0c0-1.5,0-2.9,0-4.5c1.5,0,3,0,4.5,0C258.8,153.9,258.8,144.8,258.8,135.8z"/>
	<path class="st0" d="M181.5,162.9c0,1.6,0,3,0,4.5c-5.1,0-10.1,0-15.2,0c0-1.5,0-2.9,0-4.5c1.5,0,3.1,0,4.7,0c0-0.4,0-0.6,0-0.9
		c0-3.5,0-6.9,0-10.4c0-0.4-0.1-0.9-0.4-1.3c-3.3-4.7-6.6-9.4-10-14.1c-0.2-0.3-0.7-0.5-1.1-0.5c-1.2-0.1-2.4,0-3.7,0
		c0-1.5,0-3,0-4.5c4.9,0,9.8,0,14.8,0c0,1.5,0,2.9,0,4.5c-1.5,0-2.9,0-4.5,0c2.7,3.8,5.3,7.4,8,11.2c2.4-3.7,4.8-7.4,7.3-11.1
		c-1.5,0-2.9,0-4.4,0c0-1.6,0-3,0-4.6c4.8,0,9.5,0,14.3,0c0,1.5,0,2.9,0,4.5c-1.3,0-2.6,0-3.9,0c-0.6,0-1,0.2-1.3,0.7
		c-3,4.6-6.1,9.3-9.2,13.9c-0.2,0.3-0.4,0.8-0.4,1.2c0,3.6,0,7.2,0,10.8c0,0.2,0,0.3,0,0.6C178.2,162.9,179.8,162.9,181.5,162.9z"/>
</g>
</svg>
