<?xml version="1.0" encoding="utf-8"?>
<!-- Generator: Adobe Illustrator 21.1.0, SVG Export Plug-In . SVG Version: 6.00 Build 0)  -->
<svg version="1.1" id="Layer_1" xmlns="http://www.w3.org/2000/svg" xmlns:xlink="http://www.w3.org/1999/xlink" x="0px" y="0px"
	 viewBox="0 0 150 150" style="enable-background:new 0 0 150 150;" xml:space="preserve">
<style type="text/css">
	.st0{fill:#332A14;}
	.st1{fill:#DD121F;}
	.st2{opacity:0.3;}
	.st3{fill:#990816;}
	.st4{fill:#DC1F26;}
	.st5{fill:#FFFFFF;}
</style>
<g>
	<g>
		<path class="st0" d="M125.4,97.1h-1.7V49.9c0-26.6-21.6-48.2-48.2-48.2h-1c-26.6,0-48.2,21.6-48.2,48.2v45.8h-1.7V49.9
			C24.6,22.4,47,0,74.5,0h1c27.5,0,49.9,22.4,49.9,49.9V97.1z"/>
		<g>
			<rect x="19" y="98.9" class="st1" width="12.9" height="45.4"/>
			<rect x="19" y="98.9" class="st2" width="12.9" height="2.7"/>
			<path class="st1" d="M31.9,98.9H19c-1.8,0-3.2-1.4-3.2-3.2v-0.1c0-1.8,1.4-3.2,3.2-3.2h12.9c1.8,0,3.2,1.4,3.2,3.2v0.1
				C35.1,97.5,33.6,98.9,31.9,98.9z"/>
			<path class="st2" d="M23.2,109.4L23.2,109.4c-1.3,0-2.2,0.9-2.2,2.1v31.4h4.4v-31.4C25.4,110.3,24.4,109.4,23.2,109.4z"/>
			<path class="st3" d="M29.4,150h-8c-1.4,0-2.5-1.1-2.5-2.5v-3.3h12.9v3.3C31.9,148.9,30.8,150,29.4,150z"/>
		</g>
		<g>
			<rect x="118.1" y="98.9" class="st1" width="12.9" height="45.4"/>
			<rect x="118.1" y="98.9" class="st2" width="12.9" height="2.7"/>
			<path class="st1" d="M131,98.9h-12.9c-1.8,0-3.2-1.4-3.2-3.2v-0.1c0-1.8,1.4-3.2,3.2-3.2H131c1.8,0,3.2,1.4,3.2,3.2v0.1
				C134.2,97.5,132.8,98.9,131,98.9z"/>
			<path class="st2" d="M126.8,109.4L126.8,109.4c-1.3,0-2.2,0.9-2.2,2.1v31.4h4.4v-31.4C129,110.3,128,109.4,126.8,109.4z"/>
			<path class="st3" d="M128.6,150h-8c-1.4,0-2.5-1.1-2.5-2.5v-3.3H131v3.3C131,148.9,129.9,150,128.6,150z"/>
		</g>
		<path class="st2" d="M30.5,104h1.4v6.6h-1.4c-1.8,0-3.3-1.5-3.3-3.3v-0.1C27.2,105.4,28.7,104,30.5,104z"/>
		<path class="st2" d="M30.5,114.3h1.4v6.6h-1.4c-1.8,0-3.3-1.5-3.3-3.3v-0.1C27.2,115.8,28.7,114.3,30.5,114.3z"/>
		<path class="st2" d="M30.5,124.6h1.4v6.6h-1.4c-1.8,0-3.3-1.5-3.3-3.3v-0.1C27.2,126.1,28.7,124.6,30.5,124.6z"/>
		<path class="st2" d="M30.5,134.9h1.4v6.6h-1.4c-1.8,0-3.3-1.5-3.3-3.3v-0.1C27.2,136.4,28.7,134.9,30.5,134.9z"/>
		<path class="st2" d="M119.5,104h-1.4v6.6h1.4c1.8,0,3.3-1.5,3.3-3.3v-0.1C122.8,105.4,121.3,104,119.5,104z"/>
		<path class="st2" d="M119.5,114.3h-1.4v6.6h1.4c1.8,0,3.3-1.5,3.3-3.3v-0.1C122.8,115.8,121.3,114.3,119.5,114.3z"/>
		<path class="st2" d="M119.5,124.6h-1.4v6.6h1.4c1.8,0,3.3-1.5,3.3-3.3v-0.1C122.8,126.1,121.3,124.6,119.5,124.6z"/>
		<path class="st2" d="M119.5,134.9h-1.4v6.6h1.4c1.8,0,3.3-1.5,3.3-3.3v-0.1C122.8,136.4,121.3,134.9,119.5,134.9z"/>
	</g>
	<path class="st4" d="M75,46.5c0,0-19.5-25.2-34.1-5C22.5,67.1,75,93.4,75,93.4s52.5-26.4,34.1-51.9C94.5,21.3,75,46.5,75,46.5z"/>
	<polygon class="st5" points="74.9,82.7 70.4,60 65.7,78 60.1,62.7 57,69.6 48.9,69.6 48.9,67.3 55.5,67.3 60.3,56.3 65.3,70 
		70.7,49.3 75.4,73.3 79.3,61.5 83.2,69.4 88.6,48.7 93.1,67.3 100.7,67.2 100.7,69.6 91.2,69.7 88.5,58.5 83.9,76.2 79.7,67.8 	"/>
</g>
</svg>
