<?xml version="1.0" encoding="utf-8"?>
<!-- Generator: Adobe Illustrator 21.1.0, SVG Export Plug-In . SVG Version: 6.00 Build 0)  -->
<svg version="1.1" id="Layer_1" xmlns="http://www.w3.org/2000/svg" xmlns:xlink="http://www.w3.org/1999/xlink" x="0px" y="0px"
	 viewBox="0 0 2200 1442.4" style="enable-background:new 0 0 2200 1442.4;" xml:space="preserve">
<style type="text/css">
	.st0{fill:#F47458;}
	.st1{fill:#466EB6;}
	.st2{fill:#DD121F;}
	.st3{fill:#ED3A4B;}
	.st4{fill:#F48C7F;}
	.st5{fill:#184655;}
	.st6{fill:#F7A491;}
	.st7{fill:#F7CC7F;}
	.st8{fill:#FAE0B2;}
	.st9{fill:#F8A492;}
	.st10{fill:#3C8F7C;}
	.st11{fill:#FE875E;}
	.st12{fill:#50BFA5;}
	.st13{fill:#355389;}
	.st14{fill:#86B1F2;}
	.st15{fill:#FFFFFF;}
	.st16{fill:#96D9C9;}
	.st17{fill:#EFEFEF;}
	.st18{fill:#EE2724;}
	.st19{fill:none;stroke:#DD121F;stroke-width:5;stroke-miterlimit:10;}
	.st20{fill:none;stroke:#DD121F;stroke-width:5;stroke-miterlimit:10;stroke-dasharray:14.7897,9.8598;}
</style>
<g>
	<path class="st0" d="M1218.8,689.3l-11.8-17l-20.7,0c-2.4,0-3.7-2.7-2.3-4.6l12.6-16.5l-6.4-19.7c-0.7-2.2,1.4-4.4,3.6-3.6
		l19.5,6.9l16.7-12.2c1.9-1.4,4.6,0,4.5,2.4l-0.5,20.7l16.8,12.1c1.9,1.4,1.4,4.4-0.9,5l-19.8,5.9l-6.4,19.7
		C1223.2,690.8,1220.2,691.2,1218.8,689.3z"/>
	<path class="st1" d="M1765.2,314l10.9-25.3l-14.6-23.3c-1.7-2.7,0.4-6.1,3.6-5.8l27.4,2.6l17.7-21.1c2-2.4,5.9-1.5,6.6,1.6l6,26.9
		l25.5,10.3c2.9,1.2,3.2,5.2,0.5,6.8l-23.7,14l-1.9,27.5c-0.2,3.1-3.9,4.7-6.3,2.6l-20.7-18.2l-26.7,6.7
		C1766.6,319.9,1764,316.9,1765.2,314z"/>
	<path class="st2" d="M339.5,1008.7l-14-26.8l-30-3.7c-3.4-0.4-4.9-4.6-2.5-7l21.2-21.6l-5.8-29.7c-0.7-3.4,2.8-6,5.9-4.5l27.1,13.4
		l26.4-14.7c3-1.7,6.6,0.8,6.1,4.2l-4.4,29.9l22.1,20.6c2.5,2.3,1.3,6.6-2.1,7.1l-29.8,5l-12.8,27.4
		C345.5,1011.7,341.1,1011.8,339.5,1008.7z"/>
	<polygon class="st3" points="1940,364.9 1940.4,379.5 1916.9,382.7 1914.8,404.2 1897.6,409.4 1900.2,418.1 1923.2,411.1 
		1925.2,390.7 1949.7,387.5 1949.1,365.4 	"/>
	<path class="st4" d="M638.7,215c1.3-9.6,10.5-16.6,20.1-15.2c10,1.4,15.7,9.5,14.8,19.6c-1.1,10.1-8.8,17-19.4,15.8
		C643.5,234,637.3,225.3,638.7,215z M648.2,188.6l4.7-77.2c0.4-6.4,6-11.1,12.4-10.4l7.7,0.9c6.3,0.7,10.8,6.6,9.8,12.9l-12.3,76.3
		L648.2,188.6z"/>
	<g>
		<path class="st5" d="M589.8,603.3c0.5,19.1,5.5,60.2,48.9,67c26.9,4.2,61.4-20,59.2-37.8c-2.2-17.8-7.2-63-35.3-73.4
			C639.1,550.5,588.6,560.6,589.8,603.3z"/>
		<path class="st6" d="M951.9,1221.9c6.1,25.8,11,63,12.8,65c0.9,1,2.6,7.5,3.5,8.5c28,10.2,52.7-0.3,72.2-11.9
			c-15.3-2.7-35.9-5.5-38.8-7.6c-10.6-7.5-8.1-34.3-10-58.3C984,1219,965.6,1214.3,951.9,1221.9z"/>
		<path class="st1" d="M964.1,1285.5c0.2,10.2,6.7,31.9,8.8,31.9c2.4,0,86.6-7.3,94.6-20.2c4.8-7.8-8.2-9.8-27.1-13.5
			C1020.8,1295.1,966.4,1291.8,964.1,1285.5z"/>
		<path class="st6" d="M551.9,1279.4c-19.5,15.3-39.2,27.5-41.7,28.6c-1.2,0.6-7.9,0.5-9.2,1.1c-17.3,24.3-13.8,50.8-7.9,72.7
			c6.7-14,14.6-33.6,17.7-35.3c4.9-2.8,22.4-13.2,53.9-26C554.1,1308.9,555.6,1294.6,551.9,1279.4z"/>
		<path class="st6" d="M596.3,741l-60.2,109.5c0,0-40.2,50.7-61,76.7c4.5,7.3,8.8,14.8,12.6,22.5c20.6-17.5,64.5-54.7,80.1-75.3
			c23.1-30.4,65-102.5,65-102.5L596.3,741z"/>
		<path class="st2" d="M756.4,931.5l-64.4,95c0,0-3.7-6.4,19.4,2.1c23.1,8.4,171.8,36.2,180.6,46.7c6.2,7.4,52.3,153.3,61.2,172
			c13.4,5.4,32.8-0.6,46.6-2.6c0.9-70.3-36.3-198.2-46.3-213.2c-22.2-33.5-127.8-69.7-175.4-90c-7.7-3.3-13.7-6.3-17.4-8
			C757.9,932.2,756.4,931.5,756.4,931.5z"/>
		<path class="st1" d="M509.2,1308.3c-9.9-2.6-29.9-2.5-30.5-0.5c-0.6,2.3-16.2,85.4-5.8,96.5c6.2,6.7,11.6-5.3,20.3-22.5
			C487.3,1359.9,502.5,1308.8,509.2,1308.3z"/>
		<path class="st3" d="M739.5,998.4c0.6-7.1,15.8-48.8,21.2-65c0.2-0.5-3.8-9.9-8.1-23.4l-6.2,1l-91.5,4.1c0,0-36.9,62.3-32.6,90.9
			c6,39.9,63.7,181.9,54.9,188.6c-15.8,12.1-93.5,57.1-133.4,83.8c2.6,15.5,9.7,37,19.5,49.3c32.5-11.3,172.7-67.8,187.2-111.2
			C763.2,1178.2,738.5,1010.5,739.5,998.4z"/>
		<path class="st7" d="M738,648.4c0,0-25.2,39.6-40.1,41l52.6,48.6c0,0,35.8-53.7,39.6-62.9C790,675.2,757.4,646.2,738,648.4z"/>
		<path class="st8" d="M756.4,887.8c-2.4,21.8,4.4,45.7,4.4,45.7c-21.1,4.5-96.1,14.1-114.4-8.2c-0.7-0.8,26-47.7,22.3-66.9
			c-5.4-28.3-28.9-76.2-30.8-78.8c-3.3-4.3-15.3,18-15.3,18c-14.1,0.1-46.3-32.6-46.3-32.6s33.3-58,42.5-63.5
			c9.2-5.5,84.9-13.7,84.9-13.7c5.6-0.4,20.8,12.8,25,17C776.5,752.5,763.6,820.9,756.4,887.8z"/>
		<path class="st6" d="M661,663.4c0,0,8.3,27.3,8.3,38.4c0.1,11.1,4.5,26.2,27.7,23.9c23.2-2.3,4.2-25.7,0.9-36.2
			c-3.3-10.5-7.3-43.8-7.3-43.8L661,663.4z"/>
		<path class="st0" d="M692.9,662.4c-1.3-9.1-2.2-16.7-2.2-16.7L661,663.4c0,0,1.7,5.6,3.5,12.7
			C678.5,677.5,687.8,671.4,692.9,662.4z"/>
		<path class="st6" d="M636.8,581.1c0,0-12.2,8.5-15.4,24.6c-3.1,16.1,6.4,55.8,40.9,62c34.5,6.3,45.7-27.1,36.3-51.3
			C689.2,592.3,670.9,562.3,636.8,581.1z"/>
		
			<ellipse transform="matrix(1 -5.167437e-03 5.167437e-03 1 -3.1243 3.598)" class="st6" cx="694.7" cy="606.4" rx="7.1" ry="12.2"/>
		
			<ellipse transform="matrix(0.7679 -0.6406 0.6406 0.7679 -267.3877 553.2906)" class="st6" cx="629.8" cy="645.6" rx="8.7" ry="12.8"/>
		<path class="st5" d="M601.5,566c1.4-18.5,14.5-87.5-27.7-94c-42.2-6.5-51.2,39.5-74.6-22.5c-21.7-57.5-86.1-35.2-88.8,8.4
			c-6.1-0.5-12.4,0.4-18.3,2.9c-20.6,8.7-29.9,33.4-20.7,55.2c1.5,3.5,0.6,6.9,2.8,9.8c-4.9,19-1.5,40.7,13.1,62.8
			c40.1,60.3,80.3-3.2,107.4,0.2c27.1,3.4,9.4,24.6,32.9,41.1c23.5,16.5,42.4,12.2,80.6-32.9l9.4-12.4
			C617.5,584.6,600.1,584.5,601.5,566z"/>
	</g>
	<g>
		<path class="st9" d="M1787.1,1091.2c21.1-8.4,40.1-19.9,42.3-21.1c1.7-0.9,8.9-6.2,9.9-6.9c18.6,11.1,25.5,20.5,40.1,35.3
			c-10.9,0.6-15.5-8.3-19.6-7.4c-5,1.1-20.8,11.7-45.6,30.9C1810,1108.1,1797.5,1101.1,1787.1,1091.2z"/>
		<path class="st9" d="M1487.9,1307.8c4.8,22.3,13.6,42,14.6,44.3c0.5,1.1,3.8,1.9,4.3,3.1c-14,16.5-20.1,44-37.2,56.1
			c1.2-10.8,8.5-31.1,8.3-35.4c-0.3-5.1-8.1-22.5-22.9-50.1C1469.5,1323.9,1476.3,1316.4,1487.9,1307.8z"/>
		<path class="st1" d="M1496.8,1356.7c1.9-4.8,8.2-8.1,12.7-5.3c4.5,2.9,10.5,6,15,9.1c5.1,3.5,5.4,7.4,5.3,8.3
			c-0.4,2.6-60.1,72.5-67.8,73.5c-7.7,1,6.5-58.1,14.9-64.2C1484.4,1372.8,1488.2,1378.4,1496.8,1356.7z"/>
		<path class="st1" d="M1837.6,1070.1c-4.4-2.7-6.5-9.6-2.9-13.5c3.6-3.9,7.8-9.3,11.7-13.2c4.4-4.3,8.3-4,9.1-3.7
			c2.5,0.8,60.5,72.1,60.1,79.8c-0.4,7.7-56-16.8-60.5-26.1C1851.2,1085.2,1857.3,1082.5,1837.6,1070.1z"/>
		<path class="st2" d="M1510.8,1047.4c0,0,117.8,158.8,138.4,160.3c19.2,1.4,167.8-81.5,167.8-81.5l-19.3-42.8l-119,42.8
			l-82.9-156.8L1510.8,1047.4z"/>
		<path class="st3" d="M1577.6,913.2c0,0,21.6,5.1,33.9,38c12.3,32.9-8.3,60.2-60,107.8c-50.3,46.4-100,90-100,90l40.8,167.9
			l-33.9,28.8c0,0-78.6-170.7-80.9-211.3c-0.9-15.5,119.9-195.5,119.9-195.5L1577.6,913.2z"/>
		<path class="st6" d="M1487.4,707.5l-65.7,36.7l-52.1,25c0,0-12.7-43.2-8.4-64.4c0.6-3,3.6-6.6,4.7-8.2c8.6-12.9-9.8-32.9-9.8-32.9
			s-11.1-3.1-18.6,15.1c-7.5,18.2,6.4,26,6.4,26s-15.8,55.2-9.2,95.5c3.5,21.1,56.2,5.6,98.2-12.6c35.3-15.3,61.3-32.3,61.3-32.3
			L1487.4,707.5z"/>
		<path class="st10" d="M1502.2,701.2c-1.4-1.3-3.7-2.1-7.4-0.7c-8.1,3-87,46.4-87,46.4s7.1,37.9,25.6,49.5l39.7-12.1l30.4-76.8
			C1504.3,705.4,1503.9,702.8,1502.2,701.2z"/>
		<path class="st11" d="M1683.8,539.2c-29.9-18.3-67.3-14.8-89.5,9.8c-18.3-6.9-39.3-6.3-56.2,1.6c-33.5,15.6-63.1,56.5-37.9,86.1
			c-5.4,39.3,18.2,62.2,47.5,64.8c15.9,32,72.5,35.3,105,8.9c26.9,10.4,58.8,5.9,78.6-13.5c4.8-4.7,11.8-12.1,13.3-12.8
			c-1.9,1,74.8-9.2,71.3-76.9C1812.4,538.3,1729.8,511.8,1683.8,539.2z"/>
		<path class="st12" d="M1547.7,696l48.7,2.7l-8.1,68.1c0,0-23.5,65.5-13.9,97c9.6,31.5,18.8,54.5,18.8,54.5s-27.7,31.8-105.5,25.3
			c0,0,1-56.5,0-73.6c-1-17.1-20.9-88.4-18.2-104.5c2.7-16.1,19.9-60.6,24.3-64.4c4.5-3.8,22.1-5.7,22.1-5.7L1547.7,696z"/>
		<path class="st6" d="M1550,658.6c0,0-0.8,5.5-1.6,12.6c-1,8.8-1.9,20.1-1.1,26.1c1.5,10.9-8.7,39.4-31.8,40.5
			c-23.1,1-0.5-31.6,1.3-42.4c1.7-10.8,1.7-50,1.7-50L1550,658.6z"/>
		<path class="st0" d="M1518.7,662.1c0-9.1-0.2-16.6-0.2-16.6l31.5,13.2c0,0-0.9,5.7-1.7,12.9
			C1534.9,674.8,1524.9,670.2,1518.7,662.1z"/>
		<path class="st6" d="M1552.4,577.7c0,0,13.3,4.7,20.2,18.6c6.9,13.9,8.2,52.6-21.8,67c-30,14.4-48.6-13.3-46.1-37.8
			C1507.4,601.1,1516.5,569.1,1552.4,577.7z"/>
		
			<ellipse transform="matrix(0.9654 -0.2608 0.2608 0.9654 -108.3852 413.9581)" class="st6" cx="1505.9" cy="615.4" rx="6.8" ry="11.6"/>
		
			<ellipse transform="matrix(0.4135 -0.9105 0.9105 0.4135 347.556 1807.239)" class="st6" cx="1576.5" cy="633.9" rx="12.2" ry="8.2"/>
	</g>
	<g>
		<path class="st13" d="M919.4,928.2c-4.6-13.3-191.1-556.7-199.3-580.5c-12.5-36.3-52.4-55.9-89.2-43.6l-278.2,92.7
			c-36.8,12.2-56.5,51.6-44,88L508,1065.2c12.5,36.3,52.4,55.9,89.2,43.6l278.2-92.7C912.2,1003.9,931.9,964.5,919.4,928.2z
			 M851.8,942.8l-281.1,93.6c-21.2,7.1-44.2-4.2-51.4-25.2L335,474.4c-7.2-21,4.2-43.7,25.4-50.7L641.5,330
			c21.2-7.1,44.2,4.2,51.4,25.2c44.8,130.4,180.3,525.2,184.3,536.9C884.4,913.1,873,935.8,851.8,942.8z"/>
		<path class="st5" d="M779.8,1005.8c4.3,12.5-15.4,30.3-44,39.8c-28.6,9.5-55.2,7.1-59.5-5.4c-4.3-12.5,15.4-30.3,44-39.8
			C748.8,990.9,775.5,993.3,779.8,1005.8z"/>
		<path class="st13" d="M772.2,1006.8c4,11.7-12.3,27.8-36.4,35.8c-24.1,8-47,5-51-6.7c-4-11.7,12.3-27.8,36.4-35.8
			C745.3,992.1,768.1,995.1,772.2,1006.8z"/>
	</g>
	<g>
		<path class="st14" d="M1796.5,384.8l-312.7-70.7c-41.3-9.3-82.1,15.1-91,54.6l-142.7,631.1c-8.9,39.5,17.3,79.1,58.7,88.5
			l312.7,70.7c41.3,9.3,82.1-15.1,91-54.6l142.7-631.1C1864.1,433.7,1837.9,394.1,1796.5,384.8z M1693.5,1048.6
			c-5.2,22.8-28.7,36.9-52.5,31.5l-315.9-71.4c-23.8-5.4-39-28.2-33.8-51l132-583.7c5.2-22.8,28.7-36.9,52.5-31.5l315.9,71.4
			c23.8,5.4,39,28.2,33.8,51L1693.5,1048.6z"/>
		
			<ellipse transform="matrix(0.2205 -0.9754 0.9754 0.2205 96.5858 2288.0947)" class="st1" cx="1479.9" cy="1083.6" rx="25.2" ry="59.6"/>
		
			<ellipse transform="matrix(0.2205 -0.9754 0.9754 0.2205 98.878 2288.4336)" class="st14" cx="1481.2" cy="1082.4" rx="23.7" ry="50.3"/>
	</g>
	<path class="st6" d="M1594.5,716.4c0,0,102.7-25,125.7-29.2c22.9-4.2,102.4-32.9,105.4-34.1c3.1-1.2,14.4-42.1,18.9-39.2
		c4.5,2.9-6.9,20.6-1.3,22.9c5.6,2.3,53.5-19.1,53.8-15.3c0.6,7.3-28.8,14.2-27.9,17.6c0.9,3.3,30-10.1,33.6-5.1
		c3.6,5-28.7,10.2-29.3,13c-0.6,2.8,31-0.8,29.3,5.2c-0.9,3.3-28.2,2.6-27,6.4c1.2,3.8,21.9,7.5,20.5,11.2c-1.4,3.6-17-5.4-27.7-2.7
		c-10.7,2.7-19.9-0.8-35.7,8.5c-15.8,9.3-67.6,48.4-104.5,56.5c-36.8,8.1-118.2,26.1-118.2,26.1L1594.5,716.4z"/>
	<path class="st12" d="M1569.6,700.5c3.5-1.7,14.1-1.9,26.8-1.8c4.7,0,11.2,0.1,16.2-0.1c18.6-0.5,36.2,0.3,36.2,0.3
		s9.3,45.1,1.6,56.6c0,0-72.6,10.4-70.9,15.4L1569.6,700.5z"/>
	<path class="st6" d="M1317.8,700.8l6.3-7.9c0,0,3.9-6,9.7-6.6c5.9-0.6,5.7-7.9-0.5-6.9c-6.2,1-10.1,2.5-10.1,2.5s12.3-6.3,12.5-7.1
		c1.2-4.6-5.6-6.4-14.7,0.4C1312,681.9,1317.8,700.8,1317.8,700.8z"/>
	<path class="st6" d="M478.9,938.2c-4,2.2-6.7,4.1-8,5.1c0.1-0.1,0.1-0.3,0.2-0.4c1.3-1.4,5.8-6.2,5.8-6.2c5.9-4.5,2.8-9.3-2.7-6.3
		c-5.5,3-8.7,5.6-8.7,5.6s9.6-9.4,9.5-10.8c-0.1-4.8-7.3-4.3-13.8,5.1c-5.6,8.2,2.7,22.5,5.1,25.8c2.4,4.9,6.7,7.2,6.7,7.2l1.5-9.3
		c0,0,1.7-7,7.1-9.4C486.9,942.1,484.4,935.2,478.9,938.2z"/>
	<path class="st6" d="M1340.5,672.2c0,0,14.6-11.7,16.9-6.7c2.3,5,1.3,15.8-0.9,15c-2.2-0.8-1.9-8.5-8.2-6.4
		C1346.7,674.5,1338,677.3,1340.5,672.2z"/>
	<g>
		<path class="st2" d="M1596.3,272l-524.4-111.8c-29.5-6.3-48.3-35.3-42-64.7l10.1-47.2c6.3-29.5,35.3-48.3,64.7-42l524.4,111.8
			c29.5,6.3,48.3,35.3,42,64.7L1661,230C1654.8,259.5,1625.8,278.2,1596.3,272z"/>
		<polygon class="st2" points="1502.8,233.1 1551.1,299.1 1566.6,250.3 		"/>
		<g>
			
				<ellipse transform="matrix(0.2085 -0.978 0.978 0.2085 852.1752 1212.6198)" class="st15" cx="1175.3" cy="79.8" rx="21.9" ry="24.7"/>
			<path class="st15" d="M1175.4,100.8l-8.7-1.9c-16.7-3.6-33.2,7.1-36.8,23.8l-3.4,15.9l69.3,14.8l3.4-15.9
				C1202.8,120.8,1192.1,104.4,1175.4,100.8z"/>
		</g>
		
			<ellipse transform="matrix(0.2085 -0.978 0.978 0.2085 929.3752 1405.3831)" class="st15" cx="1333" cy="128.5" rx="42.5" ry="75.7"/>
		<polygon class="st15" points="1339.5,162.1 1315.9,184.3 1371.9,171.1 1369.8,134.9 		"/>
		<path class="st15" d="M1511.5,158.8l8.5-4.2c2.6-1.3,3.9-4.3,3.2-7.1c-1.5-5.5-4.6-14.6-10.6-21.7c-1.8-2.1-4.8-2.8-7.4-1.6
			l-14.8,7.2c-1.9,0.9-3.1,2.7-3.4,4.8c-1,8.7-2.2,32.8,13,53.2c17.3,23.2,35.1,34.9,47.6,40.6c2,0.9,4.4,0.7,6.2-0.7l13.7-10.2
			c2.4-1.8,3.2-5,1.8-7.7c-2.7-5.4-8.6-14.1-19.7-20.2c-2.3-1.3-5.1-0.9-7,0.8l-5.1,4.5c-2.1,1.9-5.2,2.1-7.5,0.5
			c-5-3.3-13.5-11.4-21.5-30.5C1507.3,163.7,1508.6,160.2,1511.5,158.8z"/>
	</g>
	<g>
		<path class="st16" d="M996.1,693.4l-79.1-48c-8-4.9-10.6-15.3-5.7-23.4l48-79.1c4.9-8,15.3-10.6,23.4-5.7l79.1,48
			c8,4.9,10.6,15.3,5.7,23.4l-48,79.1C1014.6,695.7,1004.1,698.3,996.1,693.4z"/>
		<g>
			<path class="st15" d="M1037.8,628.7c2.9-3,2-8.7-2.4-12.5c-18.9-16.8-40.6-30.1-64.1-39.5c-5.4-2.1-10.9-0.3-12.2,3.7l0,0
				c-11,32.4-7.2,20.2-11.9,39c-1.1,4.4,1.4,8.9,5.5,10.5l0,0c4.4,1.7,9.6-0.1,11.6-4.4c1.1-2.4,2.2-4.8,3.3-7.1
				c1.3-2.7,4.8-3.8,7.9-2.2c8.1,4.1,15.8,8.8,23.2,14c2.8,2,3.5,5.6,1.7,8c-1.6,2.1-3.2,4.1-4.7,6.2c-2.8,3.8-2,9.1,1.6,12.2h0
				c3.4,2.9,8.5,3,11.9,0.1C1012.6,653.6,1031.7,635,1037.8,628.7z"/>
			<g>
				<path class="st16" d="M976.5,589.3c1,0.6,1.8,1.5,2.3,2.5l2.7-4.4l-5.6-3.4l-2.7,4.4C974.4,588.4,975.5,588.7,976.5,589.3z"/>
				<path class="st16" d="M967.7,591.5c0.6-1,1.5-1.8,2.5-2.3l-4.4-2.7l-3.4,5.6l4.4,2.7C966.7,593.6,967,592.5,967.7,591.5z"/>
				<path class="st16" d="M969.8,600.4c-1-0.6-1.8-1.5-2.3-2.5l-2.7,4.4l5.6,3.4l2.7-4.4C972,601.3,970.8,601,969.8,600.4z"/>
				<path class="st16" d="M979.6,594.9c0,1.1-0.3,2.3-0.9,3.3c-0.6,1-1.5,1.8-2.5,2.3l4.4,2.7l3.4-5.6L979.6,594.9z"/>
			</g>
			
				<ellipse transform="matrix(0.5193 -0.8546 0.8546 0.5193 -40.5614 1117.5823)" class="st16" cx="973.2" cy="594.8" rx="3.9" ry="3.9"/>
			
				<ellipse transform="matrix(0.5193 -0.8546 0.8546 0.5193 -42.8631 1170.6613)" class="st16" cx="1019.2" cy="623.4" rx="8.4" ry="8.4"/>
		</g>
	</g>
	<path class="st4" d="M1070.6,327.2c0,0,2.9-16.4,19.9-24.3c15.2-7,31.5,0.8,38.4,15.7c8,17.2,3.1,44.1-25.7,78.9
		c-45.2-0.5-68.9-14.2-76.8-31.3c-6.9-14.8-2.3-32.4,12.9-39.4C1056.2,318.8,1070.6,327.2,1070.6,327.2z"/>
	<g>
		<path class="st1" d="M522.3,253.7l-100.5,47.9c-11.9,5.6-26,0.6-31.7-11.2l-27-56.6c-5.6-11.9-0.6-26,11.2-31.7l100.5-47.9
			c11.9-5.6,26-0.6,31.7,11.2l27,56.6C539.1,233.9,534.1,248,522.3,253.7z"/>
		<polygon class="st1" points="380.8,259.5 359.3,323.6 407.1,288.2 		"/>
		<g>
			<path class="st15" d="M416.3,234.7l12.7-6.5c0,0,10.3-19.9,8.7-24.4c-1.6-4.5-8.6-12.2-6.7-14.6c2-2.3,6.8-5.8,12.9-1.8
				c4.4,2.9,9.7,18.9,11.7,19.1c1.2,0.2,8.7-3.3,14-6c3.5-1.7,7.7-1.4,10.9,0.9l0,0c2.1,1.6,2.9,4.4,1.8,6.9l-1.7,3.8l3.7,1.9
				c2.8,1.4,3.9,4.8,2.5,7.5l-1.4,2.8l2.4,1c3.1,1.3,4.4,5,2.7,7.9l-1.3,2.4l0.6,0.4c2.4,1.7,3.1,4.9,1.6,7.4l-1.4,2.3l-33.8,17.2
				c-3.2,1.6-6.6,2.6-10.2,2.8l-12.9,4.1c-1.4,0.4-2.9-0.2-3.5-1.5L415,238.6C414.3,237.1,414.8,235.4,416.3,234.7z"/>
		</g>
	</g>
	<g>
		<path class="st8" d="M1247.4,391.8c75.9-17.2,146.1,6.6,156.7,53.2c5.3,23.3-5.3,47.9-26.7,68.9l46.4,61.8l-77-38.7
			c-17.6,10.3-38.3,18.6-61,23.8c-75.9,17.2-146.1-6.6-156.7-53.2C1118.5,460.8,1171.4,409,1247.4,391.8z"/>
		<g>
			<path class="st7" d="M1320.5,472.8c-1.1,27.1-24,48.2-51.1,47.1c-27.1-1.1-48.2-24-47.1-51.1c1.1-27.1,24-48.2,51.1-47.1
				C1300.5,422.8,1321.6,445.7,1320.5,472.8z"/>
			<path class="st17" d="M1244.9,477.5c-0.6,14.5,10.7,26.7,25.2,27.3c14.5,0.6,26.7-10.7,27.3-25.2L1244.9,477.5z"/>
		</g>
	</g>
	<polygon class="st2" points="292.2,609.1 267.1,614 270.2,637.7 245.8,643.7 246,666.6 228.4,674.1 232.2,683 255.7,673 
		255.5,651.2 280.9,645 277.9,621.8 300.6,617.2 	"/>
	<polygon class="st2" points="1961,803.2 1954,778.6 1930.7,783.6 1922.8,759.7 1899.9,761.8 1891.1,744.8 1882.5,749.3 1894.4,772 
		1916,770 1924.3,794.9 1947.2,790 1953.5,812.3 	"/>
	<polygon class="st3" points="296.3,346.9 282.3,351.2 272.9,329.5 251.7,333.2 242,318.1 234.3,323 247.3,343.3 267.4,339.7 
		277.2,362.3 298.3,355.9 	"/>
	<g>
		<path class="st6" d="M815.4,435c-4.9-4-16.3-7.3-22-7.9c-5.7-0.5-30.5-0.5-33.7,5.5c-3.2,6,22.8,22.9,24.2,29.9
			c1.4,7-15.1,116.1-19.8,137.7c-2.3,10.7-11.3,30.8-19.9,48.4c12.3,2,27.2,12,36.7,19.1c12.1-26.4,24.4-56,25.9-70
			C809.9,569.7,820.3,439,815.4,435z"/>
		<g>
			<g>
				<path class="st1" d="M887.4,246.8c-8.5-0.7-52.7,33-52.7,33l-2,2.6c0,0,59.7,10.1,62.5,8.2C902.8,285.7,894.3,247.4,887.4,246.8
					z M834.9,280.9c14.4-10.5,44.1-23.3,50.5-26c3.3,6.1,6.3,22,5.4,28.6C883.7,283,852.3,283.7,834.9,280.9z"/>
			</g>
			<g>
				<path class="st1" d="M822.8,218.9c-7.6-20.5-15.1-19.5-20.4-18.8c-5.3,0.7-29.1,17.6-26.9,30.5c2.2,13,49.9,50.8,49.9,50.8
					l3.2-3.7C828.5,277.8,830.5,239.4,822.8,218.9z M782.7,229.3c-1.1-6.5,15.4-20.2,20.8-22c1.3-0.2,2.3-0.3,3.2,0
					c1,0.3,4.6,2.2,9.1,14.2c4.9,13.1,10,43.5,10,55.7C806.9,261.2,784,234.9,782.7,229.3z"/>
			</g>
			<path class="st1" d="M825.8,289.4l2.6,0.7c2.6,0.7,5.3-0.8,6-3.3l2.2-7.6c0.7-2.6-0.8-5.3-3.3-6l-2.6-0.7c-2.6-0.7-5.3,0.8-6,3.3
				l-2.2,7.6C821.7,286,823.2,288.7,825.8,289.4z"/>
			<path class="st2" d="M874.2,456.5l-164.4-47c-8.9-2.5-14.3-11.5-12.3-20.6l29.1-134.5l214.1,61.1l-48.3,135
				C890.4,456.2,882.4,458.8,874.2,456.5z"/>
			<path class="st8" d="M941.3,346.9L708.7,281l1.8-15.6c1.1-9.4,10.3-15.6,19.4-12.9L940.1,313c7.5,2.2,12,8.4,9.8,13.6
				L941.3,346.9z"/>
			
				<rect x="810.5" y="295.2" transform="matrix(0.2745 -0.9616 0.9616 0.2745 313.9221 1011.0468)" class="st1" width="32.9" height="4.6"/>
			
				<rect x="748.6" y="371.3" transform="matrix(0.2745 -0.9616 0.9616 0.2745 228.2468 1050.8402)" class="st1" width="123.8" height="5.8"/>
		</g>
		<path class="st6" d="M773.1,434.8l0.6-7c-5.7-1.6-12.2-4-15.5-5.4l-0.9-5.3c-3-7.3-6.2-2.1-7.2-0.4c0,0-0.2,9.4,0.8,10.5
			c0,0,11.1,11.7,15.8,16.1c2.3,2.2,9.8,8.3,9.8,8.3l5.9-8.2L773.1,434.8z"/>
	</g>
	<g>
		<polygon class="st18" points="1304.9,758 861,758 861,758 1304.9,758 		"/>
		<g>
			<polyline class="st19" points="1297.4,758 1304.9,758 1297.4,758 			"/>
			<line class="st20" x1="1287.5" y1="758" x2="873.4" y2="758"/>
			<polyline class="st19" points="868.5,758 861,758 868.5,758 			"/>
			<line class="st20" x1="878.3" y1="758" x2="1292.5" y2="758"/>
		</g>
	</g>
	<circle class="st18" cx="1085.8" cy="758" r="25"/>
	<g>
		<rect x="1084.2" y="742" class="st15" width="3.2" height="32"/>
		
			<rect x="1084.2" y="742" transform="matrix(6.123234e-17 -1 1 6.123234e-17 327.8139 1843.8157)" class="st15" width="3.2" height="32"/>
	</g>
</g>
</svg>
