<?xml version="1.0" encoding="utf-8"?>
<!-- Generator: Adobe Illustrator 21.1.0, SVG Export Plug-In . SVG Version: 6.00 Build 0)  -->
<svg version="1.1" id="Layer_1" xmlns="http://www.w3.org/2000/svg" xmlns:xlink="http://www.w3.org/1999/xlink" x="0px" y="0px"
	 viewBox="0 0 200 200" style="enable-background:new 0 0 200 200;" xml:space="preserve">
<style type="text/css">
	.st0{fill:#DD121F;}
</style>
<g>
	<g>
		<path class="st0" d="M96.1,21C96.2,21,96.2,21,96.1,21C96.2,21,96.2,21,96.1,21z"/>
		<path class="st0" d="M151.2,37.7C151.2,37.7,151.2,37.7,151.2,37.7C151.2,37.7,151.2,37.7,151.2,37.7
			C151.2,37.7,151.1,37.7,151.2,37.7z"/>
		<path class="st0" d="M151.2,37.6C151.2,37.7,151.2,37.7,151.2,37.6C151.2,37.7,151.2,37.7,151.2,37.6
			C151.2,37.7,151.2,37.7,151.2,37.6z"/>
		<path class="st0" d="M199.9,84.7c-0.2-0.7-0.4-1.3-0.5-2c-0.8-3-1.5-6-2.5-8.9c-1.6-4.5-3.6-8.7-6.2-12.7c-3-4.8-6.7-9-10.7-13
			c-1.3-1.3-2.7-2.6-4.1-3.9c-1.4-1.3-2.9-2.6-4.3-3.8c-1.5-1.3-3.1-2.5-4.5-3.9c-1.5-1.5-3.2-2.8-5-3.9c-2.2-1.3-4.5-2.4-7.1-2.6
			c-0.2,0-0.4,0-0.5,0c-1,0.1-1.9,0.2-2.8,0.6c-0.2,0.1-0.4,0.1-0.7,0c-0.8-0.3-1.7-0.6-2.5-0.2c-1.1,0.5-2,0.1-3-0.2
			c-0.4,0-0.7,0-1.1,0c-0.7,0.2-1.4,0.4-2,0.8c-0.1,0.1-0.2,0.2-0.4,0.1c-0.3-0.1-0.6-0.2-0.9-0.3c-0.4,0-0.8,0-1.2,0
			c-1,0.2-1.9,0.6-2.5,1.4c-1.7,2.3-3.5,4.6-4.5,7.4c-0.4,1.1-0.6,2.2-0.3,3.3c0.2,1,0.8,1.7,1.5,2.4c0.7,0.8,1.5,1.6,2.3,2.4
			c0.2,0.2,0.2,0.4,0.1,0.5c-0.1,0.4-0.1,0.7-0.2,1.1c0,0.3,0,0.5,0,0.8l0,0c0,1.1,0.6,2,1.5,2.6c0.6,0.4,1.3,0.4,2,0.4
			c0.2-0.1,0.4-0.1,0.6-0.1c1.1-0.2,2-0.7,2.9-1.4c0.7-0.6,1.3-1.4,1.9-2c0.2-0.2,0.4-0.4,0.7-0.3c0.5,0,1.1,0,1.6,0
			c0.7,0,1.3-0.3,1.9-0.3c0.6-0.2,1.2,0,1.9-0.1c0.8,0,1.6-0.3,2.3-0.5c0.9-0.2,1.9-0.4,2.6-1.2c0.3-0.3,0.6-0.2,0.9,0
			c1.2,0.8,2.1,1.8,2.8,3c1.2,2.1,1.9,4.3,2.7,6.6c0.6,1.9,1.1,3.8,1.7,5.6c0.5,1.6,1.1,3.2,1.7,4.9c0.5,1.5,1.1,2.9,1.8,4.3
			c0.5,1.1,1.2,2.2,1.8,3.3c0.2,0.3,0.5,0.6,0.5,1c-1-0.2-2-0.3-2.9-0.5c-0.3,0-0.6,0-0.9-0.1c0,0,0,0,0,0c-0.5,0-1,0-1.4,0
			c0,0-0.1,0-0.1,0c-0.3,0.1-0.5,0.1-0.8,0c-1.7,0.2-3.4,0.6-5,1.4c-1.4,0.7-2.5,1.6-3.6,2.7c-1.1,1.1-2,2.4-2.7,3.7
			c-0.6,1.2-1.2,2.4-1.7,3.7c-0.1,0.3-0.2,0.4-0.5,0.3c-1.6-0.5-3.3-0.8-4.9-1c-0.2,0-0.5,0-0.7-0.1c0,0,0,0,0,0c-1,0-2,0-3,0
			c-0.3,0.1-0.5,0.1-0.8,0.1c-0.2,0-0.5,0.1-0.7,0.1c-2.7,0.3-5.3,1.1-7.7,2.3c-3,1.4-5.7,3.3-8,5.7c-0.2,0.3-0.5,0.4-0.8,0.3
			c-1.1-0.4-2.2-0.7-3.3-1c-2.9-1-4.5-3.4-4.6-6.4c-0.1-0.2-0.1-0.4-0.1-0.6c0-0.2,0-0.4,0-0.6c-0.1-0.3-0.1-0.5-0.1-0.8
			c0-0.4,0-0.8,0-1.3c-0.1-1.2-0.1-2.4,0-3.5c0,0,0,0,0,0c0-0.5,0-0.9,0-1.4c0,0,0,0,0,0c0-0.3,0-0.6,0.1-0.9c0,0,0-0.1,0-0.1
			c0.4-1.1,0.6-2.3,0.8-3.5c0-0.3,0-0.5,0.1-0.8c0,0,0,0,0,0c0-0.4,0-0.8,0-1.2c0-0.4,0-0.8,0.1-1.1c0,0,0,0,0,0c0-0.3,0-0.6,0-0.8
			c0-0.2,0-0.5,0.1-0.7c0,0,0,0,0,0c0-0.2,0-0.3,0-0.5c0-0.2,0-0.4,0.1-0.6c0,0,0,0,0,0c0-0.8,0.1-1.6,0.9-2
			c0.3-0.2,0.5-0.6,0.7-0.9c1.1-1.8,2.4-3.4,2.7-5.6c0-0.2,0-0.5,0.1-0.7c0,0,0,0,0,0c0-0.4,0-0.7,0-1.1c-0.1-0.2-0.1-0.4-0.1-0.6
			c-0.1-0.5-0.3-1-0.2-1.6c-0.1-0.2-0.1-0.5,0-0.7c0,0,0,0,0,0c0-0.2,0-0.4,0-0.6c0-0.3,0-0.5,0.1-0.8c0,0,0,0,0,0
			c-0.1-0.8,0-1.6-0.8-2.2c0,0,0,0,0,0c0,0,0,0,0,0c-0.2-0.2-0.1-0.4,0-0.6c0,0,0,0,0,0c0-0.8,0.2-1.6,0.4-2.4c0-0.2,0-0.4,0-0.5
			c-0.1-0.6-0.4-1.2-0.4-1.8c-0.1-0.2-0.1-0.4,0-0.6c0,0,0,0,0,0c0-0.3,0-0.5,0.1-0.8c0.3-1.3,0.5-2.6,0.7-3.8c0-0.6,0-1.2,0-1.7
			l0,0c-0.2-1.2-0.5-2.3-0.9-3.4c-0.3-1-0.7-1.9-0.9-2.8c-0.1-0.2-0.2-0.4-0.3-0.7c0.3,0.1,0.4,0.3,0.4,0.5c0.6,0.9,0.9,1.8,1.2,2.8
			c0,0,0.1-0.1,0.1-0.1c0-0.2,0-0.4,0-0.6c-0.1-0.2-0.1-0.4-0.1-0.6c0-0.1,0-0.3,0-0.4c-0.1-0.2-0.1-0.4-0.1-0.6
			c-0.1-0.5-0.1-1.1-0.2-1.6c-0.3-1.6-1-3-2.3-4c-0.6-0.4-1.2-0.8-1.8-1.2c0.4-0.3,0.9-0.4,1.3-0.6c-0.1-0.1-0.3,0-0.4-0.1
			c-0.2,0-0.4,0-0.6,0c-0.3,0.1-0.6,0.1-0.9,0.1c-0.1,0-0.2,0-0.3,0c-0.1,0-0.2,0-0.3,0c-0.1,0-0.2,0-0.2,0c0-0.1,0.1-0.1,0.2-0.2
			c0.3-0.3,0.5-0.6,0.7-1c0-0.2,0-0.4,0-0.6c-0.1-0.3-0.2-0.6-0.2-1c-0.1,0-0.1,0.1-0.2,0.1l0,0c-0.2,0.5-0.6,0.8-1.1,1
			c-0.2,0.1-0.4,0.1-0.5,0.1c0,0-0.1,0-0.1,0c-0.2,0-0.5,0-0.7-0.1c0,0,0,0,0,0c-1.2-0.1-2.2-0.5-3.3-1c-2.4-1-4.8-2.2-7.2-3
			c-1.8-0.6-3.4-1.4-5-2.4c-0.2,0-0.1,0.1-0.1,0.2c0.2,0.4,0.5,0.7,0.7,1.2c-1.5-0.3-2.6-0.8-3.3-2.2c-0.1,0.9-0.1,1.6,0.4,2.2
			c0.3,0.4,0.7,0.7,1.1,1.1h0c0.1,0.3-0.2,0.1-0.3,0.2c-0.7,0.1-1.4,0.3-2.1,0.2c-0.6,0.1-1.3,0.1-1.9,0c0,0,0,0,0,0
			c-1.7,0-3.2-0.6-4.5-1.7c0,0.1-0.1,0.2,0,0.3c0.2,0.8,0.4,1.5,0.9,2.2c0.2,0.2,0.3,0.5-0.2,0.6c-0.8,0.2-1.6,0.6-2.3,1
			c-1,0.5-1.9,1.1-2.7,1.9c-0.6,0.6-1,1.3-1.4,2.1c-0.1,0.2-0.4,0.4-0.3,0.7c0.3-0.2,0.6-0.4,0.9-0.5c0.6-0.3,1.1-0.5,1.8-0.5
			c0.1,0,0.2,0,0.3,0.1c0.1,0.1-0.1,0.2-0.1,0.3c-0.9,1.2-1.9,2.2-3,3.2c-1,1-2.1,1.9-3.1,3c-0.5,0.6-0.9,1.1-1.2,1.8
			c0,0,0.1,0,0.1,0c0.6-0.5,1.2-1.1,2.2-1.3c-0.5,1-1,1.9-1.5,2.9c0.7,0.1,1.1-0.6,1.7-0.6c0,0.3,0,0.6-0.1,0.9c0,0,0,0,0,0
			c0,0,0,0,0,0c0,0.2,0,0.4-0.1,0.6c0,0,0,0,0,0c0,0.2,0,0.4,0,0.6c0,0.2,0,0.5-0.1,0.7c0,0,0,0,0,0c0,0.3,0,0.5,0,0.8c0,0,0,0,0,0
			c0,0.3,0,0.7-0.1,1c0,0,0,0,0,0c0,0.4,0,0.8,0,1.2c0,0.6,0,1.2-0.1,1.8c0,0,0,0,0,0c0,1.6,0,3.1,0,4.7c0,0.1,0,0.2,0,0.3
			c0,0.4,0,0.7,0,1.1c0,0.2,0,0.5,0,0.7c0.1,0.2,0.1,0.4,0.1,0.6c0.1,0.2,0,0.4-0.2,0.6c-0.4,0.3-0.6,0.8-0.6,1.2c0,0.3,0,0.6,0,1
			c0.1,0.3,0.1,0.5,0.1,0.8c0,0.2,0,0.4,0,0.6c0,0,0,0,0,0c0.1,0.2,0.1,0.5,0,0.7c0,0,0,0,0,0c-0.1,0.5-0.2,1.1-0.2,1.6
			c0,0.2,0,0.4-0.1,0.6c0,0,0,0,0,0c0,0.4,0,0.7,0,1.1c0.1,0.2,0.1,0.5,0.1,0.7c0.1,0.6,0.2,1.3,0.5,1.9c0.5,1.2,1.3,2.3,2,3.4
			c0.4,0.6,0.7,1.4,1.6,1.7c0.1,0,0.2,0.1,0.2,0.2c0.1,0.8,0.2,1.6,0.3,2.3c0.1,0.2,0.1,0.5,0.1,0.7c0,0.3,0,0.6,0,0.8
			c0.1,0.4,0.1,0.7,0.1,1.1c0,0,0,0,0,0c0,0.4,0,0.8,0,1.2c0,0,0,0,0,0c0.1,0.3,0.1,0.5,0.1,0.8c0.1,1.2,0.2,2.4,0.8,3.5
			c0.4,0.6,0.4,1.2,0.4,1.8c0,1.4,0.1,2.8-0.1,4.2c0,0,0,0,0,0c0,0,0,0,0,0c0,0.3,0,0.6,0,0.9c0,0.2,0,0.5-0.1,0.7c0,0,0,0,0,0
			c-0.1,0.8-0.2,1.7-0.4,2.5c-0.4,1.6-1.2,2.9-2.5,3.9c-1.6,1.3-3.5,2-5.4,2.6c-0.3,0.1-0.5,0.1-0.7-0.2c-0.6-0.6-1.2-1.2-1.8-1.8
			c-2.3-2-4.9-3.6-7.7-4.7c-2.2-0.9-4.6-1.5-7-1.8c-0.3,0-0.5,0-0.8-0.1c0,0,0,0,0,0c-1,0-2,0-3,0c-0.2,0.1-0.5,0.1-0.7,0.1
			c-1.7,0.2-3.3,0.5-4.9,1c-0.4,0.1-0.5,0-0.7-0.3c-0.3-0.7-0.5-1.4-0.9-2.1c-1.3-2.9-3.1-5.4-5.8-7.2c-1.9-1.3-4-1.8-6.2-2.1
			c-0.3,0-0.5,0-0.8,0c0,0-0.1,0-0.1,0c-0.5,0-1,0-1.4,0c-0.3,0.1-0.6,0.1-0.9,0.1c-0.9,0.1-1.7,0.2-2.6,0.4c-0.1,0-0.2,0.1-0.3,0
			c-0.1-0.2,0.1-0.2,0.1-0.3c0.6-0.9,1.1-1.9,1.6-2.8c2.3-4.5,3.6-9.2,5.1-14c0.9-2.7,1.7-5.5,3-8c0.7-1.3,1.6-2.6,2.9-3.4
			c0.4-0.3,0.7-0.2,1,0.1c0.3,0.3,0.7,0.6,1.1,0.7c1.3,0.3,2.6,0.8,3.9,0.9c0.6,0,1.2-0.1,1.9,0.1c0,0,0,0,0,0
			c0.6,0.2,1.3,0.3,1.9,0.3c0.5,0,1.1,0,1.6,0c0.2-0.1,0.3,0,0.4,0.1c0.4,0.4,0.7,0.7,1.1,1.1c1.4,1.7,3,2.8,5.3,2.5
			c0.4,0,0.9-0.2,1.2-0.4c1.4-0.9,1.7-2.2,1.5-3.7c-0.1-0.8,0-1.3,0.6-1.9c0.9-0.8,1.7-1.7,2.4-2.6c0.7-0.8,1-1.8,0.9-2.8
			c-0.1-1.4-0.6-2.6-1.2-3.8c-0.9-1.7-2-3.3-3.1-4.9c-0.8-1.1-1.8-1.9-3.1-2.2c-0.4,0-0.8,0-1.2,0c-0.2,0-0.4,0.1-0.6,0.1
			c-0.3,0.1-0.6,0.2-0.9,0c-0.6-0.4-1.2-0.6-1.8-0.8c0,0,0,0,0,0c0,0,0,0,0,0c-0.4,0-0.7,0-1.1,0c0,0,0,0,0,0c0,0,0,0,0,0
			c-0.5,0.1-1,0.2-1.4,0.4c-0.2,0.1-0.4,0.1-0.6,0c-1.2-0.6-2.4-0.6-3.6-0.1c-0.2,0.1-0.3,0.1-0.5,0c-0.9-0.4-1.8-0.5-2.8-0.6
			c-0.2,0-0.4,0-0.5,0c0,0,0,0,0,0c0,0,0,0,0,0c-1,0.1-1.9,0.2-2.9,0.5c-3,1-5.6,2.7-8,4.8c-1.5,1.4-3,2.7-4.6,4
			c-1.1,0.9-2.2,1.9-3.3,2.9c-1.5,1.3-3,2.6-4.4,4.1c-1.9,2-4,3.9-5.8,6c-1.6,1.8-3.1,3.6-4.5,5.6C9.9,60.1,8.4,62.5,7,65
			c-0.7,1.3-1.3,2.6-1.9,3.9c-0.6,1.3-1.1,2.6-1.6,3.9c-0.6,1.8-1.2,3.5-1.7,5.3c-0.5,1.9-0.9,3.8-1.5,5.7c-0.3,0.9-0.4,1.8-0.2,2.8
			c0.2,1.2,0.9,2.2,1.6,3.1c1.2,1.6,2.5,3.1,3.7,4.7c1.4,2,2.8,4,4.2,6c1.6,2.1,3.2,4.2,4.9,6.2c1.4,1.6,2.7,3.2,4.2,4.7
			c0.9,1,1.9,2,2.9,2.9c1.9,1.9,4,3.6,6.1,5.2c1.7,1.2,3.4,2.4,5.2,3.4c1.8,1,3.6,1.8,5.6,2.4c0.2,0.1,0.2,0.1,0.2,0.3
			c0,0.7,0,1.4,0,2.1c0.1,0.5,0.1,1,0.1,1.5c0,0.3,0,0.7,0,1c0.1,0.3,0.1,0.5,0.1,0.8c0,0,0,0,0,0c0,0,0,0,0,0c0,0.2,0,0.4,0,0.6
			c0,0,0,0,0,0s0,0,0,0c0.1,0.2,0.1,0.4,0.1,0.7c0,0.2,0,0.3,0,0.5c0.1,0.2,0.1,0.4,0.1,0.6c0.1,0.4,0.1,0.8,0.1,1.3
			c0.1,1.3,0.4,2.7,0.7,4c0.5,2.4,1.3,4.7,2.4,6.9c1.1,2.3,2.5,4.4,4,6.4c1.8,2.3,3.6,4.5,5.5,6.8c2.1,2.6,4.1,5.2,5.9,8
			c0.5,0.8,1.3,1.6,1.4,2.6c0.3,1.6,0.7,3.3,0.9,4.9c0.2,1.3,0.4,2.5,0.6,3.8c0.2,1.3,0.3,2.6,0.5,3.8c0.1,0.2,0.1,0.4,0.1,0.6
			c0,0,0,0,0,0c0,0,0,0,0,0c0,0.1,0,0.3,0,0.4c0.1,0.2,0.1,0.4,0.1,0.6c0,0.2,0,0.3,0,0.5c0,0,0,0,0,0c0.1,0.2,0.1,0.4,0.1,0.6
			c0,0.2,0,0.3,0,0.5c0.1,0.2,0.1,0.5,0.1,0.7c0,0.2,0,0.3,0,0.5c0.1,0.2,0.1,0.5,0.1,0.7c0,0.2,0,0.4,0,0.6c0,0,0,0,0,0s0,0,0,0
			c0.1,0.2,0.1,0.5,0.1,0.7c0,0.3,0,0.5,0,0.8c0.1,0.3,0.1,0.5,0.1,0.8c0,0.2,0,0.5,0,0.7c0,0,0,0,0,0c0.1,0.3,0.1,0.6,0.1,0.9
			c0,0.3,0,0.6,0,0.9c0.1,0.3,0.1,0.7,0.1,1c0,0.4,0,0.8,0,1.2c0.1,0.4,0.1,0.8,0.1,1.2c0,0.5,0,0.9,0,1.4c0.1,0.5,0.1,1,0.1,1.5
			c0,0.5,0.1,0.9,0,1.4c-0.1,0.5,0.1,0.6,0.6,0.6c24.9,0,49.8,0,74.7,0c0,0,0,0,0,0c0-0.1,0-0.2,0.1-0.3c0-0.1,0-0.2,0-0.3
			c0-0.5,0-0.9,0-1.4c0-0.5,0-0.9,0.1-1.3c0,0,0-0.1,0-0.1c0-0.5,0-1,0-1.5c0,0,0,0,0,0c0-0.4,0-0.8,0.1-1.1c0,0,0,0,0,0
			c0-0.4,0-0.8,0-1.2c0-0.3,0-0.7,0.1-1c0,0,0,0,0,0c0-0.3,0-0.6,0-0.9c0-0.3,0-0.6,0.1-0.9c0,0,0,0,0,0c0-0.3,0-0.6,0-0.8
			c0-0.3,0-0.5,0.1-0.8c0,0,0,0,0,0c0-0.2,0-0.5,0-0.7c0-0.2,0-0.5,0.1-0.7c0,0,0,0,0,0c0-0.2,0-0.4,0-0.6c0-0.2,0-0.5,0.1-0.7
			c0,0,0,0,0,0c0-0.2,0-0.3,0-0.5c0,0,0,0,0,0c0,0,0,0,0,0c0-0.2,0-0.5,0.1-0.7c0,0,0,0,0,0c0-0.2,0-0.3,0-0.5c0-0.2,0-0.4,0.1-0.6
			c0,0,0,0,0,0c0-0.2,0-0.3,0-0.5c0-0.2,0-0.4,0.1-0.6c0,0,0,0,0,0c0-0.1,0-0.3,0-0.4c0-0.2,0-0.4,0.1-0.6c0,0,0,0,0,0
			c0-1.1,0.2-2.2,0.4-3.3c0.4-2.8,0.8-5.5,1.4-8.3c0.2-1,0.4-2,1.1-2.9c0.8-1,1.4-2.1,2.2-3.1c1.8-2.5,3.7-4.9,5.6-7.2
			c1.9-2.3,3.8-4.6,5.5-7c1.9-2.8,3.4-5.8,4.4-9.1c0.7-2.5,1.1-5,1.5-7.5c0-0.2,0-0.4,0.1-0.6c0,0,0,0,0,0c0-0.2,0-0.3,0-0.5
			c0-0.2,0-0.5,0.1-0.7c0,0,0,0,0,0c0-0.2,0-0.4,0-0.6c0-0.3,0-0.6,0.1-0.9c0,0,0,0,0,0c0-0.4,0-0.7,0-1.1c0-0.5,0-1,0.1-1.5
			c0,0,0,0,0,0c0-0.6,0-1.2,0-1.8c0-0.3,0.1-0.4,0.4-0.5c0.9-0.3,1.8-0.7,2.7-1.1c2.4-1.1,4.7-2.5,6.8-4c2.8-2,5.5-4.3,7.9-6.7
			c1.9-1.8,3.6-3.7,5.3-5.7c1.7-2,3.4-4,4.9-6.1c3.2-4.2,6-8.6,9.3-12.6C199.6,87.9,200.3,86.4,199.9,84.7z M152.4,89.1
			c0.7-1.9,1.4-3.9,2.5-5.6c1.8-3,4.2-5.2,7.7-6c2.5-0.6,5.1-0.4,7.6,0.1c1.1,0.2,2.2,0.6,3.4,0.9c0.2,0.1,0.4,0.2,0.6,0.3
			c0.8,0.8,1.6,1.5,2.5,2.1c0.3,0.2,0.3,0.4,0.1,0.7c-5,6.7-11.5,11.2-19.6,13.4c-3,0.8-6.1,1.4-9.4,1.8c0.3-0.4,0.6-0.7,0.9-1
			C150.3,93.9,151.4,91.5,152.4,89.1z M84.1,66.9c0-0.2-0.1-0.3-0.1-0.5c-0.1-0.4-0.2-0.7-0.7-0.7c-0.2,0-0.4-0.1-0.6-0.3
			c-0.5-0.8-1-1.6-1.6-2.5c-1.1-1.7-1.4-3.5-0.9-5.4c0.2-0.9,0.2-1.8,0.1-2.8c0-0.4,0-0.8,0-1.2c0.4,0.7,0.5,1.5,0.7,2.2
			c0.4,1.9,0.6,3.8,1.2,5.6c0.2,0.7,0.5,1.4,0.9,2.1c0.2-0.3,0-0.7,0.1-1c-0.1-2.1-0.4-4.1-0.6-6.2c0-0.5,0.2-1.1,0.2-1.6
			c0.1-1.2,0.2-2.5,0.3-3.8c0.3,0.2,0.5,0.4,0.9,0.6c-0.2-2.8,0.2-5.5,0.9-8.4c0.4,0.5,0.8,1,1.2,1.5c0.2-0.4,0.1-0.5,0.1-0.7
			c-0.2-0.7-0.2-1.4-0.2-2c0.2-2.2,1.2-3.2,3.3-3.3c1.9-0.1,3.8,0.2,5.7,0.5c0.2,0,0.5,0.1,0.7,0c2.1-0.9,4.3-1,6.5-0.6
			c1.3,0.2,2.6,0.4,3.9,0.6c0.9,0.1,1.8-0.2,2.7-0.4c0.7-0.2,1.4-0.3,2.1-0.4c1.3-0.2,2.4,0.3,3.2,1.2c0.9,1.1,1.4,2.4,1.7,3.7
			c0.6,2.2,0.9,4.4,1,6.6c0.2,4.4,0.2,8.8,0.2,13.2c0,0.7-0.1,1.4-0.1,2.1c0.5-1.1,0.8-2.2,1-3.3c0.7-2.6,1-5.2,1.3-7.8
			c0-0.1,0-0.2,0-0.3c0-0.1,0-0.3,0.2-0.3c0.2,0,0.2,0.1,0.2,0.3c0,0.2,0.1,0.5,0,0.7c-0.2,1.3-0.1,2.5,0.1,3.7c0.3,1.6,0,3-0.8,4.4
			c-0.6,1-1.2,1.9-1.8,2.9c-0.2,0.3-0.4,0.4-0.7,0.3c-0.3,0-0.4,0.1-0.5,0.4c-0.4,1.7-0.6,3.3-0.7,5c-0.1,1.6-0.1,3.2-0.4,4.8
			c-0.2,1-0.7,1.8-1.4,2.5c-0.8,0.8-1.7,1.4-2.6,2.1c-1.2,1-2.4,2-3.3,3.3c-1.3,1.8-3,2.6-5.2,2.6c-2.1,0-4.2,0.2-6.3-0.2
			c-1.1-0.2-2.1-0.6-2.8-1.5c-1.7-2.2-3.7-4.1-6-5.7c-2-1.4-2.4-3.4-2.5-5.6C84.7,71.3,84.6,69.1,84.1,66.9z M33.5,77.1
			c4.8-0.2,8.6,1.7,11.4,5.6c1.5,2,2.5,4.2,3.2,6.5c0.8,2.7,2.1,5.1,4,7.2c0.1,0.1,0.2,0.3,0.4,0.5c-7.1-0.9-13.9-2.5-19.9-6.4
			C29,88,25.9,85,23.3,81.5c-0.2-0.2-0.2-0.4,0.1-0.5c0.9-0.7,1.8-1.4,2.7-2.2c0.1-0.1,0.2-0.2,0.3-0.2C28.7,77.8,31,77.2,33.5,77.1
			z M39.7,116.8c-5.3-1.9-10.6-4-15.4-7.2c-4.7-3.1-8.7-7.1-12.2-11.5c-1.4-1.8-2.8-3.6-4.1-5.5c0-0.1-0.1-0.1-0.1-0.2
			c4.3,0.4,8.4-0.1,12.4-1.4c0-0.1,0-0.1,0-0.2c-0.8,0-1.7,0-2.5,0c-3.5-0.1-7.1-0.3-10.5-1.3c-1.8-0.5-3.4-1.3-4.8-2.6
			c-0.7-0.6-0.9-1.3-0.6-2.2c1.1-3.9,2-7.9,3.4-11.7C8,65.8,12,59.4,17.1,53.6c4.4-5,9.4-9.5,14.5-13.8c1.2-1,2.4-2.1,3.5-3.1
			c2.3-2.1,4.8-3.7,7.7-4.6c1.8-0.6,3.7-0.5,5.4,0.4c0.2,0.1,0.4,0.1,0.6,0c1.1-0.7,2.3-0.6,3.4,0.1c0.2,0.2,0.4,0.3,0.7,0.1
			c1.4-1,2.7-0.9,3.9,0.3c0.4,0.4,0.7,0.4,1.2,0.1c1-0.7,2.2-0.5,3,0.4c1.7,2.2,3.4,4.4,4.3,7.1c0.5,1.3,0.3,2.4-0.7,3.5
			c-1.1,1.1-2.2,2.3-3.2,3.4c-0.5,0.5-1.1,0.6-1.7,0.4c-0.5-0.2-0.7-0.6-0.6-1.1c0.2-0.6,0.5-1.1,0.7-1.6c0.3-0.7,0.7-1.4,0.9-2.2
			c0.3-0.8,0.2-1.5-0.1-2.2c-0.4-0.9-0.9-1.8-1.5-2.6c0.3,1.2,0.7,2.3,0.9,3.5c0.1,0.5,0.1,0.9-0.1,1.4c-0.4,0.8-0.7,1.6-1.1,2.4
			c-0.3,0.5-0.6,1.1-1,1.5c-0.7,0.8-1.4,1-2.4,0.7c-0.4-0.1-0.7-0.4-0.6-0.8c0.2-1,0.3-2,0.5-3c0.2-1.1,0-2.2-0.5-3.3
			c-0.5-1-1-1.9-1.5-2.9l0,0c0,0-0.1,0.1-0.1,0.1c0.3,2.3,0.7,4.5,0.7,6.8c0,0.6,0,1.2-0.1,1.8c-0.2,0.7-0.6,1.1-1.3,1.2
			c-1.3,0.1-2.3-0.3-2.6-1.8c-0.2-1.3-0.3-2.5-0.4-3.8c-0.1-1.2-0.3-2.5-0.7-3.7c0,0-0.1,0.1-0.1,0.1c0.2,1.7,0.3,3.3,0.2,5
			c-0.1,0.8-0.2,1.6-0.5,2.3c-0.4,0.8-1,1.1-1.8,1c-0.7-0.1-1.2-0.6-1.3-1.5c-0.1-0.7,0-1.4-0.1-2.2c0-0.9-0.1-1.9-0.5-2.9
			c-0.2,0.6-0.3,1.1-0.5,1.6c-0.2,0.6-0.4,1.1-0.7,1.6c-0.3,0.4-0.6,0.8-1.1,0.8c-1,0.1-1.8,0.7-2.5,1.3c-1.2,1.1-2.1,2.4-2.9,3.8
			c-1.7,2.9-3,6.1-4.3,9.1c-2.3,5-4.7,9.9-7.9,14.5c-3.8,5.4-8.5,10-14,13.7c-0.1,0.1-0.2,0.1-0.3,0.2c0,0,0,0,0,0.1
			c0.8-0.1,1.5-0.3,2.2-0.5c2.5-0.7,4.9-1.9,7.1-3.2c0.3-0.2,0.4-0.2,0.6,0.1c5.2,7.6,12.5,12.5,21.3,15.2c3.3,1,6.8,1.5,10.3,1.4
			c1,0,2-0.1,3-0.3c0.3,0,0.4,0,0.4,0.3c0.2,3.4,0.6,6.7,1.2,10.1c0.3,1.7,0.6,3.3,1,5c0.1,0.3,0.1,0.4-0.3,0.5
			c-2.9,0.8-5.7,1.7-8.7,2.2C45.7,118.2,42.6,117.9,39.7,116.8z M77.4,198.8c-2.9,0-5.8,0-8.6,0c-0.4,0-0.5-0.1-0.5-0.5
			c-0.3-3.8-0.6-7.6-0.9-11.3c-0.2-2.8-0.4-5.6-0.4-8.5c0-4.1,0.3-8.3,0.9-12.4c0.1-0.4-0.1-0.6-0.4-0.8c-3.3-2.8-6.4-5.7-9.4-8.9
			c-3.5-3.7-6.7-7.6-9.1-12.1c-1.4-2.6-2.4-5.4-2.7-8.4c-0.3-2.8,0.2-5.5,1.5-8.1c0.7-1.3,1.7-2.2,2.9-3.1c1.5-1.1,3.2-2,4.8-2.9
			c1-0.6,2.1-1.2,3.1-1.9c0.4-0.3,0.5-0.2,0.6,0.2c0.9,2.7,1.9,5.4,3.4,7.9c2.5,3.9,5.8,7,9.8,9.3c0.4,0.2,0.5,0.4,0.3,0.9
			c-1.4,3.6-2.5,7.2-3.2,11c-1.3,7.5,0.4,14.2,5.5,20c0.4,0.4,0.5,0.7,0.4,1.3c-0.6,2.9-0.8,5.8-0.6,8.8c0.2,2.8,0.8,5.4,2.2,7.9
			c0.1,0.3,0.2,0.5,0.2,0.8c0,2.4,0,4.8,0.1,7.2c0.1,1.1,0.2,2.2,0.4,3.3C77.8,198.7,77.7,198.8,77.4,198.8z M121.4,179
			c-0.8,4.3-3.3,7-7.6,8.1c-2.3,0.6-4.6,0.9-6.9,1.3c-0.6,0.1-1.2,0.2-1.7,0.4c2.4,0.5,4.8,0.9,7.2,1c2.5,0.1,4.9-0.2,7.3-0.9
			c-0.1,0.9-0.2,1.8-0.3,2.6c-0.3,2.3-0.6,4.6-1,6.9c-0.1,0.4-0.2,0.4-0.6,0.4c-11.9,0-23.8,0-35.7,0c-0.4,0-0.5-0.1-0.6-0.5
			c-0.6-2.6-0.9-5.2-1.1-7.8c0-0.4-0.1-0.8-0.1-1.2c-0.1-0.4,0.1-0.4,0.4-0.3c2.3,0.7,4.7,0.9,7.1,0.8c2.3-0.1,4.6-0.6,7-1.1
			c-1.4-0.3-2.9-0.5-4.3-0.8c-1.7-0.3-3.4-0.6-5-1.1c-3.7-1.1-5.9-3.6-6.8-7.3c-0.6-2.8-0.7-5.6-0.6-8.4c0-0.4,0.2-0.4,0.5-0.3
			c6,0.4,12,0.5,17.9,0.5c0,0,0.1,0,0.2-0.1c-1.3-0.4-2.5-0.8-3.7-1.1c-3.5-1.1-7-2.1-10.3-3.6c-2.6-1.2-5.1-2.6-7-4.9
			c-1.8-2.1-2.8-4.6-3.1-7.3c-0.5-4.3,0.3-8.4,1.5-12.5c0.3-0.9,0.6-1.9,0.9-2.8c0.1-0.3,0.2-0.4,0.6-0.3c5.6,2.4,11.4,3.1,17.4,2.5
			c1.5-0.1,2.9-0.3,4.4-0.6c0.1,0,0.2,0,0.4-0.2c-5.2-0.8-10.3-1.9-15.2-3.9c-8.3-3.4-13.9-9.4-17.2-17.7c-1.8-4.3-2.9-8.8-3.7-13.4
			c-0.5-2.7-0.8-5.5-1.1-8.3c0-0.3-0.2-0.4-0.4-0.6c-1.3-0.8-2.8-1.4-4.2-2c-1.7-0.8-3.4-1.6-4.7-3.2c-0.6-0.7-1.1-1.5-1.4-2.4
			c-0.1-0.2-0.1-0.3,0.2-0.4c2.7-0.9,5.4-1.3,8.2-1c6.4,0.6,11.7,3.6,16.1,8.2c0.3,0.3,0.6,0.4,1.1,0.3c1.6-0.5,3.2-1,4.8-1.7
			c3-1.4,4.6-3.8,5.1-7c0.4-2.1,0.4-4.3,0.5-6.5c0-0.3,0-0.6,0-0.8c0.1-0.1,0.2-0.1,0.2,0c2,1.5,3.9,3.1,5.4,5.1
			c1.3,1.7,3.1,2.5,5.1,2.6c2.4,0.2,4.8,0.2,7.2-0.1c1.7-0.2,3.2-0.9,4.3-2.3c1.7-2.2,3.8-3.9,5.9-5.6c0,0,0.1,0,0.2-0.1
			c0,1,0,2,0,3c0,2,0.1,4,0.5,5.9c0.7,3,2.4,5,5.4,6c1.5,0.5,3.1,0.9,4.7,1.4c0.3,0.1,0.5-0.1,0.6-0.3c2.1-2.2,4.4-4.1,7.1-5.5
			c3.9-2.1,8-3.1,12.5-2.9c1.6,0.1,3.2,0.4,4.8,0.8c0.3,0.1,0.4,0.2,0.2,0.5c-1.3,2.4-3.1,4.3-5.6,5.5c-1.5,0.7-3,1.4-4.5,2.2
			c-0.3,0.2-0.4,0.4-0.5,0.8c-0.7,7.4-1.9,14.6-4.8,21.6c-2.3,5.5-5.6,10.2-10.4,13.8c-3.7,2.7-7.9,4.5-12.3,5.7
			c-3.2,0.9-6.4,1.5-9.8,2c0.8,0.3,1.5,0.3,2.2,0.4c5.4,0.8,10.7,0.6,16-0.8c1.4-0.4,2.7-0.8,4-1.4c0.2-0.1,0.4-0.2,0.5,0.2
			c1.3,4.1,2.4,8.2,2.5,12.6c0,3.4-0.6,6.5-2.6,9.3c-1.7,2.3-3.9,3.8-6.3,5c-3.2,1.6-6.6,2.7-10,3.7c-1.6,0.5-3.2,1-4.8,1.5
			c-0.1,0-0.2,0.1-0.3,0.1c2.3,0,4.6,0,6.8,0c3.6-0.1,7.2-0.2,10.7-0.4c1-0.1,1-0.1,1,1C122,174.2,121.9,176.6,121.4,179z
			 M151.9,142.5c-1.8,4-4.4,7.5-7.2,10.8c-3.7,4.3-7.7,8.1-12,11.8c-0.5,0.4-0.6,0.8-0.5,1.4c0.7,4.4,0.9,8.8,0.8,13.3
			c-0.1,3.8-0.4,7.5-0.7,11.3c-0.2,2.4-0.4,4.8-0.6,7.1c0,0.4-0.1,0.6-0.6,0.5c-1.4,0-2.9,0-4.3,0c-1.4,0-2.9,0-4.3,0
			c-0.3,0-0.4,0-0.3-0.4c0.5-2.5,0.5-5.1,0.5-7.6c0-0.1,0-0.1,0-0.2c-0.1-1.8,0.2-3.5,1-5.3c1.4-3.1,1.6-6.4,1.5-9.7
			c-0.1-1.8-0.3-3.7-0.7-5.5c-0.1-0.4,0.1-0.6,0.3-0.8c2.3-2.6,4.1-5.5,5.1-8.9c1.1-3.5,1.1-7,0.6-10.6c-0.6-4.1-1.8-7.9-3.3-11.8
			c-0.1-0.3-0.3-0.5,0.1-0.7c6.4-3.6,10.7-8.9,13-15.9c0.2-0.5,0.4-1,0.5-1.5c0.1-0.3,0.2-0.3,0.4-0.1c2.3,1.5,4.8,2.8,7.1,4.3
			c0.5,0.3,1,0.7,1.6,1.1c2.2,1.6,3.2,4,3.6,6.6C154.2,135.5,153.4,139.1,151.9,142.5z M197.7,86.8c-1.4,1.4-3.1,2.1-5,2.7
			c-2.4,0.7-4.9,1-7.4,1.2c-1.9,0.1-3.7,0.2-5.6,0.2c0.8,0.3,1.5,0.6,2.3,0.7c0.8,0.2,1.7,0.4,2.5,0.5c0.8,0.1,1.6,0.2,2.5,0.3
			c0.8,0.1,1.7,0.1,2.5,0.1c0.8,0,1.7,0,2.6-0.2c-1,1.5-2,2.8-3,4.1c-3.6,4.6-7.6,8.8-12.3,12.3c-3.5,2.5-7.3,4.3-11.2,6
			c-2.6,1.1-5.2,2.2-8,2.8c-3,0.7-6,0.4-9-0.4c-2.1-0.5-4.1-1.1-6.1-1.7c-0.3-0.1-0.4-0.2-0.3-0.5c1.2-4.9,1.9-9.8,2.2-14.8
			c0-0.5,0.1-0.6,0.7-0.6c5.9,0.7,11.6-0.3,17.1-2.6c7.1-2.9,13-7.4,17.3-13.8c0.2-0.3,0.4-0.2,0.6-0.1c2.6,1.6,5.4,2.8,8.4,3.5
			c0.3,0.1,0.6,0.1,0.9,0.2c0-0.1-0.1-0.2-0.1-0.2c-7.8-5.2-13.6-12-18.1-20.1c-2.3-4.1-4.1-8.5-6.1-12.8c-0.9-2.1-1.9-4.1-3.2-6
			c-0.8-1.1-1.6-2.1-2.7-2.9c-0.4-0.3-0.9-0.6-1.5-0.6c-0.8-0.1-1.3-0.5-1.6-1.2c-0.4-0.9-0.7-1.9-0.9-2.9c-0.4,0.9-0.4,1.7-0.5,2.6
			c0,0.9,0.1,1.7-0.1,2.6c-0.1,0.8-0.5,1.2-1.2,1.3c-0.8,0.1-1.4-0.1-1.8-0.8c-0.5-0.8-0.6-1.6-0.7-2.5c-0.1-1.7,0-3.4,0.2-5.1
			c0,0-0.1-0.1-0.1-0.1v0l0,0c-0.6,1.9-0.7,3.9-0.9,5.8c-0.1,0.7-0.1,1.4-0.3,2.1c-0.4,1.2-2,1.8-3.1,1.2c-0.4-0.2-0.6-0.6-0.7-1
			c-0.2-1.2-0.1-2.5,0-3.7c0.1-1.7,0.4-3.3,0.6-5c0,0-0.1-0.1-0.1-0.1c-0.3,0.7-0.6,1.4-1,2.1c-1.1,1.7-1.2,3.5-0.8,5.4
			c0.1,0.6,0.3,1.2,0.3,1.8c0,0.4-0.1,0.6-0.5,0.7c-1.1,0.3-1.8,0.2-2.5-0.6c-0.8-0.9-1.2-2.1-1.8-3.2c-0.6-1.1-0.6-2.2-0.2-3.3
			c0.3-0.8,0.5-1.6,0.6-2.4c-0.6,1-1.2,1.9-1.6,3c-0.2,0.6-0.2,1.2,0.1,1.9c0.3,1,0.8,1.9,1.2,2.9c0.1,0.2,0.2,0.3,0.2,0.5
			c0.3,0.7,0.3,1.1-0.2,1.4c-0.5,0.3-1.4,0.3-1.8-0.1c-1.1-1.1-2.1-2.3-3.2-3.4c-1.1-1.1-1.3-2.3-0.8-3.8c0.8-2.1,2-3.8,3.3-5.6
			c0.3-0.4,0.5-0.7,0.8-1.1c0.9-1.1,2.1-1.3,3.4-0.6c0.3,0.2,0.6,0.2,0.8,0c0.1-0.1,0.3-0.2,0.4-0.3c1.1-0.9,2.3-1,3.5-0.1
			c0.3,0.2,0.6,0.2,0.9,0c1.1-0.7,2.2-0.8,3.4-0.1c0.2,0.1,0.3,0.2,0.5,0c2.3-1.2,4.6-0.9,6.9,0.1c2.5,1.1,4.8,2.6,6.8,4.5
			c2,1.9,4.1,3.5,6.1,5.3c5.2,4.6,10.2,9.3,14.5,14.8c5.5,7.1,9.3,15.1,11.3,23.8c0.3,1.3,0.6,2.5,1,3.8
			C198.4,85.6,198.2,86.2,197.7,86.8z"/>
		<path class="st0" d="M84.3,80.9c0-0.3,0-0.7,0-1c-0.1,0.1-0.1,0.2-0.1,0.4c0,1.3,0,2.5,0,3.8C84.3,82.9,84.2,81.9,84.3,80.9z"/>
		<path class="st0" d="M116,83.9c0-1.2,0-2.4,0-3.5c0,0,0,0,0,0C115.9,81.5,115.9,82.7,116,83.9z"/>
		<path class="st0" d="M94,21.2c-0.6,0-1.3,0-1.9,0c0,0,0,0,0,0C92.7,21.3,93.4,21.3,94,21.2z"/>
		<path class="st0" d="M149.7,49c0.6,0,1.2,0.1,1.9-0.1C151,49,150.4,48.9,149.7,49z"/>
		<path class="st0" d="M48.4,48.9c0.6,0.2,1.2,0,1.9,0.1c0,0,0,0,0,0C49.6,48.9,49,49,48.4,48.9z"/>
		<path class="st0" d="M79.2,42.4c-0.2,0.6-0.1,1.2-0.1,1.8c0,0,0,0,0,0C79.2,43.6,79.1,43,79.2,42.4z"/>
		<path class="st0" d="M121.6,41.5c0.1-0.6,0.1-1.2,0-1.7v0C121.6,40.4,121.6,40.9,121.6,41.5z"/>
		<path class="st0" d="M52.2,49.3c0.5,0.1,1.1,0.1,1.6,0C53.3,49.4,52.7,49.4,52.2,49.3z"/>
		<path class="st0" d="M146.2,49.3c0.5,0.1,1.1,0.1,1.6,0C147.3,49.4,146.7,49.4,146.2,49.3z"/>
		<path class="st0" d="M161.2,129.1c0.2-0.5,0.1-1,0.1-1.5c0,0,0,0,0,0C161.1,128.1,161.3,128.6,161.2,129.1z"/>
		<path class="st0" d="M38.7,127.7c0,0.5-0.1,1,0.1,1.5C38.7,128.7,38.9,128.2,38.7,127.7z"/>
		<path class="st0" d="M137.7,198.5c0.2-0.5,0-1,0.1-1.5c0,0,0,0.1,0,0.1C137.7,197.6,137.8,198.1,137.7,198.5z"/>
		<path class="st0" d="M62.2,197.1c0,0.5-0.1,1,0.1,1.5C62.2,198.1,62.3,197.6,62.2,197.1z"/>
		<path class="st0" d="M79.2,49.1c0-0.1,0-0.2,0-0.3c0,0.4-0.1,0.9,0.1,1.3C79.1,49.8,79.2,49.5,79.2,49.1z"/>
		<path class="st0" d="M59.9,30.9c-0.4-0.1-0.8-0.1-1.2,0C59.1,30.8,59.5,30.8,59.9,30.9z"/>
		<path class="st0" d="M141.3,30.9c-0.4-0.1-0.8-0.1-1.2,0C140.5,30.8,140.9,30.8,141.3,30.9z"/>
		<path class="st0" d="M62.1,194.5c0,0.4-0.1,0.8,0.1,1.2C62.1,195.3,62.2,194.9,62.1,194.5z"/>
		<path class="st0" d="M55.4,30.2c-0.4-0.2-0.7-0.1-1.1,0C54.7,30.2,55.1,30.1,55.4,30.2z"/>
		<path class="st0" d="M145.6,30.2c-0.4-0.1-0.7-0.1-1.1,0C144.9,30.1,145.3,30.2,145.6,30.2z"/>
		<path class="st0" d="M117,72.5c0.2-0.4,0.1-0.7,0.1-1.1c0,0,0,0,0,0C117,71.8,117.1,72.2,117,72.5z"/>
		<path class="st0" d="M119.8,33.2c-0.1,0.1,0,0.2,0,0.3c0-0.1,0-0.2,0.1-0.2C119.9,33.2,119.8,33.2,119.8,33.2z"/>
		<path class="st0" d="M82.9,71.4c0,0.4-0.1,0.8,0.1,1.1c0,0,0,0,0,0C82.9,72.2,83,71.8,82.9,71.4z"/>
		<path class="st0" d="M137.8,195.6C137.8,195.6,137.8,195.6,137.8,195.6c0.2-0.4,0.1-0.8,0.1-1.1c0,0,0,0,0,0
			C137.8,194.9,137.9,195.2,137.8,195.6z"/>
		<path class="st0" d="M79.3,40.2C79.3,40.2,79.3,40.2,79.3,40.2c-0.2,0.3-0.1,0.7-0.1,1c0,0,0,0,0,0C79.3,40.9,79.2,40.5,79.3,40.2
			z"/>
		<path class="st0" d="M116,79C116,79,116,79,116,79c0.2-0.3,0.1-0.7,0.1-1c0,0,0,0.1,0,0.1C116,78.3,116.1,78.7,116,79z"/>
		<path class="st0" d="M121.1,36.1c0,0.2,0.1,0.4,0.1,0.5c0,0,0.1,0,0.1,0l0,0c0-0.2,0.1-0.5-0.1-0.7
			C121.2,36.1,121.2,36.1,121.1,36.1z"/>
		<path class="st0" d="M62,192.3c0,0.3-0.1,0.7,0.1,1C61.9,193,62.1,192.7,62,192.3z"/>
		<path class="st0" d="M137.9,193.3c0.2-0.3,0.1-0.7,0.1-1c0,0,0,0,0,0C137.9,192.7,138,193,137.9,193.3z"/>
		<path class="st0" d="M167.4,75.5c-0.3-0.2-0.6-0.1-0.9-0.1c0,0,0,0,0,0C166.8,75.5,167.1,75.4,167.4,75.5z"/>
		<path class="st0" d="M165,75.4c0,0,0.1,0,0.1,0c-0.3,0-0.6-0.1-0.9,0.1C164.4,75.4,164.7,75.5,165,75.4z"/>
		<path class="st0" d="M116.9,26.3c-0.3,0-0.6-0.1-0.9,0.1C116.3,26.3,116.6,26.4,116.9,26.3z"/>
		<path class="st0" d="M61.9,190.5C61.9,190.5,61.9,190.5,61.9,190.5c0,0.3-0.1,0.6,0.1,0.9C61.8,191.1,62,190.8,61.9,190.5z"/>
		<path class="st0" d="M35.8,75.5c-0.3-0.2-0.6-0.1-0.9-0.1c0,0,0.1,0,0.1,0C35.3,75.5,35.5,75.4,35.8,75.5z"/>
		<path class="st0" d="M161.1,131c0.2-0.3,0.1-0.6,0.1-0.9c0,0,0,0,0,0C161,130.4,161.2,130.7,161.1,131z"/>
		<path class="st0" d="M115.7,26.4c-0.1-0.1-0.3-0.1-0.3-0.2C115.3,26.5,115.6,26.3,115.7,26.4z"/>
		<path class="st0" d="M33.4,75.4c-0.3,0-0.6-0.1-0.9,0.1h0l0,0C32.8,75.4,33.2,75.5,33.4,75.4z"/>
		<path class="st0" d="M117.9,26.4c0.1,0,0.2,0,0.3-0.2c-0.2,0-0.5,0-0.7,0.1C117.7,26.3,117.8,26.2,117.9,26.4z"/>
		<path class="st0" d="M138.1,191.4c0.2-0.3,0.1-0.6,0.1-0.9c0,0,0,0,0,0C138,190.8,138.1,191.1,138.1,191.4z"/>
		<path class="st0" d="M116.1,86c0-0.3,0.1-0.6-0.1-0.8l0,0v0C116.1,85.4,116,85.7,116.1,86z"/>
		<path class="st0" d="M58.6,86.2c-0.3-0.2-0.5-0.1-0.8-0.1c0,0,0,0,0,0C58,86.2,58.3,86.1,58.6,86.2z"/>
		<path class="st0" d="M38.8,130.2c0,0.3-0.1,0.6,0.1,0.8C38.8,130.8,39,130.5,38.8,130.2z"/>
		<path class="st0" d="M142.2,86.1c-0.3,0-0.5-0.1-0.8,0.1C141.7,86.1,141.9,86.2,142.2,86.1z"/>
		<path class="st0" d="M138.2,189.6c0.2-0.2,0.1-0.5,0.1-0.8c0,0,0,0,0,0C138.1,189.1,138.2,189.4,138.2,189.6z"/>
		<path class="st0" d="M61.7,188.9c0,0.3-0.1,0.6,0.1,0.8C61.7,189.5,61.9,189.2,61.7,188.9z"/>
		<path class="st0" d="M78.5,54.3c0,0.3-0.1,0.6,0.1,0.8v0l0,0C78.5,54.8,78.6,54.5,78.5,54.3z"/>
		<path class="st0" d="M83,73.7C83,73.7,83,73.7,83,73.7c0,0.3-0.1,0.5,0.1,0.8C83,74.2,83.1,74,83,73.7z"/>
		<path class="st0" d="M116.9,74.5c0.2-0.3,0.1-0.5,0.1-0.8c0,0,0,0,0,0C116.9,74,117,74.2,116.9,74.5z"/>
		<path class="st0" d="M136.5,49.3c-0.1,0.3-0.1,0.5,0,0.8v0C136.4,49.8,136.4,49.6,136.5,49.3z"/>
		<path class="st0" d="M121.4,55.1c0.2-0.3,0.1-0.5,0.1-0.8c0,0,0,0,0,0C121.4,54.5,121.5,54.8,121.4,55.1z"/>
		<path class="st0" d="M79.4,38.7c-0.2,0.2-0.1,0.5-0.1,0.7c0,0,0,0,0,0C79.4,39.2,79.3,38.9,79.4,38.7z"/>
		<path class="st0" d="M78.6,55.7C78.6,55.7,78.6,55.7,78.6,55.7c0,0.2,0,0.5,0,0.7c0,0,0,0,0,0C78.6,56.2,78.6,55.9,78.6,55.7z"/>
		<path class="st0" d="M121.4,56.4c0-0.2,0-0.5,0-0.7c0,0,0,0,0,0C121.3,55.9,121.3,56.2,121.4,56.4z"/>
		<path class="st0" d="M78.2,59.7c0,0.2-0.1,0.5,0.1,0.7C78.2,60.2,78.3,59.9,78.2,59.7z"/>
		<path class="st0" d="M121.7,60.4c0.2-0.2,0.1-0.5,0.1-0.7c0,0,0,0,0,0C121.6,59.9,121.8,60.2,121.7,60.4z"/>
		<path class="st0" d="M39,131.7c0,0.2-0.1,0.5,0.1,0.7C38.9,132.1,39.1,131.9,39,131.7z"/>
		<path class="st0" d="M160.9,132.3c0.2-0.2,0.1-0.5,0.1-0.7c0,0,0,0,0,0C160.9,131.9,161,132.1,160.9,132.3z"/>
		<path class="st0" d="M61.4,184.9c0,0.2-0.1,0.5,0.1,0.7C61.4,185.4,61.5,185.2,61.4,184.9z"/>
		<path class="st0" d="M138.5,185.6c0.2-0.2,0.1-0.5,0.1-0.7c0,0,0,0,0,0C138.5,185.2,138.6,185.4,138.5,185.6z"/>
		<path class="st0" d="M61.5,186.1c0,0.2-0.1,0.5,0.1,0.7C61.5,186.6,61.6,186.4,61.5,186.1z"/>
		<path class="st0" d="M138.4,186.8c0.2-0.2,0.1-0.5,0.1-0.7c0,0,0,0,0,0C138.4,186.4,138.5,186.6,138.4,186.8z"/>
		<path class="st0" d="M61.6,187.4c0,0.2-0.1,0.5,0.1,0.7C61.6,187.9,61.7,187.7,61.6,187.4z"/>
		<path class="st0" d="M138.3,188.1c0.2-0.2,0.1-0.5,0.1-0.7c0,0,0,0,0,0C138.2,187.7,138.4,187.9,138.3,188.1z"/>
		<path class="st0" d="M82.8,69.9c0,0.2-0.1,0.5,0.1,0.7C82.8,70.4,82.9,70.1,82.8,69.9z"/>
		<path class="st0" d="M117.1,70.6c0.2-0.2,0.1-0.5,0.1-0.7c0,0,0,0,0,0C117.1,70.1,117.2,70.4,117.1,70.6z"/>
		<path class="st0" d="M84.2,84.9c-0.2,0.2-0.1,0.5-0.1,0.7c0,0,0,0,0,0C84.2,85.4,84.1,85.1,84.2,84.9z"/>
		<path class="st0" d="M97.7,18.3c-0.1-0.1-0.2-0.2-0.2-0.1c-0.1,0.1,0,0.2,0.1,0.4C97.5,18.4,97.5,18.3,97.7,18.3z"/>
		<path class="st0" d="M54.8,86.1c-0.2,0-0.5-0.1-0.7,0.1C54.4,86.1,54.6,86.2,54.8,86.1z"/>
		<path class="st0" d="M116,25.2c0.1-0.2,0.1-0.4,0-0.6C116.1,24.8,116.1,25,116,25.2z"/>
		<path class="st0" d="M113.8,24.8c-0.2-0.2-0.5-0.1-0.7-0.1c0,0,0,0,0,0C113.4,24.8,113.6,24.7,113.8,24.8z"/>
		<path class="st0" d="M145.8,86.2c-0.2-0.2-0.5-0.1-0.7-0.1c0,0,0,0,0,0C145.4,86.2,145.6,86.1,145.8,86.2z"/>
		<path class="st0" d="M77.1,35.6c0,0.1-0.2,0.2-0.2,0.4c0.2,0,0.2-0.2,0.3-0.3C77.1,35.7,77.1,35.7,77.1,35.6z"/>
		<path class="st0" d="M140.1,53.1c0.2,0,0.4,0.1,0.6-0.1C140.5,53.1,140.2,53,140.1,53.1z"/>
		<path class="st0" d="M121.2,35.4c0-0.2,0.1-0.4-0.1-0.6v0l0,0C121.2,35,121.1,35.2,121.2,35.4z"/>
		<path class="st0" d="M121.1,34.4c0-0.2,0.1-0.4-0.1-0.6v0l0,0C121.1,34,121,34.2,121.1,34.4z"/>
		<path class="st0" d="M155.1,30c-0.2-0.1-0.4-0.1-0.5,0C154.7,29.9,154.9,29.9,155.1,30z"/>
		<path class="st0" d="M45.5,30c-0.2-0.1-0.4-0.1-0.5,0C45.1,29.9,45.3,29.9,45.5,30z"/>
		<path class="st0" d="M39.1,132.9c0,0.2-0.1,0.4,0.1,0.6C39.1,133.3,39.2,133,39.1,132.9z"/>
		<path class="st0" d="M160.8,133.4c0.2-0.2,0.1-0.4,0.1-0.6c0,0,0,0,0,0C160.8,133,160.9,133.3,160.8,133.4z"/>
		<path class="st0" d="M61.1,181.8c0,0.2-0.1,0.4,0.1,0.6C61.1,182.2,61.2,182,61.1,181.8z"/>
		<path class="st0" d="M138.8,182.4c0.2-0.2,0.1-0.4,0.1-0.6c0,0,0,0,0,0C138.8,182,138.9,182.2,138.8,182.4z"/>
		<path class="st0" d="M61.2,182.8c0,0.2-0.1,0.4,0.1,0.6C61.2,183.2,61.3,183,61.2,182.8z"/>
		<path class="st0" d="M138.7,183.4c0.2-0.2,0.1-0.4,0.1-0.6c0,0,0,0,0,0C138.7,183,138.8,183.2,138.7,183.4z"/>
		<path class="st0" d="M61.3,183.9C61.3,183.9,61.3,183.9,61.3,183.9c0,0.2-0.1,0.4,0.1,0.6C61.3,184.3,61.4,184,61.3,183.9z"/>
		<path class="st0" d="M138.6,184.4c0.2-0.2,0.1-0.4,0.1-0.6c0,0,0,0,0,0C138.6,184,138.7,184.3,138.6,184.4z"/>
		<path class="st0" d="M114.5,24.7c-0.2,0-0.4-0.1-0.5,0.1C114.1,24.7,114.3,24.8,114.5,24.7z"/>
		<path class="st0" d="M115.8,23.6c0-0.1,0-0.2-0.1-0.2c-0.1,0-0.1,0.2-0.1,0.3l0,0C115.6,23.7,115.6,23.5,115.8,23.6z"/>
		<path class="st0" d="M96.5,20.8L96.5,20.8c-0.1,0-0.2,0.1-0.3,0.1C96.3,20.9,96.5,21,96.5,20.8z"/>
		<path class="st0" d="M117.2,69.4c0.2-0.2,0.1-0.4,0.1-0.6c0,0,0,0,0,0C117.2,69,117.3,69.2,117.2,69.4z"/>
		<path class="st0" d="M78.3,58c-0.2,0.2-0.1,0.4-0.1,0.6c0,0,0,0,0,0C78.3,58.4,78.2,58.2,78.3,58z"/>
		<path class="st0" d="M120.8,52.1c0-0.2,0-0.4,0-0.6c0,0,0,0,0,0C120.7,51.7,120.7,51.9,120.8,52.1z"/>
		<path class="st0" d="M79.2,50.9c0,0.2-0.1,0.4,0.1,0.6C79.2,51.3,79.3,51.1,79.2,50.9z"/>
		<path class="st0" d="M116.2,87.1c0-0.2,0.1-0.4-0.1-0.6l0,0v0C116.2,86.7,116.1,86.9,116.2,87.1z"/>
		<path class="st0" d="M121.1,49.1c0.1-0.2,0.1-0.4,0-0.5C121.2,48.7,121.2,48.9,121.1,49.1z"/>
		<path class="st0" d="M120.8,46.8c0-0.2,0-0.4,0-0.6c0,0,0,0,0,0C120.7,46.4,120.7,46.6,120.8,46.8z"/>
		<path class="st0" d="M121.7,58.6c0-0.2,0.1-0.4-0.1-0.6v0l0,0C121.7,58.2,121.7,58.4,121.7,58.6z"/>
		<path class="st0" d="M79.5,37.5c-0.2,0.2-0.1,0.4-0.1,0.6c0,0,0,0,0,0C79.5,37.9,79.4,37.7,79.5,37.5z"/>
		<path class="st0" d="M121.2,36.6c0,0.1,0,0.3,0.2,0.4c0.1-0.2,0-0.2-0.1-0.4c0,0,0,0,0,0C121.3,36.7,121.2,36.7,121.2,36.6z"/>
		<path class="st0" d="M137.6,200.5C137.6,200.5,137.6,200.5,137.6,200.5c0.2-0.2,0.1-0.4,0.1-0.6c0,0.1,0,0.2,0,0.3
			C137.7,200.3,137.7,200.4,137.6,200.5z"/>
		<path class="st0" d="M83.2,63.6c0-0.4,0-0.7-0.1-1.1c0,0.3,0.2,0.7-0.1,1c0,0,0,0.1,0.1,0.1C83.2,63.8,83.2,63.7,83.2,63.6z"/>
		<path class="st0" d="M151.2,37.7C151.2,37.6,151.2,37.6,151.2,37.7C151.2,37.6,151.2,37.7,151.2,37.7
			C151.2,37.7,151.2,37.7,151.2,37.7z"/>
		<path class="st0" d="M151.2,37.7C151.2,37.7,151.2,37.7,151.2,37.7c-0.1,0.1-0.1,0.2-0.1,0.3C151.2,38,151.3,37.9,151.2,37.7z"/>
		<path class="st0" d="M151.2,37.7c0,0.2,0,0.4,0,0.5C151.3,38,151.3,37.9,151.2,37.7z"/>
		<path class="st0" d="M48.8,38.2c0-0.1,0-0.2,0-0.3c0,0.1,0.1,0.1,0.1,0.2c0-0.1-0.1-0.2-0.2-0.5C48.7,37.9,48.7,38,48.8,38.2z"/>
		<path class="st0" d="M146.7,37.1c-0.1,0.1-0.1,0.2-0.2,0.3c0,0,0.1-0.1,0.1-0.1c0,0.1,0,0.1,0,0.2
			C146.7,37.4,146.7,37.3,146.7,37.1z"/>
		<path class="st0" d="M53.3,37.1c-0.1,0.1,0,0.3,0.1,0.4c0-0.1,0-0.1,0-0.2c0,0,0.1,0.1,0.1,0.1h0C53.4,37.3,53.4,37.2,53.3,37.1z"
			/>
		<path class="st0" d="M86.6,102.6c-1.8,1-3.7,1.2-5.7,0.5c-1.3-0.4-2.5-1-3.8-1.5c-2.8-1.2-5.7-1.8-8.8-1.6
			c3.2,0.8,6.2,2.3,9.2,3.6c1.2,0.6,2.4,1.1,3.7,1.5c2.6,0.9,4.8,0.4,6.8-1.6c1.1-1.1,2-2.3,3-3.5c0.3-0.4,0.6-0.7,1-1.2
			c-0.4,0.1-0.6,0.3-0.7,0.4C89.7,100.5,88.2,101.7,86.6,102.6z"/>
		<path class="st0" d="M112.7,104.1c1.4,1.2,3,1.6,4.8,1.3c1.1-0.2,2.1-0.6,3.2-1c2.5-1.1,4.9-2.3,7.4-3.3c1.2-0.4,2.4-0.8,3.6-1.2
			c-1.8-0.1-3.5,0-5.3,0.4c-2.1,0.5-4,1.4-5.9,2.2c-1.1,0.4-2.1,0.8-3.3,0.9c-1.8,0.2-3.4-0.5-4.8-1.5c-1.3-0.8-2.4-1.8-3.6-2.7
			c-0.2-0.1-0.3-0.3-0.7-0.4c0.2,0.3,0.4,0.5,0.6,0.7C110,101.2,111.1,102.8,112.7,104.1z"/>
		<path class="st0" d="M86.2,51.8c2-0.6,4.1-0.8,6.2-0.9c0.6,0,1.2,0.1,1.8,0.4c0.6,0.4,1,0.3,1.5-0.2c0-0.1,0.1-0.2,0.2-0.2
			c0.5-0.6,0.1-1.2,0.1-1.8c0-0.2-0.2-0.2-0.3-0.1c-0.5,0.4-0.9,0.1-1.3-0.2c-0.6-0.5-1.2-0.5-1.9-0.4c-1,0.1-2,0.4-3,0.7
			c-1.9,0.5-3.5,1.3-4.6,3C85.3,51.9,85.7,51.9,86.2,51.8z"/>
		<path class="st0" d="M105.3,50c0.2,0,0.3,0,0.5-0.1c0.7-0.2,1.4-0.1,2.2,0.2c1.9,0.6,3.9,1.3,6,1.2c0.3,0,0.6,0,0.9,0
			c0.2,0,0.5,0.1,0.5-0.2c0-0.2-0.1-0.3-0.4-0.4c-2.2-0.8-4.2-1.8-6.4-2.7c-0.9-0.4-1.7-0.8-2.7-0.6c-0.1,0-0.2,0-0.3,0
			c-0.6-0.3-0.8,0.1-0.9,0.5c-0.1,0.4-0.2,0.7-0.3,1.1C104.3,49.7,104.6,50,105.3,50z"/>
		<path class="st0" d="M97.5,65.4c0.4,0.1,0.6,0.4,0.7,0.7c0.3,0.5,0.6,1,1.1,1.4c0.9,0.8,1.9,0.7,2.7-0.1c0.5-0.6,0.9-1.3,1.3-2.1
			c-0.5,0.1-1,0.1-1.5,0.2c-1.3,0.2-2.5,0.2-3.8-0.2c-0.1-0.1-0.4,0-0.3-0.3c0.1-0.4,0.1-0.9,0.3-1.3c0,0.3,0,0.7,0,1
			c0,0.5,0.5,0.6,0.8,0.6c0.5,0,0.3-0.3,0.3-0.6c0-2.4,0-4.9,0.1-7.3c0-0.1,0.1-0.2-0.1-0.3c0,0.2-0.1,0.4-0.1,0.6
			c-0.1,0.5-0.1,0.9-0.4,1.4c0.1-0.5,0.1-1,0.2-1.5h0c0,0-0.1,0-0.1,0c-0.7,2.4-1.1,4.9-1.7,7.3C97.1,65.1,97.3,65.3,97.5,65.4z
			 M98.6,59.9C98.7,59.8,98.7,59.8,98.6,59.9C98.7,59.8,98.7,59.8,98.6,59.9c0-0.2,0-0.4,0.2-0.7C98.8,59.4,98.7,59.6,98.6,59.9
			L98.6,59.9c0,0.2,0.1,0.5-0.1,0.6c0,0,0,0,0,0l0,0c0,0,0,0,0,0C98.5,60.3,98.4,60,98.6,59.9z M98.4,61C98.4,61,98.4,61,98.4,61
			c0-0.2-0.1-0.4,0.1-0.5c0,0,0,0,0,0c0,0,0,0,0,0c0,0,0,0,0,0C98.5,60.7,98.6,60.9,98.4,61C98.4,61,98.4,61,98.4,61
			C98.4,61.1,98.4,61.1,98.4,61c0,0.2,0,0.3,0,0.6C98.3,61.3,98.3,61.2,98.4,61C98.4,61.1,98.4,61,98.4,61L98.4,61
			C98.4,61,98.4,61,98.4,61z M98.2,61.7c0.2,0.2,0.1,0.4,0.1,0.6C98.1,62.1,98.2,61.9,98.2,61.7z M98.1,62.6c0.1,0.3,0.1,0.6,0,0.9
			c0,0-0.1,0-0.1,0C98,63.1,98.1,62.8,98.1,62.6z"/>
		<path class="st0" d="M93.6,53.1c-0.3,0.2-0.5,0.3-0.8,0.5c-0.9,0.4-1.9,0.5-2.9,0.6c-0.2,0-0.4-0.1-0.5,0.2c0.6,0,1.3,0,1.9,0
			c0.2-0.1,0.5-0.1,0.8-0.1c0,0.2-0.1,0.2-0.2,0.2c-1.8,0.7-3.5,0.6-5.3,0c-0.2-0.1-0.5-0.4-0.7-0.1c-0.1,0.2,0.3,0.5,0.5,0.6
			c0.7,0.4,1.4,0.7,2.1,1c1.6,0.7,3.1,0.5,4.6-0.3c0.1-0.1,0.3-0.2,0.4-0.2c0.2,0,0.1,0.3,0.2,0.4c0.6-0.4,0.7-1.1,0.9-1.7
			c0.1-0.4,0.2-0.9,0.8-1C94.6,52.7,94.2,52.7,93.6,53.1z"/>
		<path class="st0" d="M113.6,54.4c-1.2,0.4-2.5,0.6-3.7,0.5c-0.6-0.1-1.2-0.2-1.8-0.5c0.8,0,1.6,0,2.4-0.1
			c-0.4-0.1-0.8-0.1-1.2-0.2c-1.1-0.1-2.2-0.4-3.1-1c-0.5-0.3-0.9-0.3-1.5,0.2c0.7,0.1,0.7,0.6,0.9,1.1c0.1,0.4,0.2,0.8,0.6,1.2
			c0.1,0.1,0.2,0.2,0.3,0.1c0.2-0.5,0.5-0.2,0.7-0.1c2.4,1.3,4.5,0.4,6.6-0.7c0.1,0,0.1-0.1,0.2-0.1c0.1-0.1,0.3-0.2,0.2-0.4
			C113.9,54.2,113.7,54.3,113.6,54.4z"/>
		<path class="st0" d="M100.8,70.4c-2-0.2-3.8,0.6-5.4,1.6c3.2-0.2,6.3,0.1,9.5,0.3C104.5,71.4,102.9,70.6,100.8,70.4z"/>
		<path class="st0" d="M97.4,74.1c0,0.4,0.1,0.6,0.5,0.7c1,0.4,2,0.5,3.1,0.4c0.9-0.1,1.6-0.5,2.3-1.2
			C101.2,74.3,99.3,74.6,97.4,74.1z"/>
		<path class="st0" d="M103.2,49.9c0.1,0.1,0.2,0.2,0.4,0.1c0.1-0.1,0.1-0.3,0-0.4c-0.2-0.4-0.2-0.8-0.2-1.3c0-0.3,0-0.6,0-0.9
			c-0.4,0.3-0.5,0.6-0.7,1C102.4,48.9,102.6,49.5,103.2,49.9z"/>
		<path class="st0" d="M95.6,51c0.1,0.1,0.2,0.3,0.4,0.3c0.6-0.1,1.1-0.5,1.4-1c0.3-0.5-0.3-0.7-0.4-1.1c-0.1,0.4-0.2,0.7-0.4,1
			c-0.2,0.3-0.4,0.6-0.8,0.5C95.8,50.9,95.7,50.9,95.6,51z"/>
		<path class="st0" d="M96.4,71.2c0.9-0.4,1.7-0.7,2.6-1.1c-1-0.1-1.9,0.3-2.7,0.8c-0.1,0-0.2,0.1-0.1,0.2
			C96.2,71.3,96.3,71.2,96.4,71.2z"/>
		<path class="st0" d="M99,57.6C99,57.6,99,57.6,99,57.6c0.1,0.2,0.1,0.3,0,0.4c0-0.1,0.1-0.2,0.1-0.3C99.1,57.6,99.1,57.6,99,57.6
			L99,57.6L99,57.6z"/>
		<path class="st0" d="M99,58.3c0,0.2-0.1,0.3-0.1,0.5C98.9,58.7,98.9,58.5,99,58.3z"/>
		<path class="st0" d="M110.2,51.6L110.2,51.6C110.2,51.6,110.2,51.6,110.2,51.6c-0.4-0.2-0.9-0.1-1.3-0.2c0.4,0.2,0.9,0.2,1.3,0.3
			C110.2,51.7,110.2,51.6,110.2,51.6z"/>
		<path class="st0" d="M110.3,51.7C110.3,51.7,110.3,51.7,110.3,51.7c0.3,0.1,0.6,0.3,1.1,0.2C110.9,51.7,110.6,51.6,110.3,51.7
			C110.3,51.6,110.3,51.6,110.3,51.7z"/>
		<path class="st0" d="M91.1,54.4c0.2,0.1,0.4-0.1,0.5,0.1C91.6,54.3,91.6,54.3,91.1,54.4z"/>
		<path class="st0" d="M106.7,51.6c-0.1-0.1-0.3-0.2-0.4-0.1C106.4,51.6,106.5,51.6,106.7,51.6z"/>
		<path class="st0" d="M99,57.6C99,57.5,99,57.5,99,57.6c0.1-0.1,0.1-0.2,0-0.3c-0.1,0.1-0.2,0.2-0.2,0.4
			C98.9,57.5,98.9,57.5,99,57.6z"/>
		<ellipse transform="matrix(0.7183 -0.6957 0.6957 0.7183 -12.177 85.0741)" class="st0" cx="99" cy="57.6" rx="0" ry="0"/>
		<path class="st0" d="M97.7,73.4c0.1,0.1,0.3,0.1,0.5,0C97.9,73.4,97.8,73.4,97.7,73.4z"/>
		<polygon class="st0" points="98.7,59.8 98.7,59.8 98.7,59.8 		"/>
	</g>
</g>
</svg>
