<?xml version="1.0" encoding="utf-8"?>
<!-- Generator: Adobe Illustrator 21.1.0, SVG Export Plug-In . SVG Version: 6.00 Build 0)  -->
<svg version="1.1" id="Layer_1" xmlns="http://www.w3.org/2000/svg" xmlns:xlink="http://www.w3.org/1999/xlink" x="0px" y="0px"
	 viewBox="0 0 150 150" style="enable-background:new 0 0 150 150;" xml:space="preserve">
<style type="text/css">
	.st0{fill:#658AAD;}
	.st1{fill:#D2E5F5;}
	.st2{fill:#BED6EA;}
	.st3{fill:#DC1F26;}
	.st4{fill:#F79E8D;}
	.st5{opacity:0.2;}
	.st6{opacity:0.5;}
	.st7{fill:#DF7C68;}
	.st8{fill:#172930;}
	.st9{fill:#A75342;}
	.st10{fill:#B66656;}
</style>
<g>
	<g>
		<path class="st0" d="M116.2,13H51.3c-7.3,0-13.2,5.9-13.2,13.2v27.3c0,7.3,5.9,13.2,13.2,13.2h64.9c7.3,0,13.2-5.9,13.2-13.2V26.2
			C129.4,18.9,123.5,13,116.2,13z"/>
		<path class="st1" d="M109.2,13H44.3c-7.3,0-13.2,5.9-13.2,13.2v27.3c0,7.3,5.9,13.2,13.2,13.2h64.9c7.3,0,13.2-5.9,13.2-13.2V26.2
			C122.4,18.9,116.5,13,109.2,13z"/>
		<path class="st2" d="M104.7,66.7V13H56.2c-2.6,2.7-8,10.2-8,26.1c0,14.9,0,23.8,0,27.6H104.7z"/>
		<g>
			<g>
				<path class="st3" d="M101.6,97.2l-12.8-6.9l19-35.3L78,50.7l2.1-14.4l40.1,5.8c2.4,0.3,4.4,1.8,5.5,3.9c1.1,2.1,1,4.6-0.1,6.7
					L101.6,97.2z"/>
			</g>
			<path class="st4" d="M86.6,51.9l16.9,2.4c2.9-5.6,3.1-11.5,3-14.3l-19.8-2.9V51.9z"/>
			<rect x="51" y="81.8" class="st3" width="51.6" height="68.2"/>
			<path class="st5" d="M51,108.2v13.6l50.8,0.8c0,0,0.3,0,0.8-0.2v-13.9C77.6,114.6,56,109.6,51,108.2z"/>
			<polygon class="st6" points="73.6,89.4 57.4,81.8 75.3,81.8 			"/>
			<path class="st7" d="M69.7,73.6v9.5c0,3.9,3.1,7,7,7h0c3.9,0,7-3.1,7-7v-9.5H69.7z"/>
			<g>
				<path class="st7" d="M57.1,39.9h-2c-3,0-5,3.1-3.8,5.8l5.8,12.9C57.1,58.6,60,40.4,57.1,39.9z"/>
				<path class="st7" d="M96.3,39.9h2c3,0,5,3.1,3.8,5.8l-5.8,12.9C96.3,58.6,93.5,40.4,96.3,39.9z"/>
				<path class="st4" d="M56.2,32v24.6c0,11.4,9.2,20.6,20.6,20.6h0c11.4,0,20.6-9.2,20.6-20.6V32H56.2z"/>
				<path class="st8" d="M97.3,33.8H56.2v0c0-10.9,8.8-19.7,19.7-19.7h21.4V33.8z"/>
				<path class="st8" d="M60.4,31.6v4.7c0,4.8-1.5,9.5-4.2,13.5l0,0V33.1L60.4,31.6z"/>
				<path class="st8" d="M93.1,31.6v4.7c0,4.8,1.5,9.5,4.2,13.5h0V30L93.1,31.6z"/>
				<path class="st8" d="M96.4,37c5.2-6.5,8.1-14.7,8.3-23c0.1-3.6-0.5-7.4-2.9-10c-0.8-0.9-2.1-1.6-3.2-1.3
					c-0.9,0.3-1.6,1.1-1.9,2.1c-0.3,0.9-0.2,1.9-0.2,2.9c-1.5-3.2-4.2-5.8-7.5-7c-1.1-0.4-2.2-0.7-3.4-0.6c-1.2,0.1-2.3,0.5-3.1,1.4
					c-0.9,1.1-1.1,2.8-0.7,4.2c0.4,1.4,1.2,2.7,1.9,3.9C80,7,75.3,5.9,70.8,6.4c-1.9,0.2-3.8,0.7-5.2,1.9c-2.4,1.9-3.3,5.5-2.5,8.5
					c0.8,3,3.1,5.5,5.8,7c2.7,1.6,5.8,2.3,8.8,2.8c3.9,0.6,8,0.7,11.5,2.5C92.2,30.6,95.3,33.7,96.4,37z"/>
				<g>
					<g>
						<path class="st9" d="M67.4,49.8c-2.3,0-4.5-1-6-2.8c-0.3-0.3-0.2-0.8,0.1-1.1c0.3-0.3,0.8-0.2,1.1,0.1c1.2,1.4,3,2.3,4.9,2.3
							c1.9,0,3.7-0.8,4.9-2.3c0.3-0.3,0.7-0.3,1.1-0.1c0.3,0.3,0.4,0.7,0.1,1.1C71.9,48.8,69.7,49.8,67.4,49.8z"/>
					</g>
					<g>
						<path class="st9" d="M86.1,49.8c-2.3,0-4.5-1-6-2.8c-0.3-0.3-0.2-0.8,0.1-1.1c0.3-0.3,0.8-0.2,1.1,0.1c1.2,1.4,3,2.3,4.9,2.3
							c1.9,0,3.7-0.8,4.9-2.3c0.3-0.3,0.7-0.4,1.1-0.1c0.3,0.3,0.4,0.7,0.1,1.1C90.6,48.8,88.4,49.8,86.1,49.8z"/>
					</g>
				</g>
				<g>
					<path class="st8" d="M91.9,43.5c-0.5,0-0.9-0.3-1.1-0.7C90,41.2,88.7,40,87,39.6c-1.7-0.5-3.5-0.1-4.9,0.8
						c-0.6,0.4-1.3,0.2-1.7-0.3c-0.4-0.6-0.2-1.3,0.3-1.7c2-1.4,4.6-1.8,7-1.2c2.4,0.6,4.4,2.3,5.4,4.5c0.3,0.6,0,1.4-0.6,1.7
						C92.3,43.4,92.1,43.5,91.9,43.5z"/>
				</g>
				<g>
					<path class="st8" d="M61.5,43.5c-0.2,0-0.4,0-0.5-0.1c-0.6-0.3-0.9-1-0.6-1.7c1.1-2.2,3-3.9,5.4-4.5c2.4-0.6,4.9-0.2,7,1.2
						c0.6,0.4,0.7,1.2,0.3,1.7c-0.4,0.6-1.2,0.7-1.7,0.3c-1.4-1-3.2-1.3-4.9-0.8c-1.7,0.5-3.1,1.6-3.8,3.2
						C62.5,43.2,62,43.5,61.5,43.5z"/>
				</g>
				<path class="st7" d="M76.7,51.1l-2.2,8c-0.4,1.5,0.7,2.9,2.2,2.9h0l0,0c1.5,0,2.6-1.5,2.2-2.9L76.7,51.1z"/>
				<path class="st8" d="M76.7,64.7c-3.1,0-5.6,2.5-5.6,5.6h11.2C82.3,67.2,79.8,64.7,76.7,64.7z"/>
				<path class="st10" d="M80.8,70.3c-0.7-1.5-2.3-2.5-4.1-2.5c-1.8,0-3.3,1-4.1,2.5H80.8z"/>
			</g>
		</g>
		<g>
			<path class="st7" d="M68.8,133.5l7-4.3c0.5-0.3,1.2-0.1,1.4,0.5l0,0c0.1,0.4,0,0.7-0.2,1l-3.4,3.4L68.8,133.5z"/>
			<path class="st4" d="M67.1,134l10.7-3c1.6-0.5,3.3-0.4,4.9,0.1l6.1,2.2c0.7,0.2,1.2,0.9,1.2,1.6v5.9c0,1-0.8,1.8-1.8,1.7
				l-5.1-0.1c-1.1-0.1-2.2,0-3.2,0.4l-8.2,2.6c-1.4,0.4-2.9,0.5-4.3,0.1l-3.8-1.1L67.1,134z"/>
			<path class="st7" d="M67.1,134l-3.5,10.3l3.8,1.1c0.1,0,0.1,0,0.2,0.1l1.3-11.9L67.1,134z"/>
			<path class="st3" d="M68.1,132.3L39,126.2L57,92.6c1.9-3.5,0.6-8-3-9.9c-3.5-1.9-8-0.6-9.9,3l-22.7,42.2c-1.1,2-1.2,4.4-0.2,6.5
				c1,2.1,2.9,3.6,5.1,4.1l37.8,7.9L68.1,132.3z"/>
		</g>
	</g>
	<g>
		<g>
			<path class="st3" d="M47.6,50.2l4.9-1.7l0.2,1.4L46,52.2l-0.2-1.3l3.6-9.5l-4.7,1.6l-0.2-1.4l6.5-2.2l0.2,1.3L47.6,50.2z"/>
		</g>
		<g>
			<path class="st3" d="M24.3,19.7l4.9,1.7l-0.7,1.2l-6.7-2.4l0.7-1.2l8.7-5.3l-4.7-1.7l0.7-1.2l6.5,2.3L33,14.4L24.3,19.7z"/>
		</g>
		<g>
			<path class="st3" d="M35.8,34.4l8.6,0.5l-0.5,2.3l-11.8-0.7l0.5-2.2l11.6-12.5l-8.3-0.5l0.5-2.3L48,19.7l-0.5,2.2L35.8,34.4z"/>
		</g>
	</g>
</g>
</svg>
