<?xml version="1.0" encoding="utf-8"?>
<!-- Generator: Adobe Illustrator 21.1.0, SVG Export Plug-In . SVG Version: 6.00 Build 0)  -->
<svg version="1.1" id="Layer_1" xmlns="http://www.w3.org/2000/svg" xmlns:xlink="http://www.w3.org/1999/xlink" x="0px" y="0px"
	 viewBox="0 0 150 150" style="enable-background:new 0 0 150 150;" xml:space="preserve">
<style type="text/css">
	.st0{fill:#F1C37D;}
	.st1{fill:#DC1F26;}
	.st2{opacity:0.2;fill:#1B748B;}
	.st3{fill:#FFDAA3;}
	.st4{fill:#A6642B;}
	.st5{fill:#FFFFFF;}
	.st6{fill:#BE8759;}
	.st7{fill:#F1B153;}
	.st8{fill:#F8D090;}
	.st9{opacity:0.2;}
</style>
<g>
	<g>
		<path class="st0" d="M96.2,63.4c0-4-2.4-5.2-4.4-5.2c-2,0-4.4,1.3-4.4,5.2c0,4,2.4,7.2,4.4,7.2C93.7,70.6,96.2,67.3,96.2,63.4z"/>
		<path class="st0" d="M62.7,63.4c0-4-2.4-5.2-4.4-5.2c-2,0-4.4,1.3-4.4,5.2c0,4,2.4,7.2,4.4,7.2C60.3,70.6,62.7,67.3,62.7,63.4z"/>
		<path class="st1" d="M46.4,94.8v49.5c7.7,3.2,17.6,5.1,28.6,5.1c10.9,0,20.9-1.9,28.6-5.1V94.8L75,87.4L46.4,94.8z"/>
		<path class="st2" d="M89.4,91.1l-0.1,3.2C87.8,102,82,107.4,75,107.4c-7,0-12.8-5.4-14.3-13.1l-0.3-3.2l-0.8,0.2l0.5,3.8
			c1.8,7.7,7.8,13.1,15,13.1c7.1,0,13.2-5.3,15-13.1l0.1-3.9L89.4,91.1z"/>
		<path class="st2" d="M75,87.4l-12.9,3.3v0.2l0.1,1.7c0.8,7.4,6.2,13.1,12.8,13.1c6.6,0,12-5.6,12.8-13.1l0-1.9L75,87.4z"/>
		<path class="st0" d="M80.3,78.8c-1.6-1-3.4-1.6-5.3-1.6c-1.9,0-3.7,0.6-5.3,1.6h-5.9v12.1h0C63.9,98.2,68.9,104,75,104
			c6.1,0,11.1-5.8,11.2-13.1h0V78.8H80.3z"/>
		<path class="st3" d="M92.8,61.9C92.8,46,83,41,75,41c-8,0-17.7,5-17.7,20.9c0,15.9,9.8,28.8,17.7,28.8
			C83,90.7,92.8,77.8,92.8,61.9z"/>
		<path class="st3" d="M64.8,78c0,11.4,5.6,15,10.2,15c4.6,0,10.2-3.6,10.2-15c0-11.4-5.6-20.7-10.2-20.7
			C70.4,57.4,64.8,66.6,64.8,78z"/>
		<g>
			<path class="st4" d="M75,80.3c-1.9,0-6.3-1.2-6.3,1.1c0,2.3,1.7,7.8,6.3,7.8c4.5,0,6.3-5.5,6.3-7.8C81.3,79.2,76.9,80.3,75,80.3z
				"/>
			<path class="st5" d="M75,83.1c2.5,0,4.6-0.6,5.1-2.2c-1.4-0.3-3.8,0.1-5.1,0.2c-1.3,0-3.6-0.4-5.1-0.2
				C70.4,82.5,72.5,83.1,75,83.1z"/>
		</g>
		<path class="st6" d="M75,34.6c-16.7,0.1-21.2,5.7-21.2,23.6c0,1,0,2,0.1,3l3.5,3.7c1.7-10.7-2.1-10.6,10.1-12.3
			c-0.9,0.5-1.9,0.9-3,1.3c-0.8,0.3-1.6,0.5-2.4,0.6c1.4,0.4,3,0.2,5.3-0.6c1.6-0.5,3-1.1,4-1.9c1.1-0.2,2.2-0.3,3.4-0.5
			c0.6-0.1,1.3-0.2,1.9-0.3c-1.2,0.6-2.5,1.2-3.9,1.6c-1.2,0.4-2.3,0.6-3.4,0.8c1.7,1.1,4.9,1.3,8.1,0.3c2.4-0.8,4.3-2,5.5-3.4
			c0.2,0,0.3,0,0.5,0c0.8,1,1.7,2,2.9,2.9c1.5,1.2,3.1,2.2,4.5,2.7c0.8,2.1,1.2,5,1.4,8.8l3.5-3.7c0.1-1,0.1-2,0.1-3
			C96.2,40.3,91.7,34.5,75,34.6z"/>
		<g>
			<path class="st7" d="M68.2,67c-0.7-1.1-2.1-1.5-3.4-1.4c-0.7,0.1-2.3,0.9-1.5,1.7c0.1,0.1,0.3,0.1,0.4,0c0.5-0.5,0.9-0.8,1.6-0.7
				c0.8,0,1.7,0.2,2.3,0.8C67.9,67.7,68.4,67.3,68.2,67z"/>
			<path class="st7" d="M70.7,73.6c-1.7,1.4-4,3-4.5,5.3c-0.3,1.3,0.3,2.6,0.6,3.9c0.3,1.1,1.8,3.7,2.4,4.6c0.1,0.1-1.7-5.9-1.6-7.7
				c0.1-1.9,1.4-2.8,2.2-4.4c0.2-0.4,0.5-1.4,0.9-1.7c0,0,0,0,0-0.1c0,0-0.1,0-0.1,0C70.8,73.6,70.7,73.6,70.7,73.6z"/>
			<path class="st7" d="M66.8,65.2c1.6,1.2,2.9,2.3,5,2.4l0,0c0.3,0,0.5-0.1,0.8-0.2c0,0,0.1,0,0.1,0c1.9-0.9,0.1-4-1.7-2.8
				c-1,0.7-3.5-1.2-4.6-1.6c-0.9-0.3-2.1-1.2-3.1-1.1c-1.9,0.1-1.6,2.3-1.4,3.6c0,0.1,0.2,0.1,0.2,0c0.1-0.6,0.2-1,0.4-1.5
				c0.5-1.7,1.3-0.6,2-0.1C65.1,64.4,66,64.7,66.8,65.2z"/>
			<path class="st7" d="M78.3,75.4c0.4,0.7-0.2,1.5-1,2.1c-0.3,0.2-0.6,0.3-0.9,0.5c-0.2,0.1-0.5,0.3-0.7,0.5h-0.8
				c-0.2-0.2-0.5-0.3-0.7-0.5c-0.3-0.2-0.6-0.3-0.9-0.5c-0.8-0.6-1.4-1.4-1-2.1c0.4-0.6,0.2-1.2-0.1-0.6c-0.5,0.9-0.7,2.4,0.2,3.1
				c0.4,0.3,1,0.7,1.5,0.7c0.5,0,0.9,0.3,1.4,0.3c0,0,0.2,0,0.2,0c0.5-0.1,0.9-0.3,1.4-0.3c0.5,0,1.1-0.4,1.5-0.7
				c0.9-0.7,0.7-2.2,0.2-3.1C78,74.1,77.9,74.7,78.3,75.4z"/>
			<path class="st7" d="M85.7,65.6C84.4,65.5,83,66,82.3,67c-0.2,0.3,0.2,0.6,0.5,0.4c0.6-0.6,1.5-0.8,2.3-0.8
				c0.7,0,1.2,0.2,1.6,0.7c0.1,0.1,0.3,0.1,0.4,0C87.9,66.5,86.3,65.7,85.7,65.6z"/>
			<path class="st7" d="M87.2,61.9c-1,0-2.2,0.8-3.1,1.1c-1.1,0.4-3.6,2.2-4.6,1.6c-1.8-1.2-3.6,1.9-1.7,2.8c0,0,0.1,0,0.1,0
				c0.2,0.1,0.5,0.2,0.8,0.2l0,0c2-0.1,3.4-1.2,5-2.4c0.7-0.6,1.7-0.8,2.4-1.4c0.7-0.5,1.4-1.7,2,0.1c0.2,0.5,0.3,1,0.4,1.5
				c0,0.1,0.2,0.1,0.2,0C88.8,64.2,89.1,61.9,87.2,61.9z"/>
			<path class="st7" d="M79.8,73.6c0,0-0.1,0-0.1,0c0,0-0.1,0-0.1,0c0,0,0,0,0,0.1c0.4,0.3,0.7,1.2,0.9,1.7c0.8,1.6,2.1,2.4,2.2,4.4
				c0.1,1.7-1.7,7.8-1.6,7.7c0.7-0.9,2.2-3.6,2.4-4.6c0.3-1.2,0.9-2.6,0.6-3.9C83.7,76.6,81.5,75,79.8,73.6z"/>
		</g>
		<path class="st8" d="M103.6,144.3c0,0,2-26.7,22.3-39c20.3-12.2,21.9-22.5,22.8-24.8c2.8-6.6,0.9-8.8-4.2-11.8
			c-5.1-3-19.2-12.6-38.9-18.7c-6.1-1.9-7.1-4.4-8.7-9.5c-1.6-5.1-0.7-6.8-9.7-6.8c-2.5,0-3.7-0.4-5,1.1c-1.2,1.4,1.2-0.2,3.4,1.3
			c3,2,2,7.1,2,8.5c0,1.4,2.2,3.3,3.5,5.7c1.2,2.5,0.5,6.9,3.7,5.9c1.6,0,9.9,5.1,13.8,9.2c3.9,4.1,16,11.3,20.1,12.5
			c-2.5,0.9-12.6,5.8-16,9.2c-3.4,3.4-8.1,6-15.8,6C90.4,93.1,103.6,144.3,103.6,144.3z"/>
		<g>
			<path class="st3" d="M125.6,79.4c-0.1,0-0.2-0.1-0.2-0.1c-1,0.5-2,1-3.1,1.6C123.7,80.2,125,79.7,125.6,79.4z"/>
			<path class="st3" d="M144.5,68.8c-5.1-3-19.2-12.6-38.9-18.7c-6.1-1.9-7.1-4.4-8.7-9.5c-1.6-5.1-0.7-6.8-9.7-6.8
				c-2.5,0-3.7-0.4-5,1.1c-0.2,0.2-0.3,0.3-0.3,0.4c0.6,0,1.3,0,2.2,0c9,0,8.1,1.7,9.7,6.8c1.6,5.1,2.5,7.6,8.7,9.5
				c19.7,6.1,33.8,15.6,38.9,18.7c5.1,3,7,5.2,4.2,11.8c-0.9,2.2-2.5,12.6-22.8,24.8c-12.3,7.4-17.9,14.6-20.4,19
				c0.7,2,1.1,18.4,1.1,18.4s2-26.7,22.3-39c20.3-12.2,21.9-22.5,22.8-24.8C151.5,74,149.6,71.8,144.5,68.8z"/>
			<path class="st3" d="M96.9,93.1c-0.8,0-1.3,0.5-1.6,1.5c4.5-0.2,8-1.4,10.7-3.1C103.6,92.5,100.6,93.1,96.9,93.1z"/>
		</g>
		<path class="st1" d="M144.5,68.8C139.8,66,127.9,58,111.1,52c-1.7-0.6-3.2-3.3-5-2.6c-0.3,0.1-1,1.9-1,1.9l-3.3,5.8
			c0,0-1.9,2.4-1.7,3c0.2,0.8,2,0.9,2.7,1.4c2.2,1.5,4.4,3.3,5.9,4.8c3.9,4.1,16,10.4,20.1,11.7c-2.5,0.9-12.6,5.8-16,9.2
			c-3.4,3.4-10.7,3.1-19.1,5.1c-6.3,1.5,10,52.1,10,52.1s2-26.7,22.3-39c20.3-12.2,21.9-22.5,22.8-24.8
			C151.5,74,149.6,71.8,144.5,68.8z"/>
		<path class="st8" d="M46.4,144.3c0,0-2-26.7-22.3-39C3.8,93.2,2.2,82.8,1.3,80.6c-2.8-6.6-0.9-8.8,4.2-11.8
			c5.1-3,19.2-12.6,38.9-18.7c6.1-1.9,7.1-4.4,8.7-9.5c1.6-5.1,0.7-6.8,9.7-6.8c2.5,0,3.7-0.4,5,1.1c1.2,1.4-1.2-0.2-3.4,1.3
			c-3,2-2,7.1-2,8.5c0,1.4-2.2,3.3-3.5,5.7c-1.2,2.5-0.5,6.9-3.7,5.9c-1.6,0-9.9,5.1-13.8,9.2c-3.9,4.1-16,11.3-20.1,12.5
			c2.5,0.9,12.6,5.8,16,9.2c3.4,3.4,8.1,6,15.8,6C59.6,93.1,46.4,144.3,46.4,144.3z"/>
		<g>
			<path class="st3" d="M53.1,93.1c-3.7,0-6.6-0.6-9.1-1.6c2.7,1.7,6.2,2.9,10.7,3.1C54.4,93.6,53.9,93.1,53.1,93.1z"/>
			<path class="st3" d="M24.6,79.4c-0.1,0-0.2,0.1-0.2,0.1c0.7,0.2,1.9,0.8,3.4,1.5C26.6,80.3,25.6,79.8,24.6,79.4z"/>
			<path class="st3" d="M27.1,106.9C6.8,94.7,5.3,84.3,4.3,82.1c-2.8-6.6-0.9-8.8,4.2-11.8s19.2-12.6,38.9-18.7
				c6.1-1.9,7.1-4.4,8.7-9.5c1.6-5.1,0.7-6.8,9.7-6.8c0.9,0,1.6,0,2.2,0c0-0.1-0.1-0.2-0.3-0.4c-1.2-1.4-2.5-1.1-5-1.1
				c-9,0-8.1,1.7-9.7,6.8c-1.6,5.1-2.5,7.6-8.7,9.5C24.7,56.2,10.7,65.8,5.5,68.8c-5.1,3-7,5.2-4.2,11.8c0.9,2.2,2.5,12.6,22.8,24.8
				c20.3,12.2,22.3,39,22.3,39s0.4-16.4,1.1-18.4C45,121.4,39.5,114.3,27.1,106.9z"/>
		</g>
		<path class="st1" d="M5.5,68.8C10.2,66,22.1,58,38.9,52c1.7-0.6,3.2-3.3,5-2.6c0.3,0.1,1,1.9,1,1.9l3.3,5.8c0,0,1.9,2.4,1.7,3
			c-0.2,0.8-2,0.9-2.7,1.4c-2.2,1.5-4.4,3.3-5.9,4.8c-3.9,4.1-16,10.4-20.1,11.7c2.5,0.9,12.6,5.8,16,9.2c3.4,3.4,10.7,3.1,19.1,5.1
			c6.3,1.5-10,52.1-10,52.1s-2-26.7-22.3-39C3.8,93.2,2.2,82.8,1.3,80.6C-1.5,74,0.4,71.8,5.5,68.8z"/>
		<g>
			<path class="st9" d="M89.9,91.2c1.1,2.1,2.6,4.3,4.6,5.7c0.2,0.1,0.4-0.1,0.3-0.3c-0.6-1.1-0.5-2.4-1-3.5c-0.2-0.3-0.3-0.7-0.4-1
				L89.9,91.2z"/>
			<path class="st9" d="M136.1,94.4c-5.7,3.5-12.1,5.7-17.7,9.4c-0.4,0.3,0,0.9,0.4,0.7c6.3-2.4,12.8-4.3,18.8-7.6
				c3.2-2.9,5.4-5.5,7-7.8C141.8,90.8,139,92.6,136.1,94.4z"/>
			<path class="st9" d="M120.2,90.1c0.1,0,0-0.1,0-0.1c-2.9-0.3-5.6-1.3-8.5-1.8c-0.1,0-0.3,0-0.4-0.1c-1.4,0.8-3.2,1.4-5.3,1.8
				c0.8,0.2,1.7,0.3,2.5,0.3C112.6,90.4,116.3,90.9,120.2,90.1z"/>
			<path class="st9" d="M96.9,146.6c1.1-6.5,1.9-23.1,3.9-27.7c1.3-3,3.2-9.5,5.3-11.6c3.6-3.7,7.8-6.8,9.9-12.1
				c0.3-0.6-0.6-0.7-0.9-0.2c-5.2,8.5-12.1,12-16.2,21C96.9,120.5,95.6,147,96.9,146.6z"/>
			<path class="st9" d="M124.6,105c-6.2,2.6-12.8,3.9-18.8,6.7c-0.5,0.2-0.1,0.9,0.3,0.8c4.4-1,8.8-1.7,13.2-2.8
				c1.9-1.4,4.1-2.9,6.6-4.4c1.5-0.9,3-1.8,4.3-2.7C128.3,103.4,126.5,104.3,124.6,105z"/>
			<path class="st9" d="M132.1,78.7C132.1,78.7,132.1,78.7,132.1,78.7c1.1-0.3,2.2-1.3,3.2-1.8c0.3-0.2-0.1-0.6-0.4-0.5
				c-1.7,0.6-3.8,0.7-5.4,1.4c-0.3,0.1-0.6,0.2-1,0.2c-1.2,0.5-3.9,1.7-6.9,3.3c0.3,0,0.5,0.1,0.8,0.1c0.1,0,0.3,0,0.5,0
				c1.9,0.6,3.8,1.5,5.6,1.9c2.6,0.5,4.8,1.1,7.4,1.1c1.9,0,3.7,1.2,5.6,1.5c0.3,0.1,0.4-0.4,0.1-0.5c-1.5-0.4-3.4-1.8-4.9-1.9
				c-3.1-0.1-5.4-1.4-7.9-2.8c1.3,0.1,2.5,0.3,3.8,0.4c2.3,0.3,4.6,0.8,6.9,1c1.9,0.1,3.3-0.5,5-0.9c0.2,0,0.1-0.3-0.1-0.4
				C140.2,80.2,136.2,79.3,132.1,78.7z"/>
			<path class="st9" d="M106.9,114.5c-0.7,0.6-1.2,1.3-1.5,2.2c-0.5,1.3-1.1,2.7-1.6,4c0.3-3.7,1-7.9,2.1-11.4
				c0.1-0.3-0.4-0.5-0.6-0.2c-1.9,3.7-3,8-3.8,12c-0.6,3-1.4,21.4-1.3,24.5c1.2-0.4,2.3-0.8,3.4-1.3c0,0,0.2-16.6,1.4-19
				c0.1-0.5,0.2-0.9,0.3-1.3c0.9-2.6,2.1-6.6,1.8-9.3C107.2,114.6,107,114.5,106.9,114.5z"/>
			<path class="st9" d="M14.2,98.5c5,2.3,10.4,4,15.6,6c0.4,0.2,0.9-0.5,0.4-0.7c-5.6-3.7-11.9-5.9-17.7-9.4
				c-2.1-1.3-4.1-2.5-6.2-3.8C8.2,92.9,10.7,95.6,14.2,98.5z"/>
			<path class="st9" d="M49.7,115.9c-4.1-8.9-11-12.4-16.2-21c-0.3-0.5-1.2-0.5-0.9,0.2c2.2,5.5,6.6,8.6,10.3,12.5
				c1.9,2,3.7,8.4,4.9,11.2c2,4.5,2.7,21,3.8,27.3C53.1,146.6,51.8,120.4,49.7,115.9z"/>
			<path class="st9" d="M56.4,92.2C56.4,92.2,56.4,92.2,56.4,92.2c-0.3-0.1-0.7-0.2-1-0.2c-0.2,0.4-0.3,0.8-0.5,1.1
				c-0.5,1.1-0.5,2.4-1,3.5c-0.1,0.2,0.1,0.4,0.3,0.3c1.8-1.3,3.3-3.3,4.4-5.3L56.4,92.2z"/>
			<path class="st9" d="M40.1,90.2c1.1,0,2.1-0.2,3.2-0.4c-1.9-0.4-3.6-1-4.9-1.8c-0.5,0.1-1,0.1-1.5,0.2c-2.9,0.5-5.5,1.4-8.5,1.8
				c-0.1,0-0.1,0.1,0,0.1C32.4,90.9,36.1,90.4,40.1,90.2z"/>
			<path class="st9" d="M42.9,111.8c-6.1-2.9-12.7-4.1-18.8-6.7c-0.6-0.2-1.1-0.5-1.6-0.7c0.5,0.3,1.1,0.7,1.7,1
				c2.7,1.6,5.1,3.2,7.2,4.8c3.7,0.9,7.5,1.5,11.3,2.4C43,112.7,43.3,112,42.9,111.8z"/>
			<path class="st9" d="M48.5,145.1c0-2.9-0.8-21.2-1.3-24c-0.8-4-1.9-8.3-3.8-12c-0.2-0.3-0.7-0.1-0.6,0.2
				c1.1,3.5,1.9,7.7,2.1,11.4c-0.6-1.3-1.2-2.7-1.6-4c-0.3-0.9-0.8-1.6-1.5-2.2c-0.1-0.1-0.2,0-0.2,0.1c-0.1,1.9,0.3,4.4,1,6.6
				c3.4,4.7,3.9,23.1,3.9,23.1s0,0,0-0.1v0.1C47.1,144.6,47.8,144.9,48.5,145.1z"/>
			<path class="st9" d="M4.3,81.2c1.7,0.4,3.1,1,5,0.9c2.3-0.1,4.6-0.7,6.9-1c1.2-0.1,2.5-0.3,3.8-0.4c-2.5,1.4-4.8,2.7-7.9,2.8
				c-1.5,0.1-3.5,1.4-4.9,1.9c-0.3,0.1-0.2,0.5,0.1,0.5c1.9-0.3,3.7-1.5,5.6-1.5c2.6,0,4.8-0.6,7.4-1.1c1.9-0.4,3.8-1.2,5.6-1.9
				c0.2,0,0.3,0,0.5,0c0.6-0.1,1.2-0.2,1.8-0.3c-2.9-1.5-5.6-2.7-6.7-3.1c0.3-0.1,0.6-0.2,0.9-0.3c-0.6,0.1-1.3,0.3-1.9,0.4
				c-0.4,0-0.8-0.1-1.2-0.3c-1.6-0.7-3.7-0.8-5.4-1.4c-0.3-0.1-0.7,0.3-0.4,0.5c1,0.5,2.1,1.5,3.2,1.8c0,0,0,0,0,0
				c-4.1,0.6-8.2,1.5-12.3,2.2C4.1,80.9,4,81.2,4.3,81.2z"/>
		</g>
	</g>
	<g>
		<polygon points="78.7,21.7 79.8,0.6 79.4,0.9 79.4,0.6 75,4.5 70.6,0.6 70.6,0.9 70.2,0.6 71.3,21.7 67.5,21.7 75,31.1 82.6,21.7 
					"/>
		<polygon points="98.6,23.5 103.4,7.3 103.1,7.5 103.1,7.2 99,9.4 96.3,5.6 96.2,5.8 96,5.5 92.8,22.1 89.9,21.4 94,30.1 
			101.6,24.2 		"/>
		<polygon points="51.4,23.5 46.6,7.3 47,7.5 46.9,7.2 51.1,9.4 53.8,5.6 53.8,5.8 54.1,5.5 57.2,22.1 60.2,21.4 56.1,30.1 
			48.5,24.2 		"/>
		<polygon points="113.6,35.5 122.2,25.1 121.9,25.1 122,24.9 118.3,25.2 117.5,21.5 117.4,21.7 117.3,21.4 109.7,32.6 107.8,31.1 
			108.1,38.8 115.5,36.9 		"/>
		<polygon points="36.5,35.5 27.8,25.1 28.2,25.1 28,24.9 31.8,25.2 32.6,21.5 32.7,21.7 32.8,21.4 40.3,32.6 42.3,31.1 42,38.8 
			34.5,36.9 		"/>
	</g>
</g>
</svg>
