<?xml version="1.0" encoding="utf-8"?>
<!-- Generator: Adobe Illustrator 21.1.0, SVG Export Plug-In . SVG Version: 6.00 Build 0)  -->
<svg version="1.1" id="Layer_1" xmlns="http://www.w3.org/2000/svg" xmlns:xlink="http://www.w3.org/1999/xlink" x="0px" y="0px"
	 viewBox="0 0 150 150" style="enable-background:new 0 0 150 150;" xml:space="preserve">
<style type="text/css">
	.st0{fill:#DC1F26;}
	.st1{fill:#D4D4D4;}
	.st2{fill:#AEAEAE;}
	.st3{fill:#FFFFFF;}
	.st4{fill:#303030;}
	.st5{fill:#2B2C2B;}
</style>
<g>
	<path class="st0" d="M120.6,150H29.4c-7.1,0-13.1-5.5-13.6-12.6L6.2,14.7C5.5,6.8,11.8,0,19.8,0h110.5c8,0,14.2,6.8,13.6,14.7
		l-9.6,122.7C133.6,144.5,127.7,150,120.6,150z"/>
	<path class="st1" d="M115.6,141.9H34.4c-6.4,0-11.6-4.9-12.1-11.2L13.6,21.3c-0.6-7.1,5-13.1,12.1-13.1h98.5
		c7.1,0,12.7,6,12.1,13.1l-8.6,109.4C127.3,137,122,141.9,115.6,141.9z"/>
	<path class="st2" d="M110.7,133.6H38.2c-3.2,0-6-2.6-6.2-5.9l-3.1-52.2c-0.2-3.8,2.4-6.9,6-6.9h79.2c3.5,0,6.2,3.1,6,6.9l-3.1,52.2
		C116.7,131,114,133.6,110.7,133.6z"/>
	<path class="st3" d="M45.5,72.4c6-2.4,12.4,7.2,14.4,10.1c3.7,6.6-1,19.8,0.5,24.8c1.5,5,4.2,4.5,5.7,8.2
		c1.5,3.6,1.2,12.4-2.5,13.8c-3.7,1.5-9.6-0.8-12.2-4.5c-2.6-3.6-0.7-8.4-2.8-13.1c-2.1-4.7-8.7-9.9-10-17
		C37.3,87.7,39.4,74.8,45.5,72.4z"/>
	<path class="st3" d="M104.5,72.4c-6-2.4-12.4,7.2-14.4,10.1c-3.7,6.6,1,19.8-0.5,24.8c-1.5,5-4.2,4.5-5.7,8.2
		c-1.5,3.6-1.2,12.4,2.5,13.8c3.7,1.5,9.6-0.8,12.2-4.5c2.6-3.6,0.7-8.4,2.8-13.1c2.1-4.7,8.7-9.9,10-17
		C112.7,87.7,110.6,74.8,104.5,72.4z"/>
	<g>
		<rect x="42.8" y="16.6" class="st4" width="64.5" height="33.6"/>
		<rect x="49.9" y="20.3" class="st3" width="50.1" height="26.1"/>
		<rect x="50.8" y="22.6" class="st5" width="1.1" height="7.4"/>
		<rect x="53" y="22.6" class="st5" width="1.1" height="7.4"/>
		<rect x="55.3" y="22.6" class="st5" width="1.1" height="7.4"/>
		<rect x="59.7" y="22.6" class="st5" width="1.1" height="7.4"/>
		<rect x="61.9" y="22.6" class="st5" width="1.1" height="7.4"/>
		<rect x="64.2" y="22.6" class="st5" width="1.1" height="7.4"/>
		<rect x="66.4" y="22.6" class="st5" width="1.1" height="7.4"/>
		<rect x="68.6" y="22.6" class="st5" width="1.1" height="7.4"/>
		<rect x="73.1" y="22.6" class="st5" width="1.1" height="7.4"/>
		<rect x="75.3" y="22.6" class="st5" width="1.1" height="7.4"/>
		<rect x="77.5" y="22.6" class="st5" width="1.1" height="7.4"/>
		<rect x="79.7" y="22.6" class="st5" width="1.1" height="7.4"/>
		<rect x="84.2" y="22.6" class="st5" width="1.1" height="7.4"/>
		<rect x="86.4" y="22.6" class="st5" width="1.1" height="7.4"/>
		<rect x="88.6" y="22.6" class="st5" width="1.1" height="7.4"/>
		<rect x="90.8" y="22.6" class="st5" width="1.1" height="7.4"/>
		<rect x="93.1" y="22.6" class="st5" width="1.1" height="7.4"/>
		<rect x="95.3" y="22.6" class="st5" width="1.1" height="7.4"/>
		<rect x="97.5" y="22.6" class="st5" width="1.1" height="7.4"/>
		<rect x="95.3" y="22.6" class="st5" width="1.1" height="19.3"/>
		<rect x="82" y="22.6" class="st5" width="1.1" height="19.3"/>
		<rect x="70.8" y="22.6" class="st5" width="1.1" height="19.3"/>
		<rect x="57.5" y="22.6" class="st5" width="1.1" height="19.3"/>
		<polygon class="st0" points="77,32.2 75.8,46.5 78.1,46.5 		"/>
	</g>
</g>
</svg>
