<svg xmlns="http://www.w3.org/2000/svg" xmlns:xlink="http://www.w3.org/1999/xlink" width="1920" height="1080" viewBox="0 0 1920 1080">
  <defs>
    <clipPath id="clip-winner-bg">
      <rect width="1920" height="1080"/>
    </clipPath>
  </defs>
  <g id="winner-bg" clip-path="url(#clip-winner-bg)">
    <g id="Group_3513" data-name="Group 3513" transform="translate(6292.012 13417)">
      <path id="Path_36093" data-name="Path 36093" d="M692.75,368.616l-12.643,21.9h25.285Z" transform="translate(-6508.301 -13322.896)" fill="#ffbb1d"/>
      <path id="Path_36094" data-name="Path 36094" d="M816.159,189.707l-12.643,21.9H828.8Z" transform="translate(-6463.733 -13404.271)" fill="#ffbb1d"/>
      <path id="Path_36095" data-name="Path 36095" d="M718.148,315.505l-10.308-1.751,6.67-8.052Z" transform="translate(-6499.422 -13347.302)" fill="#ffbb1d"/>
      <path id="Path_36096" data-name="Path 36096" d="M757.93,293.854l-19.449-4.62L752.207,274.7Z" transform="translate(-6487.723 -13357.661)" fill="#e5003f"/>
      <path id="Path_36097" data-name="Path 36097" d="M729.306,469.873l-5.363-22.3,21.992,6.5Z" transform="translate(-6492.739 -13293.786)" fill="#e5003f"/>
      <path id="Path_36098" data-name="Path 36098" d="M825.479,479.609l-9.663-6.981,10.877-4.878Z" transform="translate(-6460.872 -13288.603)" fill="#ffbb1d"/>
      <path id="Path_36099" data-name="Path 36099" d="M782.678,404.035l-9.663-6.981,10.877-4.878Z" transform="translate(-6476.136 -13315.878)" fill="#ffbb1d"/>
      <path id="Path_36100" data-name="Path 36100" d="M1221.9,642.523l-9.663-6.981,10.877-4.878Z" transform="translate(-6319.496 -13205.86)" fill="#6db448"/>
      <path id="Path_36101" data-name="Path 36101" d="M1202.622,295.728l13.935-.466-6.564,12.3Z" transform="translate(-6322.228 -13350.814)" fill="#ffbb1d"/>
      <path id="Path_36102" data-name="Path 36102" d="M1275.758,328.556l10.02-2.988-2.422,10.171Z" transform="translate(-6297.059 -13340.115)" fill="#ffbb1d"/>
      <path id="Path_36103" data-name="Path 36103" d="M1197.645,341.635l24.158-5.525-7.294,23.684Z" transform="translate(-6321.663 -13334.616)" fill="#e5003f"/>
      <path id="Path_36104" data-name="Path 36104" d="M1262.658,354.163l10.255-8.792,2.486,13.277Z" transform="translate(-6301.055 -13332.587)" fill="#e5003f"/>
      <path id="Path_36105" data-name="Path 36105" d="M875.139,172.476l10.02-2.988-2.422,10.171Z" transform="translate(-6439.824 -13404.271)" fill="#ffbb1d"/>
      <path id="Path_36106" data-name="Path 36106" d="M1015.627,151.727l19.488-4.457-5.884,19.1Z" transform="translate(-6388.139 -13404.271)" fill="#e5003f"/>
      <path id="Path_36107" data-name="Path 36107" d="M1238.85,239.389l14.671,17.627-22.6,3.892Z" transform="translate(-6310.034 -13370.43)" fill="#e5003f"/>
      <path id="Path_36108" data-name="Path 36108" d="M1174.962,200.846l21.188,6.337-16.083,15.181Z" transform="translate(-6330.511 -13404.271)" fill="#6db448"/>
      <path id="Path_36109" data-name="Path 36109" d="M1141.739,355.157l11.754,1.988-7.6,9.185Z" transform="translate(-6344.456 -13329.332)" fill="#ffbb1d"/>
      <path id="Path_36110" data-name="Path 36110" d="M1238.475,285.569l11.754,1.988-7.6,9.185Z" transform="translate(-6309.931 -13354.417)" fill="#ffbb1d"/>
      <path id="Path_36111" data-name="Path 36111" d="M1308.9,406.034l19.7-4.439-6,19.276Z" transform="translate(-6282.708 -13311.224)" fill="#b04a95"/>
      <path id="Path_36112" data-name="Path 36112" d="M774.935,246.682l19.7-4.439-6,19.276Z" transform="translate(-6474.601 -13369.524)" fill="#b04a95"/>
      <path id="Path_36113" data-name="Path 36113" d="M1319.108,487.285l22.474.025-11.258,19.45Z" transform="translate(-6278.295 -13279.827)" fill="#6db448"/>
      <path id="Path_36114" data-name="Path 36114" d="M1280.073,511.885l13.624,9.687-15.2,6.955Z" transform="translate(-6294.777 -13271.519)" fill="#b04a95"/>
      <path id="Path_36115" data-name="Path 36115" d="M1249.615,691.667l24.168-7.433-18.521-17.214Z" transform="translate(-6198.13 -13379.295)" fill="#ffbb1d"/>
      <path id="Path_36116" data-name="Path 36116" d="M676.265,532.04l21.48,13.34.812-25.272Z" transform="translate(-6579.722 -13266.34)" fill="#ffbb1d"/>
      <path id="Path_36117" data-name="Path 36117" d="M1240.183,571.474l5.395,12.856-13.831-1.756Z" transform="translate(-6311.839 -13250.888)" fill="#ffbb1d"/>
      <path id="Path_36118" data-name="Path 36118" d="M766.363,704.337l-2.081,10.246-7.833-6.925Z" transform="translate(-6716.991 -13316.892)" fill="#ffbb1d"/>
      <path id="Path_36119" data-name="Path 36119" d="M1161.672,491.073l11.1,16.625-19.948,1.3Z" transform="translate(-6338.744 -13278.8)" fill="#6db448"/>
      <path id="Path_36120" data-name="Path 36120" d="M1270.852,414.2a6.867,6.867,0,1,1-6.867-6.866A6.868,6.868,0,0,1,1270.852,414.2Z" transform="translate(-6302.792 -13310.085)" fill="#b04a95"/>
      <path id="Path_36121" data-name="Path 36121" d="M678.306,482.579a7.609,7.609,0,1,1-7.609-7.608A7.609,7.609,0,0,1,678.306,482.579Z" transform="translate(-6585.991 -13285.27)" fill="#b04a95"/>
      <path id="Path_36122" data-name="Path 36122" d="M1291.55,616.057a5.392,5.392,0,1,1-5.391-5.391A5.391,5.391,0,0,1,1291.55,616.057Z" transform="translate(-6295.082 -13205.86)" fill="#b04a95"/>
      <path id="Path_36123" data-name="Path 36123" d="M861.844,482.411a1.3,1.3,0,1,1-1.3-1.3A1.3,1.3,0,0,1,861.844,482.411Z" transform="translate(-6446.384 -13285.775)" fill="#390b7b"/>
      <circle id="Ellipse_462" data-name="Ellipse 462" cx="6.426" cy="6.426" r="6.426" transform="translate(-5603.342 -12532.942)" fill="#390b7b"/>
      <path id="Path_36124" data-name="Path 36124" d="M1135.431,672.918a6.685,6.685,0,1,1-6.685-6.685A6.685,6.685,0,0,1,1135.431,672.918Z" transform="translate(-6351.15 -13205.86)" fill="#b04a95"/>
      <circle id="Ellipse_463" data-name="Ellipse 463" cx="7.334" cy="7.334" r="7.334" transform="translate(-5111.202 -12511.669)" fill="#390b7b"/>
      <path id="Path_36125" data-name="Path 36125" d="M1291.55,454.317a4.408,4.408,0,1,1-4.407-4.408A4.407,4.407,0,0,1,1291.55,454.317Z" transform="translate(-6294.876 -13295.643)" fill="#390b7b"/>
      <circle id="Ellipse_464" data-name="Ellipse 464" cx="5.372" cy="5.372" r="5.372" transform="translate(-5783.873 -12695.652)" fill="#390b7b"/>
      <circle id="Ellipse_465" data-name="Ellipse 465" cx="4.259" cy="4.259" r="4.259" transform="translate(-5923.507 -12660.62)" fill="#390b7b"/>
      <path id="Path_36126" data-name="Path 36126" d="M1079.609,169.8c.81-2.259.543-4.888-1.467-7.609-4.958-6.711-15.227-7.02-21.111-1.514-2.165,2.026,1.091,5.272,3.251,3.251a9.743,9.743,0,0,1,10.174-1.875c1.508.565,3.894,1.878,4.477,3.573a5.783,5.783,0,0,1,.2.832,12.425,12.425,0,0,0-2.8-.9c-3.685-.714-7.961.708-9.512,4.389-1.379,3.27.942,6.28,4.316,6.609a13.519,13.519,0,0,0,9.682-2.9,9.254,9.254,0,0,1,1.27,9.056c-1.081,2.755,3.363,3.95,4.433,1.222A13.922,13.922,0,0,0,1079.609,169.8Zm-11.278,1.666c-1.558-.883.49-1.3,1.594-1.465a5.665,5.665,0,0,1,3.256.607,7.983,7.983,0,0,1-2.4.834C1069.8,171.622,1069.305,172.013,1068.331,171.462Z" transform="translate(-6372.109 -13404.271)" fill="#390b7b"/>
      <path id="Path_36127" data-name="Path 36127" d="M1308.452,746.2c1.913-1.45,3.126-3.8,2.928-7.176-.488-8.329-8.922-14.2-16.858-12.8-2.92.514-1.965,5.012.948,4.5a9.743,9.743,0,0,1,9.547,3.985c.954,1.3,2.235,3.7,1.8,5.439a5.913,5.913,0,0,1-.289.8,12.39,12.39,0,0,0-1.852-2.285c-2.7-2.611-7.055-3.754-10.365-1.518-2.942,1.987-2.641,5.776.006,7.894a13.522,13.522,0,0,0,9.694,2.858,9.252,9.252,0,0,1-3.882,8.279c-2.41,1.718.66,5.146,3.046,3.445A13.918,13.918,0,0,0,1308.452,746.2Zm-10.356-4.764c-.824-1.59,1.119-.819,2.135-.357a5.679,5.679,0,0,1,2.4,2.287,7.972,7.972,0,0,1-2.466-.612C1299.238,742.366,1298.61,742.425,1298.1,741.431Z" transform="translate(-6184.178 -13327.86)" fill="#390b7b"/>
      <path id="Path_36128" data-name="Path 36128" d="M647.92,270.835c-2.011-1.309-4.631-1.656-7.742-.326-7.673,3.277-10.34,13.2-6.339,20.193,1.472,2.574,5.382.154,3.913-2.414a9.744,9.744,0,0,1,.52-10.332c.9-1.338,2.726-3.356,4.509-3.533a5.811,5.811,0,0,1,.855,0,12.438,12.438,0,0,0-1.523,2.516c-1.544,3.421-1.145,7.909,2.079,10.267,2.864,2.1,6.328.531,7.426-2.676a13.522,13.522,0,0,0-.591-10.09,9.252,9.252,0,0,1,9.105.852c2.432,1.686,4.619-2.363,2.211-4.033A13.922,13.922,0,0,0,647.92,270.835Zm-.978,11.358c-1.218,1.313-1.149-.776-1.058-1.888a5.663,5.663,0,0,1,1.341-3.029,8.024,8.024,0,0,1,.259,2.527C647.436,280.8,647.7,281.373,646.942,282.193Z" transform="translate(-6585.991 -13359.435)" fill="#b04a95"/>
      <path id="Path_36129" data-name="Path 36129" d="M1229.553,434.355a23.513,23.513,0,0,0-10.733.281c-5.184-3.232-12.78-2.378-17.748.777a9.184,9.184,0,0,0-8.015,1.275c-3.314,2.288-7.627,10.432-1.3,11.706,2.417.486,3.451-3.22,1.023-3.708-.788-.158,2.909-5.6,4.587-5.818.058.066.111.123.169.188-2.167,3.544-2.372,8.1,2.557,9.9,4.914,1.792,7.562-3.51,6.427-7.733a8.448,8.448,0,0,0-1.961-3.59c2.27-1.342,6.489-1.546,9.4-.893a11.944,11.944,0,0,0-4.255,4.545c-3.06,5.911,4.084,9.161,9.071,7.847,5.5-1.449,6.061-7.352,3.28-11.448a22.259,22.259,0,0,1,6.475.378C1230.943,438.588,1231.974,434.882,1229.553,434.355Zm-9.755,7.294-3.059,3.861c-4.09,1.181-1.807-3.839-.566-5.359a5.208,5.208,0,0,1,1.321-1.121Z" transform="translate(-6320.714 -13300.353)" fill="#ffbb1d"/>
      <path id="Path_36130" data-name="Path 36130" d="M1243.479,168.042a23.531,23.531,0,0,0-9.018-5.826c-2.456-5.594-9.208-9.176-15.09-9.375a9.184,9.184,0,0,0-7.336-3.472c-4.027.019-12.185,4.308-7.677,8.933,1.721,1.765,4.666-.711,2.937-2.484-.561-.576,5.564-2.984,7.07-2.214.011.087.023.164.034.25-3.789,1.7-6.532,5.352-3.478,9.617s8.224,1.371,9.671-2.756a8.46,8.46,0,0,0,.407-4.071c2.631.173,6.229,2.387,8.261,4.566a11.95,11.95,0,0,0-6.078,1.351c-5.863,3.152-1.8,9.867,3.06,11.6,5.354,1.906,9.152-2.648,9.168-7.6a22.236,22.236,0,0,1,5.132,3.967C1242.237,172.321,1245.18,169.843,1243.479,168.042Zm-12.169.515-4.705,1.461c-4.043-1.333.675-4.189,2.557-4.744a5.226,5.226,0,0,1,1.724-.179Q1231.1,166.826,1231.31,168.557Z" transform="translate(-6315.742 -13404.271)" fill="#e5003f"/>
      <path id="Path_36131" data-name="Path 36131" d="M791.022,320.508a15.459,15.459,0,0,0-4.3,5.6,10.646,10.646,0,0,0-12.144,4.874,11.065,11.065,0,0,0-14.107,9.395c-.219,1.677,2.4,1.851,2.614.185a8.362,8.362,0,0,1,10.429-7.166,10.521,10.521,0,0,0-.045,5.875c.72,2.6,3.318,6.8,6.526,5.068,3.245-1.75,1.662-6.766.1-9.081a11.176,11.176,0,0,0-3.227-3.2,7.534,7.534,0,0,1,4.278-3.3,8.653,8.653,0,0,1,4.681-.123,15.358,15.358,0,0,0-.455,3.167c-.119,3.154.949,9.367,4.586,10.463,3.443,1.037,4.317-3.806,4.225-6.232a10.9,10.9,0,0,0-5.063-8.883,12.582,12.582,0,0,1,3.651-4.693C794.068,321.4,792.327,319.44,791.022,320.508Zm-13.781,20.653c-.767-.214-1.405-3.049-1.494-3.711a8.326,8.326,0,0,1,.11-2.867,8.65,8.65,0,0,1,1.354,1.213C777.27,335.863,781.471,342.34,777.241,341.161Zm11.963-3.438c-1.657-1.649-1.341-5.892-.931-7.926a7.29,7.29,0,0,1,1.8,1.9C791.223,333.425,792.618,341.121,789.2,337.723Z" transform="translate(-6478.489 -13340.382)" fill="#b04a95"/>
      <path id="Path_36132" data-name="Path 36132" d="M839.939,568.527c-7.174,1.932-11.125,11.462-5.023,17.006,1.953,1.773,4.948-1.061,2.981-2.849-3.233-2.937-1.754-8.1,1.954-9.832,1.3,6.582,8.5,14.977,14.864,9.565,6.669-5.668-3.639-12.518-10.231-13.962,1.746-3.842,6.773-5.74,10.427-2.072,1.87,1.877,4.857-.965,2.98-2.849A10.751,10.751,0,0,0,839.939,568.527Zm10.273,9.281q.039,2.756-1.584,1.354a6.118,6.118,0,0,1-2.653-2.064,9.21,9.21,0,0,1-2.028-4.716,12.056,12.056,0,0,1,3.752,1.249C849.764,574.729,851.248,575.261,850.212,577.808Z" transform="translate(-6453.33 -13251.31)" fill="#ffbb1d"/>
      <path id="Path_36133" data-name="Path 36133" d="M1053.714,652.452a14.305,14.305,0,0,0-7.471,1.5,15.985,15.985,0,0,0-1.662-1.676c-5.346-4.532-15.488-3.366-16.993,4.407-.693,3.583,4.8,5.117,5.495,1.515.869-4.49,6-3.051,8.516-.784a15.574,15.574,0,0,0-4.228,9.5c-.263,3.856,1.144,8.236,4.545,10.391a6.535,6.535,0,0,0,8.978-1.53c3.148-4.379,1.575-11.483-1.391-17.024a9.731,9.731,0,0,1,4.211-.6C1057.371,658.434,1057.353,652.734,1053.714,652.452Zm-7.207,19.465c-1.256.967-2.982-1.449-3.3-2.343-.6-1.716,0-4.062.759-5.635a11.371,11.371,0,0,1,.906-1.535,19.626,19.626,0,0,1,1.855,7.112C1046.745,669.953,1046.868,671.638,1046.507,671.917Z" transform="translate(-6382.187 -13205.86)" fill="#6db448"/>
      <path id="Path_36134" data-name="Path 36134" d="M725.224,738.731a14.306,14.306,0,0,0-7.471,1.5,15.893,15.893,0,0,0-1.662-1.677c-5.346-4.532-15.488-3.366-16.993,4.407-.693,3.583,4.8,5.117,5.495,1.515.869-4.49,6-3.051,8.516-.783a15.569,15.569,0,0,0-4.228,9.5c-.263,3.856,1.144,8.236,4.546,10.392a6.536,6.536,0,0,0,8.977-1.53c3.148-4.38,1.575-11.484-1.391-17.025a9.747,9.747,0,0,1,4.211-.6C728.881,744.713,728.863,739.014,725.224,738.731ZM718.017,758.2c-1.256.967-2.982-1.449-3.3-2.342-.6-1.717,0-4.063.759-5.636a11.288,11.288,0,0,1,.906-1.534,19.6,19.6,0,0,1,1.855,7.111C718.255,756.233,718.378,757.918,718.017,758.2Z" transform="translate(-6716.991 -13313.86)" fill="#ffbb1d"/>
      <path id="Path_36135" data-name="Path 36135" d="M0,.466,13.935,0,7.371,12.3Z" transform="translate(-5416.462 -12981.108) rotate(-130)" fill="#ffbb1d"/>
      <path id="Path_36136" data-name="Path 36136" d="M0,2.988,10.02,0,7.6,10.171Z" transform="translate(-5448.529 -13082.949) rotate(-130)" fill="#ffbb1d"/>
      <path id="Path_36137" data-name="Path 36137" d="M0,5.525,24.158,0,16.864,23.684Z" transform="translate(-5369.333 -13015.707) rotate(-130)" fill="#e5003f"/>
      <path id="Path_36138" data-name="Path 36138" d="M0,8.792,10.255,0l2.486,13.277Z" transform="translate(-5416.468 -13087.798) rotate(-130)" fill="#e5003f"/>
      <path id="Path_36139" data-name="Path 36139" d="M0,4.457,19.488,0,13.6,19.1Z" transform="translate(-5407.036 -12656.32) rotate(-130)" fill="#e5003f"/>
      <path id="Path_36140" data-name="Path 36140" d="M7.93,0,22.6,17.627,0,21.519Z" transform="translate(-5499.567 -12964.613) rotate(-130)" fill="#e5003f"/>
      <path id="Path_36141" data-name="Path 36141" d="M0,0,21.188,6.337,5.106,21.518Z" transform="translate(-5490.586 -12871.463) rotate(-130)" fill="#6db448"/>
      <path id="Path_36142" data-name="Path 36142" d="M0,0,11.754,1.988l-7.6,9.185Z" transform="translate(-5300.847 -12969.438) rotate(-130)" fill="#ffbb1d"/>
      <path id="Path_36143" data-name="Path 36143" d="M0,0,11.754,1.988l-7.6,9.185Z" transform="translate(-5457.709 -13009.498) rotate(-130)" fill="#ffbb1d"/>
      <path id="Path_36144" data-name="Path 36144" d="M23.291,12.973c.81-2.259.543-4.888-1.467-7.609C16.866-1.347,6.6-1.656.713,3.85-1.452,5.876,1.8,9.122,3.964,7.1A9.743,9.743,0,0,1,14.138,5.226c1.508.565,3.894,1.878,4.477,3.573a5.783,5.783,0,0,1,.2.832,12.425,12.425,0,0,0-2.8-.9c-3.685-.714-7.961.708-9.512,4.389-1.379,3.27.942,6.28,4.316,6.609a13.519,13.519,0,0,0,9.682-2.9,9.254,9.254,0,0,1,1.27,9.056c-1.081,2.755,3.363,3.95,4.433,1.222A13.922,13.922,0,0,0,23.291,12.973ZM12.013,14.639c-1.558-.883.49-1.3,1.594-1.465a5.665,5.665,0,0,1,3.256.607,7.983,7.983,0,0,1-2.4.834C13.481,14.8,12.987,15.19,12.013,14.639Z" transform="translate(-5432.526 -12708.786) rotate(-130)" fill="#390b7b"/>
      <path id="Path_36145" data-name="Path 36145" d="M40.441,18.673a23.531,23.531,0,0,0-9.018-5.826c-2.456-5.594-9.208-9.176-15.09-9.375A9.184,9.184,0,0,0,9,0C4.97.019-3.188,4.308,1.32,8.933,3.041,10.7,5.986,8.222,4.257,6.449c-.561-.576,5.564-2.984,7.07-2.214.011.087.023.164.034.25C7.572,6.188,4.829,9.837,7.883,14.1s8.224,1.371,9.671-2.756a8.46,8.46,0,0,0,.407-4.071c2.631.173,6.229,2.387,8.261,4.566a11.95,11.95,0,0,0-6.078,1.351c-5.863,3.152-1.8,9.867,3.06,11.6,5.354,1.906,9.152-2.648,9.168-7.6A22.236,22.236,0,0,1,37.5,21.157C39.2,22.952,42.142,20.474,40.441,18.673Zm-12.169.515-4.705,1.461c-4.043-1.333.675-4.189,2.557-4.744a5.226,5.226,0,0,1,1.724-.179Q28.06,17.457,28.272,19.188Z" transform="translate(-5571.595 -12858.884) rotate(-130)" fill="#e5003f"/>
      <path id="Path_36146" data-name="Path 36146" d="M695.892,368.616l15.786,27.341H680.107Z" transform="translate(-5254.652 -13217.148)" fill="#ffbb1d"/>
      <path id="Path_36147" data-name="Path 36147" d="M819.3,189.707l15.786,27.341H803.516Z" transform="translate(-5532.15 -13372.243)" fill="#ffbb1d"/>
      <path id="Path_36148" data-name="Path 36148" d="M707.84,317.942l12.871-2.186L712.382,305.7Z" transform="translate(-5298.311 -13264.2)" fill="#ffbb1d"/>
      <path id="Path_36149" data-name="Path 36149" d="M738.481,298.616l24.285-5.769L745.627,274.7Z" transform="translate(-5378.625 -13284.473)" fill="#e5003f"/>
      <path id="Path_36150" data-name="Path 36150" d="M744.705,475.416l6.7-27.841L723.943,455.7Z" transform="translate(-5349.109 -13160.765)" fill="#e5003f"/>
      <path id="Path_36151" data-name="Path 36151" d="M817.332,482.557l12.065-8.716-13.581-6.091Z" transform="translate(-5541.818 -13150.121)" fill="#ffbb1d"/>
      <path id="Path_36152" data-name="Path 36152" d="M774.531,406.983l12.065-8.716-13.581-6.091Z" transform="translate(-5445.576 -13203.151)" fill="#ffbb1d"/>
      <path id="Path_36153" data-name="Path 36153" d="M887.65,173.219l-12.511-3.731,3.024,12.7Z" transform="translate(-5761.111 -13377.271)" fill="#ffbb1d"/>
      <path id="Path_36154" data-name="Path 36154" d="M799.527,247.785l-24.592-5.542,7.5,24.068Z" transform="translate(-5460.904 -13307.483)" fill="#b04a95"/>
      <path id="Path_36155" data-name="Path 36155" d="M764.4,320.585a19.3,19.3,0,0,1,5.373,6.995,13.293,13.293,0,0,1,15.163,6.086c7.5-2.439,16.425,2.591,17.614,11.731.273,2.094-2.993,2.311-3.264.231-.864-6.649-7.323-10.658-13.022-8.948a13.137,13.137,0,0,1,.056,7.336c-.9,3.246-4.143,8.489-8.148,6.328-4.052-2.185-2.075-8.448-.12-11.339a13.954,13.954,0,0,1,4.029-3.989,9.407,9.407,0,0,0-5.342-4.118,10.8,10.8,0,0,0-5.845-.154,19.176,19.176,0,0,1,.568,3.954c.149,3.938-1.185,11.7-5.726,13.064-4.3,1.295-5.39-4.752-5.275-7.781a13.614,13.614,0,0,1,6.322-11.091,15.711,15.711,0,0,0-4.559-5.86C760.6,321.7,762.772,319.251,764.4,320.585Zm17.207,25.788c.958-.267,1.754-3.807,1.865-4.634a10.4,10.4,0,0,0-.137-3.58,10.8,10.8,0,0,0-1.691,1.515C781.572,339.757,776.326,347.845,781.608,346.372Zm-14.937-4.293c2.069-2.059,1.674-7.357,1.162-9.9a9.1,9.1,0,0,0-2.254,2.367C764.15,336.713,762.408,346.323,766.671,342.08Z" transform="translate(-5445.864 -13251.086)" fill="#b04a95"/>
      <path id="Path_36156" data-name="Path 36156" d="M50.5,8.19a29.381,29.381,0,0,1-11.26,7.274c-3.067,6.985-11.5,11.457-18.842,11.706a11.467,11.467,0,0,1-9.16,4.335C6.206,31.482-3.98,26.127,1.649,20.352c2.149-2.2,5.826.888,3.667,3.1-.7.719,6.947,3.726,8.828,2.764.014-.109.029-.2.042-.312C9.455,23.779,6.03,19.223,9.843,13.9s10.269-1.712,12.075,3.441a10.563,10.563,0,0,1,.508,5.083c3.285-.216,7.778-2.98,10.315-5.7a14.92,14.92,0,0,1-7.589-1.687C17.832,11.1,22.906,2.714,28.973.554,35.658-1.826,40.4,3.86,40.421,10.042a27.764,27.764,0,0,0,6.408-4.953C48.945,2.848,52.619,5.942,50.5,8.19ZM35.3,7.547,29.426,5.723c-5.048,1.664.843,5.23,3.193,5.923a6.525,6.525,0,0,0,2.153.224Q35.036,9.709,35.3,7.547Z" transform="translate(-4886.521 -12747.325) rotate(-50)" fill="#e5003f"/>
      <path id="Path_36157" data-name="Path 36157" d="M13.935.466,0,0,6.564,12.3Z" transform="matrix(0.788, -0.616, 0.616, 0.788, -6085.125, -13066.17)" fill="#ffbb1d"/>
      <path id="Path_36158" data-name="Path 36158" d="M10.02,2.988,0,0,2.422,10.171Z" transform="matrix(0.788, -0.616, 0.616, 0.788, -6121.012, -12975.061)" fill="#ffbb1d"/>
      <path id="Path_36159" data-name="Path 36159" d="M24.158,5.525,0,0,7.294,23.684Z" transform="matrix(0.788, -0.616, 0.616, 0.788, -6064.11, -13018.397)" fill="#e5003f"/>
      <path id="Path_36160" data-name="Path 36160" d="M12.741,8.792,2.486,0,0,13.277Z" transform="matrix(0.788, -0.616, 0.616, 0.788, -6100.643, -12962.534)" fill="#e5003f"/>
      <path id="Path_36161" data-name="Path 36161" d="M11.754,0,0,1.988l7.6,9.185Z" transform="matrix(0.788, -0.616, 0.616, 0.788, -5998.554, -13054.465)" fill="#ffbb1d"/>
      <path id="Path_36162" data-name="Path 36162" d="M11.754,0,0,1.988l7.6,9.185Z" transform="matrix(0.788, -0.616, 0.616, 0.788, -6117.626, -13048.026)" fill="#ffbb1d"/>
      <path id="Path_36163" data-name="Path 36163" d="M19.7,4.439,0,0,6,19.276Z" transform="matrix(0.788, -0.616, 0.616, 0.788, -6107.948, -12857.157)" fill="#b04a95"/>
      <path id="Path_36164" data-name="Path 36164" d="M22.474,0,0,.025l11.258,19.45Z" transform="matrix(0.788, -0.616, 0.616, 0.788, -6065.424, -12753.765)" fill="#6db448"/>
      <path id="Path_36165" data-name="Path 36165" d="M13.624,0,0,9.687l15.2,6.955Z" transform="matrix(0.788, -0.616, 0.616, 0.788, -6012.545, -12767.583)" fill="#b04a95"/>
      <path id="Path_36166" data-name="Path 36166" d="M11.1,0,0,16.625l19.948,1.3Z" transform="matrix(0.788, -0.616, 0.616, 0.788, -5930.069, -12892.246)" fill="#6db448"/>
      <path id="Path_36167" data-name="Path 36167" d="M0,6.866A6.867,6.867,0,1,0,6.867,0,6.868,6.868,0,0,0,0,6.866Z" transform="matrix(0.788, -0.616, 0.616, 0.788, -6058.909, -12899.748)" fill="#b04a95"/>
      <path id="Path_36168" data-name="Path 36168" d="M0,4.408A4.408,4.408,0,1,0,4.407,0,4.407,4.407,0,0,0,0,4.408Z" transform="matrix(0.788, -0.616, 0.616, 0.788, -6049.01, -12836.815)" fill="#390b7b"/>
      <path id="Path_36169" data-name="Path 36169" d="M1.381,1.764a23.513,23.513,0,0,1,10.733.281c5.184-3.232,12.78-2.378,17.748.777A9.184,9.184,0,0,1,37.877,4.1c3.314,2.288,7.627,10.432,1.3,11.706-2.417.486-3.451-3.22-1.023-3.708.788-.158-2.909-5.6-4.587-5.818-.058.066-.111.123-.169.188,2.167,3.544,2.372,8.1-2.557,9.9-4.914,1.792-7.562-3.51-6.427-7.733a8.448,8.448,0,0,1,1.961-3.59C24.1,3.7,19.882,3.5,16.975,4.15A11.944,11.944,0,0,1,21.23,8.7c3.06,5.911-4.084,9.161-9.071,7.847C6.663,15.093,6.1,9.19,8.879,5.094A22.259,22.259,0,0,0,2.4,5.472C-.009,6-1.04,2.291,1.381,1.764Zm9.755,7.294,3.059,3.861C18.285,14.1,16,9.08,14.761,7.56A5.208,5.208,0,0,0,13.44,6.439Z" transform="matrix(0.788, -0.616, 0.616, 0.788, -6011.905, -12909.314)" fill="#ffbb1d"/>
      <path id="Path_36170" data-name="Path 36170" d="M50.5,23.316a29.381,29.381,0,0,0-11.26-7.274C36.169,9.056,27.738,4.584,20.394,4.335A11.467,11.467,0,0,0,11.234,0C6.206.024-3.98,5.379,1.649,11.154c2.149,2.2,5.826-.888,3.667-3.1-.7-.719,6.947-3.726,8.828-2.764.014.109.029.2.042.312C9.455,7.727,6.03,12.283,9.843,17.608s10.269,1.712,12.075-3.441a10.563,10.563,0,0,0,.508-5.083c3.285.216,7.778,2.98,10.315,5.7a14.92,14.92,0,0,0-7.589,1.687c-7.321,3.936-2.246,12.32,3.821,14.48,6.685,2.38,11.427-3.306,11.447-9.488a27.764,27.764,0,0,1,6.408,4.953C48.945,28.658,52.619,25.564,50.5,23.316ZM35.3,23.959l-5.875,1.824c-5.048-1.664.843-5.23,3.193-5.923a6.525,6.525,0,0,1,2.153-.224Q35.036,21.8,35.3,23.959Z" transform="matrix(-0.978, -0.208, 0.208, -0.978, -6068.097, -12658.947)" fill="#e5003f"/>
    </g>
  </g>
</svg>
