<?xml version="1.0" encoding="utf-8"?>
<!-- Generator: Adobe Illustrator 21.1.0, SVG Export Plug-In . SVG Version: 6.00 Build 0)  -->
<svg version="1.1" id="Layer_1" xmlns="http://www.w3.org/2000/svg" xmlns:xlink="http://www.w3.org/1999/xlink" x="0px" y="0px"
	 viewBox="0 0 150 150" style="enable-background:new 0 0 150 150;" xml:space="preserve">
<style type="text/css">
	.st0{fill:#BFC2C9;}
	.st1{fill:#2E3545;}
	.st2{fill:#464D5D;}
	.st3{fill:#DD121F;}
	.st4{fill:#FD887E;}
	.st5{fill:#FDA798;}
	.st6{fill:#8E0C1F;}
	.st7{fill:#EF645E;}
	.st8{fill:#E8E4C4;}
	.st9{fill:none;stroke:#FFFFFF;stroke-width:0.6592;stroke-linecap:round;stroke-miterlimit:10;}
	.st10{fill:#FECE7D;}
	.st11{opacity:0.3;}
	.st12{fill:#FFFFFF;}
	.st13{fill:#97DB6B;}
	.st14{fill:#73BF47;}
</style>
<g id="XMLID_63_">
	<g id="XMLID_3_">
		<g id="XMLID_11_">
			<path id="XMLID_29_" class="st0" d="M145.8,135.7L4.4,121.1l0.1-1.2c0.1-0.7,0.7-1.2,1.4-1.2L143.6,133
				C145,133.1,146,134.4,145.8,135.7L145.8,135.7z"/>
			<path id="XMLID_43_" class="st1" d="M131.4,145.7l-8.2-0.9c-3-0.3-5.1-3-4.8-5.9l0-0.4l18.9,2.1l0,0.4
				C137,143.9,134.3,146.1,131.4,145.7z"/>
			<path id="XMLID_21_" class="st1" d="M24.7,34.2l2.5-2.1c0.4-0.4,1-0.3,1.4,0.1l19,23.5c0,0-11.5-5.7-11.8-6.1
				c-0.4-0.4-6.4-8.4-6.4-8.4l-4.8-5.7C24.2,35.2,24.3,34.6,24.7,34.2z"/>
			<g id="XMLID_45_">
				<g>
					<path id="XMLID_73_" class="st1" d="M22.4,137.9c-0.6,0-1.1-0.3-1.4-0.8l-4.5-8.3c-0.4-0.8-0.1-1.8,0.6-2.2
						c0.8-0.4,1.8-0.1,2.2,0.6l4.5,8.3c0.4,0.8,0.1,1.8-0.6,2.2C23,137.8,22.7,137.9,22.4,137.9z"/>
				</g>
			</g>
			<g id="XMLID_37_">
				<g>
					<path id="XMLID_72_" class="st1" d="M8.6,146.1c-0.6,0-1.3-0.3-1.6-0.9c-0.5-0.9-0.2-2,0.7-2.6l18.1-10.4
						c0.3-0.2,0.5-0.4,0.6-0.8l0.6-1.8c0.3-1,1.4-1.5,2.4-1.2c1,0.3,1.5,1.4,1.2,2.4l-0.6,1.8c-0.4,1.2-1.2,2.2-2.3,2.9L9.5,145.8
						C9.2,146,8.9,146.1,8.6,146.1z"/>
				</g>
			</g>
			<path id="XMLID_32_" class="st1" d="M4.4,120.9c0,0,1.2-6.7,6-8.6c3.8-1.5,9-1.7,17.4,2.8c8.3,4.6,18.3,10.1,18.3,10.1L4.4,120.9
				z"/>
			<path id="XMLID_24_" class="st2" d="M139.5,141.6L8.6,128c-2.7-0.3-4.7-2.7-4.4-5.4l0.2-1.7l141.4,14.7l-0.1,1
				C145.4,139.7,142.6,141.9,139.5,141.6z"/>
			<path id="XMLID_10_" class="st2" d="M29.4,41.3c0,0,7.6,8.3,9.7,9.7c2.2,1.5,19.3,10.5,19.3,10.5v5l-11.3-1.1
				c-1-0.1-1.8-0.6-2.5-1.3L28.4,44.5c-0.7-0.8-0.5-1.9,0.2-2.6L29.4,41.3z"/>
			<path id="XMLID_20_" class="st1" d="M58.4,61.5l17.5,1.6c1.4,0.1,2.3,1.4,2.1,2.7l0,0c-0.2,1.2-1.3,2.1-2.5,2l-17.1-1.4V61.5z"/>
			<path id="XMLID_22_" class="st3" d="M29.5,33.4l0.6-0.4c0.4-0.3,1.1-0.3,1.4,0.2L47,52.4c0.3,0.4,0.3,1-0.1,1.4l-0.5,0.4
				L29.5,33.4z"/>
			<polygon id="XMLID_23_" class="st1" points="55.2,66.2 20.7,122.6 11.6,121.6 46.1,65.1 			"/>
			<polygon id="XMLID_50_" class="st2" points="55.2,66.2 20.6,122.7 19.3,122.5 53.8,66 			"/>
			<path id="XMLID_27_" class="st1" d="M145.8,135.7l-12.3-1.3l0.3-2.5l9.8,1C145,133.1,146,134.4,145.8,135.7L145.8,135.7z"/>
		</g>
		<g id="XMLID_4_">
			<g id="XMLID_35_">
				<path id="XMLID_18_" class="st4" d="M98.1,19c0,0,0,2.3,1,4.1c1,1.7-1.6,3.5-1.6,3.5c0,0-6,0.7-6,0.7s0.8-2.5,0.3-4.9
					C91.2,20,98.1,19,98.1,19z"/>
				<g id="XMLID_30_">
					<path id="XMLID_7_" class="st5" d="M105,56.8l-13.3,3c-1-7.5-3.2-10.9-5.2-15.9c-0.7-1.8-1.4-3.2-1.8-4.1
						c-1.3-2.6-0.4-5.2,1.2-7.3c1.6-2,7.3-6.8,7.8-7.3c-2.4,2.3-4.2,5.6-3,7.8c1.5,2.7,10,5.5,10,5.5s-0.4,4.7,0.6,8.7
						C102.7,52.6,105,56.8,105,56.8z"/>
					<path id="XMLID_15_" class="st3" d="M100.7,43.2c-7.5,1.1-14.2,0.7-14.2,0.7c-0.7-1.8-1.4-3.2-1.8-4.1
						c-1.3-2.6-0.4-5.2,1.2-7.3c1.6-2,7.3-6.8,7.8-7.3c-2.4,2.3-4.2,5.6-3,7.8c1.5,2.7,10,5.5,10,5.5S100.6,40.6,100.7,43.2z"/>
					<path id="XMLID_39_" class="st6" d="M100.7,42.4c0,0.3,0,0.5,0,0.8c-0.9,0.1-1.7,0.2-2.5,0.3c-1-3.1-0.7-6.2-0.7-6.2
						c1.8,0.7,3.3,1.2,3.3,1.2s-0.1,1.4-0.1,3.3C100.7,42,100.7,42.2,100.7,42.4z"/>
					<path id="XMLID_91_" class="st4" d="M104.8,56.3c-0.9-0.1-1.8-0.1-2.7,0c0.4-3.6-0.5-6.4-1.4-8.3c-0.5-1-1.6-1.6-2.7-1.4
						c-3.3,0.5-6,0.8-6.3,0.7c-1.3-0.5-2-1.8-2-1.8s-0.4,1.3-0.8,1.5c-0.1,0.1-0.5,0.2-0.9,0.2c-0.1-0.3-0.3-0.6-0.4-0.9
						c0.6,0,1.2-0.2,1.3-0.3c0.3-0.2,0.8-1.5,0.8-1.5s0.7,1.3,2,1.8c0.4,0.1,3.6-0.2,7.4-0.9c0,0,0.1,0,0.1,0c0.3,0,0.5-0.1,0.8-0.1
						c0.3-0.1,0.6-0.1,1-0.2c0,0,0,0,0.1,0c0,0.3,0,0.6,0.1,0.8c0.1,0.4,0.2,0.8,0.3,1.2C102.4,51.5,104.1,55,104.8,56.3z"/>
				</g>
				<g id="XMLID_33_">
					<path id="XMLID_8_" class="st7" d="M77.7,40.4c0,0-1.3-0.3-1.9,0.1c-0.6,0.4-0.9,3.3-0.7,3.9c0.1,0.6,2,1.5,2.9,1
						c0.9-0.5,2.1-4.2,2.1-4.2l-0.6-0.9L77.7,40.4z"/>
					<path id="XMLID_9_" class="st4" d="M87.2,45.7c0,0-6.2-1.7-6.3-2.2c-0.1-0.5,0-1.9-0.2-2.3c-0.2-0.5-1.2-1.4-1.6-1.5
						c-0.4-0.2-1.7-0.6-1.9-0.4c-0.2,0.2,0.1,1.1,0.7,1.3c0.6,0.1,0.9,0.1,0.9,0.1l0.4,0c0,0-0.4,0.3-0.5,0.4
						c-0.1,0.2-0.2,0.7-0.1,0.8c0.1,0.1,0.6,0.2,0.6,0.2s-1,0.6-1.4,1.5c-0.4,0.9-0.1,2.2,0.5,2.5c5.8,2.1,10.8,4.4,10.8,4.4
						S88,46.9,87.2,45.7z"/>
				</g>
				<g id="XMLID_31_">
					<path id="XMLID_14_" class="st5" d="M112.1,42.4c-2.2,1.6-19.6,4.3-20.5,3.9c-1.3-0.5-2-1.8-2-1.8s-0.4,1.3-0.8,1.5
						s-2,0.4-2.4,0.1c-0.4-0.3-0.7-2-0.6-2.4c0.1-0.4,1.3-2.6,2.5-2.6c1.2,0,1.9,0.5,2.5,1.4c0.6,0.9,0.9,1.3,3.1,0.8
						c2.1-0.5,8.3-1.9,12.2-4.7l-4.4-3.4c0,0-1.2,1.6-1,3.4c0,0-8.5-2.8-10-5.5c-1.5-2.7,1.4-6.8,4.4-9.1c1.7-1.2,3.9-1.4,5.7-0.2
						c0.6,0.4,1.1,0.8,1.6,1.5c1.8,2.3,8.3,9.6,9.6,10.9C113.5,37.4,114.4,40.9,112.1,42.4z"/>
					<path id="XMLID_16_" class="st4" d="M112.1,42.4c-2.2,1.6-19.6,4.3-20.5,3.9c-1.3-0.5-2-1.8-2-1.8s-0.4,1.3-0.8,1.5
						c0,0-0.1,0-0.2,0.1c0,0,0.5-1.1-0.2-1.8c0,0,0.3-0.1,0.4-0.3c0,0,0.1-0.6,0-1c-0.1-0.4,0.6,0.1,0.8,0.6c0.2,0.5,1.2,2,2.3,2
						c1.2,0,18.6-2.4,19.8-5.7c0.7-1.7-0.4-4.3-0.5-4.5c0.3,0.4,0.6,0.6,0.8,0.8C113.5,37.4,114.4,40.9,112.1,42.4z"/>
					<path id="XMLID_12_" class="st4" d="M103.4,36.5c0,0,2.5,1.5,5.9,0.4c0,0-1.8,0.7-3.2,1.8L103.4,36.5z"/>
					<path id="XMLID_42_" class="st4" d="M100.8,38.5c0,0-1.4-0.5-3.3-1.2c0,0,1.3-2.6,0.8-4c0,0,0,0,0,0c-0.8-1.2-1.5-2.1-1.5-2.1
						l5,3.9C101.8,35.2,100.6,36.8,100.8,38.5z"/>
				</g>
				<path id="XMLID_82_" class="st4" d="M101.1,46.1L101.1,46.1c0-0.1-0.1-0.3-0.1-0.4C101,45.8,101.1,45.9,101.1,46.1z"/>
			</g>
			<g id="XMLID_5_">
				<path id="XMLID_6_" class="st4" d="M103.1,73.6c0,0,0.1,8.1,0,10.7c-0.1,2.6,0.1,6.8,1.3,7.5c1.1,0.6,6.3,1,11.3,5.4
					c5,4.4,8.2,7,11.9,8.4l-2.4,4.3c0,0-12.1-6-18.4-8.9c-6.3-2.9-9.9-3.1-11-7.5c-1.1-4.4-4.3-22.7-4.3-22.7S101.5,71.1,103.1,73.6
					z"/>
				<path id="XMLID_92_" class="st7" d="M110.2,93.7c-3.8,0-7.6,1.3-8.5,0.2c-0.9-1,0.4-4.8,0.3-7.8c0-3-1.2-6.2-1.5-7
					c-0.3-0.8-1.5,0.4-2.1,2.2c-0.6,1.8-4.2,4.8-4.2,4.8c-1.3-6.8-2.8-15.4-2.8-15.4s10.1,0.4,11.6,2.8c0,0,0.1,8.1,0,10.7
					c-0.1,2.6,0.1,6.8,1.3,7.5C105.1,92.2,107.4,92.5,110.2,93.7z"/>
				<path id="XMLID_34_" class="st7" d="M126.5,107.4l-1.4,2.4c0,0-12.1-6-18.4-8.9c-3.7-1.7-6.4-2.5-8.3-3.7
					c1.4,0.4,8.3,2.4,10.9,3.5C112.1,102,121.1,106.9,126.5,107.4z"/>
				<path id="XMLID_13_" class="st6" d="M104.7,56.3c0,0,3.4,3.4,3,8.6c-0.4,5.3-4.7,8.6-4.7,8.6l-8.5-4.2
					C94.5,69.4,102.8,56.8,104.7,56.3z"/>
				<g id="XMLID_17_">
					<g id="XMLID_93_">
						<path id="XMLID_94_" class="st6" d="M116.9,121.8C116.9,121.8,116.9,121.8,116.9,121.8c0.4,0.2,1.9-0.2,2.5-0.5
							c0.5-0.2,2-1.3,3-2.1c0.1-0.1,0.3-0.2,0.4-0.3c0.3-0.3,0.9-0.9,1.5-1.4c0.5-0.4,1-0.9,1.4-1.2c0.4-0.4,0.7-0.6,0.7-0.6
							c0,0,0.3-0.3,0.7-0.6c0.8-0.7,2.1-1.8,2.7-2.3c0.1,0,0.1-0.1,0.2-0.2c1-0.8,3.4-3,3.2-4.1c-0.1-0.1-0.3-0.2-0.4-0.2
							c-0.2-0.1-0.4-0.2-0.5-0.3c-0.1-0.1-0.2-0.1-0.2-0.1l0,0c-0.1,0.1-2.3,3.2-3.4,3.6c-0.5,0.3-1.4,1.2-2.1,2.1
							c-0.9,1.1-1.8,2.3-2,2.5c-0.1,0.1-0.2,0.2-0.4,0.4c-0.2,0.2-0.4,0.4-0.6,0.6c-1,0.9-2.4,2.2-2.6,2.4c-0.4,0.4-2.6,1.5-2.8,1.7
							c-0.3,0.2-1.3,0.4-1.4,0.4C116.6,121.4,116.6,121.6,116.9,121.8z"/>
					</g>
					<path id="XMLID_90_" class="st8" d="M121.6,107.1c0.1,0,0.1,0,0.2,0c0.1,0,0.3,0.1,0.4,0.2c0.2,0.1,0.4,0.2,0.5,0.3
						c0.3,0.2,0.2,1.6,0.2,1.6c-0.7,0-1.2,0-1.2,0c-0.1,0.1-0.2,0.2-0.3,0.4c-0.1,0.2-0.2,0.4-0.3,0.7l-0.1,0c0,0,0,0,0,0.1
						c-0.1,0-0.4-0.3-0.4-0.3C120.5,108.6,121.4,107.3,121.6,107.1z"/>
					<g id="XMLID_88_">
						<path id="XMLID_89_" class="st8" d="M128.5,111.3c1-0.4,3.3-3.5,3.4-3.6c0,0,0,0,0,0c0-0.4-0.9-1.3-1-1.2c0,0,0,0,0,0.1
							c-0.3,0.4-2.1,2.4-2.3,2.7c-0.2,0.3-0.5,0.4-0.4,1.1C128.2,111,128.5,111.3,128.5,111.3z"/>
					</g>
					<path id="XMLID_47_" class="st3" d="M116.1,121c-0.1-0.2-0.4-0.5-0.4-0.5c0,0-0.1-0.1-0.1-0.1c-0.2-0.4-0.1-0.9,0.2-1.4
						l1.9-2.1c0,0,0.2-0.2,0.4-0.6l0,0c0.5-0.7,1.2-1.9,1.6-3.1c0.3-0.9,0.5-1.8,0.7-2.6c0.1-0.2,0.1-0.4,0.2-0.6
						c0.1-0.3,0.2-0.5,0.3-0.7c0.1-0.2,0.2-0.3,0.3-0.4c0,0,1.3-0.2,1.7-0.3c0,0,1-0.1,1.6-0.5c0.3-0.3,0.7-0.7,0.8-1.1
						c0-0.4-0.2-1.6-0.1-2.1c0.1-0.4,1.5-0.9,1.7-0.8c0,0,2.1,0.9,2.8,1.3l0,0c0,0,0.1,0.1,0.1,0.1c0.6,0.4,1,0.9,1,0.9l0,0
						c-0.3,0.4-2.1,2.4-2.3,2.7c-0.2,0.3-0.5,0.4-0.4,1.1c0.1,0.7,0.4,1,0.4,1c-0.5,0.3-1.4,1.2-2.1,2.1c-0.9,1.1-1.8,2.3-2,2.5
						c-0.1,0.1-0.2,0.2-0.4,0.4c-0.2,0.2-0.4,0.4-0.6,0.6c-1,0.9-2.4,2.2-2.6,2.4c-0.4,0.4-2.6,1.5-2.8,1.7
						c-0.3,0.2-1.3,0.4-1.4,0.4C116.5,121.4,116.3,121.3,116.1,121z"/>
					<path id="XMLID_46_" class="st6" d="M118.4,116L118.4,116c0,0,1.7-0.6,2.5-1.5c0.8-0.9,1.5-4.7,1.5-4.7
						c-0.6-0.3-1.5-0.3-1.9,0.1C120.3,110.2,119.9,113.9,118.4,116z"/>
					<path id="XMLID_40_" class="st9" d="M122.3,110.7c0,0-1.4-0.1-2,0.4"/>
					<path id="XMLID_19_" class="st9" d="M122,112.1c0,0-1-0.2-2,0.3"/>
					<path id="XMLID_28_" class="st9" d="M121.5,113.5c0,0-1.2-0.2-2,0.4"/>
				</g>
			</g>
			<g id="XMLID_36_">
				<path id="XMLID_67_" d="M109.2,11.2c0,1.2-0.3,2.3-0.5,3.5s-0.3,2.4,0.2,3.5c0.5,1.1,1.6,2,2.8,1.8c-1.4,2.4-4.9,3.1-7.4,1.8
					c-2.5-1.3-4-4-4.4-6.8c-0.2-1.4-0.2-2.7-0.4-4.1c-0.3-1.3-0.9-2.7-2-3.4c1.6-2.2,4.7-3.3,7.3-2.5
					C107.3,5.8,109.2,8.4,109.2,11.2z"/>
				<path id="XMLID_223_" class="st5" d="M96.9,4.8c-1.8-1.6-5.5-4-9.3-1.3c-3.8,2.7-2.9,6.7-3,8.5c-0.1,1.8-0.5,4.2-0.8,5.4
					c-0.4,1.2,2.4,4.7,5.2,5.3c2.8,0.5,10-2,10.5-7.5C100.1,9.5,98.1,5.8,96.9,4.8z"/>
				<g id="XMLID_304_">
					<g id="XMLID_305_">
						<path id="XMLID_287_" d="M94.8,2.1c7.9,2.9,9.7,12.4,3.6,17.1c-0.4,0.3-1.2,0.9-1.2,0.9s0.4,0.1,0,0c-0.9-0.1-2.5,0.3-3-5.5
							c0,0-0.5,1.2-1,2.9c-0.1,0.4-0.6,0.4-0.7,0c-0.5-2.3-1.2-4.5-2.4-6.6c-2.5-0.1-3.5,2.4-6,1c-0.7-3.3,0.6-6.5,2.5-8.1
							C88.3,2.2,92.7,1.3,94.8,2.1z"/>
					</g>
				</g>
				<g id="XMLID_215_">
					<path id="XMLID_222_" class="st5" d="M93.3,15.4c0.2,0.7,1.6,0.8,2.4-0.3c0.9-1.2,0.4-3.2-0.5-3.7c-0.9-0.6-1.8,0.4-1.8,0.4
						S92.7,12.8,93.3,15.4z"/>
					<path id="XMLID_221_" class="st4" d="M93.5,13.3c0-0.2,0-0.4,0-0.4l0,0c0,0,0,0.1,0.1,0.3c0,0.1,0.1,0.3,0.2,0.5c0,0,0,0,0-0.1
						c0-0.1,0.1-0.2,0.2-0.2c0.3-0.3,0.6-0.4,0.6-0.4l0,0c0,0-0.1,0.1-0.1,0.2c-0.1,0.1-0.2,0.2-0.3,0.4c0,0.1-0.1,0.2-0.1,0.2
						c0,0.1-0.1,0.1-0.1,0.2c0,0,0,0,0,0c0.1,0.1,0.1,0.1,0.2,0.2c0.1,0.1,0.2,0.1,0.2,0.2c0,0,0.1,0,0.1,0.1c0,0,0.1,0,0.1,0
						c0.1,0,0.1,0.1,0.1,0.1l0,0c0,0,0,0-0.1,0c0,0-0.1,0-0.1,0c0,0-0.1,0-0.2,0c-0.1,0-0.1,0-0.2-0.1c-0.1,0-0.1-0.1-0.2-0.1
						c-0.1-0.1-0.2-0.2-0.2-0.4C93.6,13.8,93.5,13.5,93.5,13.3z"/>
					<path id="XMLID_242_" class="st4" d="M93.5,11.7c0,0,0.1-0.1,0.3-0.2c0.2-0.1,0.5-0.3,0.9-0.2c0.2,0,0.4,0.1,0.6,0.2
						c0.1,0.1,0.2,0.2,0.2,0.2c0.1,0.1,0.1,0.2,0.2,0.3c0.2,0.4,0.3,1,0.3,1.5c0,0.3-0.1,0.5-0.1,0.8c-0.1,0.2-0.2,0.5-0.3,0.6
						l-0.1,0.2c0,0-0.1,0.1-0.1,0.1c0,0-0.1,0.1-0.1,0.1c0,0-0.1,0.1-0.1,0.1c-0.2,0.1-0.4,0.2-0.5,0.2c-0.4,0.1-0.7,0-0.9-0.1
						c-0.1-0.1-0.2-0.1-0.2-0.2c0,0-0.1-0.1-0.1-0.1l0,0c0,0,0,0,0,0.1c0,0.1,0.1,0.1,0.2,0.2c0.1,0.1,0.2,0.2,0.4,0.3
						c0.2,0.1,0.4,0.1,0.6,0.1c0.2,0,0.5-0.1,0.7-0.2c0.1-0.1,0.2-0.1,0.3-0.2c0.1,0,0.1-0.1,0.2-0.2l0.1-0.2
						c0.2-0.3,0.3-0.5,0.4-0.8c0.1-0.3,0.1-0.6,0.1-0.9c0-0.6-0.2-1.2-0.5-1.7c-0.1-0.1-0.2-0.2-0.2-0.3c-0.1-0.1-0.2-0.2-0.3-0.3
						c-0.2-0.1-0.5-0.2-0.7-0.2c-0.5,0-0.8,0.2-1,0.3C93.6,11.6,93.5,11.7,93.5,11.7L93.5,11.7z"/>
				</g>
			</g>
			<g id="XMLID_38_">
				<path id="XMLID_41_" class="st3" d="M104.7,56.3c0,0,2,3.8,1.6,8.1c-0.4,4.4-4.6,9.8-4.6,9.8s-5.2-4.8-13.2-5.2
					c0,0,4.2-5.6,3.1-9.2C91.7,59.8,97.7,55.7,104.7,56.3z"/>
				<path id="XMLID_48_" class="st5" d="M101.7,74.3c-1.1,2.5-9.8,14-10.6,15.1c-0.8,1.1-1.2,2.3,0.5,5.6c1.9,3.6,2,6.5,2.2,12.1
					c0.1,5.6,0.6,14.2,0.6,14.2h-4.5c-1.3-6.5-4.3-17.6-5.6-22c-1.3-4.2-3-5.4-3-7.9c-0.1-2.5,2.1-6.8,3.4-11.8
					c1.4-5.3,4.1-10.6,4.1-10.6s3.5-0.4,6.6,0.4C98.2,70.3,101.7,74.3,101.7,74.3z"/>
				<path id="XMLID_49_" class="st4" d="M93.7,107c0.1,2.7,0.2,6.2,0.3,9c-0.6-1.7-1.6-5.1-1.3-7.3c0.6-4.8,0.2-8.9-1-11.9
					c-1.2-3-4.5-4.5-3.9-6.8c0.6-2.3,2.8-2.8,7-8c3.8-4.7,4.8-8.9,5-9.7c1.1,1,1.9,1.9,1.9,1.9c-1.1,2.5-9.8,14.1-10.6,15.1
					c-0.8,1.1-1.2,2.3,0.5,5.6C93.4,98.6,93.6,101.4,93.7,107z"/>
				<g id="XMLID_370_">
					<g id="XMLID_379_">
						<path id="XMLID_380_" class="st6" d="M76.2,125.3C76.2,125.3,76.2,125.3,76.2,125.3c0.2,0.4,1.5,1.1,2.1,1.3
							c0.5,0.2,2.4,0.5,3.6,0.5c0.2,0,0.3,0,0.5,0c0.4,0,1.3,0,2.1,0c0.7,0,1.3,0,1.9,0c0.6,0,0.9,0,1,0c0,0,0.4,0,0.9,0
							c1.1,0.1,2.8,0.1,3.5,0.2c0.1,0,0.1,0,0.2,0c1.3,0.1,4.5,0.1,5.2-0.7c0-0.1-0.1-0.3-0.1-0.5c-0.1-0.2-0.1-0.4-0.2-0.6
							c-0.1-0.2-0.1-0.3-0.1-0.3l0,0c-0.1,0-3.9,0.7-4.9,0.3c-0.6-0.1-1.8-0.1-3,0c-1.4,0.1-2.9,0.4-3.2,0.4c-0.1,0-0.3,0-0.6,0
							c-0.2,0-0.5,0-0.8,0c-1.4,0-3.2,0-3.6-0.1c-0.5,0-2.9-0.7-3.2-0.8c-0.3-0.1-1.2-0.6-1.3-0.6C76.2,124.9,76.1,125,76.2,125.3z"
							/>
					</g>
					<path id="XMLID_378_" class="st8" d="M89.7,117.9c0.1,0,0.1,0.1,0.2,0.1c0.1,0.1,0.1,0.3,0.2,0.4c0.1,0.2,0.1,0.4,0.1,0.6
						c0.1,0.4-1,1.3-1,1.3c-0.5-0.5-0.8-0.9-0.8-0.9c-0.1,0-0.3,0-0.4,0.1c-0.2,0.1-0.4,0.2-0.7,0.3l0-0.1c0,0,0,0-0.1,0
						c-0.1-0.1-0.1-0.4-0.1-0.4C87.9,118.3,89.4,117.9,89.7,117.9z"/>
					<g id="XMLID_376_">
						<path id="XMLID_377_" class="st8" d="M91.9,125.8c1,0.4,4.8-0.2,4.9-0.3c0,0,0,0,0,0c0.3-0.3,0.2-1.6,0.1-1.6c0,0,0,0-0.1,0
							c-0.5,0-3.2,0.3-3.5,0.3c-0.3,0-0.6,0-1,0.5C91.9,125.3,91.9,125.8,91.9,125.8z"/>
					</g>
					<path id="XMLID_375_" class="st3" d="M76.2,124.2c0.1-0.2,0-0.7,0-0.7c0,0,0-0.1,0-0.1c0.2-0.5,0.6-0.7,1.1-0.9l2.8-0.2
						c0,0,0.3,0,0.7-0.1c0,0,0,0,0,0c0.8-0.2,2.2-0.5,3.3-1.2c0.8-0.5,1.6-1,2.3-1.4c0.2-0.1,0.4-0.2,0.5-0.3
						c0.3-0.1,0.5-0.2,0.7-0.3c0.2-0.1,0.3-0.1,0.4-0.1c0,0,1.1,0.8,1.4,1c0,0,0.8,0.7,1.5,0.7c0.4,0.1,1,0,1.4-0.3
						c0.3-0.3,1-1.3,1.4-1.5c0.4-0.2,1.7,0.4,1.8,0.6c0,0,0.9,2.1,1.1,2.9l0,0c0,0,0,0.1,0,0.1c0.1,0.7,0,1.3,0,1.3l0,0
						c-0.5,0-3.2,0.3-3.5,0.3c-0.3,0-0.6,0-1,0.5c-0.4,0.5-0.4,1-0.4,1c-0.6-0.1-1.8-0.1-3,0c-1.4,0.1-2.9,0.4-3.2,0.4
						c-0.1,0-0.3,0-0.6,0c-0.2,0-0.5,0-0.8,0c-1.4,0-3.2,0-3.6-0.1c-0.5,0-2.9-0.7-3.2-0.8c-0.3-0.1-1.2-0.6-1.3-0.6
						C76.2,124.8,76.1,124.5,76.2,124.2z"/>
					<path id="XMLID_374_" class="st6" d="M81.3,122.1L81.3,122.1c0,0,1.6,0.8,2.8,0.7c1.2-0.1,4.4-2.4,4.4-2.4
						c-0.2-0.6-0.9-1.3-1.4-1.2C86.7,119.2,83.8,121.7,81.3,122.1z"/>
					<path id="XMLID_373_" class="st9" d="M87.7,121.1c0,0-0.9-1-1.7-1.1"/>
					<path id="XMLID_372_" class="st9" d="M86.5,121.8c0,0-0.6-0.8-1.7-1.1"/>
					<path id="XMLID_371_" class="st9" d="M85.3,122.5c0,0-0.7-1-1.7-1.1"/>
				</g>
			</g>
		</g>
	</g>
	<g id="XMLID_172_">
		<g id="XMLID_146_">
			<path id="XMLID_224_" class="st10" d="M26.8,122.3h-8.2c-1,0-1.7,0.8-1.7,1.7v0.9v21.3c0,1.1,0.9,2,2,2h7.7c1.1,0,2-0.9,2-2
				v-21.3V124C28.6,123.1,27.8,122.3,26.8,122.3z"/>
			<path id="XMLID_220_" class="st3" d="M19.2,119.9h7c0.4,0,0.7,0.3,0.7,0.7v1.7h-8.4v-1.7C18.5,120.2,18.8,119.9,19.2,119.9z"/>
			<path id="XMLID_217_" class="st10" d="M24.1,117.1h-2.9c-0.9,0-1.7,0.8-1.7,1.7v1.2h6.3v-1.2C25.8,117.8,25,117.1,24.1,117.1z"/>
			<path id="XMLID_208_" class="st3" d="M22.7,114L22.7,114c-0.5,0-0.8,0.4-0.8,0.8v2.3h1.6v-2.3C23.5,114.3,23.1,114,22.7,114z"/>
			<rect id="XMLID_188_" x="21.8" y="116.3" class="st11" width="1.6" height="0.7"/>
			<rect id="XMLID_184_" x="16.9" y="126.2" class="st3" width="11.7" height="6.5"/>
			<g>
				<path class="st12" d="M22.4,131.4h-0.6l-1.4-2.9l-0.5,2.9h-0.6l0.7-3.9h0.6l1.4,2.9l0.5-2.9h0.6L22.4,131.4z"/>
				<path class="st12" d="M25.7,130.9c-0.1,0.1-0.3,0.3-0.5,0.4c-0.2,0.1-0.4,0.1-0.7,0.1c-0.3,0-0.5,0-0.7-0.1
					c-0.2-0.1-0.3-0.2-0.4-0.4c-0.1-0.2-0.1-0.4-0.1-0.6h0.7c0,0.2,0,0.3,0.2,0.4c0.1,0.1,0.3,0.2,0.5,0.2c0.2,0,0.4-0.1,0.5-0.2
					c0.1-0.1,0.2-0.3,0.2-0.5c0-0.1,0-0.2-0.1-0.3c-0.1-0.1-0.1-0.2-0.3-0.2c-0.1-0.1-0.2-0.1-0.4-0.2c-0.2-0.1-0.4-0.2-0.5-0.2
					c-0.1-0.1-0.2-0.2-0.3-0.3c-0.1-0.1-0.1-0.3-0.1-0.5c0-0.1,0-0.2,0-0.3c0-0.3,0.2-0.5,0.4-0.6c0.2-0.2,0.5-0.2,0.9-0.2
					c0.4,0,0.7,0.1,0.9,0.3c0.2,0.2,0.3,0.4,0.3,0.7h-0.7c0-0.1,0-0.3-0.1-0.4c-0.1-0.1-0.3-0.2-0.5-0.2c-0.2,0-0.3,0.1-0.5,0.2
					c-0.1,0.1-0.2,0.2-0.2,0.4c0,0.1,0,0.2,0.1,0.3c0.1,0.1,0.1,0.1,0.2,0.2c0.1,0,0.2,0.1,0.4,0.2c0.2,0.1,0.4,0.2,0.5,0.2
					c0.1,0.1,0.2,0.2,0.3,0.3c0.1,0.1,0.1,0.3,0.1,0.5c0,0.1,0,0.2,0,0.3C25.9,130.6,25.8,130.8,25.7,130.9z"/>
			</g>
			<path id="XMLID_167_" class="st11" d="M19.4,120.4L19.4,120.4c-0.2,0-0.4,0.2-0.4,0.4v1.5h0.8v-1.5
				C19.8,120.6,19.6,120.4,19.4,120.4z"/>
			<path id="XMLID_158_" class="st11" d="M20.7,120.4L20.7,120.4c-0.2,0-0.4,0.2-0.4,0.4v1.5h0.8v-1.5
				C21.1,120.6,20.9,120.4,20.7,120.4z"/>
			<path id="XMLID_156_" class="st11" d="M22,120.4L22,120.4c-0.2,0-0.4,0.2-0.4,0.4v1.5h0.8v-1.5C22.4,120.6,22.2,120.4,22,120.4z"
				/>
			<path id="XMLID_150_" class="st11" d="M23.3,120.4L23.3,120.4c-0.2,0-0.4,0.2-0.4,0.4v1.5h0.8v-1.5
				C23.7,120.6,23.5,120.4,23.3,120.4z"/>
			<path id="XMLID_149_" class="st11" d="M24.6,120.4L24.6,120.4c-0.2,0-0.4,0.2-0.4,0.4v1.5H25v-1.5
				C25,120.6,24.8,120.4,24.6,120.4z"/>
			<path id="XMLID_148_" class="st11" d="M25.9,120.4L25.9,120.4c-0.2,0-0.4,0.2-0.4,0.4v1.5h0.8v-1.5
				C26.3,120.6,26.1,120.4,25.9,120.4z"/>
		</g>
		<g id="XMLID_145_">
			<path id="XMLID_234_" class="st13" d="M36,134.5c0,0,0.3-0.5,2.6,0.2c2.4,0.8,3.5-2.4,3.5-2.4s-1.1,0.1-2.6-0.3
				C38,131.6,36.4,132.6,36,134.5z"/>
			<path id="XMLID_231_" class="st14" d="M34.4,130.8c0,0,2.8,2.1,1.2,5.9c0,0,1-2.8-1.6-5.5C34,131.2,34.1,130.9,34.4,130.8z"/>
			<path id="XMLID_228_" class="st3" d="M35.8,135.9c0,0-1.6-3.5-5.6-3c-4.1,0.5-8.6,10.7-0.7,14.5c6.3,3,11.6-1.9,12.2-6
				C42.3,137.2,38.8,135.3,35.8,135.9z"/>
			<path id="XMLID_225_" class="st14" d="M36,134.5c0,0,0.3-0.5,2.6,0.2c2.4,0.8,3.5-2.4,3.5-2.4s-1.5,1.3-3,0.8
				C37.6,132.7,36.4,132.6,36,134.5z"/>
		</g>
	</g>
</g>
</svg>
