<?xml version="1.0" encoding="utf-8"?>
<!-- Generator: Adobe Illustrator 21.1.0, SVG Export Plug-In . SVG Version: 6.00 Build 0)  -->
<svg version="1.1" id="Layer_1" xmlns="http://www.w3.org/2000/svg" xmlns:xlink="http://www.w3.org/1999/xlink" x="0px" y="0px"
	 viewBox="0 0 150 150" style="enable-background:new 0 0 150 150;" xml:space="preserve">
<style type="text/css">
	.st0{fill:#858585;}
	.st1{fill:#DD121F;}
	.st2{fill:#383838;}
	.st3{fill:#1F1F1F;}
	.st4{fill:#2B2B2B;}
	.st5{fill:#0F0F0F;}
</style>
<g>
	<g>
		
			<rect x="96.6" y="3" transform="matrix(0.7071 -0.7071 0.7071 0.7071 -13.7063 90.235)" class="st0" width="10.9" height="117.3"/>
		
			<rect x="96.5" y="45.2" transform="matrix(0.7071 -0.7071 0.7071 0.7071 -13.936 90.8471)" class="st1" width="12.4" height="34.1"/>
		<g>
			<g>
				
					<rect x="94.1" y="77.6" transform="matrix(0.7071 -0.7071 0.7071 0.7071 -22.2588 110.8829)" class="st2" width="57.1" height="9.3"/>
				
					<rect x="92.5" y="78.3" transform="matrix(0.7071 -0.7071 0.7071 0.7071 -21.5772 109.231)" class="st3" width="57.1" height="4.7"/>
			</g>
			<g>
				
					<rect x="104.1" y="84.4" transform="matrix(0.7071 -0.7071 0.7071 0.7071 -24.8094 117.0409)" class="st2" width="49.6" height="8.1"/>
				
					<rect x="102.7" y="85" transform="matrix(0.7071 -0.7071 0.7071 0.7071 -24.243 115.6804)" class="st3" width="49.6" height="4.2"/>
			</g>
			<g>
				
					<rect x="114.5" y="90.4" transform="matrix(0.7071 -0.7071 0.7071 0.7071 -26.9253 122.149)" class="st2" width="38.9" height="6.4"/>
				
					<rect x="113.4" y="90.9" transform="matrix(0.7071 -0.7071 0.7071 0.7071 -26.4615 121.019)" class="st3" width="38.9" height="3.2"/>
			</g>
			<g>
				
					<rect x="129.2" y="95" transform="matrix(0.7071 -0.7071 0.7071 0.7071 -28.7637 126.4561)" class="st4" width="18.1" height="5.9"/>
				<path class="st5" d="M141.6,95.8l1.4,1.4l3.1-3.1l-1.4-1.4c-0.8-0.8-2.2-0.8-3.1,0l0,0C140.8,93.6,140.8,95,141.6,95.8z"/>
				<path class="st5" d="M133,104.5l1.4,1.4l3.1-3.1l-1.4-1.4c-0.8-0.8-2.2-0.8-3.1,0l0,0C132.1,102.3,132.1,103.7,133,104.5z"/>
				<path class="st5" d="M137.4,100.1l1.4,1.4l3.1-3.1l-1.4-1.4c-0.8-0.8-2.2-0.8-3.1,0l0,0C136.5,97.9,136.5,99.3,137.4,100.1z"/>
			</g>
		</g>
		<g>
			<g>
				
					<rect x="53.6" y="37.2" transform="matrix(0.7071 -0.7071 0.7071 0.7071 -5.4848 70.387)" class="st2" width="57.1" height="9.3"/>
				
					<rect x="55.3" y="41.1" transform="matrix(0.7071 -0.7071 0.7071 0.7071 -6.1664 72.0373)" class="st3" width="57.1" height="4.7"/>
			</g>
			<g>
				
					<rect x="51.2" y="31.6" transform="matrix(0.7071 -0.7071 0.7071 0.7071 -2.9342 64.2292)" class="st2" width="49.6" height="8.1"/>
				
					<rect x="52.6" y="34.9" transform="matrix(0.7071 -0.7071 0.7071 0.7071 -3.5006 65.5917)" class="st3" width="49.6" height="4.2"/>
			</g>
			<g>
				
					<rect x="51.5" y="27.4" transform="matrix(0.7071 -0.7071 0.7071 0.7071 -0.8182 59.1209)" class="st2" width="38.9" height="6.4"/>
				
					<rect x="52.6" y="30.1" transform="matrix(0.7071 -0.7071 0.7071 0.7071 -1.2821 60.247)" class="st3" width="38.9" height="3.2"/>
			</g>
			<g>
				
					<rect x="57.5" y="23.3" transform="matrix(0.7071 -0.7071 0.7071 0.7071 0.9278 54.7751)" class="st4" width="18.1" height="5.9"/>
				<path class="st5" d="M68.7,22.9l-1.4-1.4l3.1-3.1l1.4,1.4c0.8,0.8,0.8,2.2,0,3.1l0,0C70.9,23.7,69.5,23.7,68.7,22.9z"/>
				<path class="st5" d="M60,31.5l-1.4-1.4l3.1-3.1l1.4,1.4c0.8,0.8,0.8,2.2,0,3.1l0,0C62.2,32.4,60.9,32.4,60,31.5z"/>
				<path class="st5" d="M64.4,27.2L63,25.7l3.1-3.1l1.4,1.4c0.8,0.8,0.8,2.2,0,3.1l0,0C66.6,28,65.3,28,64.4,27.2z"/>
			</g>
		</g>
	</g>
	<g>
		
			<rect x="41.7" y="28.9" transform="matrix(0.7071 -0.7071 0.7071 0.7071 -48.0946 58.9653)" class="st0" width="10.9" height="117.3"/>
		
			<rect x="41.5" y="71.1" transform="matrix(0.7071 -0.7071 0.7071 0.7071 -48.3245 59.5768)" class="st1" width="12.4" height="34.1"/>
		<g>
			<g>
				
					<rect x="39.2" y="103.5" transform="matrix(0.7071 -0.7071 0.7071 0.7071 -56.6476 79.6149)" class="st2" width="57.1" height="9.3"/>
				
					<rect x="37.6" y="104.2" transform="matrix(0.7071 -0.7071 0.7071 0.7071 -55.9646 77.965)" class="st3" width="57.1" height="4.7"/>
			</g>
			<g>
				
					<rect x="49.1" y="110.3" transform="matrix(0.7071 -0.7071 0.7071 0.7071 -59.1977 85.7706)" class="st2" width="49.6" height="8.1"/>
				
					<rect x="47.8" y="110.9" transform="matrix(0.7071 -0.7071 0.7071 0.7071 -58.6322 84.4052)" class="st3" width="49.6" height="4.2"/>
			</g>
			<g>
				
					<rect x="59.6" y="116.3" transform="matrix(0.7071 -0.7071 0.7071 0.7071 -61.3138 90.8791)" class="st2" width="38.9" height="6.4"/>
				
					<rect x="58.4" y="116.7" transform="matrix(0.7071 -0.7071 0.7071 0.7071 -60.8486 89.7562)" class="st3" width="38.9" height="3.2"/>
			</g>
			<g>
				
					<rect x="74.3" y="120.9" transform="matrix(0.7071 -0.7071 0.7071 0.7071 -63.152 95.1867)" class="st4" width="18.1" height="5.9"/>
				<path class="st5" d="M86.7,121.7l1.4,1.4l3.1-3.1l-1.4-1.4c-0.8-0.8-2.2-0.8-3.1,0l0,0C85.9,119.5,85.9,120.9,86.7,121.7z"/>
				<path class="st5" d="M78,130.4l1.4,1.4l3.1-3.1l-1.4-1.4c-0.8-0.8-2.2-0.8-3.1,0l0,0C77.2,128.2,77.2,129.5,78,130.4z"/>
				<path class="st5" d="M82.4,126l1.4,1.4l3.1-3.1l-1.4-1.4c-0.8-0.8-2.2-0.8-3.1,0l0,0C81.6,123.8,81.6,125.2,82.4,126z"/>
			</g>
		</g>
		<g>
			<g>
				
					<rect x="-1.3" y="63" transform="matrix(0.7071 -0.7071 0.7071 0.7071 -39.8732 39.1171)" class="st2" width="57.1" height="9.3"/>
				
					<rect x="0.4" y="67" transform="matrix(0.7071 -0.7071 0.7071 0.7071 -40.5557 40.7648)" class="st3" width="57.1" height="4.7"/>
			</g>
			<g>
				
					<rect x="-3.7" y="57.5" transform="matrix(0.7071 -0.7071 0.7071 0.7071 -37.3226 32.9595)" class="st2" width="49.6" height="8.1"/>
				
					<rect x="-2.3" y="60.8" transform="matrix(0.7071 -0.7071 0.7071 0.7071 -37.8881 34.3247)" class="st3" width="49.6" height="4.2"/>
			</g>
			<g>
				
					<rect x="-3.5" y="53.2" transform="matrix(0.7071 -0.7071 0.7071 0.7071 -35.2066 27.851)" class="st2" width="38.9" height="6.4"/>
				
					<rect x="-2.3" y="56" transform="matrix(0.7071 -0.7071 0.7071 0.7071 -35.6718 28.974)" class="st3" width="38.9" height="3.2"/>
			</g>
			<g>
				
					<rect x="2.6" y="49.2" transform="matrix(0.7071 -0.7071 0.7071 0.7071 -33.4606 23.5052)" class="st4" width="18.1" height="5.9"/>
				<path class="st5" d="M13.8,48.8l-1.4-1.4l3.1-3.1l1.4,1.4c0.8,0.8,0.8,2.2,0,3.1l0,0C16,49.6,14.6,49.6,13.8,48.8z"/>
				<path class="st5" d="M5.1,57.4L3.7,56l3.1-3.1l1.4,1.4c0.8,0.8,0.8,2.2,0,3.1l0,0C7.3,58.3,5.9,58.3,5.1,57.4z"/>
				<path class="st5" d="M9.5,53.1L8,51.6l3.1-3.1l1.4,1.4c0.8,0.8,0.8,2.2,0,3.1l0,0C11.7,53.9,10.3,53.9,9.5,53.1z"/>
			</g>
		</g>
	</g>
</g>
</svg>
