<?xml version="1.0" encoding="utf-8"?>
<!-- Generator: Adobe Illustrator 21.1.0, SVG Export Plug-In . SVG Version: 6.00 Build 0)  -->
<svg version="1.1" id="Layer_1" xmlns="http://www.w3.org/2000/svg" xmlns:xlink="http://www.w3.org/1999/xlink" x="0px" y="0px"
	 viewBox="0 0 150 150" style="enable-background:new 0 0 150 150;" xml:space="preserve">
<style type="text/css">
	.st0{fill:#4A4A4A;}
	.st1{fill:#363636;}
	.st2{fill:#FFCC99;}
	.st3{fill:#333333;}
	.st4{fill:#DD121F;}
	.st5{fill:#1A1A1A;}
	.st6{fill:#FFFFFF;}
	.st7{fill:#2E2E2E;}
	.st8{fill:#1C1C1C;}
</style>
<g>
	<g>
		<g>
			<path class="st0" d="M13.7,133.5V5.3C13.7,2.4,16.1,0,19,0h89.1c2.9,0,5.3,2.4,5.3,5.3v128.2c0,2.9-2.4,5.3-5.3,5.3H19
				C16.1,138.8,13.7,136.4,13.7,133.5z"/>
			<rect x="23.5" y="7.2" class="st1" width="80.1" height="62.1"/>
			<rect x="27.5" y="15" class="st2" width="71.7" height="46.5"/>
		</g>
		<g>
			<rect x="30.7" y="17.3" class="st3" width="3" height="6.7"/>
			<rect x="35" y="17.3" class="st3" width="3" height="6.7"/>
			<rect x="39.2" y="17.3" class="st3" width="3" height="6.7"/>
			<path class="st3" d="M45.5,18v5.2h-1.6V18H45.5L45.5,18z M46.2,17.3h-3V24h3V17.3L46.2,17.3z"/>
			<path class="st4" d="M96.8,51.8H30.4v-3.4h66.4V51.8z M31.1,51.1h65v-2h-65C31.1,49.1,31.1,51.1,31.1,51.1z"/>
			<rect x="30.7" y="48.7" class="st4" width="45" height="2.7"/>
			<g>
				<path class="st5" d="M30.4,44.6c0.2,0.1,0.7,0.4,1.2,0.4c1,0,1.3-0.6,1.3-1.1c0-0.8-0.7-1.1-1.5-1.1H31v-0.6h0.4
					c0.6,0,1.3-0.3,1.3-0.9c0-0.4-0.3-0.8-1-0.8c-0.4,0-0.9,0.2-1.1,0.4l-0.2-0.6c0.3-0.2,0.9-0.4,1.5-0.4c1.1,0,1.6,0.7,1.6,1.3
					s-0.3,1.1-1,1.3l0,0c0.7,0.1,1.3,0.7,1.3,1.4c0,0.9-0.7,1.7-2,1.7c-0.6,0-1.2-0.2-1.5-0.4L30.4,44.6z"/>
				<path class="st5" d="M34.7,42c0-0.3,0.2-0.5,0.5-0.5s0.5,0.2,0.5,0.5s-0.2,0.5-0.5,0.5S34.7,42.3,34.7,42z M34.7,45
					c0-0.3,0.2-0.5,0.5-0.5s0.5,0.2,0.5,0.5s-0.2,0.5-0.5,0.5C34.9,45.6,34.7,45.3,34.7,45z"/>
				<path class="st5" d="M38.8,45.5V44h-2.6v-0.5l2.5-3.6h0.8v3.5h0.8V44h-0.8v1.5H38.8z M38.8,43.3v-1.9c0-0.3,0-0.6,0-0.9l0,0
					c-0.2,0.3-0.3,0.6-0.5,0.8l-1.4,1.9l0,0h1.9V43.3z"/>
				<path class="st5" d="M42.5,40.6L42.5,40.6l-1,0.5l-0.1-0.6l1.2-0.7h0.6v5.6h-0.7V40.6z"/>
			</g>
			<g>
				<path class="st3" d="M71.3,28l-0.1,1.1L71,30.5l-0.7,4.8c-0.2-0.1-0.5-0.2-0.7-0.2c-1-0.1-1.9,0.4-2.1,1.1
					c-0.1,0.8,0.6,1.5,1.7,1.7c1,0.1,1.9-0.4,2.1-1.1l0.9-6.3l6.9-0.1l-0.7,4.8c-0.2-0.1-0.5-0.2-0.7-0.2c-1-0.1-1.9,0.4-2.1,1.1
					c-0.1,0.8,0.6,1.5,1.7,1.7c1,0.1,1.9-0.4,2.1-1.1l0,0l0,0l0.8-6.2l0.2-1.3l0.2-1.1L71.3,28z"/>
				<path class="st3" d="M74.7,45c-6.9,0-12.5-5.6-12.5-12.5S67.8,20,74.7,20s12.5,5.6,12.5,12.5S81.6,45,74.7,45z M74.7,21
					c-6.3,0-11.5,5.2-11.5,11.5S68.4,44,74.7,44s11.5-5.2,11.5-11.5S81.1,21,74.7,21z"/>
			</g>
			<rect x="30.6" y="54.9" class="st4" width="22" height="2.3"/>
			<rect x="58" y="54.9" class="st4" width="27.8" height="2.3"/>
		</g>
		<g>
			<circle class="st1" cx="63.6" cy="103.6" r="27.5"/>
			<circle class="st4" cx="63.6" cy="103.6" r="15"/>
			<circle class="st6" cx="63.6" cy="103.7" r="13.8"/>
			<circle class="st4" cx="63.6" cy="103.7" r="6.4"/>
			<polygon class="st6" points="60.2,85.7 60.2,79.1 66.9,82.4 			"/>
			<g>
				<polygon class="st6" points="84.8,105.6 84.8,101.6 88.8,103.6 				"/>
				<polygon class="st6" points="80.8,105.6 80.8,101.6 84.8,103.6 				"/>
			</g>
			<g>
				<polygon class="st6" points="42.5,105.6 42.5,101.6 46.5,103.6 				"/>
				<polygon class="st6" points="38.6,105.6 38.6,101.6 42.5,103.6 				"/>
			</g>
			<rect x="60.2" y="121.6" class="st6" width="6.6" height="6.6"/>
		</g>
	</g>
	<g>
		<g>
			<path class="st4" d="M120.5,49.1L120.5,49.1c-1.8,0-3.2-1.4-3.2-3.1v-9.4c0-1.7,1.4-3.1,3.1-3.1h0.1c1.7,0,3.1,1.4,3.1,3.1V46
				C123.6,47.7,122.2,49.1,120.5,49.1z"/>
			<rect x="123.6" y="36.6" class="st0" width="10.7" height="9.6"/>
			<rect x="126.6" y="46.2" class="st7" width="5.2" height="13.6"/>
			<rect x="127.8" y="59.9" class="st0" width="2.7" height="5.3"/>
		</g>
		<g>
			<path class="st4" d="M135.1,33.6L135.1,33.6c-1.8,0-3.2-1.4-3.2-3.1v-9.4c0-1.7,1.4-3.1,3.1-3.1h0.1c1.7,0,3.1,1.4,3.1,3.1v9.4
				C138.2,32.2,136.8,33.6,135.1,33.6z"/>
			<rect x="138.2" y="21.1" class="st0" width="10.7" height="9.6"/>
			<rect x="141.2" y="30.8" class="st7" width="5.2" height="13.6"/>
			<rect x="142.5" y="44.4" class="st0" width="2.7" height="5.3"/>
		</g>
		<g>
			<rect x="1" y="8.5" class="st0" width="10.3" height="21.2"/>
			<rect x="3.6" y="29.5" class="st0" width="5.1" height="10.6"/>
			<rect x="11.3" y="11.2" class="st7" width="2.7" height="9.2"/>
		</g>
		<path class="st8" d="M143.1,49.8v25.4c0,1.5-0.5,2.9-1.5,4.1L129.8,93V65.2h-1.2v73.7c0,2.7-1,5.2-2.9,7.1c-1.9,1.9-4.3,2.9-7,2.9
			h-0.1L16.5,148c-5.4-0.1-9.8-4.5-9.8-9.9v-98H5.5V138c0,6.1,4.9,11.1,11,11.1l102.1,0.9h0.1c2.9,0,5.7-1.1,7.8-3.2
			c2.1-2.1,3.3-4.9,3.3-7.9v-44L142.5,80c1.1-1.4,1.8-3.1,1.8-4.8V49.8H143.1z"/>
	</g>
</g>
</svg>
