<?xml version="1.0" encoding="utf-8"?>
<!-- Generator: Adobe Illustrator 21.1.0, SVG Export Plug-In . SVG Version: 6.00 Build 0)  -->
<svg version="1.1" id="Layer_1" xmlns="http://www.w3.org/2000/svg" xmlns:xlink="http://www.w3.org/1999/xlink" x="0px" y="0px"
	 viewBox="0 0 150 150" style="enable-background:new 0 0 150 150;" xml:space="preserve">
<style type="text/css">
	.st0{fill:#73BF47;}
	.st1{fill:#335B19;}
	.st2{fill:#8E0C1F;}
	.st3{fill:#DD121F;}
	.st4{fill:#BFC2C9;}
	.st5{fill:#2E3545;}
	.st6{fill:#464D5D;}
	.st7{fill:#FD887E;}
	.st8{fill:#FDA798;}
	.st9{fill:#EF645E;}
	.st10{fill:#E8E4C4;}
	.st11{fill:none;stroke:#FFFFFF;stroke-width:0.6592;stroke-linecap:round;stroke-miterlimit:10;}
	.st12{fill:#FECE7D;}
	.st13{opacity:0.3;enable-background:new    ;}
	.st14{fill:#FFFFFF;}
	.st15{fill:#97DB6B;}
	.st16{fill:#000411;}
	.st17{fill:#FFCAA6;}
	.st18{opacity:0.5;fill:#E79E6E;}
	.st19{fill:#131F2D;}
	.st20{fill:#203142;}
	.st21{fill:#ADADAD;}
	.st22{fill:#EAB18B;}
	.st23{fill:#FFC7A3;}
	.st24{clip-path:url(#SVGID_2_);fill:#FFC7A3;}
	.st25{clip-path:url(#SVGID_2_);}
	.st26{fill:#E79E6E;}
	.st27{fill:#EAAA80;}
	.st28{fill:#F1806C;}
	.st29{clip-path:url(#SVGID_4_);fill:#9B3A2D;}
	.st30{clip-path:url(#SVGID_4_);fill:#FFFFFF;}
	.st31{clip-path:url(#SVGID_4_);fill:#F1806C;}
	.st32{fill:#A00D1C;}
</style>
<g>
	<g>
		<g>
			<path class="st0" d="M14.2,133.3c0,0-3.7-8.2,1.7-12.3c5.4-4.1,6.4-8.4,6.4-8.4s2.6,9.4-1.7,13C16.2,129.3,14.2,133.3,14.2,133.3
				z"/>
			<g>
				<g>
					<path class="st1" d="M21.3,117.5c-3.7,6.1-8.8,11.9-7.1,19.6c0.1,0.3,0.6,0.2,0.5-0.1c-1.7-7.5,3.5-13.2,7-19.1
						C22,117.5,21.5,117.2,21.3,117.5L21.3,117.5z"/>
				</g>
			</g>
			<g>
				<g>
					<path class="st1" d="M16.6,121.1c-0.1,0.7-0.2,1.4-0.3,2.1c-0.1,0.6-0.3,1.7,0,2.2c0.1,0.1,0.2,0.2,0.3,0.1
						c1.5-0.5,3.3-1.1,4.4-2.2c0.3-0.3-0.1-0.6-0.4-0.4c-1,1-2.8,1.6-4.1,2.1c0.1,0,0.2,0.1,0.3,0.1c-0.3-0.5,0-1.6,0.1-2.1
						c0.1-0.6,0.2-1.2,0.3-1.7C17.2,120.9,16.6,120.7,16.6,121.1L16.6,121.1z"/>
				</g>
			</g>
		</g>
		<g>
			<path class="st0" d="M11.2,134.7c0,0,3.1-6.9-1.4-10.3c-4.5-3.5-5.3-7-5.3-7s-2.2,7.9,1.5,11C9.5,131.3,11.2,134.7,11.2,134.7z"
				/>
			<g>
				<g>
					<path class="st1" d="M4.9,121.7c3,5,7.3,9.7,5.9,16.1c-0.1,0.3,0.4,0.4,0.4,0.1c1.5-6.5-2.9-11.3-5.9-16.4
						C5.1,121.2,4.7,121.4,4.9,121.7L4.9,121.7z"/>
				</g>
			</g>
			<g>
				<g>
					<path class="st1" d="M8.8,124.5c0.1,0.5,0.2,1,0.2,1.5c0.1,0.4,0.3,1.4,0,1.8c0.1,0,0.2-0.1,0.3-0.1c-1.1-0.4-2.6-0.9-3.5-1.8
						c-0.2-0.2-0.5,0.1-0.3,0.3c0.9,0.9,2.5,1.4,3.7,1.9c0.1,0,0.2,0,0.3-0.1c0.3-0.5,0.1-1.4,0-1.9c-0.1-0.6-0.1-1.2-0.2-1.7
						C9.2,124.1,8.7,124.3,8.8,124.5L8.8,124.5z"/>
				</g>
			</g>
		</g>
		<path class="st2" d="M6.7,135.1l1.7,12.2c0.2,1.5,1.5,2.7,3.1,2.7h3.2c1.6,0,2.9-1.2,3.1-2.8l1.3-12.1H6.7z"/>
		<path class="st3" d="M11.6,144.1c0-3,0.3-6,0.5-9H6.7l1.7,12.2c0.2,1.5,1.5,2.7,3.1,2.7h0.1C11.6,148,11.6,146.1,11.6,144.1z"/>
	</g>
	<g id="XMLID_63_">
		<g id="XMLID_3_">
			<g id="XMLID_11_">
				<path id="XMLID_29_" class="st4" d="M147,133.6l-84.1-8.7l0.1-0.7c0.1-0.4,0.4-0.7,0.8-0.7l81.9,8.5
					C146.5,132.1,147.1,132.8,147,133.6L147,133.6z"/>
				<path id="XMLID_43_" class="st5" d="M138.4,139.6l-4.9-0.5c-1.8-0.2-3-1.8-2.9-3.5v-0.2l11.2,1.2v0.2
					C141.7,138.5,140.1,139.8,138.4,139.6z"/>
				<path id="XMLID_21_" class="st5" d="M75,73.3l1.5-1.2c0.2-0.2,0.6-0.2,0.8,0.1l11.3,14c0,0-6.8-3.4-7-3.6c-0.2-0.2-3.8-5-3.8-5
					L74.9,74C74.7,73.9,74.7,73.5,75,73.3z"/>
				<g id="XMLID_45_">
					<g>
						<path id="XMLID_73_" class="st5" d="M73.6,134.9c-0.4,0-0.7-0.2-0.8-0.5l-2.7-4.9c-0.2-0.5-0.1-1.1,0.4-1.3
							c0.5-0.2,1.1-0.1,1.3,0.4l2.7,4.9c0.2,0.5,0.1,1.1-0.4,1.3C74,134.9,73.8,134.9,73.6,134.9z"/>
					</g>
				</g>
				<g id="XMLID_37_">
					<g>
						<path id="XMLID_72_" class="st5" d="M65.4,139.8c-0.4,0-0.8-0.2-1-0.5c-0.3-0.5-0.1-1.2,0.4-1.5l10.8-6.2
							c0.2-0.1,0.3-0.2,0.4-0.5l0.4-1.1c0.2-0.6,0.8-0.9,1.4-0.7s0.9,0.8,0.7,1.4l-0.4,1.1c-0.2,0.7-0.7,1.3-1.4,1.7l-10.8,6.1
							C65.8,139.7,65.6,139.8,65.4,139.8z"/>
					</g>
				</g>
				<path id="XMLID_32_" class="st5" d="M62.9,124.8c0,0,0.7-4,3.6-5.1c2.3-0.9,5.4-1,10.3,1.7c4.9,2.7,10.9,6,10.9,6L62.9,124.8z"
					/>
				<path id="XMLID_24_" class="st6" d="M143.2,137.1L65.4,129c-1.6-0.2-2.8-1.6-2.6-3.2l0.1-1l84.1,8.7l-0.1,0.6
					C146.7,136,145.1,137.3,143.2,137.1z"/>
				<path id="XMLID_10_" class="st6" d="M77.8,77.5c0,0,4.5,4.9,5.8,5.8c1.3,0.9,11.5,6.2,11.5,6.2v3l-6.7-0.7
					c-0.6-0.1-1.1-0.4-1.5-0.8l-9.6-11.7c-0.4-0.5-0.3-1.1,0.1-1.5L77.8,77.5z"/>
				<path id="XMLID_20_" class="st5" d="M95,89.5l10.4,1c0.8,0.1,1.4,0.8,1.2,1.6l0,0c-0.1,0.7-0.8,1.2-1.5,1.2L95,92.4V89.5z"/>
				<path id="XMLID_22_" class="st3" d="M77.8,72.8l0.4-0.2c0.2-0.2,0.7-0.2,0.8,0.1l9.2,11.4c0.2,0.2,0.2,0.6-0.1,0.8l-0.3,0.2
					L77.8,72.8z"/>
				<polygon id="XMLID_23_" class="st5" points="93.1,92.3 72.6,125.8 67.2,125.2 87.7,91.6 				"/>
				<polygon id="XMLID_50_" class="st6" points="93.1,92.3 72.5,125.9 71.8,125.8 92.3,92.2 				"/>
				<path id="XMLID_27_" class="st5" d="M147,133.6l-7.3-0.8l0.2-1.5l5.8,0.6C146.5,132.1,147.1,132.8,147,133.6L147,133.6z"/>
			</g>
			<g id="XMLID_4_">
				<g id="XMLID_35_">
					<path id="XMLID_18_" class="st7" d="M118.6,64.2c0,0,0,1.4,0.6,2.4c0.6,1-1,2.1-1,2.1l-3.6,0.4c0,0,0.5-1.5,0.2-2.9
						C114.5,64.8,118.6,64.2,118.6,64.2z"/>
					<g id="XMLID_30_">
						<path id="XMLID_7_" class="st8" d="M122.7,86.7l-7.9,1.8c-0.6-4.5-1.9-6.5-3.1-9.5c-0.4-1.1-0.8-1.9-1.1-2.4
							c-0.8-1.5-0.2-3.1,0.7-4.3c1-1.2,4.3-4,4.6-4.3c-1.4,1.4-2.5,3.3-1.8,4.6c0.9,1.6,5.9,3.3,5.9,3.3s-0.2,2.8,0.4,5.2
							C121.4,84.2,122.7,86.7,122.7,86.7z"/>
						<path id="XMLID_15_" class="st3" d="M120.2,78.6c-4.5,0.7-8.4,0.4-8.4,0.4c-0.4-1.1-0.8-1.9-1.1-2.4c-0.8-1.5-0.2-3.1,0.7-4.3
							c1-1.2,4.3-4,4.6-4.3c-1.4,1.4-2.5,3.3-1.8,4.6c0.9,1.6,5.9,3.3,5.9,3.3S120.1,77.1,120.2,78.6z"/>
						<path id="XMLID_39_" class="st2" d="M120.2,78.1c0,0.2,0,0.3,0,0.5c-0.5,0.1-1,0.1-1.5,0.2c-0.6-1.8-0.4-3.7-0.4-3.7
							c1.1,0.4,2,0.7,2,0.7s-0.1,0.8-0.1,2C120.2,77.9,120.2,78,120.2,78.1z"/>
						<path id="XMLID_91_" class="st7" d="M122.6,86.4c-0.5-0.1-1.1-0.1-1.6,0c0.2-2.1-0.3-3.8-0.8-4.9c-0.3-0.6-1-1-1.6-0.8
							c-2,0.3-3.6,0.5-3.7,0.4c-0.8-0.3-1.2-1.1-1.2-1.1s-0.2,0.8-0.5,0.9c-0.1,0.1-0.3,0.1-0.5,0.1c-0.1-0.2-0.2-0.4-0.2-0.5
							c0.4,0,0.7-0.1,0.8-0.2c0.2-0.1,0.5-0.9,0.5-0.9s0.4,0.8,1.2,1.1c0.2,0.1,2.1-0.1,4.4-0.5h0.1c0.2,0,0.3-0.1,0.5-0.1
							c0.2-0.1,0.4-0.1,0.6-0.1c0,0,0,0,0.1,0c0,0.2,0,0.4,0.1,0.5c0.1,0.2,0.1,0.5,0.2,0.7C121.2,83.6,122.2,85.6,122.6,86.4z"/>
					</g>
					<g id="XMLID_33_">
						<path id="XMLID_8_" class="st9" d="M106.5,77c0,0-0.8-0.2-1.1,0.1c-0.4,0.2-0.5,2-0.4,2.3c0.1,0.4,1.2,0.9,1.7,0.6
							c0.5-0.3,1.2-2.5,1.2-2.5l-0.4-0.5L106.5,77z"/>
						<path id="XMLID_9_" class="st7" d="M112.1,80.1c0,0-3.7-1-3.7-1.3s0-1.1-0.1-1.4c-0.1-0.3-0.7-0.8-1-0.9
							c-0.2-0.1-1-0.4-1.1-0.2c-0.1,0.1,0.1,0.7,0.4,0.8c0.4,0.1,0.5,0.1,0.5,0.1h0.2c0,0-0.2,0.2-0.3,0.2c-0.1,0.1-0.1,0.4-0.1,0.5
							c0.1,0.1,0.4,0.1,0.4,0.1s-0.6,0.4-0.8,0.9c-0.2,0.5-0.1,1.3,0.3,1.5c3.4,1.2,6.4,2.6,6.4,2.6S112.6,80.8,112.1,80.1z"/>
					</g>
					<g id="XMLID_31_">
						<path id="XMLID_14_" class="st8" d="M126.9,78.1c-1.3,1-11.7,2.6-12.2,2.3c-0.8-0.3-1.2-1.1-1.2-1.1s-0.2,0.8-0.5,0.9
							c-0.2,0.1-1.2,0.2-1.4,0.1c-0.2-0.2-0.4-1.2-0.4-1.4c0.1-0.2,0.8-1.5,1.5-1.5s1.1,0.3,1.5,0.8c0.4,0.5,0.5,0.8,1.8,0.5
							c1.2-0.3,4.9-1.1,7.3-2.8l-2.6-2c0,0-0.7,1-0.6,2c0,0-5.1-1.7-5.9-3.3c-0.9-1.6,0.8-4,2.6-5.4c1-0.7,2.3-0.8,3.4-0.1
							c0.4,0.2,0.7,0.5,1,0.9c1.1,1.4,4.9,5.7,5.7,6.5C127.8,75.2,128.3,77.2,126.9,78.1z"/>
						<path id="XMLID_16_" class="st7" d="M126.9,78.1c-1.3,1-11.7,2.6-12.2,2.3c-0.8-0.3-1.2-1.1-1.2-1.1s-0.2,0.8-0.5,0.9
							c0,0-0.1,0-0.1,0.1c0,0,0.3-0.7-0.1-1.1c0,0,0.2-0.1,0.2-0.2c0,0,0.1-0.4,0-0.6c-0.1-0.2,0.4,0.1,0.5,0.4
							c0.1,0.3,0.7,1.2,1.4,1.2c0.7,0,11.1-1.4,11.8-3.4c0.4-1-0.2-2.6-0.3-2.7c0.2,0.2,0.4,0.4,0.5,0.5
							C127.8,75.2,128.3,77.2,126.9,78.1z"/>
						<path id="XMLID_12_" class="st7" d="M121.8,74.6c0,0,1.5,0.9,3.5,0.2c0,0-1.1,0.4-1.9,1.1L121.8,74.6z"/>
						<path id="XMLID_42_" class="st7" d="M120.2,75.8c0,0-0.8-0.3-2-0.7c0,0,0.8-1.5,0.5-2.4l0,0c-0.5-0.7-0.9-1.2-0.9-1.2l3,2.3
							C120.8,73.9,120.1,74.8,120.2,75.8z"/>
					</g>
					<path id="XMLID_82_" class="st7" d="M120.4,80.3L120.4,80.3c0-0.1-0.1-0.2-0.1-0.2C120.3,80.2,120.4,80.2,120.4,80.3z"/>
				</g>
				<g id="XMLID_5_">
					<path id="XMLID_6_" class="st7" d="M121.6,96.7c0,0,0.1,4.8,0,6.4c-0.1,1.5,0.1,4,0.8,4.5c0.7,0.4,3.7,0.6,6.7,3.2
						c3,2.6,4.9,4.2,7.1,5l-1.4,2.6c0,0-7.2-3.6-10.9-5.3s-5.9-1.8-6.5-4.5S114.7,95,114.7,95S120.6,95.2,121.6,96.7z"/>
					<path id="XMLID_92_" class="st9" d="M125.8,108.6c-2.3,0-4.5,0.8-5.1,0.1c-0.5-0.6,0.2-2.9,0.2-4.6c0-1.8-0.7-3.7-0.9-4.2
						c-0.2-0.5-0.9,0.2-1.2,1.3c-0.4,1.1-2.5,2.9-2.5,2.9c-0.8-4-1.7-9.2-1.7-9.2s6,0.2,6.9,1.7c0,0,0.1,4.8,0,6.4s0.1,4,0.8,4.5
						C122.8,107.8,124.1,107.9,125.8,108.6z"/>
					<path id="XMLID_34_" class="st9" d="M135.5,116.8l-0.8,1.4c0,0-7.2-3.6-10.9-5.3c-2.2-1-3.8-1.5-4.9-2.2
						c0.8,0.2,4.9,1.4,6.5,2.1C126.9,113.6,132.3,116.5,135.5,116.8z"/>
					<path id="XMLID_13_" class="st2" d="M122.5,86.4c0,0,2,2,1.8,5.1c-0.2,3.2-2.8,5.1-2.8,5.1l-5.1-2.5
						C116.5,94.2,121.4,86.7,122.5,86.4z"/>
					<g id="XMLID_17_">
						<g id="XMLID_93_">
							<path id="XMLID_94_" class="st2" d="M129.8,125.4L129.8,125.4c0.2,0.1,1.1-0.1,1.5-0.3c0.3-0.1,1.2-0.8,1.8-1.2
								c0.1-0.1,0.2-0.1,0.2-0.2c0.2-0.2,0.5-0.5,0.9-0.8c0.3-0.2,0.6-0.5,0.8-0.7c0.2-0.2,0.4-0.4,0.4-0.4s0.2-0.2,0.4-0.4
								c0.5-0.4,1.2-1.1,1.6-1.4c0.1,0,0.1-0.1,0.1-0.1c0.6-0.5,2-1.8,1.9-2.4c-0.1-0.1-0.2-0.1-0.2-0.1c-0.1-0.1-0.2-0.1-0.3-0.2
								s-0.1-0.1-0.1-0.1l0,0c-0.1,0.1-1.4,1.9-2,2.1c-0.3,0.2-0.8,0.7-1.2,1.2c-0.5,0.7-1.1,1.4-1.2,1.5c-0.1,0.1-0.1,0.1-0.2,0.2
								c-0.1,0.1-0.2,0.2-0.4,0.4c-0.6,0.5-1.4,1.3-1.5,1.4c-0.2,0.2-1.5,0.9-1.7,1c-0.2,0.1-0.8,0.2-0.8,0.2
								C129.6,125.1,129.6,125.2,129.8,125.4z"/>
						</g>
						<path id="XMLID_90_" class="st10" d="M132.6,116.6c0.1,0,0.1,0,0.1,0s0.2,0.1,0.2,0.1c0.1,0.1,0.2,0.1,0.3,0.2
							c0.2,0.1,0.1,1,0.1,1c-0.4,0-0.7,0-0.7,0c-0.1,0.1-0.1,0.1-0.2,0.2c-0.1,0.1-0.1,0.2-0.2,0.4h-0.1c0,0,0,0,0,0.1
							c-0.1,0-0.2-0.2-0.2-0.2C131.9,117.5,132.5,116.7,132.6,116.6z"/>
						<g id="XMLID_88_">
							<path id="XMLID_89_" class="st10" d="M136.7,119.1c0.6-0.2,2-2.1,2-2.1l0,0c0-0.2-0.5-0.8-0.6-0.7c0,0,0,0,0,0.1
								c-0.2,0.2-1.2,1.4-1.4,1.6c-0.1,0.2-0.3,0.2-0.2,0.7C136.5,118.9,136.7,119.1,136.7,119.1z"/>
						</g>
						<path id="XMLID_47_" class="st3" d="M129.3,124.9c-0.1-0.1-0.2-0.3-0.2-0.3l-0.1-0.1c-0.1-0.2-0.1-0.5,0.1-0.8l1.1-1.2
							c0,0,0.1-0.1,0.2-0.4l0,0c0.3-0.4,0.7-1.1,1-1.8c0.2-0.5,0.3-1.1,0.4-1.5c0.1-0.1,0.1-0.2,0.1-0.4c0.1-0.2,0.1-0.3,0.2-0.4
							c0.1-0.1,0.1-0.2,0.2-0.2c0,0,0.8-0.1,1-0.2c0,0,0.6-0.1,1-0.3c0.2-0.2,0.4-0.4,0.5-0.7c0-0.2-0.1-1-0.1-1.2
							c0.1-0.2,0.9-0.5,1-0.5c0,0,1.2,0.5,1.7,0.8l0,0l0.1,0.1c0.4,0.2,0.6,0.5,0.6,0.5l0,0c-0.2,0.2-1.2,1.4-1.4,1.6
							c-0.1,0.2-0.3,0.2-0.2,0.7c0.1,0.4,0.2,0.6,0.2,0.6c-0.3,0.2-0.8,0.7-1.2,1.2c-0.5,0.7-1.1,1.4-1.2,1.5
							c-0.1,0.1-0.1,0.1-0.2,0.2c-0.1,0.1-0.2,0.2-0.4,0.4c-0.6,0.5-1.4,1.3-1.5,1.4c-0.2,0.2-1.5,0.9-1.7,1
							c-0.2,0.1-0.8,0.2-0.8,0.2C129.6,125.1,129.4,125.1,129.3,124.9z"/>
						<path id="XMLID_46_" class="st2" d="M130.7,121.9L130.7,121.9c0,0,1-0.4,1.5-0.9c0.5-0.5,0.9-2.8,0.9-2.8
							c-0.4-0.2-0.9-0.2-1.1,0.1C131.8,118.5,131.6,120.7,130.7,121.9z"/>
						<path id="XMLID_40_" class="st11" d="M133,118.8c0,0-0.8-0.1-1.2,0.2"/>
						<path id="XMLID_19_" class="st11" d="M132.8,119.6c0,0-0.6-0.1-1.2,0.2"/>
						<path id="XMLID_28_" class="st11" d="M132.5,120.4c0,0-0.7-0.1-1.2,0.2"/>
					</g>
				</g>
				<g id="XMLID_36_">
					<path id="XMLID_67_" d="M125.2,59.6c0,0.7-0.2,1.4-0.3,2.1c-0.1,0.7-0.2,1.4,0.1,2.1c0.3,0.7,1,1.2,1.7,1.1
						c-0.8,1.4-2.9,1.8-4.4,1.1c-1.5-0.8-2.4-2.4-2.6-4c-0.1-0.8-0.1-1.6-0.2-2.4c-0.2-0.8-0.5-1.6-1.2-2c1-1.3,2.8-2,4.3-1.5
						C124.1,56.4,125.2,57.9,125.2,59.6z"/>
					<path id="XMLID_223_" class="st8" d="M117.9,55.8c-1.1-1-3.3-2.4-5.5-0.8c-2.3,1.6-1.7,4-1.8,5.1c-0.1,1.1-0.3,2.5-0.5,3.2
						c-0.2,0.7,1.4,2.8,3.1,3.2c1.7,0.3,5.9-1.2,6.2-4.5C119.8,58.6,118.6,56.4,117.9,55.8z"/>
					<g id="XMLID_304_">
						<g id="XMLID_305_">
							<path id="XMLID_287_" d="M116.7,54.2c4.7,1.7,5.8,7.4,2.1,10.2c-0.2,0.2-0.7,0.5-0.7,0.5s0.2,0.1,0,0
								c-0.5-0.1-1.5,0.2-1.8-3.3c0,0-0.3,0.7-0.6,1.7c-0.1,0.2-0.4,0.2-0.4,0c-0.3-1.4-0.7-2.7-1.4-3.9c-1.5-0.1-2.1,1.4-3.6,0.6
								c-0.4-2,0.4-3.9,1.5-4.8C112.8,54.2,115.4,53.7,116.7,54.2z"/>
						</g>
					</g>
					<g id="XMLID_215_">
						<path id="XMLID_222_" class="st8" d="M115.8,62.1c0.1,0.4,1,0.5,1.4-0.2c0.5-0.7,0.2-1.9-0.3-2.2c-0.5-0.4-1.1,0.2-1.1,0.2
							S115.4,60.5,115.8,62.1z"/>
						<path id="XMLID_221_" class="st7" d="M115.9,60.8c0-0.1,0-0.2,0-0.2l0,0C115.9,60.6,115.9,60.7,115.9,60.8
							c0.1,0,0.1,0.1,0.2,0.2c0,0,0,0,0-0.1s0.1-0.1,0.1-0.1c0.2-0.2,0.4-0.2,0.4-0.2l0,0c0,0-0.1,0.1-0.1,0.1
							c-0.1,0.1-0.1,0.1-0.2,0.2c0,0.1-0.1,0.1-0.1,0.1c0,0.1-0.1,0.1-0.1,0.1l0,0c0.1,0.1,0.1,0.1,0.1,0.1s0.1,0.1,0.1,0.1
							c0,0,0.1,0,0.1,0.1h0.1c0.1,0,0.1,0.1,0.1,0.1l0,0c0,0,0,0-0.1,0h-0.1c0,0-0.1,0-0.1,0c-0.1,0-0.1,0-0.1-0.1
							c-0.1,0-0.1-0.1-0.1-0.1c-0.1-0.1-0.1-0.1-0.1-0.2C115.9,61.1,115.9,61,115.9,60.8z"/>
						<path id="XMLID_242_" class="st7" d="M115.9,59.9c0,0,0.1-0.1,0.2-0.1c0.1-0.1,0.3-0.2,0.5-0.1c0.1,0,0.2,0.1,0.4,0.1
							c0.1,0.1,0.1,0.1,0.1,0.1c0.1,0.1,0.1,0.1,0.1,0.2c0.1,0.2,0.2,0.6,0.2,0.9c0,0.2-0.1,0.3-0.1,0.5c-0.1,0.1-0.1,0.3-0.2,0.4
							l-0.1,0.1L117,62L117,62l-0.1,0.1c-0.1,0.1-0.2,0.1-0.3,0.1c-0.2,0.1-0.4,0-0.5-0.1c-0.1-0.1-0.1-0.1-0.1-0.1l-0.1-0.1l0,0
							c0,0,0,0,0,0.1c0,0.1,0.1,0.1,0.1,0.1c0.1,0.1,0.1,0.1,0.2,0.2c0.1,0.1,0.2,0.1,0.4,0.1c0.1,0,0.3-0.1,0.4-0.1
							c0.1-0.1,0.1-0.1,0.2-0.1c0.1,0,0.1-0.1,0.1-0.1l0.1-0.1c0.1-0.2,0.2-0.3,0.2-0.5s0.1-0.4,0.1-0.5c0-0.4-0.1-0.7-0.3-1
							c-0.1-0.1-0.1-0.1-0.1-0.2c-0.1-0.1-0.1-0.1-0.2-0.2c-0.1-0.1-0.3-0.1-0.4-0.1c-0.3,0-0.5,0.1-0.6,0.2
							C115.9,59.8,115.9,59.9,115.9,59.9L115.9,59.9z"/>
					</g>
				</g>
				<g id="XMLID_38_">
					<path id="XMLID_41_" class="st3" d="M122.5,86.4c0,0,1.2,2.3,1,4.8c-0.2,2.6-2.7,5.8-2.7,5.8s-3.1-2.9-7.8-3.1
						c0,0,2.5-3.3,1.8-5.5C114.8,88.5,118.4,86,122.5,86.4z"/>
					<path id="XMLID_48_" class="st8" d="M120.8,97.1c-0.7,1.5-5.8,8.3-6.3,9c-0.5,0.7-0.7,1.4,0.3,3.3c1.1,2.1,1.2,3.9,1.3,7.2
						c0.1,3.3,0.4,8.4,0.4,8.4h-2.7c-0.8-3.9-2.6-10.5-3.3-13.1c-0.8-2.5-1.8-3.2-1.8-4.7c-0.1-1.5,1.2-4,2-7
						c0.8-3.2,2.4-6.3,2.4-6.3s2.1-0.2,3.9,0.2C118.7,94.7,120.8,97.1,120.8,97.1z"/>
					<path id="XMLID_49_" class="st7" d="M116,116.6c0.1,1.6,0.1,3.7,0.2,5.4c-0.4-1-1-3-0.8-4.3c0.4-2.9,0.1-5.3-0.6-7.1
						c-0.7-1.8-2.7-2.7-2.3-4s1.7-1.7,4.2-4.8c2.3-2.8,2.9-5.3,3-5.8c0.7,0.6,1.1,1.1,1.1,1.1c-0.7,1.5-5.8,8.4-6.3,9
						c-0.5,0.7-0.7,1.4,0.3,3.3C115.8,111.6,115.9,113.2,116,116.6z"/>
					<g id="XMLID_370_">
						<g id="XMLID_379_">
							<path id="XMLID_380_" class="st2" d="M105.6,127.4L105.6,127.4c0.1,0.2,0.9,0.7,1.2,0.8c0.3,0.1,1.4,0.3,2.1,0.3
								c0.1,0,0.2,0,0.3,0c0.2,0,0.8,0,1.2,0c0.4,0,0.8,0,1.1,0s0.5,0,0.6,0c0,0,0.2,0,0.5,0c0.7,0.1,1.7,0.1,2.1,0.1
								c0.1,0,0.1,0,0.1,0c0.8,0.1,2.7,0.1,3.1-0.4c0-0.1-0.1-0.2-0.1-0.3c-0.1-0.1-0.1-0.2-0.1-0.4c-0.1-0.1-0.1-0.2-0.1-0.2l0,0
								c-0.1,0-2.3,0.4-2.9,0.2c-0.4-0.1-1.1-0.1-1.8,0c-0.8,0.1-1.7,0.2-1.9,0.2c-0.1,0-0.2,0-0.4,0c-0.1,0-0.3,0-0.5,0
								c-0.8,0-1.9,0-2.1-0.1c-0.3,0-1.7-0.4-1.9-0.5c-0.2-0.1-0.7-0.4-0.8-0.4C105.6,127.2,105.5,127.3,105.6,127.4z"/>
						</g>
						<path id="XMLID_378_" class="st10" d="M113.6,123c0.1,0,0.1,0.1,0.1,0.1c0.1,0.1,0.1,0.2,0.1,0.2c0.1,0.1,0.1,0.2,0.1,0.4
							c0.1,0.2-0.6,0.8-0.6,0.8c-0.3-0.3-0.5-0.5-0.5-0.5c-0.1,0-0.2,0-0.2,0.1c-0.1,0.1-0.2,0.1-0.4,0.2v-0.1c0,0,0,0-0.1,0
							c-0.1-0.1-0.1-0.2-0.1-0.2C112.6,123.3,113.4,123,113.6,123z"/>
						<g id="XMLID_376_">
							<path id="XMLID_377_" class="st10" d="M114.9,127.7c0.6,0.2,2.9-0.1,2.9-0.2l0,0c0.2-0.2,0.1-1,0.1-1c0,0,0,0-0.1,0
								c-0.3,0-1.9,0.2-2.1,0.2c-0.2,0-0.4,0-0.6,0.3C114.9,127.4,114.9,127.7,114.9,127.7z"/>
						</g>
						<path id="XMLID_375_" class="st3" d="M105.6,126.8c0.1-0.1,0-0.4,0-0.4v-0.1c0.1-0.3,0.4-0.4,0.7-0.5l1.7-0.1
							c0,0,0.2,0,0.4-0.1l0,0c0.5-0.1,1.3-0.3,2-0.7c0.5-0.3,1-0.6,1.4-0.8c0.1-0.1,0.2-0.1,0.3-0.2c0.2-0.1,0.3-0.1,0.4-0.2
							c0.1-0.1,0.2-0.1,0.2-0.1c0,0,0.7,0.5,0.8,0.6c0,0,0.5,0.4,0.9,0.4c0.2,0.1,0.6,0,0.8-0.2c0.2-0.2,0.6-0.8,0.8-0.9
							c0.2-0.1,1,0.2,1.1,0.4c0,0,0.5,1.2,0.7,1.7l0,0v0.1c0.1,0.4,0,0.8,0,0.8l0,0c-0.3,0-1.9,0.2-2.1,0.2c-0.2,0-0.4,0-0.6,0.3
							c-0.2,0.3-0.2,0.6-0.2,0.6c-0.4-0.1-1.1-0.1-1.8,0c-0.8,0.1-1.7,0.2-1.9,0.2c-0.1,0-0.2,0-0.4,0c-0.1,0-0.3,0-0.5,0
							c-0.8,0-1.9,0-2.1-0.1c-0.3,0-1.7-0.4-1.9-0.5c-0.2-0.1-0.7-0.4-0.8-0.4C105.6,127.1,105.5,127,105.6,126.8z"/>
						<path id="XMLID_374_" class="st2" d="M108.6,125.5L108.6,125.5c0,0,1,0.5,1.7,0.4s2.6-1.4,2.6-1.4c-0.1-0.4-0.5-0.8-0.8-0.7
							C111.8,123.8,110.1,125.3,108.6,125.5z"/>
						<path id="XMLID_373_" class="st11" d="M112.4,124.9c0,0-0.5-0.6-1-0.7"/>
						<path id="XMLID_372_" class="st11" d="M111.7,125.4c0,0-0.4-0.5-1-0.7"/>
						<path id="XMLID_371_" class="st11" d="M111,125.8c0,0-0.4-0.6-1-0.7"/>
					</g>
				</g>
			</g>
		</g>
		<g id="XMLID_172_">
			<g id="XMLID_146_">
				<path id="XMLID_224_" class="st12" d="M76.2,125.7h-4.9c-0.6,0-1,0.5-1,1v0.5v12.7c0,0.7,0.5,1.2,1.2,1.2h4.6
					c0.7,0,1.2-0.5,1.2-1.2v-12.7v-0.5C77.3,126.1,76.8,125.7,76.2,125.7z"/>
				<path id="XMLID_220_" class="st3" d="M71.7,124.2h4.2c0.2,0,0.4,0.2,0.4,0.4v1h-5v-1C71.3,124.4,71.5,124.2,71.7,124.2z"/>
				<path id="XMLID_217_" class="st12" d="M74.6,122.6h-1.7c-0.5,0-1,0.5-1,1v0.7h3.7v-0.7C75.6,123,75.2,122.6,74.6,122.6z"/>
				<path id="XMLID_208_" class="st3" d="M73.8,120.7L73.8,120.7c-0.3,0-0.5,0.2-0.5,0.5v1.4h1v-1.4C74.3,120.9,74,120.7,73.8,120.7
					z"/>
				<rect id="XMLID_188_" x="73.2" y="122.1" class="st13" width="1" height="0.4"/>
				<rect id="XMLID_184_" x="70.3" y="128" class="st3" width="7" height="3.9"/>
				<g>
					<path class="st14" d="M73.6,131.1h-0.4l-0.8-1.7l-0.3,1.7h-0.4l0.4-2.3h0.4l0.8,1.7l0.3-1.7H74L73.6,131.1z"/>
					<path class="st14" d="M75.6,130.8c-0.1,0.1-0.2,0.2-0.3,0.2c-0.1,0.1-0.2,0.1-0.4,0.1s-0.3,0-0.4-0.1c-0.1-0.1-0.2-0.1-0.2-0.2
						c-0.1-0.1-0.1-0.2-0.1-0.4h0.4c0,0.1,0,0.2,0.1,0.2c0.1,0.1,0.2,0.1,0.3,0.1c0.1,0,0.2-0.1,0.3-0.1c0.1-0.1,0.1-0.2,0.1-0.3
						c0-0.1,0-0.1-0.1-0.2c-0.1-0.1-0.1-0.1-0.2-0.1c-0.1-0.1-0.1-0.1-0.2-0.1c-0.1-0.1-0.2-0.1-0.3-0.1c-0.1-0.1-0.1-0.1-0.2-0.2
						c-0.1-0.1-0.1-0.2-0.1-0.3c0-0.1,0-0.1,0-0.2c0-0.2,0.1-0.3,0.2-0.4c0.1-0.1,0.3-0.1,0.5-0.1s0.4,0.1,0.5,0.2
						c0.1,0.1,0.2,0.2,0.2,0.4h-0.4c0-0.1,0-0.2-0.1-0.2s-0.2-0.1-0.3-0.1s-0.2,0.1-0.3,0.1c-0.1,0.1-0.1,0.1-0.1,0.2
						c0,0.1,0,0.1,0.1,0.2s0.1,0.1,0.1,0.1c0.1,0,0.1,0.1,0.2,0.1c0.1,0.1,0.2,0.1,0.3,0.1c0.1,0.1,0.1,0.1,0.2,0.2s0.1,0.2,0.1,0.3
						c0,0.1,0,0.1,0,0.2C75.7,130.6,75.6,130.7,75.6,130.8z"/>
				</g>
				<path id="XMLID_167_" class="st13" d="M71.8,124.5L71.8,124.5c-0.1,0-0.2,0.1-0.2,0.2v0.9h0.5v-0.9
					C72.1,124.6,71.9,124.5,71.8,124.5z"/>
				<path id="XMLID_158_" class="st13" d="M72.6,124.5L72.6,124.5c-0.1,0-0.2,0.1-0.2,0.2v0.9h0.5v-0.9
					C72.8,124.6,72.7,124.5,72.6,124.5z"/>
				<path id="XMLID_156_" class="st13" d="M73.4,124.5L73.4,124.5c-0.1,0-0.2,0.1-0.2,0.2v0.9h0.5v-0.9
					C73.6,124.6,73.5,124.5,73.4,124.5z"/>
				<path id="XMLID_150_" class="st13" d="M74.1,124.5L74.1,124.5c-0.1,0-0.2,0.1-0.2,0.2v0.9h0.5v-0.9
					C74.4,124.6,74.3,124.5,74.1,124.5z"/>
				<path id="XMLID_149_" class="st13" d="M74.9,124.5L74.9,124.5c-0.1,0-0.2,0.1-0.2,0.2v0.9h0.5v-0.9
					C75.2,124.6,75,124.5,74.9,124.5z"/>
				<path id="XMLID_148_" class="st13" d="M75.7,124.5L75.7,124.5c-0.1,0-0.2,0.1-0.2,0.2v0.9h0.5v-0.9
					C75.9,124.6,75.8,124.5,75.7,124.5z"/>
			</g>
			<g id="XMLID_145_">
				<path id="XMLID_234_" class="st15" d="M81.7,132.9c0,0,0.2-0.3,1.5,0.1c1.4,0.5,2.1-1.4,2.1-1.4s-0.7,0.1-1.5-0.2
					C82.9,131.2,81.9,131.8,81.7,132.9z"/>
				<path id="XMLID_231_" class="st0" d="M80.7,130.7c0,0,1.7,1.2,0.7,3.5c0,0,0.6-1.7-1-3.3C80.5,130.9,80.6,130.8,80.7,130.7z"/>
				<path id="XMLID_228_" class="st3" d="M81.6,133.7c0,0-1-2.1-3.3-1.8c-2.4,0.3-5.1,6.4-0.4,8.6c3.7,1.8,6.9-1.1,7.3-3.6
					C85.4,134.5,83.4,133.4,81.6,133.7z"/>
				<path id="XMLID_225_" class="st0" d="M81.7,132.9c0,0,0.2-0.3,1.5,0.1c1.4,0.5,2.1-1.4,2.1-1.4s-0.9,0.8-1.8,0.5
					C82.6,131.8,81.9,131.8,81.7,132.9z"/>
			</g>
		</g>
	</g>
	<g>
		<path class="st16" d="M68.5,80.3c7.5-0.7,14.3-2.9,15.6-6.9l-32.6,3.1c0,0,2.5,4,11.7,4C65,80.6,66.8,80.5,68.5,80.3"/>
		<g>
			<path class="st2" d="M74.9,103.6c0,0,6,3.3,17.4-6.4C92.3,97.2,78,95.6,74.9,103.6z"/>
			<path class="st3" d="M102.6,139.6l0.9,2.9c0,0,6.1,3,9.5,4.7c0.7,0.3,0.9,1.2,0.2,1.6c-3.3,1.8-13,0.8-13.4,0.2
				c-0.6-0.8-3.1-6.5-3.1-6.5L102.6,139.6z"/>
			<path class="st17" d="M83.1,82.8L88,94.2c0,0,4.8,12.3,14.6,45.4l-5.9,2.9c0,0-26.8-45.4-23.8-54.3L83.1,82.8z"/>
			<path class="st18" d="M88,94.2l-4.9-11.5L73,88.1c-1.1,3.2,1.7,11.2,5.7,20.1c3.5-2.8,7.9-4.6,12-6.5C88.9,96.5,88,94.2,88,94.2z
				"/>
			<path class="st3" d="M66.5,78.1v12l8.4,13.5c0,0,6.5-5.4,17.4-6.4c0,0-3.8-12.4-6.9-18.1c-0.9-1.6-1.5-3.3-1.8-5.1l0-0.2
				C83.6,73.8,78.3,77.5,66.5,78.1z"/>
		</g>
		<g>
			<path class="st2" d="M60.8,103.6c0,0-6,3.3-17.4-6.4C43.4,97.2,57.7,95.6,60.8,103.6z"/>
			<path class="st3" d="M33.1,139.6l-0.9,2.9c0,0-6.1,3-9.5,4.7c-0.7,0.3-0.9,1.2-0.2,1.6c3.3,1.8,13,0.8,13.4,0.2
				c0.6-0.8,3.1-6.5,3.1-6.5L33.1,139.6z"/>
			<path class="st17" d="M52.6,82.8l-4.9,11.5c0,0-4.8,12.3-14.6,45.4l5.9,2.9c0,0,26.8-45.4,23.8-54.3L52.6,82.8z"/>
			<path class="st18" d="M62.7,88.1l-10.1-5.4l-4.9,11.5c0,0-0.9,2.3-2.7,7.4c4.2,1.7,8.2,4.2,11.6,7.3
				C60.8,99.8,63.8,91.5,62.7,88.1z"/>
			<path class="st3" d="M69.2,78.1v12l-8.4,13.5c0,0-6.5-5.4-17.4-6.4c0,0,3.8-12.4,6.9-18.1c0.9-1.6,1.5-3.3,1.8-5.1l0-0.2
				C52.1,73.8,57.4,77.5,69.2,78.1z"/>
		</g>
		<path class="st2" d="M20.6,34.8c0,0,2.9,6.4,0,8.9C20.6,43.6,17.3,36.7,20.6,34.8z"/>
		<g>
			<path class="st17" d="M63.5,37c0,0-0.1-0.1-0.2-0.2c-0.7-0.6-3.8-2.8-6.4-3.1c-8.5-0.9-44.7,3.6-44.7,3.6l-1,3.6l43.3,1.2
				L63.5,37z"/>
			<path class="st18" d="M11.3,40.5l-0.1,0.4l43.3,1.2l6.8-3.9C51.7,39.1,18.5,40.5,11.3,40.5z"/>
			<g>
				<g>
					
						<ellipse transform="matrix(0.9999 -1.313409e-02 1.313409e-02 0.9999 -0.6236 8.971430e-02)" class="st19" cx="6.5" cy="47.5" rx="6.3" ry="4.4"/>
					
						<rect x="0.2" y="44.9" transform="matrix(0.9999 -1.314491e-02 1.314491e-02 0.9999 -0.6066 8.944675e-02)" class="st19" width="12.5" height="2.7"/>
					
						<ellipse transform="matrix(0.9999 -1.313921e-02 1.313921e-02 0.9999 -0.5888 8.906169e-02)" class="st20" cx="6.5" cy="44.9" rx="6.3" ry="4.4"/>
					
						<ellipse transform="matrix(0.9999 -1.314764e-02 1.314764e-02 0.9999 -0.5866 9.098444e-02)" class="st21" cx="6.6" cy="44.7" rx="2.2" ry="1.5"/>
				</g>
				<path class="st17" d="M13.8,41c0.7-1.2,0.4-2.7-0.7-3.6c-0.6-0.5-1.5-0.9-2.6-1.1c-2.9-0.4-4.9-2-4.9-2s-1,1,1.7,2.8
					c0,0-0.6,6.6,1.3,6.3C10.5,43,12.9,42.6,13.8,41z"/>
				<path class="st22" d="M9.6,36.9c0.2,0.2,0.3,0.6,0.2,0.9c-0.1,0.3-0.2,0.5,0.5,1c0.4,0.3,0.4,0.8,0,1.1
					c-0.1,0.1-0.4,0.3-0.4,0.4c0.7,0.1,0.3,1.1-0.2,1.4L9.1,42c-0.1,0.4-0.2,1-0.4,1.4c-0.1,0-0.1,0-0.2,0c-1.9,0.4-1.3-6.3-1.3-6.3
					c-0.5-0.3,0.1-0.4-0.2-0.7C7.4,36.4,8.7,36.2,9.6,36.9z"/>
				
					<rect x="4.4" y="28.6" transform="matrix(0.9999 -1.313780e-02 1.313780e-02 0.9999 -0.4807 8.883481e-02)" class="st21" width="4.3" height="16.1"/>
				<g>
					
						<ellipse transform="matrix(0.9999 -1.313921e-02 1.313921e-02 0.9999 -0.4128 8.559289e-02)" class="st19" cx="6.3" cy="31.5" rx="6.3" ry="4.4"/>
					
						<rect x="0" y="28.8" transform="matrix(0.9999 -1.314491e-02 1.314491e-02 0.9999 -0.3955 8.528635e-02)" class="st19" width="12.5" height="2.7"/>
					
						<ellipse transform="matrix(0.9999 -1.313928e-02 1.313928e-02 0.9999 -0.3779 8.490415e-02)" class="st20" cx="6.3" cy="28.8" rx="6.3" ry="4.4"/>
					
						<ellipse transform="matrix(0.9999 -1.313258e-02 1.313258e-02 0.9999 -0.3751 8.672077e-02)" class="st21" cx="6.4" cy="28.6" rx="2.2" ry="1.5"/>
				</g>
			</g>
			<path class="st17" d="M9.7,37.4c0,0.6-1.6,1.1-3.5,1.1c-1.9,0-3.4-0.3-3.5-1.1c-0.1-1,1.5-0.7,3.4-0.7
				C8.1,36.7,9.7,36.8,9.7,37.4z"/>
			<path class="st17" d="M9.7,40.8c0,0.6-1.6,1.1-3.5,1.1c-1.9,0-3.4-0.3-3.5-1.1c-0.1-1,1.5-0.7,3.4-0.7
				C8.1,40.1,9.7,40.2,9.7,40.8z"/>
			<path class="st17" d="M8.7,42.5c0,0.5-1.2,0.8-2.6,0.8s-2.6-0.2-2.6-0.8c0-0.7,1.1-0.5,2.6-0.5C7.5,42,8.7,42,8.7,42.5z"/>
			<path class="st17" d="M10.2,39.1c0,0.6-1.7,1.1-3.8,1.1c-2.1,0-3.7-0.3-3.8-1.1c-0.1-1,1.6-0.7,3.7-0.7
				C8.4,38.4,10.2,38.5,10.2,39.1z"/>
		</g>
		<path class="st3" d="M16.2,34.6c0,0-1.5,4.6,0,9.1h4.4c0,0-1.7-3.8,0-8.9L16.2,34.6z"/>
		<path class="st2" d="M115.8,34.8c0,0-2.9,6.4,0,8.9C115.8,43.6,119.1,36.7,115.8,34.8z"/>
		<g>
			<path class="st17" d="M72.8,37c0,0,0.1-0.1,0.2-0.2c0.7-0.6,3.8-2.8,6.4-3.1c8.5-0.9,44.7,3.6,44.7,3.6l1,3.6l-43.3,1.2L72.8,37z
				"/>
			<g>
				<g>
					
						<ellipse transform="matrix(1.313409e-02 -0.9999 0.9999 1.313409e-02 80.6382 176.7416)" class="st19" cx="129.9" cy="47.5" rx="4.4" ry="6.3"/>
					
						<rect x="128.5" y="39.9" transform="matrix(1.312793e-02 -0.9999 0.9999 1.312793e-02 81.9866 175.4463)" class="st19" width="2.7" height="12.5"/>
					
						<ellipse transform="matrix(1.314440e-02 -0.9999 0.9999 1.314440e-02 83.3321 174.15)" class="st20" cx="129.9" cy="44.9" rx="4.4" ry="6.3"/>
					
						<ellipse transform="matrix(1.314630e-02 -0.9999 0.9999 1.314630e-02 83.3857 173.8146)" class="st21" cx="129.8" cy="44.7" rx="1.5" ry="2.2"/>
				</g>
				<path class="st17" d="M122.6,41c-0.7-1.2-0.4-2.7,0.7-3.6c0.6-0.5,1.5-0.9,2.6-1.1c2.9-0.4,4.9-2,4.9-2s1,1-1.7,2.8
					c0,0,0.6,6.6-1.3,6.3C125.9,43,123.5,42.6,122.6,41z"/>
				<path class="st22" d="M126.8,36.9c-0.2,0.2-0.3,0.6-0.2,0.9c0.1,0.3,0.2,0.5-0.5,1c-0.4,0.3-0.4,0.8,0,1.1
					c0.1,0.1,0.4,0.3,0.4,0.4c-0.7,0.1-0.3,1.1,0.2,1.4l0.5,0.4c0.1,0.4,0.2,1,0.4,1.4c0.1,0,0.1,0,0.2,0c1.9,0.4,1.3-6.3,1.3-6.3
					c0.5-0.3-0.1-0.4,0.2-0.7C129,36.4,127.6,36.2,126.8,36.9z"/>
				
					<rect x="121.8" y="34.5" transform="matrix(1.313780e-02 -0.9999 0.9999 1.313780e-02 91.5187 165.9974)" class="st21" width="16.1" height="4.3"/>
				<g>
					
						<ellipse transform="matrix(1.313921e-02 -0.9999 0.9999 1.313921e-02 96.9015 161.1061)" class="st19" cx="130.1" cy="31.5" rx="4.4" ry="6.3"/>
					
						<rect x="128.8" y="23.9" transform="matrix(1.312951e-02 -0.9999 0.9999 1.312951e-02 98.2504 159.8109)" class="st19" width="2.7" height="12.5"/>
					
						<ellipse transform="matrix(1.313409e-02 -0.9999 0.9999 1.313409e-02 99.5974 158.5152)" class="st20" cx="130.1" cy="28.8" rx="4.4" ry="6.3"/>
					
						<ellipse transform="matrix(1.311887e-02 -0.9999 0.9999 1.311887e-02 99.6532 158.1803)" class="st21" cx="130" cy="28.6" rx="1.5" ry="2.2"/>
				</g>
			</g>
			<path class="st17" d="M126.7,37.4c0,0.6,1.6,1.1,3.5,1.1s3.4-0.3,3.5-1.1c0.1-1-1.5-0.7-3.4-0.7
				C128.3,36.7,126.7,36.8,126.7,37.4z"/>
			<path class="st17" d="M126.7,40.8c0,0.6,1.6,1.1,3.5,1.1s3.4-0.3,3.5-1.1c0.1-1-1.5-0.7-3.4-0.7
				C128.3,40.1,126.7,40.2,126.7,40.8z"/>
			<path class="st17" d="M127.7,42.5c0,0.5,1.2,0.8,2.6,0.8c1.4,0,2.6-0.2,2.6-0.8c0-0.7-1.1-0.5-2.6-0.5
				C128.9,42,127.7,42,127.7,42.5z"/>
			<path class="st17" d="M126.2,39.1c0,0.6,1.7,1.1,3.8,1.1c2.1,0,3.7-0.3,3.8-1.1c0.1-1-1.6-0.7-3.7-0.7
				C128,38.4,126.2,38.5,126.2,39.1z"/>
			<path class="st18" d="M73.1,36.8c-0.1,0.1-0.2,0.2-0.2,0.2l9,5.1l34.6-1c-13.9-2.8-27-1.1-41.8-4.4C74,37.2,73.3,36.6,73.1,36.8z
				"/>
		</g>
		<path class="st23" d="M60.4,16.9c1.1,1.7,1.2,4.4-0.2,5.3c-1.4,0.9-3.8-0.4-4.8-2.1c-1.1-1.7-0.8-3.8,0.6-4.6
			C57.4,14.5,59.3,15.2,60.4,16.9z"/>
		<path class="st23" d="M73.9,17.3c-1.2,1.6-1.5,4.3-0.2,5.3c1.3,1,3.8-0.2,5-1.8c1.2-1.6,1.1-3.7-0.2-4.7
			C77.1,15.2,75.1,15.7,73.9,17.3z"/>
		<g>
			<defs>
				<path id="SVGID_1_" d="M56.3,36.3c8.3-2.6,6-11.1,6-11.1l3.8-0.5v-0.1l0.3,0l0.3,0v0.1l3.8,0.5c0,0-2.3,8.6,6,11.1
					c5.9,1.8,1.1,6,1.7,16.2l-11.6-0.8h-0.6l-8.4,0.8C58.4,42.3,48,38.9,56.3,36.3z"/>
			</defs>
			<clipPath id="SVGID_2_">
				<use xlink:href="#SVGID_1_"  style="overflow:visible;"/>
			</clipPath>
			<path class="st24" d="M76.6,36.3c-8.3-2.6-6-11.1-6-11.1l-3.8-0.5v-0.1l-0.3,0l-0.3,0v0.1l-3.8,0.5c0,0,2.3,8.5-6,11.1
				c-0.9,0.3-1.6,0.5-2.4,0.8c-0.1,4.8,0.6,9.7,1.7,14.6h10.5h0.6h8.7c1.2-4.9,2.1-9.8,2.6-14.9C77.6,36.7,77.1,36.5,76.6,36.3z"/>
			<g class="st25">
				<path class="st26" d="M62.6,27.2c-0.1-1.2-0.3-2-0.3-2l3.8-0.5v-0.1l0.3,0l0.3,0v0.1l3.8,0.5c0,0-0.4,1.4-0.3,3.2
					C69.5,30.2,66.5,32.5,62.6,27.2z"/>
				<g>
					<g>
						<g>
							<g>
								<path class="st27" d="M62.9,27c-0.1,0-0.1,0.1-0.1,0.1L62.9,27L62.9,27z"/>
								<path class="st27" d="M62.8,27.4c0.1,0,0.3-0.1,0.4-0.2C63,27.3,63.1,27.2,62.8,27.4c0-0.1,0.1-0.2,0.2-0.2
									c-0.1,0,0-0.1-0.1,0c-0.1,0.1-0.1,0.2,0.1,0.1C62.9,27.4,62.8,27.4,62.8,27.4z"/>
								<path class="st27" d="M64.9,30L64.9,30C64.9,30,64.9,30,64.9,30z"/>
								<path class="st27" d="M67,30.9C67,30.9,66.9,30.9,67,30.9C67,30.9,67,30.9,67,30.9z"/>
								<path class="st27" d="M67.4,31.1C67.4,31.1,67.4,31.1,67.4,31.1C67.4,31.1,67.4,31.1,67.4,31.1z"/>
								<path class="st27" d="M64.9,30L64.9,30C65,30,65,30,64.9,30z"/>
								<path class="st27" d="M63.5,27.4C63.4,27.4,63.4,27.4,63.5,27.4L63.5,27.4L63.5,27.4z"/>
								<path class="st27" d="M64.1,29.5L64.1,29.5C64,29.6,64,29.6,64.1,29.5L64.1,29.5z"/>
								<path class="st27" d="M63.5,29.1c0,0,0.1-0.1,0.2-0.2C63.7,29,63.6,29,63.5,29.1C63.6,29,63.6,29,63.5,29.1z"/>
								<path class="st27" d="M63,28L63,28L63,28z"/>
								<path class="st27" d="M64.5,29.9C64.4,29.9,64.4,30,64.5,29.9C64.4,30,64.5,29.9,64.5,29.9z"/>
								<path class="st27" d="M63.4,26.3C63.4,26.3,63.4,26.3,63.4,26.3C63.4,26.3,63.4,26.3,63.4,26.3z"/>
								<polygon class="st27" points="62.6,27.2 62.6,27.2 62.5,27.2 								"/>
								<path class="st27" d="M68.2,31.2L68.2,31.2C68.2,31.2,68.2,31.2,68.2,31.2z"/>
								<path class="st27" d="M71.3,25.3c-0.2,0.2-0.2-0.1-0.4,0.2C71,25.4,71.1,25.5,71.3,25.3z"/>
								<path class="st27" d="M63.4,27.5C63.5,27.5,63.5,27.5,63.4,27.5C63.5,27.5,63.5,27.5,63.4,27.5z"/>
								<polygon class="st27" points="70.9,25.5 70.9,25.5 70.8,25.5 								"/>
								<path class="st27" d="M69.8,30.3C69.8,30.3,69.7,30.3,69.8,30.3C69.7,30.3,69.7,30.3,69.8,30.3z"/>
								<path class="st27" d="M68.5,30.7L68.5,30.7C68.6,30.7,68.5,30.7,68.5,30.7z"/>
								<path class="st27" d="M70.1,29.6C70.1,29.6,70.1,29.7,70.1,29.6C70.1,29.6,70.1,29.6,70.1,29.6
									C70.1,29.6,70.1,29.7,70.1,29.6z"/>
								<polygon class="st27" points="70.5,29.1 70.5,29.1 70.5,29.1 								"/>
								<path class="st27" d="M63.4,25.8c0,0-0.1-0.1-0.1-0.1C63.3,25.7,63.3,25.8,63.4,25.8C63.3,25.8,63.3,25.8,63.4,25.8
									L63.4,25.8z"/>
								<path class="st27" d="M63.4,27.5C63.4,27.5,63.4,27.5,63.4,27.5L63.4,27.5C63.4,27.5,63.4,27.5,63.4,27.5z"/>
								<path class="st27" d="M69.1,28.7L69.1,28.7C69.1,28.7,69.1,28.7,69.1,28.7z"/>
								<path class="st27" d="M66.9,25.5L66.9,25.5C66.9,25.5,66.9,25.5,66.9,25.5z"/>
								<path class="st27" d="M69.2,28.5c0.1,0,0.1,0,0.1,0C69.4,28.5,69.3,28.5,69.2,28.5L69.2,28.5z"/>
								<path class="st27" d="M63.3,25.7L63.3,25.7L63.3,25.7z"/>
								<path class="st27" d="M63.5,26.1C63.5,26.1,63.5,26.1,63.5,26.1c-0.1-0.1-0.3-0.2-0.4-0.3C63,25.7,63.3,25.9,63.5,26.1
									c-0.1-0.1-0.3-0.3-0.3-0.3c0,0,0,0,0.1,0.1c-0.1-0.2,0,0-0.1-0.2l0,0.1l-0.1-0.1c0-0.1-0.1-0.1-0.1-0.2c0,0,0-0.1,0.1,0
									c0,0,0,0.1,0,0.1l0-0.1c0.1,0.2,0,0.1,0.1,0.2c0-0.1,0-0.3,0-0.2c0.1,0.2,0,0.1,0.1,0.3l-0.1-0.1c0.2,0.3,0,0,0.2,0.3
									c0,0.1,0-0.1,0-0.1c0-0.1,0-0.2-0.1-0.3c0.1-0.2,0.2,0.5,0.2,0.2c0-0.1,0-0.4,0.1-0.3l0,0.2c0.1,0,0-0.4,0.2-0.2
									c0,0.1-0.1,0.1-0.1,0.1c0.1,0.2,0-0.1,0.1-0.2l0,0.2c0.1,0,0.3-0.2,0.4-0.3c0,0.1,0,0.1,0,0.2c0.2-0.1,0.4,0,0.6,0.1l0-0.2
									c0,0,0,0.1,0,0.1c0.1,0.1,0-0.1,0-0.2c0,0,0.1,0.1,0,0.2c0.1-0.2,0.3-0.4,0.5-0.2l0,0.1c0.1,0.1,0.1-0.4,0.2-0.2l0,0
									c0.2,0,0.3,0,0.4,0l0.3,0l0.2-0.6c0,0,0,0,0-0.1l-0.7,0.6c0,0,0.1,0.1,0.1,0.1c0-0.2,0.2,0,0.3-0.1c0,0,0.1-0.1,0.1-0.2
									c0.2,0.2,0.1,0.2,0.3,0.3l-0.9-0.8c0,0,0,0,0,0c0,0,0,0,0.1,0.1l0.7,0.7c0-0.1,0.1-0.2,0.1-0.2l0,0.2l0.1-0.2l0,0.2l0.1,0
									c0,0,0-0.1,0-0.1c0.1-0.1,0.2,0.2,0.2,0.3l0.2-0.1c0,0.1-0.1,0.1-0.1,0.1c0.1-0.2,0,0.2,0.1,0c0,0,0-0.1,0-0.2
									c0,0.1,0.1,0.1,0.2,0.1l0,0.1c0.1,0.1,0.3,0,0.5,0c-0.1-0.1,0-0.3,0-0.3l0,0.2c0-0.1,0-0.1,0-0.2c0.1,0,0,0.2,0,0.3l0.1-0.1
									c0,0.1,0,0.1,0,0.2c0-0.1,0.1,0.2,0.2,0l0,0.1c0.2,0,0.3,0,0.4,0c0-0.2,0.1-0.1,0.1-0.3c0.1,0.1,0.2,0.2,0.3,0.2
									c0.1-0.1,0-0.1,0.1-0.2c0,0.2,0.1,0.2,0,0.3c0.2,0,0.1,0,0.3-0.1c0-0.1,0-0.1,0-0.1c0,0,0,0.1,0,0.1l0,0
									c0.1-0.1,0.1,0,0.1,0.1c0,0.1-0.1,0.2,0.1,0l0,0c0.1-0.1,0.2-0.1,0.2-0.1c0,0-0.1,0.1-0.3,0.2c0,0,0,0,0.1,0
									c0.2-0.1-0.1,0.1,0.1,0.1c-0.3,0.1-0.3,0.1-0.2,0.1c0,0,0.1,0-0.1,0l0.1,0c0.1,0-0.1,0-0.1,0.1c0.1,0,0.1,0,0.2,0
									c0.1,0.4-0.2,0.7-0.4,1.1c0,0.1,0.6,0.1,0.3,0.3l-0.2-0.1c0.1,0.1,0.1,0.3,0.1,0.4c0,0.1,0,0.2,0,0.2c0,0,0,0,0.1,0.1
									c0,0-0.1,0-0.1,0c-0.2,0,0,0.1,0.1,0.1c0,0-0.1,0-0.2,0c-0.1,0,0.2,0.1,0,0c0,0,0,0-0.1,0c0.1,0,0,0,0.1,0.1
									c-0.1,0,0,0.2-0.1,0.1c0.1,0.1-0.2,0.1,0.1,0.2c-0.2-0.2-0.3,0-0.2,0.1c-0.1-0.1-0.1,0-0.2-0.1c0,0,0,0.1,0.1,0.2
									c-0.3-0.2,0,0.3-0.3,0.1c0,0.2-0.1,0.4-0.2,0.5c-0.2-0.2,0.1-0.1-0.1-0.4c0,0.2,0,0.4-0.2,0.4c-0.1,0,0-0.1-0.1-0.2
									c-0.1,0.2-0.2,0.1-0.3,0.3c0,0,0-0.1,0-0.1c0,0-0.1,0,0,0.1l0,0c0.1,0.2,0,0.4,0.1,0.5c-0.1-0.4-0.2,0-0.2-0.5
									c0,0,0,0.1,0,0.2c0,0-0.1-0.1-0.1-0.2c-0.1,0.1,0,0.2-0.1,0.2c0-0.1,0-0.1,0-0.2c0,0.1,0,0.3-0.1,0.2c0,0,0-0.1,0-0.1
									c-0.1,0-0.2,0.4-0.3,0.2c0-0.3-0.1-0.1-0.1-0.3l-0.1,0.1l0,0.1c-0.1,0-0.1,0.2-0.2,0.1l0.1-0.1c0,0-0.1,0-0.1,0l0.1,0.1
									c-0.1,0.1,0,0.3-0.1,0.2c0,0-0.1,0-0.1-0.2l0,0c0,0.1-0.1,0.1-0.1,0.1c0-0.1,0.1-0.3,0.1-0.3c-0.1,0.2-0.2,0-0.3,0.2
									c0,0,0.1-0.2,0.1-0.2l-0.1,0.1c0-0.1,0-0.1,0-0.2c-0.1-0.1,0,0.3-0.1,0.1c0,0,0,0,0-0.1c-0.1-0.1-0.2,0-0.3-0.1
									c0.1-0.2,0.1,0,0.1-0.2c-0.1,0-0.4,0.1-0.5,0l0,0c-0.2,0.3,0-0.2-0.2-0.1c0,0,0.1-0.2,0.1-0.1c-0.1-0.1-0.2,0-0.4,0l0.1-0.1
									c0-0.1-0.1-0.1-0.1-0.2c-0.1,0.1-0.1,0-0.1,0.1c0.1-0.5-0.5,0-0.4-0.5c0,0,0.1,0,0.1,0l-0.2,0c-0.1,0.1,0,0.1-0.1,0.2
									c-0.1,0.1-0.1,0.1-0.2,0c0.1,0,0.2-0.2,0.2-0.3c0,0-0.1,0.1-0.1,0.1c0.1-0.2-0.2,0.2-0.2,0l0.1-0.1c-0.1,0-0.2,0-0.2,0
									c0.1-0.1,0.1,0,0.2-0.1c-0.1,0-0.3,0.1-0.2,0c0.1,0,0.1,0,0.1,0c0.1-0.2,0-0.1,0-0.2l0,0l0-0.1l0,0.1
									c-0.4,0.3-0.2-0.1-0.4,0.1c0.3-0.1,0.1-0.1,0.3-0.2c0-0.1,0-0.1,0.1-0.2c-0.1,0.1,0-0.1-0.2,0c0,0,0,0,0.1-0.1
									c-0.1,0-0.1,0.1-0.1,0.1c-0.2,0.1,0-0.3-0.3-0.3c-0.2,0-0.3,0.1-0.5,0.1c0.1-0.1,0.2-0.1,0.2-0.1c0-0.1,0-0.1-0.1-0.1
									c0,0,0.1-0.1,0.1-0.1c0,0-0.2,0.1-0.2,0c0.1,0,0.2-0.1,0.2-0.1c-0.1,0-0.2,0-0.3,0c0.1-0.1,0.2-0.1,0.2-0.1
									c-0.1,0-0.2-0.1-0.3,0l0,0.1c0,0,0.1-0.1,0.1-0.1c0.1,0,0,0.1,0,0.1l-0.1,0c-0.3,0.3,0.2,0.1,0.2,0.2L63,27.8l0.2-0.1
									c0,0.1-0.1,0.2-0.2,0.2c-0.1,0.1,0.1,0,0,0.1c0,0,0,0,0,0l0.1,0c0,0-0.1,0.1-0.1,0.1c0,0.2,0.3,0,0.1,0.2l0,0
									c0.2,0.1,0.2-0.1,0.4-0.2l-0.3,0.4l0.2-0.1c0,0,0,0,0,0.1c0.1,0,0.1-0.1,0.2-0.1c-0.1,0.2,0.2,0.1,0,0.3
									c0.1-0.1,0-0.1,0.2-0.1c-0.2,0.2,0.1,0,0,0.2c-0.1,0.1-0.1,0-0.2,0.1c0.2-0.2,0,0.1,0.1,0.2c0.2-0.2,0.2,0,0.3,0
									c-0.1,0.1,0.1,0.2,0.1,0.3l0,0c0.2-0.2,0.2-0.1,0.3-0.1c-0.1,0.1-0.1,0.1-0.2,0.2l0.1,0c0.1,0,0.1-0.1,0.2-0.1l-0.1,0.1
									c0.1,0.1,0.3,0,0.3,0.1c0.1-0.1,0.2-0.4,0.4-0.4c-0.1,0.1-0.1,0.2-0.2,0.2c0,0,0.1,0,0.1,0l-0.1,0.1c0,0.1,0.1-0.1,0.1,0
									c-0.1,0.1,0,0.1-0.1,0.2c0,0,0-0.1,0,0c0,0,0,0.1,0,0.2c0-0.1,0.1-0.1,0.1-0.1c0.1,0-0.1,0.1-0.1,0.2c0.1-0.1,0.1,0,0.2-0.1
									c0,0,0,0.1,0,0.1c0.1,0,0.2,0.1,0.3-0.1l0,0c0,0,0,0,0,0l0,0l0,0c0.2-0.1,0.2,0.3,0.4,0.3l0,0.1c0.1,0,0.2,0.1,0.3,0
									c0,0,0,0.1,0,0.2c0.1,0,0.1-0.1,0.2,0.1c-0.1,0.1,0,0.1-0.1,0c0.1,0.1,0,0.2,0.2,0.1c-0.1,0.1,0,0.2,0.1,0.2l0-0.1
									c0.1,0,0.1,0,0.1,0l-0.1,0.2c0.1,0.3,0.5-0.3,0.5,0.1c0.1-0.1-0.1-0.1,0-0.3c0.1,0,0.1,0.4,0.1,0.4c0.1,0.1,0.2-0.3,0.3-0.2
									c0-0.1,0-0.3,0.1-0.3c0.1,0,0.1,0.3,0,0.4c0,0,0,0,0,0c0,0-0.1,0,0,0.1l0-0.1c0,0.1,0.2,0.1,0.1,0.2c0.1-0.1,0-0.1,0-0.2
									c0.1,0.1,0.2,0,0.3,0.1c0,0,0-0.1,0-0.1c0.2,0.1,0.1-0.1,0.2-0.2c0.1,0.1,0,0.3,0.1,0.2c0.1,0.1,0,0.2,0,0.3
									c0.1-0.2,0.2,0.1,0.3,0.1l-0.1,0.1c0,0,0.1,0,0.1-0.1l-0.1-0.1c0,0,0.1,0,0.1,0.1c0-0.1-0.1-0.2,0-0.4
									c0.1,0.1,0.1-0.1,0.2,0.1c-0.2,0,0.1,0.2-0.1,0.2c0,0,0.1,0,0.1,0c0,0,0,0,0,0.1c0.2,0.1,0-0.2,0.2-0.3
									c0,0.1,0.1,0.2,0.1,0.2c-0.1,0-0.1-0.2-0.1-0.3c0.1,0,0.1-0.1,0.1-0.1l-0.1,0c0-0.1,0-0.1,0.1-0.2c0,0.1,0,0.1,0,0.1
									c0-0.2,0.2,0.1,0.3,0c0.1,0,0.1,0.2,0.2,0.2c0-0.2,0.2,0.1,0.2-0.1c-0.1-0.1-0.1-0.1-0.1-0.2L69,30.7l0-0.3
									c-0.1,0-0.1,0.1-0.1,0.1c0-0.1,0-0.1-0.1-0.2c0.2,0.2,0.1-0.2,0.2-0.1l0.2,0.3c0.2,0.1,0.1-0.3,0.3-0.3l-0.1,0
									c-0.1-0.1,0.1-0.1,0.1-0.2c0.1,0.1,0.1,0.1,0.2,0.2c-0.1-0.1,0.1-0.1,0-0.3l0.2,0.1c0.2-0.1-0.1-0.4,0-0.4
									c0.1,0.1,0.2,0.1,0.2,0.3c0,0,0.1,0,0-0.1c0.1,0,0-0.2,0.1-0.2c0-0.1-0.1-0.1-0.1-0.2c0,0,0,0,0,0c0,0,0-0.1-0.1-0.2
									c0.4,0.1,0.2-0.3,0.5-0.2c0-0.1,0.1-0.3,0.1-0.3c0,0,0.1,0,0,0c0.2-0.1-0.3-0.2-0.1-0.3c0.2,0,0.1,0.1,0.2,0.1
									c0.5,0.1,0-0.2,0.2-0.3l0,0c0.1-0.1-0.2-0.3-0.1-0.3c0,0,0,0,0.1,0c-0.2-0.1-0.3-0.2-0.3-0.3c0.2,0,0.1,0,0.2,0
									c0,0-0.3,0-0.3-0.1c0.1,0,0.2-0.1,0.3-0.1l0,0.1c0.2,0,0-0.1,0-0.1l0.1,0c0-0.1-0.3-0.1-0.3-0.3l-0.1,0
									c-0.2-0.1,0.1-0.1,0-0.1l0.2,0c-0.1-0.1-0.2-0.2-0.3-0.3c0.2,0.1,0.3,0.2,0.4,0.2c0,0,0-0.2-0.1-0.2c0,0,0.1,0.1,0,0.1
									c-0.2-0.1-0.3-0.2-0.3-0.3c0.5,0.1,0.1-0.2,0.5-0.3c-0.2-0.2,0.1-0.5,0.2-0.9c-0.4,0.2,0-0.1-0.4,0.1c0-0.1,0-0.1,0-0.1
									c0.1-0.1,0.2-0.2,0.3-0.3c0.1-0.1,0.1,0,0.2,0c0.1-0.2,0.2-0.2,0.4-0.4c-0.2,0.1-0.2,0.1-0.1-0.1l-0.3,0.3
									c-0.1-0.1,0.1-0.3,0.2-0.4c0,0,0-0.1-0.2,0l0.2-0.1c-0.2,0-0.5-0.1-0.9,0.2c0,0,0.1-0.1,0.1-0.2c-0.3-0.1-0.9,0.2-1,0
									l0.1-0.1c-0.1,0-0.1,0.2-0.2,0.1c0,0,0-0.1,0-0.1c0,0-0.2,0.1-0.2,0.1l0.1-0.1c-0.2-0.1-0.3,0.2-0.5,0.3
									c0-0.3-0.1-0.4-0.2-0.4l0,0c-0.2-0.1-0.4,0.2-0.6,0.3c-0.1-0.3-0.4-0.2-0.6-0.4c0,0.1,0,0.2-0.1,0.2c0-0.1-0.1,0.2-0.1-0.1
									l0,0c0-0.3-0.1-0.2-0.2-0.2l-0.1,0.3c-0.1-0.5-0.5,0.1-0.6-0.3c0,0,0,0-0.1,0.1l0.6,0.7c0,0,0,0-0.1-0.1L66.7,24
									c0,0,0,0,0,0l0-0.2c-0.1,0-0.1,0-0.1,0c0,0,0,0,0,0c0,0,0,0,0,0l0-0.1c0,0-0.1,0.5-0.2,0.5l0-0.3c0,0,0,0,0,0l-0.6-0.2
									l-0.2,0.9c0,0,0,0,0,0.1l0.6-0.7c-0.1,0-0.2-0.1-0.3,0.1c0,0,0-0.1,0-0.1c-0.1,0-0.3-0.1-0.2,0.2c0-0.2-0.2,0-0.2,0.1l0-0.2
									c0,0.2,0,0.3-0.1,0.4c0,0,0-0.1,0-0.1c-0.1-0.1,0,0.2-0.1,0.1l0-0.1c-0.1,0-0.1,0.1-0.1,0.2c0,0.1-0.2,0-0.2-0.2
									c0,0.1,0,0.2-0.1,0.2c0-0.1,0-0.1,0-0.1c-0.1-0.1-0.2,0.2-0.3,0.1c0-0.1,0-0.1,0-0.1c0.1,0,0.2,0,0.2,0
									c0-0.2-0.1-0.2-0.1-0.4c-0.1,0.1-0.1,0.4-0.2,0.3c0,0,0,0,0-0.1l0,0c0,0,0,0,0,0c0,0,0,0-0.1,0c0-0.1-0.1-0.1-0.1-0.1
									c0,0.2,0,0.2,0,0.3c0,0,0,0,0,0c0,0,0,0,0,0c0,0,0,0,0,0c0,0,0.1,0,0.1,0c0,0.1,0,0.2-0.1,0.1c0,0.1,0,0.2,0,0.3
									c-0.1-0.2-0.2-0.4-0.2-0.5c-0.1,0.1-0.3,0.1-0.3,0.4c0,0-0.1-0.1-0.1-0.1c0,0,0,0,0-0.1c0,0.1-0.3,0.1-0.2,0.3
									c-0.2-0.1,0-0.2-0.2-0.2l0-0.1c-0.3-0.2-0.4,0-0.4,0.2c0,0.2,0,0.3-0.3,0.2c0,0,0.1,0,0.1,0c-0.1,0-0.2,0-0.2,0.1
									c0,0.2,0.1,0.4-0.1,0.6c0,0.1,0,0.1-0.1,0.2c0,0.1,0.1,0.2,0.2,0.2l-0.2,0c0.1,0,0.2,0.1,0.2,0.1c0.2,0.1-0.4,0.3-0.1,0.4
									l0.1,0c0,0.1,0.1,0.2-0.1,0.2c0,0,0.1,0,0.1,0l-0.1,0l0.2,0.1c-0.1,0.1-0.4,0-0.4,0.2c0,0.1,0.3,0.2,0.4,0.1
									c0,0,0.1-0.1,0.2-0.1l0.1,0.1c0.3,0,0.6,0,0.8-0.1L63.2,27l0.1,0l0,0.1c0.1-0.1,0-0.1-0.1-0.1c0.1,0,0.1,0,0.2-0.1l-0.3-0.1
									c0.1,0,0.2,0,0.3,0c-0.1,0-0.3,0.1-0.3,0c0.1-0.1,0.2-0.1,0.1-0.1c0.1,0,0.1,0,0.2,0c-0.1,0,0-0.1-0.2-0.1
									c0.2-0.1-0.1-0.2,0.2-0.2c-0.1,0-0.2-0.1-0.2-0.1c0.2,0,0.2,0,0.2-0.1C63.3,26.1,63.3,26.1,63.5,26.1c-0.4,0-0.2,0-0.4-0.1
									c0,0,0.1,0,0.1,0c0,0,0.1,0,0.1,0l0.1,0c-0.3-0.1-0.3-0.1-0.5-0.2C63.1,25.9,63.2,26,63.5,26.1c-0.3-0.1-0.3-0.2-0.5-0.2
									c0.2,0.1,0.1,0,0.3,0.1c-0.3-0.2-0.1,0-0.3-0.2c0.2,0.1,0.3,0.2,0.2,0.1l0.1,0l0,0C63.4,26,63.5,26.1,63.5,26.1z M64.4,25.4
									L64.4,25.4C64.4,25.4,64.4,25.5,64.4,25.4C64.4,25.5,64.4,25.4,64.4,25.4z M64.6,25.4C64.6,25.4,64.5,25.4,64.6,25.4
									c-0.1-0.1-0.1-0.1-0.1-0.1C64.5,25.3,64.6,25.4,64.6,25.4z M64.1,24.2C64.1,24.2,64.1,24.2,64.1,24.2
									C64.1,24.3,64.1,24.3,64.1,24.2L64.1,24.2C64.1,24.3,64.1,24.3,64.1,24.2z"/>
								<path class="st27" d="M64.1,24.5C64,24.5,64,24.5,64.1,24.5C64,24.5,64.1,24.5,64.1,24.5L64.1,24.5L64.1,24.5z"/>
								<path class="st27" d="M64.9,30L64.9,30C64.9,30,64.9,29.9,64.9,30L64.9,30z"/>
								<polygon class="st27" points="66.7,25.6 66.7,25.5 66.7,25.6 								"/>
								<path class="st27" d="M64.5,28.9C64.5,28.9,64.6,28.9,64.5,28.9C64.5,28.8,64.5,28.9,64.5,28.9z"/>
								<path class="st27" d="M64.3,28.6L64.3,28.6C64.3,28.5,64.3,28.6,64.3,28.6z"/>
								<path class="st27" d="M64.1,28.3C64.1,28.3,64.1,28.3,64.1,28.3L64.1,28.3L64.1,28.3z"/>
								<path class="st27" d="M68.1,29.6C68.1,29.6,68.1,29.6,68.1,29.6C68.1,29.6,68.1,29.6,68.1,29.6z"/>
								<path class="st27" d="M66.9,30.2C66.9,30.1,66.9,30.1,66.9,30.2C66.9,30.1,66.9,30.1,66.9,30.2z"/>
								<polygon class="st27" points="69.1,28.7 69.1,28.7 69.1,28.7 								"/>
								<path class="st27" d="M67,30.1C67,30.1,66.9,30.1,67,30.1C66.9,30.1,67,30.1,67,30.1z"/>
								<path class="st27" d="M63.3,27.2L63.3,27.2C63.3,27.2,63.3,27.2,63.3,27.2L63.3,27.2z"/>
								<path class="st27" d="M63.3,27.2L63.3,27.2C63.2,27.2,63.2,27.2,63.3,27.2z"/>
								<path class="st27" d="M63.2,27.2L63.2,27.2C63.2,27.2,63.2,27.2,63.2,27.2z"/>
								<path class="st27" d="M63.5,27.6L63.5,27.6C63.5,27.6,63.5,27.6,63.5,27.6z"/>
								<path class="st27" d="M63.6,27.7c0,0,0.1-0.1,0-0.2l0,0C63.6,27.5,63.5,27.7,63.6,27.7z"/>
								<path class="st27" d="M63.3,28.6l0-0.1c0,0.1-0.1,0.1-0.1,0.1C63.1,28.8,63.3,28.5,63.3,28.6z"/>
								<path class="st27" d="M63.5,28.9c-0.1,0-0.1,0.1-0.1,0.1C63.5,29,63.5,29,63.5,28.9z"/>
								<path class="st27" d="M65.6,30.5l-0.1,0.1C65.6,30.6,65.5,30.6,65.6,30.5z"/>
								<polygon class="st27" points="66.3,29.9 66.3,29.8 66.2,29.9 								"/>
								<polygon class="st27" points="66.3,31.1 66.2,31.1 66.3,31.1 								"/>
								<path class="st27" d="M70.6,29.3l-0.2-0.1C70.4,29.2,70.6,29.4,70.6,29.3z"/>
								<path class="st27" d="M70.8,27.2C70.9,27.2,70.9,27.2,70.8,27.2C70.8,27.2,70.7,27.2,70.8,27.2z"/>
								<polygon class="st27" points="67.4,24 67.4,24 67.4,24 								"/>
							</g>
						</g>
					</g>
				</g>
			</g>
		</g>
		<path class="st23" d="M75.8,9.4c0.1,0.2,1.9,11.8-2.4,16.1c-4.3,4.3-11.7,1.8-13.5-2.7c-1.6-3.8-1.9-11,1.2-15.4
			C64.2,3.1,72.9,0.7,75.8,9.4z"/>
		<g>
			<g>
				<path class="st26" d="M70.2,12.6c-0.1,1.4-0.3,2.8-0.4,4.2c-0.1,0.7-0.1,1.5-0.2,2.2c-0.1,0.4,0.2,0,0,0
					c-0.3,0.1-0.7,0.1-1.1,0.2c-0.3,0.1-0.2,0.5,0.1,0.5c0.4-0.1,0.8-0.2,1.3-0.2c0.1,0,0.2-0.1,0.2-0.2c0.2-2.2,0.4-4.4,0.6-6.6
					C70.7,12.3,70.2,12.3,70.2,12.6L70.2,12.6z"/>
			</g>
		</g>
		<ellipse transform="matrix(0.999 -4.383546e-02 4.383546e-02 0.999 -0.6514 2.867)" cx="65" cy="16.3" rx="0.5" ry="0.7"/>
		<ellipse transform="matrix(0.999 -4.387993e-02 4.387993e-02 0.999 -0.6556 3.1811)" cx="72.1" cy="16.5" rx="0.5" ry="0.7"/>
		<g>
			<g>
				<path class="st26" d="M57.1,17.8c0.7,0,1.3,0.6,1.1,1.3c-0.1,0.4-0.5,0.6-0.8,0.3c-0.5-0.5,0.4-0.7,0.7-0.3
					c0.2,0.2,0.5-0.1,0.3-0.3C58,18.4,57,18.2,56.8,19c-0.1,0.7,0.6,1.3,1.2,1.1c0.8-0.2,0.8-1.4,0.4-2c-0.3-0.5-0.9-0.7-1.4-0.8
					C56.8,17.3,56.8,17.8,57.1,17.8L57.1,17.8z"/>
			</g>
		</g>
		<g>
			<g>
				<path class="st26" d="M77.8,17.9c-0.5,0-1.1,0.3-1.4,0.7c-0.4,0.6-0.4,1.8,0.4,2c0.6,0.2,1.3-0.4,1.2-1.1
					c-0.1-0.8-1.2-0.7-1.7-0.2c-0.2,0.2,0.1,0.6,0.3,0.3c0.3-0.4,1.2-0.2,0.7,0.3c-0.3,0.4-0.7,0.1-0.8-0.3
					c-0.1-0.7,0.4-1.3,1.1-1.3C78.1,18.4,78.1,17.9,77.8,17.9L77.8,17.9z"/>
			</g>
		</g>
		<g>
			<ellipse class="st28" cx="73.1" cy="20.5" rx="1.6" ry="1.3"/>
		</g>
		<g>
			<ellipse class="st28" cx="62.6" cy="19.6" rx="1.6" ry="1.3"/>
		</g>
		<ellipse class="st26" cx="67.6" cy="24.5" rx="0.4" ry="0.2"/>
		<path d="M63.5,12.9c0.1,0.4,0.8,0.2,1.6,0c0.9-0.2,1.6-0.2,1.5-0.6c-0.1-0.4-0.8-0.5-1.7-0.4C64.1,12.1,63.5,12.5,63.5,12.9z"/>
		<path d="M71.5,12.7c-0.1,0.4,0.6,0.4,1.5,0.6c0.9,0.2,1.5,0.3,1.6,0s-0.6-0.8-1.4-1C72.3,12.1,71.5,12.3,71.5,12.7z"/>
		<path class="st6" d="M80.4,33.7c-0.8-0.3-7.8,0.4-7.8,0.3c-4.5,4.6-11.3,1.1-12.4,0.1c-1.4-0.6-4.6-0.8-7.8-0.5
			c-0.2,0.9,0,7.1-0.1,8c-0.7,6.1-0.9,34.9-0.9,34.9s21.3,4.4,32.8-3.1c0,0-2-24-2.3-27.5C81.6,42.9,82.1,36.3,80.4,33.7z"/>
		<g>
			<defs>
				<path id="SVGID_3_" d="M69.2,21c-0.4,0-0.8-0.1-1.2-0.3c-0.5-0.3-1.3-0.7-2.1-0.4c-1.3,0.5-1.3,3.4,2,3.7
					c3.1,0.2,2.9-2.1,2.5-2.7C70.1,20.9,69.5,21,69.2,21z"/>
			</defs>
			<clipPath id="SVGID_4_">
				<use xlink:href="#SVGID_3_"  style="overflow:visible;"/>
			</clipPath>
			<path class="st29" d="M69.2,21c-0.4,0-0.8-0.1-1.2-0.3c-0.5-0.3-1.3-0.7-2.1-0.4c-1.3,0.5-1.3,3.4,2,3.7c3.1,0.2,2.9-2.1,2.5-2.7
				C70.1,20.9,69.5,21,69.2,21z"/>
			<path class="st30" d="M70.7,20.5c0,0,0.6,1.4-1.3,1.2c-3.8-0.3-4-0.9-3.7-2.2L70.7,20.5z"/>
			<path class="st31" d="M70.3,23.7c0,0-0.6-1.2-2.4-1.4C66,22.2,65.3,23,65.3,23S66.8,25.1,70.3,23.7z"/>
		</g>
		<path class="st3" d="M120.2,34.6c0,0,1.5,4.6,0,9.1h-4.4c0,0,1.7-3.8,0-8.9L120.2,34.6z"/>
		<path d="M58.5,15.2c0,0,0.4,2.4,2.3,1.5c1.9-0.9,0.5-6.7,0.5-6.7l-6.8,1.4c0,0-1.7,3.1,1,4.3C55.5,15.7,56.6,14.6,58.5,15.2z"/>
		<path d="M76,11.9c0,0-0.9,5.1-0.2,5.2c0.7,0.1,0.7-1.4,2-1.3C77.8,15.8,79.5,12,76,11.9z"/>
		<path d="M54.4,8.5c0,0-2.1-1.9-0.1-3.9c2-2,4.2-1.5,4.2-1.5s1.5-2.9,5.3-3S68,1.8,68,1.8s2.5-2.4,5.9-0.8c3.3,1.6,2.4,3.9,2.4,3.9
			S78,5,78.7,6.3c0.6,1.3-1.3,2.2-1.3,2.2H54.4z"/>
		<g>
			<path class="st32" d="M77.4,12.2c0,0-12.4-2.1-23-0.7c0,0-0.8-0.8,0-3c0,0,10.7-2.3,23,0C77.4,8.5,78.5,10.6,77.4,12.2z"/>
			<path class="st3" d="M54.4,8.5c-0.8,2.2,0,3,0,3c0.8-0.1,1.7-0.2,2.5-0.3c0.1-1.1,0.2-2.2,0.5-3.2C55.6,8.3,54.4,8.5,54.4,8.5z"
				/>
			<path class="st3" d="M68.3,7.6c-2.1-0.1-4,0-5.8,0c0.3,1.2,0.2,2.3,0.1,3.5c2,0,3.9,0.1,5.7,0.2C68.4,10,68.3,8.8,68.3,7.6z"/>
			<path class="st3" d="M77.4,8.5C76.2,8.3,75,8.1,73.8,8c0,1.3,0,2.5,0,3.8c2.2,0.3,3.6,0.5,3.6,0.5C78.5,10.6,77.4,8.5,77.4,8.5z"
				/>
		</g>
		<path class="st5" d="M60.2,34.2c0,0,3.1,2,6.9,1.8s5.5-1.9,5.5-1.9l1.1-0.1c0,0-1.7,3.5-6.5,3.5s-8-2.3-8.3-3.7
			C58.9,33.8,59.8,33.9,60.2,34.2z"/>
		<path class="st5" d="M52.3,33.6c0,0,0.2,7.6-0.2,8.6L51,42.1l0.2-8.4L52.3,33.6z"/>
		<path class="st5" d="M80.4,33.7c0,0,1.2,4.4,1.3,8.5l1,0c0,0-0.2-6.9-1.5-8.5L80.4,33.7z"/>
		<path class="st5" d="M51.3,76.5c0,0,7.4,2.7,16.8,2c9.4-0.7,16-5.1,16-5.1L84,72.2c0,0-8.4,3.9-16.2,4.2
			c-7.8,0.3-16.5-1.7-16.5-1.7V76.5z"/>
		<g>
			<circle class="st14" cx="34.7" cy="146.4" r="1"/>
			<path class="st14" d="M24.2,146.5c0,0,2.2,0.8,4.8,1c0.2,0,0.3-0.1,0.4-0.2l0,0c0.1-0.2,0-0.5-0.3-0.5l-3.9-0.7L24.2,146.5z"/>
			<path class="st14" d="M27.4,144.9c0,0,1.7,0.5,3.5,0.7c0.1,0,0.2-0.1,0.3-0.2l0,0c0.1-0.2,0-0.4-0.1-0.5l-2.7-0.6L27.4,144.9z"/>
		</g>
		<g>
			<circle class="st14" cx="100.9" cy="146.4" r="1"/>
			<path class="st14" d="M111.5,146.5c0,0-2.2,0.8-4.8,1c-0.2,0-0.3-0.1-0.4-0.2l0,0c-0.1-0.2,0-0.5,0.3-0.5l3.9-0.7L111.5,146.5z"
				/>
			<path class="st14" d="M108.3,144.9c0,0-1.7,0.5-3.5,0.7c-0.1,0-0.2-0.1-0.3-0.2l0,0c-0.1-0.2,0-0.4,0.2-0.5l2.7-0.6L108.3,144.9z
				"/>
		</g>
	</g>
</g>
</svg>
