<?xml version="1.0" encoding="utf-8"?>
<!-- Generator: Adobe Illustrator 21.1.0, SVG Export Plug-In . SVG Version: 6.00 Build 0)  -->
<svg version="1.1" id="Layer_1" xmlns="http://www.w3.org/2000/svg" xmlns:xlink="http://www.w3.org/1999/xlink" x="0px" y="0px"
	 viewBox="0 0 150 150" style="enable-background:new 0 0 150 150;" xml:space="preserve">
<style type="text/css">
	.st0{fill:#DD121F;}
	.st1{fill:#75C6BD;}
	.st2{opacity:0.3;fill:#FFFFFF;}
	.st3{fill:#7D7D7D;}
	.st4{fill:#696969;}
	.st5{fill:#262626;}
	.st6{fill:#333333;}
	.st7{fill:#141414;}
	.st8{fill:#919191;}
	.st9{fill:#787878;}
	.st10{fill:#525252;}
</style>
<g>
	<g>
		<rect x="46.7" class="st0" width="56.1" height="97.2"/>
		<rect x="50" y="4" class="st1" width="49.6" height="89.8"/>
		<polygon class="st2" points="99.5,39 50,55.6 50,37.4 99.5,20.8 		"/>
		<polygon class="st2" points="99.5,10.4 50,27 50,22.7 99.5,6.1 		"/>
		<polygon class="st2" points="99.5,74.9 50,91.5 50,87.2 99.5,70.6 		"/>
		<polygon class="st2" points="99.5,54.5 50,71.1 50,62.8 99.5,46.2 		"/>
	</g>
	<g>
		<rect x="3.5" y="59.8" class="st3" width="143.1" height="5"/>
		<rect x="29" y="59.8" class="st4" width="10.3" height="5"/>
		<rect x="110" y="59.8" class="st4" width="10.3" height="5"/>
		<rect x="42.5" y="59.5" class="st5" width="18" height="5.5"/>
		<rect x="88.7" y="59.5" class="st5" width="18" height="5.5"/>
		<rect x="133.6" y="44.9" class="st6" width="6.9" height="34.8"/>
		<rect x="133.6" y="44.9" class="st7" width="3.5" height="34.8"/>
		<rect x="124.2" y="37.3" class="st6" width="7.3" height="49.9"/>
		<rect x="124.2" y="37.3" class="st7" width="3.6" height="49.9"/>
		<rect x="9.2" y="44.9" class="st6" width="6.9" height="34.8"/>
		<rect x="12.7" y="44.9" class="st7" width="3.5" height="34.8"/>
		<rect x="18.2" y="37.3" class="st6" width="7.3" height="49.9"/>
		<rect x="21.9" y="37.3" class="st7" width="3.6" height="49.9"/>
	</g>
	<g>
		<path class="st8" d="M114.1,68.4v72.9H35.2V68.4h-2.3v74.3c0,1.7,1.4,3.1,3.1,3.1h77.3c1.7,0,3.1-1.4,3.1-3.1V68.4H114.1z"/>
		<rect x="31.1" y="56" class="st8" width="6.1" height="12.5"/>
		<rect x="112.2" y="56" class="st8" width="6.1" height="12.5"/>
		<rect x="32.9" y="68.4" class="st4" width="2.3" height="4.3"/>
		<rect x="114.1" y="68.4" class="st4" width="2.3" height="4.3"/>
	</g>
	<g>
		<path class="st0" d="M100.6,110H48.5V110c0-3.1,2.5-5.7,5.7-5.7H95C98.1,104.3,100.6,106.8,100.6,110L100.6,110z"/>
		<rect x="56.4" y="110" class="st9" width="36.5" height="4.8"/>
		<rect x="56.4" y="110" class="st10" width="36.5" height="2.4"/>
		<rect x="60.5" y="114.9" class="st9" width="4.2" height="35.1"/>
		<rect x="60.5" y="114.9" class="st10" width="4.2" height="4.5"/>
		<rect x="84.1" y="114.9" class="st9" width="4.2" height="35.1"/>
		<rect x="84.1" y="114.9" class="st10" width="4.2" height="4.5"/>
	</g>
	<rect x="64.7" y="133.4" class="st9" width="19.4" height="2.5"/>
	<rect x="64.7" y="133.4" class="st10" width="3.1" height="2.5"/>
	<rect x="81" y="133.4" class="st10" width="3.1" height="2.5"/>
</g>
</svg>
