<?xml version="1.0" encoding="utf-8"?>
<!-- Generator: Adobe Illustrator 21.1.0, SVG Export Plug-In . SVG Version: 6.00 Build 0)  -->
<svg version="1.1" id="Layer_1" xmlns="http://www.w3.org/2000/svg" xmlns:xlink="http://www.w3.org/1999/xlink" x="0px" y="0px"
	 viewBox="0 0 150 150" style="enable-background:new 0 0 150 150;" xml:space="preserve">
<style type="text/css">
	.st0{fill:#DC1F26;}
	.st1{opacity:0.3;}
	.st2{fill:#C2C2C2;}
	.st3{fill:#858585;}
	.st4{fill:#FFFFFF;}
	.st5{fill:#F7F7F7;}
	.st6{fill:#FBB68A;}
	.st7{fill:#202C38;}
	.st8{fill:#A01D21;}
	.st9{fill:#19222C;}
</style>
<g>
	<g>
		<rect x="83.9" y="1.1" class="st0" width="42.2" height="14.9"/>
		<path class="st1" d="M87.2,6.3L87.2,6.3c-1.2,0-2.1,0.9-2.1,2.1V16h4.2V8.4C89.3,7.2,88.4,6.3,87.2,6.3z"/>
		<path class="st1" d="M94.3,6.3L94.3,6.3c-1.2,0-2.1,0.9-2.1,2.1V16h4.2V8.4C96.4,7.2,95.5,6.3,94.3,6.3z"/>
		<path class="st1" d="M101.4,6.3L101.4,6.3c-1.2,0-2.1,0.9-2.1,2.1V16h4.2V8.4C103.5,7.2,102.6,6.3,101.4,6.3z"/>
		<path class="st1" d="M108.5,6.3L108.5,6.3c-1.2,0-2.1,0.9-2.1,2.1V16h4.2V8.4C110.6,7.2,109.7,6.3,108.5,6.3z"/>
		<path class="st1" d="M115.6,6.3L115.6,6.3c-1.2,0-2.1,0.9-2.1,2.1V16h4.2V8.4C117.7,7.2,116.8,6.3,115.6,6.3z"/>
		<path class="st1" d="M122.7,6.3L122.7,6.3c-1.2,0-2.1,0.9-2.1,2.1V16h4.2V8.4C124.8,7.2,123.9,6.3,122.7,6.3z"/>
		<path class="st2" d="M150,53.1H59.1v-0.4C59.1,31.9,72.7,15,89.6,15h29.9c16.9,0,30.5,16.9,30.5,37.7V53.1z"/>
		<path class="st3" d="M129.3,51.4c0-18.4-11.6-31-15.5-33.6h4.3c14.9,0,27.2,15.2,27.2,33.6H129.3z"/>
		<rect x="59.1" y="53.1" class="st0" width="90.9" height="46.3"/>
		<path class="st2" d="M135.3,119.5H73.7c-8.1,0-14.7-6.6-14.7-14.7v-5.4h91v5.4C150,112.9,143.4,119.5,135.3,119.5z"/>
		<path class="st4" d="M106.3,92.5H70.1c-1.9,0-3.4-1.5-3.4-3.4V62.9c0-1.9,1.5-3.4,3.4-3.4h36.2c1.9,0,3.4,1.5,3.4,3.4v26.2
			C109.7,91,108.2,92.5,106.3,92.5z"/>
		<path class="st0" d="M92.9,91.1h-9.4c-8.2,0-14.8-6.6-14.8-14.8V76c0-8.2,6.6-14.8,14.8-14.8h9.4c8.2,0,14.8,6.6,14.8,14.8v0.3
			C107.8,84.5,101.1,91.1,92.9,91.1z"/>
		<rect x="115.6" y="62.1" class="st5" width="28.7" height="6.6"/>
		<rect x="115.6" y="71.9" class="st5" width="28.7" height="6.6"/>
		<rect x="115.6" y="81.8" class="st5" width="28.7" height="6.6"/>
		<g>
			<path class="st6" d="M97.5,64c-0.6-0.2-3.7,0.1-3.7,0.1s-0.8,0.7-0.9,1.2s0.4,1.5,0.4,1.5s-1.1,0.3-1.1,1s0.8,2,1.1,2.4
				c0.2,0.4,0.8,0.5,0.9,0.7s0.1,0.6,0.1,0.6l0,0c-1.5,4.9-3.7,6.3-4.3,8c-1.6,0.2-1.3-3.3-9.2-2.3c-0.7-0.3-3.3-1.8-5.9-0.9v10.8
				c1.4-3.2,3.5-4.2,4.7-4c4,1.6,9.6,1.3,12.1,1.3c1.1,0,1.9-0.3,2.4-0.6c0.5,0.1,1-0.2,1.2-0.4c0.2-0.3,0.3-0.7,0.2-1.2
				c0.5-1.1,1.2-3.8,1.9-10.8l0,0c0,0,1.2-4.1,1.2-5.1C98.7,65.3,98.1,64.2,97.5,64z"/>
			<path class="st4" d="M85.5,75.1c-0.3,0-0.5-0.2-0.5-0.5v-5c0-0.3,0.2-0.5,0.5-0.5s0.5,0.2,0.5,0.5v5C86,74.9,85.7,75.1,85.5,75.1
				z"/>
			<path class="st4" d="M87.3,75.1c-0.1,0-0.2,0-0.3-0.1c-0.2-0.2-0.2-0.5,0-0.7l3.1-3.1c0.2-0.2,0.5-0.2,0.7,0s0.2,0.5,0,0.7
				L87.7,75C87.6,75,87.5,75.1,87.3,75.1z"/>
			<path class="st4" d="M83.6,75.1c-0.1,0-0.2,0-0.3-0.1l-3.2-3.2c-0.2-0.2-0.2-0.5,0-0.7s0.5-0.2,0.7,0l3.2,3.2
				c0.2,0.2,0.2,0.5,0,0.7C83.9,75,83.8,75.1,83.6,75.1z"/>
		</g>
		<path class="st3" d="M133.9,115.6h-4v-12.9h15.3v1.6C145.3,110.5,140.2,115.6,133.9,115.6z"/>
	</g>
	<g>
		<g>
			<path class="st7" d="M5.3,114.7l2.5-1.6l-1.7-4c-0.2-0.5-0.9-0.8-1.4-0.5l-1.9,1.1c-0.5,0.3-0.7,1-0.3,1.5L5.3,114.7z"/>
			<path class="st7" d="M7.8,112.3c0,0-0.4,1.8,8.3,3.7c9.5,2,19.5-1.2,19.5-1.2s-4.1,6.5-22.7,4.5C6.4,118.2,7.8,112.3,7.8,112.3z"
				/>
			<path class="st0" d="M35.6,114.8c2.3,0,20,8.3,27.8,10.8s26.4,2.9,26.3,9.6c0.5,1.7,0.1,8.5-5.5,9.9c-13.7,2.7-29.7,1.3-43.4,1.3
				c-11.9,0-22.2,1.8-25.8,1.3c-18.1,3.2-15-10.4-13.3-12.3c0-3.7,0.5-14,0.8-15.7c1.1-5.7,5.3-7.3,5.3-7.3S12.3,126.6,35.6,114.8z"
				/>
			<path class="st8" d="M12.2,146.6C0.4,151.4,0,137.3,1.7,135.4c0-1.1,0-2.7,0.1-4.6C7.1,131.7,11.8,138.2,12.2,146.6z"/>
			<path class="st9" d="M89.8,135.1c-0.9,6.8-5.8,8.7-5.8,8.7c-7.3,2.6-79.7,1.5-80.4,0.9c-1.6-1.2-1.9-7.7-1.8-9.8
				c-3.2,0.2-1.3,12.1,0.8,13.2c0.3,0.2,1.6,1.3,4.6,1.4l14.8,0.3c6.1,0.1,9.1-2,17.6-2c9.8,0,15.6,1.8,21.6,1.6l22.7-1.7
				c0.8-0.1,1.4-0.3,1.9-0.5C92.4,145.5,91.2,135.4,89.8,135.1z"/>
			<circle class="st4" cx="16.3" cy="132" r="4.5"/>
			<polygon class="st4" points="46.5,137.4 41.5,137.4 37.6,145.4 42.6,145.4 			"/>
			<polygon class="st4" points="40.5,135 35.6,135 30.8,145.4 35.7,145.4 			"/>
			<path class="st7" d="M32.3,116.6l-1.9-6.5c-0.2-0.6-0.1-1.3,0.2-1.8l0.7-1.3c0.3-0.7,1-1.1,1.7-1.3l4.1-0.9
				c1.2-0.2,2.3,0.4,2.8,1.5l0.2,0.5c0.2,0.6,0.2,1.2,0,1.8l-2.5,6.6l-2-0.5L32.3,116.6z"/>
			<path class="st7" d="M70.6,131.9c-0.1,0-0.2,0-0.3,0c-21.6-2.7-35.3-14-35.9-14.5c-0.7-0.6-1.7-0.5-1.9-0.8c0.5-2,5.6-3.3,6.1-3
				c3.5,2.4,19.6,11.8,37,14c1.5,0.2,0.6,1.1,0,2.5C74.8,131.6,71.9,131.9,70.6,131.9z"/>
		</g>
		<g>
			<path class="st7" d="M53.5,47.2l2.9,0.6l1.6-4.1c0.2-0.6-0.1-1.2-0.7-1.3l-2.1-0.6C54.6,41.6,54,42,54,42.6L53.5,47.2z"/>
			<path class="st7" d="M56.9,47.3c0,0-1.6,1,3.3,8.4c5.3,8.2,14.7,12.9,14.7,12.9s-7.5,1.7-19.3-12.8
				C51.8,50.4,56.9,47.3,56.9,47.3z"/>
			<path class="st0" d="M74.8,68.7c1.7,1.6,8.3,20,12,27.3s16.7,20.7,11.9,25.4c-0.9,1.6-5.9,6.1-10.9,3.1
				c-11.6-7.8-21.9-20.1-31.6-29.7c-8.5-8.4-16.9-14.4-19.1-17.3c-15.2-10.7-3.4-18-0.9-18.2c2.6-2.6,10.2-9.6,11.7-10.5
				c4.8-3.3,8.9-1.4,8.9-1.4S50,60.6,74.8,68.7z"/>
			<path class="st8" d="M35.8,74.7c-11.7-5-2.1-15.2,0.4-15.4c0.8-0.8,2-1.9,3.3-3.2C42.7,60.5,41.4,68.4,35.8,74.7z"/>
			<path class="st9" d="M98.7,121.4c-5.5,4.2-10.2,2-10.2,2c-7-3.3-57.4-55.3-57.5-56.2c-0.3-1.9,4.1-6.8,5.6-8.2
				c-2.4-2.1-9.5,7.6-8.8,9.9c0.1,0.3,0.2,2,2.3,4.2l10.2,10.7c4.3,4.3,7.8,5,13.9,11c6.9,6.9,9.7,12.3,14.2,16.4l17.2,14.9
				c0.6,0.4,1.2,0.8,1.6,1C93.3,130.6,99.5,122.6,98.7,121.4z"/>
			
				<ellipse transform="matrix(0.7071 -0.7071 0.7071 0.7071 -33.2237 54.2581)" class="st4" cx="48.9" cy="67.2" rx="4.5" ry="4.5"/>
			<polygon class="st4" points="66.5,92.4 63,88.9 54.6,91.8 58.1,95.3 			"/>
			<polygon class="st4" points="64,86.5 60.5,82.9 49.7,86.9 53.2,90.5 			"/>
			<path class="st7" d="M71.2,67.7l3.3-5.9c0.3-0.6,0.8-1,1.4-1.2l1.4-0.4c0.7-0.2,1.5-0.1,2.1,0.3l3.5,2.3c1,0.7,1.4,1.9,0.9,3
				l-0.2,0.5c-0.2,0.6-0.7,1-1.3,1.3l-6.5,2.9l-1.1-1.8L71.2,67.7z"/>
			<path class="st7" d="M87.4,105.5c-0.1-0.1-0.2-0.2-0.2-0.3C73.8,88.1,72.1,70.4,72,69.6c-0.1-0.9-0.9-1.5-0.8-1.9
				c1.8-1.1,6.3,1.6,6.4,2.2c0.7,4.2,5.5,22.2,16.2,36.1c0.9,1.2-0.4,1.2-1.8,1.8C90.6,108.3,88.4,106.5,87.4,105.5z"/>
		</g>
	</g>
</g>
</svg>
