<?xml version="1.0" encoding="utf-8"?>
<!-- Generator: Adobe Illustrator 21.1.0, SVG Export Plug-In . SVG Version: 6.00 Build 0)  -->
<svg version="1.1" id="Layer_1" xmlns="http://www.w3.org/2000/svg" xmlns:xlink="http://www.w3.org/1999/xlink" x="0px" y="0px"
	 viewBox="0 0 150 150" style="enable-background:new 0 0 150 150;" xml:space="preserve">
<style type="text/css">
	.st0{fill:#DD121F;}
	.st1{fill:#595959;}
	.st2{fill:#383838;}
	.st3{fill:#525252;}
	.st4{fill:#797979;}
	.st5{fill:#FFFFFF;}
	.st6{fill:#C2C2C2;}
	.st7{fill:#636363;}
	.st8{fill:#696969;}
	.st9{fill:#1C1C1C;}
</style>
<g>
	<path class="st0" d="M75.1,31.6c-8.7,0-15.8-7.1-15.8-15.8C59.3,7.1,66.4,0,75.1,0c8.7,0,15.8,7.1,15.8,15.8
		C90.9,24.5,83.8,31.6,75.1,31.6z M75.1,1.5c-7.9,0-14.3,6.4-14.3,14.3s6.4,14.3,14.3,14.3s14.3-6.4,14.3-14.3S83,1.5,75.1,1.5z"/>
	<g>
		
			<rect x="117.7" y="43.6" transform="matrix(0.7366 -0.6763 0.6763 0.7366 -1.3366 94.3823)" class="st1" width="5.5" height="10.6"/>
		<path class="st2" d="M118.1,45L118.1,45c-0.2-0.2-0.6-0.2-0.9,0.1l-2.1,1.9l0.7,0.8l2.1-1.9C118.2,45.7,118.3,45.3,118.1,45z"/>
		<path class="st2" d="M119.3,46.4L119.3,46.4c-0.2-0.2-0.6-0.2-0.9,0.1l-2.1,1.9l0.7,0.8l2.1-1.9C119.4,47,119.5,46.6,119.3,46.4z"
			/>
		<path class="st2" d="M120.5,47.7L120.5,47.7c-0.2-0.2-0.6-0.2-0.9,0.1l-2.1,1.9l0.7,0.8l2.1-1.9C120.6,48.3,120.7,47.9,120.5,47.7
			z"/>
		<path class="st2" d="M121.7,49L121.7,49c-0.2-0.2-0.6-0.2-0.9,0.1l-2.1,1.9l0.7,0.8l2.1-1.9C121.8,49.6,121.9,49.2,121.7,49z"/>
		<path class="st2" d="M123,50.3L123,50.3c-0.2-0.2-0.6-0.2-0.9,0.1l-2.1,1.9l0.7,0.8l2.1-1.9C123.1,50.9,123.1,50.5,123,50.3z"/>
		<path class="st2" d="M124.2,51.6L124.2,51.6c-0.2-0.2-0.6-0.2-0.9,0.1l-2.1,1.9l0.7,0.8l2.1-1.9C124.3,52.3,124.4,51.8,124.2,51.6
			z"/>
	</g>
	<g>
		
			<rect x="24.5" y="46.1" transform="matrix(0.6764 -0.7366 0.7366 0.6764 -26.3845 37.7669)" class="st1" width="10.6" height="5.5"/>
		<path class="st2" d="M32.2,45L32.2,45c0.2-0.2,0.6-0.2,0.9,0.1l2.1,1.9l-0.7,0.8L32.4,46C32.1,45.7,32,45.3,32.2,45z"/>
		<path class="st2" d="M31,46.4L31,46.4c0.2-0.2,0.6-0.2,0.9,0.1l2.1,1.9l-0.7,0.8l-2.1-1.9C30.9,47,30.8,46.6,31,46.4z"/>
		<path class="st2" d="M29.8,47.7L29.8,47.7c0.2-0.2,0.6-0.2,0.9,0.1l2.1,1.9l-0.7,0.8L30,48.6C29.7,48.3,29.6,47.9,29.8,47.7z"/>
		<path class="st2" d="M28.5,49L28.5,49c0.2-0.2,0.6-0.2,0.9,0.1l2.1,1.9l-0.7,0.8l-2.1-1.9C28.4,49.6,28.3,49.2,28.5,49z"/>
		<path class="st2" d="M27.3,50.3L27.3,50.3c0.2-0.2,0.6-0.2,0.9,0.1l2.1,1.9l-0.7,0.8l-2.1-1.9C27.2,50.9,27.1,50.5,27.3,50.3z"/>
		<path class="st2" d="M26.1,51.6L26.1,51.6c0.2-0.2,0.6-0.2,0.9,0.1l2.1,1.9l-0.7,0.8l-2.1-1.9C26,52.3,25.9,51.8,26.1,51.6z"/>
	</g>
	<path class="st3" d="M81.3,32.5H68.7V28c0-0.4,0.4-0.8,0.8-0.8h10.9c0.4,0,0.8,0.4,0.8,0.8V32.5z"/>
	<path class="st0" d="M80.9,21H69.1v0c0-2.7,2.2-4.9,4.9-4.9h2C78.7,16,80.9,18.3,80.9,21L80.9,21z"/>
	<rect x="72.5" y="21" class="st4" width="5" height="6.2"/>
	<circle class="st4" cx="75" cy="90.6" r="59.4"/>
	<circle class="st3" cx="75" cy="90.9" r="51.5"/>
	<circle class="st5" cx="75" cy="90.6" r="48.5"/>
	<path class="st0" d="M75,128.4c-21,0-38-17.1-38-38c0-21,17.1-38,38-38c21,0,38,17.1,38,38C113,111.4,96,128.4,75,128.4z M75,53.3
		c-20.5,0-37.1,16.6-37.1,37.1c0,20.5,16.6,37.1,37.1,37.1c20.5,0,37.1-16.6,37.1-37.1C112.1,69.9,95.5,53.3,75,53.3z"/>
	<circle class="st6" cx="75" cy="90.9" r="24.7"/>
	<g>
		<rect x="73.7" y="43.3" class="st0" width="2.1" height="6.4"/>
		
			<rect x="102.4" y="59.1" transform="matrix(0.7071 -0.7071 0.7071 0.7071 -11.0643 92.2664)" class="st0" width="6.8" height="0.8"/>
		
			<rect x="105.6" y="118.5" transform="matrix(0.7071 -0.7071 0.7071 0.7071 -55.013 110.6199)" class="st0" width="0.8" height="6.4"/>
		
			<rect x="40.5" y="121.4" transform="matrix(0.707 -0.7072 0.7072 0.707 -73.3246 66.5551)" class="st0" width="6.4" height="0.8"/>
		
			<rect x="43.2" y="56.2" transform="matrix(0.7071 -0.7071 0.7071 0.7071 -29.2243 48.2375)" class="st0" width="0.8" height="6.4"/>
		<rect x="57.8" y="46.5" transform="matrix(0.9266 -0.376 0.376 0.9266 -14.4138 25.5353)" class="st0" width="0.8" height="6.4"/>
		<rect x="33.5" y="71" transform="matrix(0.3712 -0.9286 0.9286 0.3712 -47.5943 78.1904)" class="st0" width="0.8" height="6.6"/>
		
			<rect x="31.5" y="108.5" transform="matrix(0.9105 -0.4134 0.4134 0.9105 -41.904 24.0399)" class="st0" width="6.2" height="0.8"/>
		
			<rect x="54" y="130.6" transform="matrix(0.4001 -0.9165 0.9165 0.4001 -85.7587 131.0038)" class="st0" width="6.3" height="0.8"/>
		
			<rect x="92.3" y="127.8" transform="matrix(0.9147 -0.4041 0.4041 0.9147 -45.0188 48.6308)" class="st0" width="0.8" height="6.2"/>
		
			<rect x="115.2" y="104.5" transform="matrix(0.3872 -0.922 0.922 0.3872 -28.4136 172.511)" class="st0" width="0.8" height="6.2"/>
		
			<rect x="111.9" y="72.7" transform="matrix(0.9181 -0.3963 0.3963 0.9181 -19.531 51.6483)" class="st0" width="6.6" height="0.8"/>
		<rect x="89.6" y="50" transform="matrix(0.4101 -0.912 0.912 0.4101 8.8706 114.3944)" class="st0" width="6.4" height="0.8"/>
		<rect x="115.6" y="89.3" class="st0" width="6.8" height="2.2"/>
		<rect x="74.1" y="131" class="st0" width="2.3" height="7"/>
		<rect x="27.6" y="89.8" class="st0" width="6.4" height="2.1"/>
	</g>
	<g>
		<ellipse transform="matrix(0.7094 -0.7048 0.7048 0.7094 -42.1837 79.4109)" class="st7" cx="75.2" cy="90.9" rx="1.5" ry="1.5"/>
	</g>
	<rect x="64.4" y="74.7" class="st8" width="20.7" height="3.5"/>
	<path class="st9" d="M77,93.3c1-0.7,1.5-2,1.2-3.1l33-25.4L76.8,88.2c-1-0.6-2.3-0.6-3.4,0.1c-1.1,0.8-1.5,2.2-1.1,3.5l-7.7,5.5
		l1,1.4l7.7-5.5C74.3,94.1,75.8,94.1,77,93.3z"/>
	<ellipse transform="matrix(0.8426 -0.5385 0.5385 0.8426 -37.0808 54.791)" class="st0" cx="75.2" cy="90.8" rx="1.5" ry="1.5"/>
</g>
</svg>
